<svg width="16" height="16" viewBox="0 0 16 16" fill="none" xmlns="http://www.w3.org/2000/svg">
<mask id="mask0_3901_3422" style="mask-type:alpha" maskUnits="userSpaceOnUse" x="2" y="3" width="12" height="10">
<path d="M5.8624 10.5836L3.54906 8.27025C3.42451 8.14542 3.25541 8.07526 3.07906 8.07526C2.90272 8.07526 2.73362 8.14542 2.60906 8.27025C2.34906 8.53025 2.34906 8.95025 2.60906 9.21025L5.39573 11.9969C5.65573 12.2569 6.07573 12.2569 6.33573 11.9969L13.3891 4.94358C13.6491 4.68358 13.6491 4.26358 13.3891 4.00358C13.2645 3.87875 13.0954 3.80859 12.9191 3.80859C12.7427 3.80859 12.5736 3.87875 12.4491 4.00358L5.8624 10.5836Z" fill="black"/>
</mask>
<g mask="url(#mask0_3901_3422)">
<rect width="16" height="16" fill="white"/>
</g>
</svg>
