<svg width="164" height="20" viewBox="0 0 164 20" fill="none" xmlns="http://www.w3.org/2000/svg">
<path d="M4.95 8.61C5.16333 8.87 5.31333 9.18667 5.4 9.56V6H6.2V13H5.4V11.44C5.31333 11.8133 5.16333 12.13 4.95 12.39C4.56333 12.8633 4.01333 13.1 3.3 13.1C2.57333 13.1 1.99 12.8633 1.55 12.39C1.11667 11.9167 0.9 11.2867 0.9 10.5C0.9 9.71333 1.11667 9.08333 1.55 8.61C1.99 8.13667 2.57333 7.9 3.3 7.9C4.01333 7.9 4.56333 8.13667 4.95 8.61ZM2.2 11.84C2.54 12.18 2.99 12.35 3.55 12.35C4.11 12.35 4.56 12.18 4.9 11.84C5.23333 11.5067 5.4 11.06 5.4 10.5C5.4 9.94 5.23333 9.49 4.9 9.15C4.56 8.81667 4.11 8.65 3.55 8.65C2.99 8.65 2.54 8.81667 2.2 9.15C1.86667 9.49 1.7 9.94 1.7 10.5C1.7 11.06 1.86667 11.5067 2.2 11.84ZM11.1765 9.05C10.8498 8.78333 10.4398 8.65 9.94648 8.65C9.45315 8.65 9.04315 8.78333 8.71648 9.05C8.39648 9.31 8.19982 9.66667 8.12648 10.12H11.7665C11.6932 9.66667 11.4965 9.31 11.1765 9.05ZM8.01648 8.61C8.50315 8.13667 9.14648 7.9 9.94648 7.9C10.7465 7.9 11.3898 8.13667 11.8765 8.61C12.3565 9.08333 12.5965 9.71333 12.5965 10.5L12.5865 10.69L12.5665 10.87H8.12648C8.19982 11.33 8.39648 11.69 8.71648 11.95C9.04315 12.2167 9.45315 12.35 9.94648 12.35C10.6598 12.35 11.1798 12.09 11.5065 11.57H12.4065C12.2198 12.05 11.9132 12.4233 11.4865 12.69C11.0532 12.9633 10.5398 13.1 9.94648 13.1C9.14648 13.1 8.50315 12.8633 8.01648 12.39C7.53648 11.9167 7.29648 11.2867 7.29648 10.5C7.29648 9.71333 7.53648 9.08333 8.01648 8.61ZM15.4047 10.05C16.178 10.1367 16.7347 10.2967 17.0747 10.53C17.428 10.77 17.6047 11.1167 17.6047 11.57C17.6047 12.59 16.8714 13.1 15.4047 13.1C13.938 13.1 13.2047 12.5233 13.2047 11.37H14.0047C14.0047 12.0233 14.4714 12.35 15.4047 12.35C16.338 12.35 16.8047 12.09 16.8047 11.57C16.8047 11.3367 16.7014 11.1633 16.4947 11.05C16.288 10.9367 15.9247 10.8533 15.4047 10.8C14.718 10.7267 14.2147 10.5767 13.8947 10.35C13.568 10.1167 13.4047 9.78333 13.4047 9.35C13.4047 8.38333 14.0714 7.9 15.4047 7.9C16.0647 7.9 16.568 8.05333 16.9147 8.36C17.2414 8.64667 17.4047 9.04333 17.4047 9.55H16.6047C16.6047 8.95 16.2047 8.65 15.4047 8.65C14.6047 8.65 14.2047 8.88333 14.2047 9.35C14.2047 9.56333 14.2947 9.72 14.4747 9.82C14.6547 9.92 14.9647 9.99667 15.4047 10.05ZM18.6512 13V8H19.4512V13H18.6512ZM19.4512 6.06C19.5512 6.16667 19.6012 6.29667 19.6012 6.45C19.6012 6.60333 19.5512 6.73333 19.4512 6.84C19.3445 6.94667 19.2112 7 19.0512 7C18.8912 7 18.7578 6.94667 18.6512 6.84C18.5512 6.73333 18.5012 6.60333 18.5012 6.45C18.5012 6.29667 18.5512 6.16667 18.6512 6.06C18.7578 5.95333 18.8912 5.9 19.0512 5.9C19.2112 5.9 19.3445 5.95333 19.4512 6.06ZM24.5984 8.6C24.8118 8.85333 24.9618 9.16667 25.0484 9.54V8H25.8484V12.7C25.8484 13.4733 25.6084 14.07 25.1284 14.49C24.6618 14.8967 24.0184 15.1 23.1984 15.1C22.4584 15.1 21.8618 14.93 21.4084 14.59C20.9418 14.2433 20.6684 13.7467 20.5884 13.1H21.3884C21.5418 13.9333 22.1451 14.35 23.1984 14.35C23.7784 14.35 24.2284 14.2133 24.5484 13.94C24.8818 13.66 25.0484 13.2467 25.0484 12.7V11.36C24.9618 11.7333 24.8118 12.0467 24.5984 12.3C24.2118 12.7667 23.6618 13 22.9484 13C22.2218 13 21.6384 12.7667 21.1984 12.3C20.7651 11.84 20.5484 11.2233 20.5484 10.45C20.5484 9.67667 20.7651 9.06 21.1984 8.6C21.6384 8.13333 22.2218 7.9 22.9484 7.9C23.6618 7.9 24.2118 8.13333 24.5984 8.6ZM21.8484 11.76C22.1884 12.0867 22.6384 12.25 23.1984 12.25C23.7584 12.25 24.2084 12.0867 24.5484 11.76C24.8818 11.4333 25.0484 10.9967 25.0484 10.45C25.0484 9.90333 24.8818 9.46667 24.5484 9.14C24.2084 8.81333 23.7584 8.65 23.1984 8.65C22.6384 8.65 22.1884 8.81333 21.8484 9.14C21.5151 9.46667 21.3484 9.90333 21.3484 10.45C21.3484 10.9967 21.5151 11.4333 21.8484 11.76ZM28.0449 8V9.49C28.1116 9.09 28.2549 8.76 28.4749 8.5C28.8016 8.1 29.2749 7.9 29.8949 7.9C30.5216 7.9 31.0216 8.1 31.3949 8.5C31.7616 8.9 31.9449 9.43333 31.9449 10.1V13H31.1449V10.2C31.1449 9.73333 31.0049 9.35667 30.7249 9.07C30.4383 8.79 30.0616 8.65 29.5949 8.65C29.1283 8.65 28.7516 8.79 28.4649 9.07C28.1849 9.35667 28.0449 9.73333 28.0449 10.2V13H27.2449V8H28.0449ZM36.7722 9.05C36.4455 8.78333 36.0355 8.65 35.5422 8.65C35.0489 8.65 34.6389 8.78333 34.3122 9.05C33.9922 9.31 33.7955 9.66667 33.7222 10.12H37.3622C37.2889 9.66667 37.0922 9.31 36.7722 9.05ZM33.6122 8.61C34.0989 8.13667 34.7422 7.9 35.5422 7.9C36.3422 7.9 36.9855 8.13667 37.4722 8.61C37.9522 9.08333 38.1922 9.71333 38.1922 10.5L38.1822 10.69L38.1622 10.87H33.7222C33.7955 11.33 33.9922 11.69 34.3122 11.95C34.6389 12.2167 35.0489 12.35 35.5422 12.35C36.2555 12.35 36.7755 12.09 37.1022 11.57H38.0022C37.8155 12.05 37.5089 12.4233 37.0822 12.69C36.6489 12.9633 36.1355 13.1 35.5422 13.1C34.7422 13.1 34.0989 12.8633 33.6122 12.39C33.1322 11.9167 32.8922 11.2867 32.8922 10.5C32.8922 9.71333 33.1322 9.08333 33.6122 8.61ZM43.0359 8.61C43.2493 8.87 43.3993 9.18667 43.4859 9.56V6H44.2859V13H43.4859V11.44C43.3993 11.8133 43.2493 12.13 43.0359 12.39C42.6493 12.8633 42.0993 13.1 41.3859 13.1C40.6593 13.1 40.0759 12.8633 39.6359 12.39C39.2026 11.9167 38.9859 11.2867 38.9859 10.5C38.9859 9.71333 39.2026 9.08333 39.6359 8.61C40.0759 8.13667 40.6593 7.9 41.3859 7.9C42.0993 7.9 42.6493 8.13667 43.0359 8.61ZM40.2859 11.84C40.6259 12.18 41.0759 12.35 41.6359 12.35C42.1959 12.35 42.6459 12.18 42.9859 11.84C43.3193 11.5067 43.4859 11.06 43.4859 10.5C43.4859 9.94 43.3193 9.49 42.9859 9.15C42.6459 8.81667 42.1959 8.65 41.6359 8.65C41.0759 8.65 40.6259 8.81667 40.2859 9.15C39.9526 9.49 39.7859 9.94 39.7859 10.5C39.7859 11.06 39.9526 11.5067 40.2859 11.84ZM49.6277 12.39C49.4144 12.13 49.2644 11.8133 49.1777 11.44V13H48.3777V6H49.1777V9.56C49.2644 9.18667 49.4144 8.87 49.6277 8.61C50.0144 8.13667 50.5644 7.9 51.2777 7.9C52.0044 7.9 52.5877 8.13667 53.0277 8.61C53.4611 9.08333 53.6777 9.71333 53.6777 10.5C53.6777 11.2867 53.4611 11.9167 53.0277 12.39C52.5877 12.8633 52.0044 13.1 51.2777 13.1C50.5644 13.1 50.0144 12.8633 49.6277 12.39ZM51.0277 12.35C51.5877 12.35 52.0377 12.18 52.3777 11.84C52.7111 11.5067 52.8777 11.06 52.8777 10.5C52.8777 9.94 52.7111 9.49 52.3777 9.15C52.0377 8.81667 51.5877 8.65 51.0277 8.65C50.4677 8.65 50.0177 8.81667 49.6777 9.15C49.3444 9.49 49.1777 9.94 49.1777 10.5C49.1777 11.06 49.3444 11.5067 49.6777 11.84C50.0177 12.18 50.4677 12.35 51.0277 12.35ZM58.4289 8H59.2789L56.2489 15H55.3989L56.2589 13.02L54.0789 8H54.9289L56.6789 12.04L58.4289 8Z" fill="#2D4443"/>
<path d="M69.5 12.3496V10.018L71.2586 8.27915H76.3367V6.81696L75.6056 6.08587H72.5034L71.7723 6.81696V7.44926H69.579V6.30322L71.5945 4.26801H76.5146L78.53 6.30322V14.1082H76.4948V12.5867L74.9141 14.1082H71.2586L69.5 12.3496ZM74.6967 12.3496L76.3367 10.7688V9.93894H72.3256L71.6933 10.5515V11.7568L72.2861 12.3496H74.6967Z" fill="#C3DAE2" fill-opacity="0.24"/>
<path d="M81.0075 4.26801H83.0822V6.06611L84.8803 4.26801H88.0023L90.077 6.34274V14.1082H87.8442V6.95528L87.0736 6.18467H85.2953L83.2403 8.2594V14.1082H81.0075V4.26801Z" fill="#C3DAE2" fill-opacity="0.24"/>
<path d="M93.2428 12.152V6.16491H91.4645V4.26801H93.2823V1.067H95.4756V4.26801H98.4988V6.16491H95.4756V11.4406L96.2462 12.2113H98.4988V14.1082H95.199L93.2428 12.152Z" fill="#C3DAE2" fill-opacity="0.24"/>
<path d="M100.381 0H102.614V5.96731L104.313 4.26801H107.415L109.49 6.34274V14.1082H107.257V6.95528L106.487 6.18467H104.669L102.614 8.2594V14.1082H100.381V0Z" fill="#C3DAE2" fill-opacity="0.24"/>
<path d="M111.959 4.26801H114.033V5.94755L115.673 4.26801H118.4V6.18467H116.167L114.191 8.20012V14.1082H111.959V4.26801Z" fill="#C3DAE2" fill-opacity="0.24"/>
<path d="M119.091 12.3496V10.018L120.85 8.27915H125.928V6.81696L125.197 6.08587H122.095L121.364 6.81696V7.44926H119.17V6.30322L121.186 4.26801H126.106L128.121 6.30322V14.1082H126.086V12.5867L124.505 14.1082H120.85L119.091 12.3496ZM124.288 12.3496L125.928 10.7688V9.93894H121.917L121.285 10.5515V11.7568L121.877 12.3496H124.288Z" fill="#C3DAE2" fill-opacity="0.24"/>
<path d="M130.401 12.152V6.22418L132.338 4.26801H137.534L139.49 6.24394V7.86421H137.258V6.95528L136.467 6.18467H133.424L132.634 6.95528V11.4209L133.424 12.1915H136.467L137.258 11.4209V10.512H139.49V12.1322L137.534 14.1082H132.338L130.401 12.152Z" fill="#C3DAE2" fill-opacity="0.24"/>
<path d="M141.364 2.15377V1.00772L142.174 0.217353H143.379L144.189 1.00772V2.15377L143.379 2.94414H142.174L141.364 2.15377ZM141.66 4.26801H143.893V14.1082H141.66V4.26801Z" fill="#C3DAE2" fill-opacity="0.24"/>
<path d="M147.542 12.152V6.3625H145.764V4.26801H147.582V3.04294H149.775V4.26801H150.888L152.798 6.16491H149.775V11.4406L150.546 12.2113H152.798V14.1082H149.499L147.542 12.152Z" fill="#C3DAE2" fill-opacity="0.24"/>
<path d="M154.193 12.152V6.24394L156.15 4.26801H161.504L163.5 6.24394V9.91918H156.426V11.4999L157.177 12.2508H160.556L161.267 11.5197V10.9269H163.48V12.1915L161.564 14.1082H156.13L154.193 12.152ZM161.267 8.27915V6.91576L160.497 6.12539H157.197L156.426 6.91576V8.27915H161.267Z" fill="#C3DAE2" fill-opacity="0.24"/>
</svg>
