<svg width="16" height="16" viewBox="0 0 16 16" fill="none" xmlns="http://www.w3.org/2000/svg">
<mask id="mask0_3011_39026" style="mask-type:alpha" maskUnits="userSpaceOnUse" x="1" y="1" width="14" height="14">
<path fill-rule="evenodd" clip-rule="evenodd" d="M7.9987 1.33301C4.31203 1.33301 1.33203 4.31301 1.33203 7.99967C1.33203 11.6863 4.31203 14.6663 7.9987 14.6663C11.6854 14.6663 14.6654 11.6863 14.6654 7.99967C14.6654 4.31301 11.6854 1.33301 7.9987 1.33301ZM9.2587 5.79967L7.9987 7.05967L6.7387 5.79967C6.61414 5.67484 6.44504 5.60468 6.2687 5.60468C6.09235 5.60468 5.92325 5.67484 5.7987 5.79967C5.5387 6.05967 5.5387 6.47967 5.7987 6.73968L7.0587 7.99968L5.7987 9.25968C5.5387 9.51968 5.5387 9.93968 5.7987 10.1997C6.0587 10.4597 6.4787 10.4597 6.7387 10.1997L7.9987 8.93968L9.2587 10.1997C9.5187 10.4597 9.9387 10.4597 10.1987 10.1997C10.4587 9.93968 10.4587 9.51968 10.1987 9.25968L8.9387 7.99968L10.1987 6.73968C10.4587 6.47967 10.4587 6.05967 10.1987 5.79967C9.9387 5.54634 9.51203 5.54634 9.2587 5.79967ZM2.66536 7.99968C2.66536 10.9397 5.0587 13.333 7.9987 13.333C10.9387 13.333 13.332 10.9397 13.332 7.99968C13.332 5.05967 10.9387 2.66634 7.9987 2.66634C5.0587 2.66634 2.66536 5.05967 2.66536 7.99968Z" fill="black"/>
</mask>
<g mask="url(#mask0_3011_39026)">
<rect width="16" height="16" fill="#D83B01"/>
</g>
</svg>
