<svg width="20" height="20" viewBox="0 0 20 20" fill="none" xmlns="http://www.w3.org/2000/svg">
<path d="M3.76663 4.94432L1.1608 2.33932L2.33996 1.16016L18.8391 17.6602L17.66 18.8385L14.9016 16.0802C13.436 17.0098 11.7356 17.5021 9.99996 17.4993C5.50663 17.4993 1.7683 14.266 0.984131 9.99932C1.34249 8.05825 2.31882 6.28507 3.76746 4.94432H3.76663ZM12.2975 13.476L11.0775 12.256C10.6108 12.4793 10.0864 12.5523 9.57657 12.465C9.0667 12.3777 8.59647 12.1344 8.23069 11.7686C7.86491 11.4028 7.6216 10.9326 7.53431 10.4227C7.44702 9.91284 7.52003 9.38845 7.7433 8.92182L6.5233 7.70182C5.99306 8.50306 5.75602 9.46293 5.85232 10.4189C5.94862 11.3749 6.37234 12.2682 7.05173 12.9476C7.73112 13.6269 8.62443 14.0507 9.58039 14.147C10.5364 14.2433 11.4962 14.0062 12.2975 13.476V13.476ZM6.64496 3.13266C7.68413 2.72432 8.81663 2.49932 9.99996 2.49932C14.4933 2.49932 18.2316 5.73266 19.0158 9.99932C18.7605 11.3874 18.1865 12.6973 17.3391 13.826L14.1225 10.6093C14.218 9.96567 14.1615 9.30858 13.9574 8.6907C13.7533 8.07282 13.4074 7.51133 12.9472 7.05121C12.4871 6.59109 11.9256 6.24513 11.3078 6.04105C10.6899 5.83697 10.0328 5.78044 9.38913 5.87599L6.64496 3.13349V3.13266Z" fill="#053330" fill-opacity="0.4"/>
</svg>
