<svg width="22" height="23" viewBox="0 0 22 23" fill="none" xmlns="http://www.w3.org/2000/svg">
<path d="M18.0274 11.8319C18.028 11.3322 17.9858 10.8333 17.9012 10.3408H10.9922V13.1651H14.9494C14.8684 13.6162 14.697 14.0461 14.4455 14.4291C14.1941 14.8121 13.8677 15.1402 13.4862 15.3935V17.2268H15.8479C17.2307 15.9506 18.0274 14.0634 18.0274 11.8319Z" fill="#4285F4"/>
<path d="M10.995 18.998C12.9721 18.998 14.6368 18.3482 15.8507 17.2278L13.489 15.3946C12.8317 15.8407 11.9851 16.0953 10.995 16.0953C9.08408 16.0953 7.46214 14.8059 6.88214 13.0684H4.44922V14.9576C5.05899 16.1722 5.99401 17.1931 7.1499 17.9066C8.30578 18.6201 9.63702 18.9979 10.995 18.998V18.998Z" fill="#34A853"/>
<path d="M6.88101 13.0683C6.57438 12.1578 6.57438 11.1718 6.88101 10.2614V8.37207H4.44808C3.93512 9.39377 3.66797 10.5214 3.66797 11.6648C3.66797 12.8083 3.93512 13.9359 4.44808 14.9576L6.88101 13.0683Z" fill="#FBBC04"/>
<path d="M10.995 7.23422C12.0398 7.21713 13.0493 7.61225 13.8054 8.33418L15.8965 6.24119C14.5705 4.99465 12.814 4.31027 10.995 4.33154C9.63702 4.3316 8.30578 4.70945 7.1499 5.42291C5.99402 6.13636 5.05899 7.15734 4.44922 8.37186L6.88214 10.2612C7.46214 8.52362 9.08408 7.23422 10.995 7.23422Z" fill="#EA4335"/>
</svg>
