<svg width="12" height="12" viewBox="0 0 12 12" fill="none" xmlns="http://www.w3.org/2000/svg">
<path d="M4.64 11.64C4.85333 11.28 5.00667 10.7867 5.1 10.16C5.19333 9.53333 5.27333 8.35333 5.34 6.62C3.63333 6.71333 2.48 6.80667 1.88 6.9C1.29333 6.98 0.833333 7.12 0.5 7.32C0.526667 6.73333 0.54 6.40667 0.54 6.34V5.66C0.54 5.59333 0.526667 5.26667 0.5 4.68C0.833333 4.88 1.29333 5.02667 1.88 5.12C2.48 5.2 3.63333 5.28667 5.34 5.38C5.27333 3.64667 5.19333 2.46667 5.1 1.84C5.00667 1.21333 4.85333 0.72 4.64 0.359999C4.93333 0.386666 5.27333 0.399999 5.66 0.399999H6.34C6.72667 0.399999 7.06667 0.386666 7.36 0.359999C7.14667 0.72 6.99333 1.21333 6.9 1.84C6.80667 2.46667 6.72667 3.64667 6.66 5.38C8.36667 5.28667 9.51333 5.2 10.1 5.12C10.7 5.02667 11.1667 4.88 11.5 4.68C11.4733 5.26667 11.46 5.59333 11.46 5.66V6.34C11.46 6.40667 11.4733 6.73333 11.5 7.32C11.1667 7.12 10.7 6.98 10.1 6.9C9.51333 6.80667 8.36667 6.71333 6.66 6.62C6.72667 8.35333 6.80667 9.53333 6.9 10.16C6.99333 10.7867 7.14667 11.28 7.36 11.64C7.06667 11.6133 6.72667 11.6 6.34 11.6H5.66C5.27333 11.6 4.93333 11.6133 4.64 11.64Z" fill="white"/>
</svg>
