<svg width="12" height="12" viewBox="0 0 12 12" fill="none" xmlns="http://www.w3.org/2000/svg">
<path d="M5.8 11.6C5.66667 10.2 5.49333 8.90667 5.28 7.72C4.16 8.50667 3.12667 9.3 2.18 10.1L1.9 9.82C2.7 8.87333 3.49333 7.84 4.28 6.72C3.09333 6.50667 1.8 6.33333 0.4 6.2V5.8C1.8 5.66667 3.09333 5.49333 4.28 5.28C3.49333 4.16 2.7 3.12667 1.9 2.18L2.18 1.9C3.12667 2.7 4.16 3.49333 5.28 4.28C5.49333 3.09333 5.66667 1.8 5.8 0.399999H6.2C6.33333 1.8 6.50667 3.09333 6.72 4.28C7.84 3.49333 8.87333 2.7 9.82 1.9L10.1 2.18C9.3 3.12667 8.50667 4.16 7.72 5.28C8.90667 5.49333 10.2 5.66667 11.6 5.8V6.2C10.2 6.33333 8.90667 6.50667 7.72 6.72C8.50667 7.84 9.3 8.87333 10.1 9.82L9.82 10.1C8.87333 9.3 7.84 8.50667 6.72 7.72C6.50667 8.90667 6.33333 10.2 6.2 11.6H5.8Z" fill="white"/>
</svg>
