<svg width="39" height="55" viewBox="0 0 39 55" fill="none" xmlns="http://www.w3.org/2000/svg">
<g clip-path="url(#clip0_2033_17302)">
<path d="M0.293385 0.295349H38.7025V41.009C38.7025 43.8453 36.9888 46.7408 34.2116 47.9226L19.3797 54.1272L4.54793 47.9226C1.94793 46.7408 0.057021 44.0817 0.293385 41.009V0.295349Z" fill="#2A2519" stroke="#E69636" stroke-width="0.590909"/>
<path d="M19.4398 3.13171C19.0853 3.36808 19.3216 26.5317 19.4398 26.8272C20.1489 29.3681 21.1535 31.6135 22.2762 33.4453C16.1307 35.2772 18.5535 42.0726 19.4398 50.4044C19.8535 49.6953 20.4444 49.1635 21.0944 48.7499C23.6353 46.7408 25.2307 43.9635 25.7625 40.9499H33.6216V6.67717C24.8762 11.8772 25.8216 19.2635 24.8762 28.009C28.3625 27.4181 29.308 32.4999 24.6989 32.9135C19.2625 24.109 21.2125 17.7272 21.2125 8.15444C21.2125 5.96808 20.6807 4.4908 19.4398 3.13171ZM31.258 11.5817V29.1317H29.958C29.6035 27.7726 28.7171 26.709 27.4762 26.1181C27.9489 21.0953 28.0671 14.9499 31.258 11.5817ZM29.958 31.4953H31.258V38.5863H25.9989C25.9989 37.4635 25.8216 36.2817 25.5262 35.159C27.6535 34.9226 29.5444 33.4453 29.958 31.4953ZM23.2216 35.6908C23.458 36.6363 23.5762 37.6408 23.5762 38.5863H20.6216C20.6807 36.9908 21.7444 35.9863 23.2216 35.6908ZM20.6216 40.9499H23.3398C22.9262 42.7817 21.9807 44.5544 20.6216 45.9726V40.9499Z" fill="#E69636"/>
<path d="M19.443 3.13171C19.7975 3.36808 19.5612 26.5317 19.443 26.8272C18.7339 29.3681 17.7294 31.6135 16.6066 33.4453C22.7521 35.2772 20.3294 42.0726 19.443 50.4044C19.0294 49.6953 18.4385 49.1635 17.7885 48.7499C15.2475 46.7408 13.6521 43.9635 13.1203 40.9499H5.26118V6.67717C14.0066 11.8772 13.0612 19.2635 14.0066 28.009C10.5203 27.4181 9.57482 32.4999 14.1839 32.9135C19.6203 24.109 17.6703 17.7272 17.6703 8.15444C17.6703 5.96808 18.2021 4.4908 19.443 3.13171ZM7.62482 11.5817V29.1317H8.92482C9.27936 27.7726 10.1657 26.709 11.4066 26.1181C10.9339 21.0953 10.8157 14.9499 7.62482 11.5817ZM8.92482 31.4953H7.62482V38.5863H12.8839C12.8839 37.4635 13.0612 36.2817 13.3566 35.159C11.2294 34.9226 9.33845 33.4453 8.92482 31.4953ZM15.6612 35.6908C15.4248 36.6363 15.3066 37.6408 15.3066 38.5863H18.2612C18.2021 36.9908 17.1385 35.9863 15.6612 35.6908ZM18.2612 40.9499H15.543C15.9566 42.7817 16.9021 44.5544 18.2612 45.9726V40.9499Z" fill="#E69636"/>
</g>
<defs>
<clipPath id="clip0_2033_17302">
<rect width="39" height="54.4818" fill="white"/>
</clipPath>
</defs>
</svg>
