<svg width="17" height="23" viewBox="0 0 17 23" fill="none" xmlns="http://www.w3.org/2000/svg">
    <path d="M8.50048 22.5C7.64267 21.478 6.98146 20.3539 6.53023 19.1095C6.48413 18.9826 6.42951 18.9399 6.29266 18.9402C4.37248 18.9453 2.45201 18.9439 0.531829 18.9439C0.476064 18.9439 0.420584 18.9439 0.357422 18.9439V3.27884C0.638237 3.43589 0.913077 3.57104 1.16914 3.73577C2.34162 4.48916 3.06115 5.5797 3.48053 6.88676C3.72151 7.63759 3.84669 8.41033 3.91356 9.1953C3.99749 10.1809 3.98269 11.1664 3.90189 12.1494C3.83332 12.9839 3.72549 13.8152 3.63274 14.6477C3.60514 14.8964 3.56929 15.1445 3.53544 15.4054H6.6924C6.6924 15.1982 6.69695 14.9874 6.69154 14.7766C6.6648 13.7248 6.6446 12.6726 6.60477 11.6211C6.56209 10.4893 6.50519 9.35776 6.44544 8.22682C6.40817 7.52208 6.33761 6.81876 6.31001 6.11373C6.25396 4.67836 6.59424 3.33831 7.32516 2.09953C7.64153 1.56323 8.01282 1.0676 8.42935 0.605554C8.45126 0.581371 8.4689 0.553204 8.50873 0.5C8.77134 0.827475 9.02825 1.12451 9.25928 1.4406C9.91508 2.33853 10.3692 3.32806 10.5789 4.42486C10.7094 5.10826 10.7382 5.79622 10.6881 6.48986C10.6395 7.16558 10.5976 7.84187 10.5618 8.51844C10.512 9.45051 10.4599 10.3829 10.4278 11.3158C10.3825 12.6325 10.3547 13.9501 10.3194 15.2671C10.3182 15.3135 10.3194 15.3596 10.3194 15.4156H13.4573C13.3995 14.9519 13.3366 14.4981 13.2877 14.0426C13.2197 13.4121 13.1415 12.7816 13.1048 12.1491C13.0632 11.4304 13.0345 10.7089 13.0504 9.98938C13.0783 8.71988 13.2541 7.47257 13.7503 6.28843C14.3063 4.96146 15.2198 3.97448 16.5263 3.35936C16.5516 3.34741 16.5778 3.33631 16.6043 3.32664C16.6125 3.32351 16.6228 3.32607 16.6424 3.32607V18.9504C16.5889 18.9504 16.5383 18.9504 16.4879 18.9504C14.5535 18.9504 12.6188 18.9521 10.6844 18.9484C10.5632 18.9484 10.5151 18.9874 10.4767 19.0995C10.0861 20.2467 9.21745 21.7372 8.50048 22.5Z" fill="#E69636"/>
</svg>
