<svg width="16" height="16" viewBox="0 0 16 16" fill="none" xmlns="http://www.w3.org/2000/svg">
<mask id="mask0_3011_39035" style="mask-type:alpha" maskUnits="userSpaceOnUse" x="1" y="1" width="14" height="14">
<path fill-rule="evenodd" clip-rule="evenodd" d="M1.33203 7.99967C1.33203 4.31967 4.31203 1.33301 7.99203 1.33301C11.6787 1.33301 14.6654 4.31967 14.6654 7.99967C14.6654 11.6797 11.6787 14.6663 7.99203 14.6663C4.31203 14.6663 1.33203 11.6797 1.33203 7.99967ZM8.66536 5.33301C8.66536 4.96634 8.36537 4.66634 7.9987 4.66634C7.63203 4.66634 7.33203 4.96634 7.33203 5.33301V7.99967C7.33203 8.36634 7.63203 8.66634 7.9987 8.66634C8.36537 8.66634 8.66536 8.36634 8.66536 7.99967V5.33301ZM7.9987 13.333C5.05203 13.333 2.66536 10.9463 2.66536 7.99968C2.66536 5.05301 5.05203 2.66634 7.9987 2.66634C10.9454 2.66634 13.332 5.05301 13.332 7.99968C13.332 10.9463 10.9454 13.333 7.9987 13.333ZM7.33203 9.99967V11.333H8.66536V9.99967H7.33203Z" fill="black"/>
</mask>
<g mask="url(#mask0_3011_39035)">
<rect width="16" height="16" fill="#FFC80A"/>
</g>
</svg>
