<?xml version="1.0" standalone="no"?>
<!DOCTYPE svg PUBLIC "-//W3C//DTD SVG 1.1//EN" "http://www.w3.org/Graphics/SVG/1.1/DTD/svg11.dtd" >
<svg xmlns="http://www.w3.org/2000/svg" xmlns:xlink="http://www.w3.org/1999/xlink" version="1.1">
<metadata>
Created by FontForge 20170731 at Wed Dec  6 00:53:11 2023
 By Aleksey,,,
Copyright 2020 by Andrea Tartarelli. All rights reserved.
</metadata>
<defs>
<font id="CalvinoGrande-Semibold" horiz-adv-x="0" >
  <font-face 
    font-family="Calvino Grande Semibold"
    font-weight="600"
    font-stretch="normal"
    units-per-em="2048"
    panose-1="0 0 0 0 0 0 0 0 0 0"
    ascent="1638"
    descent="-410"
    x-height="969"
    cap-height="1434"
    bbox="-444 -494 2415 2232"
    underline-thickness="96"
    underline-position="-286"
    unicode-range="U+0020-267D"
  />
<missing-glyph horiz-adv-x="679" 
d="M102 -373v1811h476v-1811h-476zM143 -336h394v1739h-394v-1739zM197 117q0 56 38 93.5t99 37.5q63 0 105 -38.5t42 -105.5q0 -57 -37.5 -93t-97.5 -36q-65 0 -107 37t-42 105zM197 403q0 59 20 89q5 -1 22.5 -4t24.5 -3v-2q-24 -43 -24 -84q0 -84 94 -84q49 0 76.5 22
t27.5 60q0 21 -10 54h-61q4 -23 4 -62h-41v14q0 32 -1 61t-1 32l2 4q31 -6 84 -6h26q41 -41 41 -109q0 -51 -38.5 -85t-98.5 -34q-65 0 -106 35.5t-41 101.5zM197 717l77 35q45 19 58 26q-43 16 -62 25l-69 33v49l172 -86h104v-47h-104l-172 -88zM199 -240l204 144v2
q-25 -2 -79 -2h-123l-2 45l2 2q53 -4 133 -4h143l2 -49l-207 -144h86h119v-43h-276zM199 586l2 4q51 -6 133 -6h100v125l43 -4v-168h-276zM199 1174l2 2q45 -2 114 -2q3 64 0 131h-114l-2 51h2q102 -4 133 -4h143v-47h-119v-131h119v-50h-276zM201 907v92q0 103 90 103
q41 0 65.5 -32.5t24.5 -86.5v-29h96v-47h-276zM240 109q0 -40 25.5 -63t70.5 -23q46 0 74 24t28 70q0 38 -25 59t-69 21q-47 0 -75.5 -22.5t-28.5 -65.5zM246 954h92v45q0 56 -47 56q-21 0 -33 -16t-12 -40v-45z" />
    <glyph glyph-name="f_f" unicode="ff" horiz-adv-x="1337" 
d="M408 375q0 -110 6 -174t24 -99t38 -47.5t61 -23.5l69 -19v-12h-571v12l63 19q28 9 39.5 16t24.5 25t17 55t6.5 93.5t2.5 154.5v547h-143v47h143q22 99 66 192.5t105.5 171t145.5 125t175 47.5q25 0 45 -2v-237h-8q-108 12 -176 12q-215 0 -215 -129q0 -98 73 -180h428
q22 99 66 192.5t104.5 171t142 125t169.5 47.5q27 0 47 -2v-237h-8q-111 12 -168 12q-213 0 -213 -129q0 -98 73 -180h299l9 -8v-39h-299v-547q0 -57 1 -97t6 -74.5t9.5 -56t17.5 -40t23 -28t33.5 -19.5t41.5 -15t54 -14l72 -19v-12h-631v12l65 19q33 10 45.5 19t24.5 45
t14 96.5t2 183.5v547h-419v-547z" />
    <glyph glyph-name="f_f_i" unicode="ffi" horiz-adv-x="1843" 
d="M408 375q0 -110 6 -174t24 -99t38 -47.5t61 -23.5l69 -19v-12h-571v12l63 19q28 9 39.5 16t24.5 25t17 55t6.5 93.5t2.5 154.5v547h-143v47h143q22 99 66 192.5t105.5 171t145.5 125t175 47.5q25 0 45 -2v-237h-8q-108 12 -176 12q-215 0 -215 -129q0 -98 73 -180h428
q17 80 48.5 155.5t81 145t110 121.5t140.5 83t169 31q54 0 103 -10v-260h-9q-81 26 -137.5 34.5t-126.5 8.5q-239 0 -239 -129q0 -98 73 -180h344q153 0 279 32h8q-2 -102 -2 -475v-172q0 -75 1 -122.5t6 -84t9.5 -55t17 -32t23 -18t33.5 -11.5l60 -19v-12h-516v12l59 19
q22 7 33 11.5t23 18.5t16 31.5t8 55t5 83.5t1 123v271q0 131 -8.5 191t-30 83t-68.5 23h-292v-547q0 -77 1.5 -125t8.5 -86.5t14 -57.5t25.5 -35t35 -23t50.5 -17l57 -19v-12h-565v12l63 19q23 8 33 12.5t23 18.5t17 32.5t8.5 58t5.5 90t1 132.5v547h-419v-547z" />
    <glyph glyph-name="f_f_l" unicode="ffl" horiz-adv-x="1849" 
d="M408 375q0 -110 6 -174t24 -99t38 -47.5t61 -23.5l69 -19v-12h-571v12l63 19q28 9 39.5 16t24.5 25t17 55t6.5 93.5t2.5 154.5v547h-143v47h143q22 99 66 192.5t105.5 171t145.5 125t175 47.5q25 0 45 -2v-237h-8q-108 12 -176 12q-215 0 -215 -129q0 -98 73 -180h428
q17 79 48 155.5t77 145.5t100.5 121t123.5 83t143 31q128 0 262 -45l92 47h8q-2 -102 -2 -475v-678q0 -75 1 -122.5t6 -84t9.5 -55t17 -32t23 -18t33.5 -11.5l62 -19v-12h-516v12l59 19q40 11 55.5 30.5t23 82.5t7.5 210v664q0 195 -10 250q-166 30 -270 30
q-106 0 -159.5 -41t-53.5 -108q0 -98 73 -180h299l9 -8v-39h-299v-547q0 -89 4 -145t10.5 -91.5t23 -55t32 -28t48.5 -18.5l74 -25v-12h-565v12l63 19q23 8 33 12.5t23 18.5t17 32.5t8.5 58t5.5 90t1 132.5v547h-419v-547z" />
    <glyph glyph-name="f_i" unicode="fi" horiz-adv-x="1202" 
d="M35 0v12l63 19q28 9 39.5 16t24.5 25t17 55t6.5 93.5t2.5 154.5v547h-143v47h143q21 101 66.5 194t112.5 171t162.5 124.5t205.5 46.5q54 0 103 -10v-260h-9q-80 26 -136 34.5t-128 8.5q-239 0 -239 -129q0 -98 73 -180h344q157 0 279 32h8q-2 -102 -2 -475v-172
q0 -75 1 -122.5t6 -84t9.5 -55t17 -32t23 -18t33.5 -11.5l62 -19v-12h-518v12l61 19q42 13 57 32.5t22 81t7 209.5v271q0 130 -9 191t-31 83.5t-69 22.5h-292v-547q0 -76 1.5 -125t8.5 -86.5t14.5 -57t26 -35.5t35 -23t49.5 -17l57 -19v-12h-565z" />
    <glyph glyph-name="f_l" unicode="fl" horiz-adv-x="1208" 
d="M35 0v12l63 19q28 9 39.5 16t24.5 25t17 55t6.5 93.5t2.5 154.5v547h-143v47h143q17 79 48 155.5t77 145.5t100.5 121t123.5 83t143 31q128 0 262 -45l90 47h8v-475v-678q0 -113 2.5 -169.5t14 -91t25 -43.5t46.5 -19l62 -19v-12h-516v12l61 19q40 11 55 31t22 82t7 210
v664q0 209 -10 250q-163 30 -268 30q-106 0 -160.5 -41.5t-54.5 -107.5q0 -98 73 -180h301l7 -8v-39h-299v-547q0 -74 2 -124.5t9 -87t14 -56.5t23 -34.5t29.5 -20.5t40.5 -15l74 -25v-12h-565z" />
    <glyph glyph-name=".notdef" horiz-adv-x="679" 
d="M102 -373v1811h476v-1811h-476zM143 -336h394v1739h-394v-1739zM197 117q0 56 38 93.5t99 37.5q63 0 105 -38.5t42 -105.5q0 -57 -37.5 -93t-97.5 -36q-65 0 -107 37t-42 105zM197 403q0 59 20 89q5 -1 22.5 -4t24.5 -3v-2q-24 -43 -24 -84q0 -84 94 -84q49 0 76.5 22
t27.5 60q0 21 -10 54h-61q4 -23 4 -62h-41v14q0 32 -1 61t-1 32l2 4q31 -6 84 -6h26q41 -41 41 -109q0 -51 -38.5 -85t-98.5 -34q-65 0 -106 35.5t-41 101.5zM197 717l77 35q45 19 58 26q-43 16 -62 25l-69 33v49l172 -86h104v-47h-104l-172 -88zM199 -240l204 144v2
q-25 -2 -79 -2h-123l-2 45l2 2q53 -4 133 -4h143l2 -49l-207 -144h86h119v-43h-276zM199 586l2 4q51 -6 133 -6h100v125l43 -4v-168h-276zM199 1174l2 2q45 -2 114 -2q3 64 0 131h-114l-2 51h2q102 -4 133 -4h143v-47h-119v-131h119v-50h-276zM201 907v92q0 103 90 103
q41 0 65.5 -32.5t24.5 -86.5v-29h96v-47h-276zM240 109q0 -40 25.5 -63t70.5 -23q46 0 74 24t28 70q0 38 -25 59t-69 21q-47 0 -75.5 -22.5t-28.5 -65.5zM246 954h92v45q0 56 -47 56q-21 0 -33 -16t-12 -40v-45z" />
    <glyph glyph-name=".null" 
 />
    <glyph glyph-name="nonmarkingreturn" horiz-adv-x="682" 
 />
    <glyph glyph-name="space" unicode=" " horiz-adv-x="481" 
 />
    <glyph glyph-name="exclam" unicode="!" horiz-adv-x="595" 
d="M291 383q-78 575 -131 1032l256 33l6 -12q-14 -121 -39.5 -340t-43.5 -384t-34 -329h-14zM166 96q0 50 40 85.5t95 35.5t95 -35.5t40 -85.5q0 -51 -39.5 -87t-95.5 -36t-95.5 36t-39.5 87z" />
    <glyph glyph-name="quotedbl" unicode="&#x22;" horiz-adv-x="743" 
d="M350 1434l-194 -535h-6l-31 535h231zM395 1434h232l-195 -535h-6z" />
    <glyph glyph-name="numbersign" unicode="#" horiz-adv-x="851" 
d="M842 985v-51h-174l-64 -338h176v-51h-186l-82 -430l-51 8l80 422h-275l-82 -430l-51 8l80 422h-203v51h213l64 338h-215v51h225l76 395l51 -8l-74 -387h275l75 395l52 -8l-74 -387h164zM276 596h275l63 338h-274z" />
    <glyph glyph-name="dollar" unicode="$" horiz-adv-x="1093" 
d="M518 -29h-39q-2 -28 -5 -84t-5 -84q-33 0 -49 4l12 168q-194 17 -346 97l35 495h10q85 -246 153.5 -365.5t153.5 -156.5l43 600q-200 88 -293.5 193.5t-93.5 265.5q0 159 112.5 258.5t330.5 103.5q2 61 10 183q17 0 49 -4q-8 -124 -14 -179q115 -6 242.5 -47.5
t183.5 -83.5l-164 -444h-13q-17 269 -76 387t-177 133l-37 -514q8 -5 16 -8q71 -33 116 -55t99.5 -53.5t88 -59t68 -64.5t53 -76t30.5 -89.5t12 -108.5q0 -78 -31.5 -150.5t-91.5 -131.5t-159.5 -94.5t-223.5 -35.5zM317 1180q0 -84 42 -147.5t141 -117.5q12 168 32 500h-2
q-96 0 -154.5 -61t-58.5 -174zM483 31q27 -6 60 -6q120 0 190 65t70 189q0 118 -70 199t-211 149q-21 -304 -39 -596z" />
    <glyph glyph-name="percent" unicode="%" horiz-adv-x="1501" 
d="M176 0l561 756l287 678h272l-555 -750l-290 -684h-275zM57 1155q0 164 90 268.5t236 104.5t236 -103.5t90 -269.5q0 -165 -90 -269t-236 -104q-147 0 -236.5 103t-89.5 270zM244 1155q0 -157 34.5 -243.5t104.5 -86.5q137 0 137 330q0 157 -34 244.5t-103 87.5
q-139 0 -139 -332zM795 360q0 163 89.5 267t235.5 104t236 -103t90 -268t-90 -268.5t-236 -103.5q-147 0 -236 102.5t-89 269.5zM981 360q0 -331 139 -331q137 0 137 331q0 156 -34 243t-103 87q-139 0 -139 -330z" />
    <glyph glyph-name="ampersand" unicode="&#x26;" horiz-adv-x="1570" 
d="M1317 -33q-97 0 -189.5 34.5t-207.5 123.5q-204 -156 -424 -156q-81 0 -158 23t-139 65t-100 109.5t-38 148.5q0 66 20.5 122.5t53 96t78 71t91.5 51t97 32.5q-116 195 -116 371q0 117 59 210.5t152.5 143t199.5 49.5q165 0 249.5 -80t84.5 -192q0 -145 -116 -248.5
t-291 -144.5q78 -136 225 -277q22 -21 86 -81t94 -87q57 117 57 219q0 66 -57.5 93.5t-234.5 54.5v22h553v-14q-95 -244 -252 -432q168 -145 262.5 -190.5t191.5 -45.5v-12q-103 -80 -231 -80zM340 416q0 -167 76.5 -264t224.5 -97q127 0 240 101q-84 67 -201 184
q-168 164 -266 326q-74 -87 -74 -250zM522 1147q0 -173 92 -338q110 92 156.5 184t46.5 195q0 215 -139 215q-156 0 -156 -256z" />
    <glyph glyph-name="quotesingle" unicode="'" horiz-adv-x="466" 
d="M350 1434l-194 -535h-6l-31 535h231z" />
    <glyph glyph-name="parenleft" unicode="(" horiz-adv-x="700" 
d="M639 1491q-162 -180 -234.5 -400t-72.5 -491q0 -278 72.5 -499t234.5 -402l-8 -8q-264 176 -393 410t-129 499q0 258 129.5 490.5t392.5 408.5z" />
    <glyph glyph-name="parenright" unicode=")" horiz-adv-x="700" 
d="M70 1499q263 -176 392.5 -408.5t129.5 -490.5q0 -265 -129 -499t-393 -410l-9 8q163 181 235.5 402t72.5 499q0 271 -73 491t-235 400z" />
    <glyph glyph-name="asterisk" unicode="*" horiz-adv-x="749" 
d="M258 838l-121 86l203 186l-279 41l48 139l243 -141l-51 285h152l-60 -285l250 137l45 -129l-280 -47l206 -184l-118 -86l-121 243z" />
    <glyph glyph-name="plus" unicode="+" horiz-adv-x="651" 
d="M61 502h248v248h33v-248h248v-33h-248v-248h-33v248h-248v33z" />
    <glyph glyph-name="comma" unicode="," horiz-adv-x="468" 
d="M100 49q0 84 36 125t95 41q62 0 99 -41.5t37 -114.5q0 -237 -301 -354l-5 10q138 92 138 238q0 90 -99 96z" />
    <glyph glyph-name="hyphen" unicode="-" horiz-adv-x="651" 
d="M61 549h529v-33h-529v33z" />
    <glyph glyph-name="period" unicode="." horiz-adv-x="475" 
d="M240 -27q-57 0 -97.5 36t-40.5 87q0 50 40.5 85.5t97.5 35.5q54 0 93.5 -36t39.5 -85q0 -51 -39.5 -87t-93.5 -36z" />
    <glyph glyph-name="slash" unicode="/" horiz-adv-x="772" 
d="M10 -193l719 1737l33 -10l-719 -1737z" />
    <glyph glyph-name="zero" unicode="0" horiz-adv-x="1382" 
d="M690 -31q-187 0 -330 93t-221 263t-78 392t78.5 392t221 262.5t329.5 92.5q284 0 457.5 -205t173.5 -542t-173.5 -542.5t-457.5 -205.5zM350 717q0 -317 91 -507t249 -190q105 0 183 87t119.5 244.5t41.5 365.5t-41.5 365t-119.5 243t-183 86q-158 0 -249 -188.5
t-91 -505.5z" />
    <glyph glyph-name="one" unicode="1" horiz-adv-x="727" 
d="M55 0v12l88 23q34 9 49.5 15.5t34 28.5t25 52t13 94t8 145.5t1.5 215.5v243q0 276 -12 375h-225v15l485 235l6 -6q-8 -227 -8 -594v-254q0 -117 1.5 -194t3.5 -139.5t8.5 -98.5t12.5 -61t20 -38t25.5 -19.5t35.5 -14.5l73 -23v-12h-645z" />
    <glyph glyph-name="two" unicode="2" horiz-adv-x="1136" 
d="M70 102q157 136 269 251t180.5 206.5t108 180.5t53 162t13.5 161q0 130 -56 196t-157 66q-215 0 -313 -293h-12q33 208 151 320t281 112q189 0 286 -95.5t97 -240.5q0 -92 -47 -196t-121.5 -199.5t-184.5 -202.5t-216.5 -194.5t-237.5 -185.5l512 24q48 2 75.5 6t63.5 17
t60 37t54 66t58 105.5t60 153.5h12l-74 -582q-118 23 -272 23h-613z" />
    <glyph glyph-name="three" unicode="3" horiz-adv-x="983" 
d="M68 -10q127 21 229 62t167 90t108 109t61 117.5t18 116.5q0 274 -297 308q-18 -4 -48 -11.5t-52 -11.5l-6 25q182 39 254.5 120.5t72.5 202.5q0 96 -49.5 151.5t-150.5 55.5q-219 0 -262 -242h-13q6 187 112.5 284t283.5 97q162 0 251 -75t89 -189q0 -130 -115 -229
t-313 -160q137 16 255 -14.5t193.5 -109.5t75.5 -193q0 -139 -107.5 -252t-304 -181.5t-450.5 -78.5z" />
    <glyph glyph-name="four" unicode="4" horiz-adv-x="1167" 
d="M1092 348q-49 2 -174 2q0 -112 8 -350h-260q6 182 6 354q-494 0 -613 -4l-20 135q116 145 182 226t167 197.5t181 196.5t185.5 175t218.5 182l37 -35q-50 -34 -82 -57q-13 -191 -13 -631v-215q98 0 220 -4v-14zM100 512q341 10 574 12v217q0 256 -6 408
q-81 -77 -162.5 -163t-164 -182.5t-125 -148.5t-116.5 -143z" />
    <glyph glyph-name="five" unicode="5" horiz-adv-x="1064" 
d="M96 -10q137 21 245 60.5t176 87.5t112 107t62 116t18 118q0 153 -78 220t-221 67q-123 0 -234 -35l-26 10q49 506 73 693q223 0 314 1t206.5 7.5t188.5 21.5l-37 -256q-431 0 -666 -12q-23 -163 -43 -438q189 88 363 88q200 0 320 -90t120 -264q0 -221 -240.5 -357
t-650.5 -153z" />
    <glyph glyph-name="six" unicode="6" horiz-adv-x="1138" 
d="M600 -33q-134 0 -238.5 42.5t-169.5 117.5t-98 173.5t-33 215.5q0 165 57.5 314.5t167.5 273.5t278.5 216t381.5 138l6 -14q-136 -61 -231 -128t-163 -154.5t-112 -185t-84 -237.5h5q86 80 160.5 111t166.5 31q188 0 298 -122.5t110 -303.5q0 -223 -139.5 -355.5
t-362.5 -132.5zM340 506q0 -261 63.5 -374.5t192.5 -113.5q106 0 166.5 93.5t60.5 273.5q0 170 -83.5 269.5t-209.5 99.5q-97 0 -170 -39q-20 -122 -20 -209z" />
    <glyph glyph-name="seven" unicode="7" horiz-adv-x="1075" 
d="M207 0q120 365 312 677t394 521l-2 4q-479 18 -780 2l-39 254q157 -24 936 -24l8 -13q-188 -376 -333.5 -752t-202.5 -669h-293z" />
    <glyph glyph-name="eight" unicode="8" horiz-adv-x="1173" 
d="M592 -29q-134 0 -238.5 31.5t-167 84t-94 116t-31.5 133.5q0 137 91.5 238.5t273.5 154.5q-144 86 -215.5 179t-71.5 214q0 153 128.5 246.5t334.5 93.5q213 0 332 -83t119 -224q0 -89 -76.5 -176t-224.5 -143q67 -35 117 -66.5t98 -73.5t78 -86.5t48.5 -102.5t18.5 -124
q0 -129 -69.5 -224t-186 -141.5t-264.5 -46.5zM313 362q0 -167 77.5 -252t201.5 -85q54 0 99 14.5t82 45.5t58 85t21 127q0 54 -17.5 101t-44.5 83t-74 72.5t-92 64t-112 62.5q-33 17 -66 37q-133 -164 -133 -355zM387 1223q0 -108 60 -186.5t196 -145.5l88 -43
q84 161 84 278q0 138 -66.5 211.5t-173.5 73.5q-95 0 -141.5 -53.5t-46.5 -134.5z" />
    <glyph glyph-name="nine" unicode="9" horiz-adv-x="1138" 
d="M539 1458q134 0 238.5 -42.5t169 -117.5t97.5 -173.5t33 -215.5q0 -165 -57.5 -314.5t-167 -273.5t-278 -216t-381.5 -138l-7 15q137 61 231.5 128t162.5 154t112 184.5t84 237.5h-4q-86 -80 -161 -110.5t-167 -30.5q-188 0 -297.5 122.5t-109.5 303.5q0 223 139.5 355
t362.5 132zM315 1040q0 -170 83.5 -269t209.5 -99q97 0 170 39q21 128 21 209q0 261 -63.5 374t-192.5 113q-106 0 -167 -93.5t-61 -273.5z" />
    <glyph glyph-name="colon" unicode=":" horiz-adv-x="475" 
d="M240 -27q-57 0 -97.5 36t-40.5 87q0 50 40.5 85.5t97.5 35.5q54 0 93.5 -36t39.5 -85q0 -51 -39.5 -87t-93.5 -36zM102 874q0 50 40.5 85.5t97.5 35.5q54 0 93.5 -36t39.5 -85q0 -51 -39.5 -86.5t-93.5 -35.5q-57 0 -97.5 35.5t-40.5 86.5z" />
    <glyph glyph-name="semicolon" unicode=";" horiz-adv-x="522" 
d="M141 49q0 84 36 125t95 41q62 0 99 -41.5t37 -114.5q0 -237 -302 -354l-4 10q138 92 138 238q0 90 -99 96zM150 874q0 50 40 85.5t97 35.5q54 0 93.5 -36t39.5 -85q0 -51 -39.5 -86.5t-93.5 -35.5q-57 0 -97 35.5t-40 86.5z" />
    <glyph glyph-name="less" unicode="&#x3c;" horiz-adv-x="647" 
d="M61 512v37l504 325l21 -30l-486 -314l486 -313l-21 -31z" />
    <glyph glyph-name="equal" unicode="=" horiz-adv-x="651" 
d="M61 647h529v-33h-529v33zM61 393v33h529v-33h-529z" />
    <glyph glyph-name="greater" unicode="&#x3e;" horiz-adv-x="647" 
d="M586 512l-504 -326l-21 31l486 313l-486 314l21 30l504 -325v-37z" />
    <glyph glyph-name="question" unicode="?" horiz-adv-x="827" 
d="M344 358q-53 48 -92 120.5t-39 133.5q0 36 9.5 66.5t34 64t73 63.5t119.5 54q166 55 214 78t48 59q0 56 -172 126t-433 128l33 211q256 -57 429 -189t173 -286q0 -106 -54.5 -182.5t-184.5 -147.5q-95 -51 -127.5 -86t-32.5 -102q0 -48 12 -109zM227 84q0 44 36 76.5
t87 32.5q49 0 85 -32.5t36 -76.5q0 -46 -35.5 -78.5t-85.5 -32.5q-51 0 -87 32.5t-36 78.5z" />
    <glyph glyph-name="at" unicode="@" horiz-adv-x="1808" 
d="M819 -332q-137 0 -251.5 22t-209 71t-160 123.5t-101.5 182.5t-36 244q0 158 45.5 309.5t132.5 280t204.5 226.5t270 153t320.5 55q332 0 522.5 -158.5t190.5 -424.5q0 -145 -44.5 -272.5t-128.5 -226.5t-218 -156.5t-301 -57.5q-34 0 -62 4t-42 9t-15 9l117 510h-4
q-109 -259 -227.5 -400.5t-227.5 -141.5q-58 0 -91.5 45t-33.5 123q0 69 24.5 167.5t70.5 203.5t104 195t134 148t152 58q101 0 250 -54l166 175h4l-217 -998q98 16 172.5 74.5t119 148.5t67 200t22.5 237q0 159 -54 279t-169.5 191.5t-280.5 71.5q-136 0 -257.5 -58.5
t-210 -157t-153.5 -225.5t-97.5 -266t-32.5 -276q0 -284 146.5 -441t389.5 -157q138 0 344 76l11 -49q-182 -72 -355 -72zM707 266q0 -67 34 -67q43 0 135 142.5t214 418.5q-27 50 -78 100.5t-92 50.5q-44 0 -95.5 -122t-84.5 -274.5t-33 -248.5z" />
    <glyph glyph-name="A" unicode="A" horiz-adv-x="1419" 
d="M10 10q39 17 59 29.5t51 48t55.5 82t68 142t92.5 217.5t125 319l166 426l-60 156v8h285q11 -110 129 -463l227 -672q51 -149 87.5 -205.5t113.5 -85.5v-12h-627v12l129 25q66 15 80.5 44.5t-10.5 111.5l-135 415q-275 13 -432 13q-44 -120 -70 -201t-39 -146.5
t-11.5 -103.5t19.5 -66.5t47 -42.5t78 -24l121 -25v-12h-549v10zM426 653q179 0 401 11l-186 571l-213 -578q0 -2 -2 -4z" />
    <glyph glyph-name="B" unicode="B" horiz-adv-x="1273" 
d="M27 0v12l71 23q28 9 41 15.5t28.5 28.5t20.5 52t11 94t7 145.5t1 215.5v264q0 133 -1 215t-6.5 145.5t-11 93.5t-21 52t-28.5 28t-41 15l-71 22v13h624q106 0 187.5 -15t146.5 -49.5t99 -96.5t34 -149q0 -61 -28 -120t-72.5 -103t-97.5 -76t-105 -45q201 -34 299 -126
t98 -251q0 -190 -138 -296.5t-433 -106.5h-614zM451 498q0 -74 0.5 -120t3 -97.5t6.5 -80.5t12 -60t18.5 -46.5t26.5 -29.5t36.5 -18.5t47.5 -4.5h6q180 0 259 82t79 248q0 60 -8.5 109.5t-35 102t-69 89t-115.5 62t-171 28.5l-96 2v-266zM451 805l137 -4q117 -3 198 -17
q30 40 48 116t18 161q0 162 -78 247t-233 85h-76q-14 -42 -14 -439v-149z" />
    <glyph glyph-name="C" unicode="C" horiz-adv-x="1323" 
d="M715 -31q-142 0 -263.5 52t-207.5 144.5t-134.5 224t-48.5 286.5q0 170 54.5 317.5t148.5 251t224 162.5t276 59q263 0 479 -139l-205 -493h-10q-4 302 -88 435.5t-242 133.5q-168 0 -274.5 -156t-106.5 -409q0 -318 135 -489t359 -171q179 0 298.5 117t147.5 348h13
q-2 -109 -19.5 -203.5t-58 -183t-102 -150.5t-157.5 -99.5t-218 -37.5z" />
    <glyph glyph-name="D" unicode="D" horiz-adv-x="1478" 
d="M653 0h-626v12l71 23q28 9 41 15.5t28.5 28.5t20.5 52t11 94t7 145.5t1 215.5v264q0 133 -1 215t-6.5 145.5t-11 93.5t-21 52t-28.5 28t-41 15l-71 22v13h635q358 0 556.5 -183t198.5 -510q0 -159 -51.5 -294.5t-147 -235t-241 -155.5t-324.5 -56zM453 477
q0 -293 24 -364.5t137 -71.5h21q246 0 369.5 158t123.5 469q0 120 -16 222.5t-55.5 197t-101.5 160.5t-158.5 105.5t-221.5 39.5q-43 0 -108 -7q-14 -42 -14 -432v-477z" />
    <glyph glyph-name="E" unicode="E" horiz-adv-x="1228" 
d="M27 0v12l71 23q28 9 41 15.5t28.5 28.5t20.5 52t11 94t7 145.5t1 215.5v264q0 133 -1 215t-6.5 145.5t-11 93.5t-21 52t-28.5 28t-41 15l-71 22v13h714q232 0 328 34h4l-33 -565h-10q-32 109 -53.5 175t-49 122.5t-50.5 84.5t-62.5 50.5t-80 31.5t-107.5 17l-162 19
q-12 -46 -12 -447v-186l462 39v-111l-462 43v-262q0 -126 4 -202t12.5 -130t27.5 -78t44 -32t67 -4l115 14q109 10 176 58.5t129.5 167.5t151.5 368h8l-58 -664h-2q-83 23 -260 23h-841z" />
    <glyph glyph-name="F" unicode="F" horiz-adv-x="1126" 
d="M27 0v12l71 23q28 9 41 15.5t28.5 28.5t20.5 52t11 94t7 145.5t1 215.5v264q0 133 -1 215t-6.5 145.5t-11 93.5t-21 52t-28.5 28t-41 15l-71 22v13h712q246 0 328 36h6l-33 -567h-10q-31 109 -52.5 175t-49.5 122.5t-52 84.5t-65 50t-83 31.5t-112 17.5l-151 19
q-12 -46 -12 -447v-227l462 39v-111l-462 43v-28q0 -114 1 -193t5 -146t7.5 -108t14.5 -74.5t19 -49.5t28 -30t35 -19t45 -13l107 -25v-14h-688z" />
    <glyph glyph-name="G" unicode="G" horiz-adv-x="1433" 
d="M1085 88q-70 -58 -150 -88.5t-206 -30.5q-311 0 -489.5 191.5t-178.5 539.5q0 160 57.5 303t154.5 244t229.5 160t277.5 59q301 0 498 -139l-205 -487h-10q-2 133 -19 232t-45.5 162t-72 101t-92.5 53t-113 15q-98 0 -171.5 -48t-116.5 -134t-64 -193.5t-21 -236.5
q0 -178 25 -316t76.5 -241t136.5 -157t200 -54q93 0 162.5 32.5t102.5 65.5v112v106t-4 79.5t-7.5 61t-16 42t-23.5 31.5t-36.5 20.5t-48.5 18t-65 14.5l-166 33v12h705v-12q-47 -24 -65 -50.5t-27 -102t-9 -246.5v-324h-8z" />
    <glyph glyph-name="H" unicode="H" horiz-adv-x="1544" 
d="M1090 829q0 163 -3 255.5t-8 157t-20 93t-30.5 40.5t-49.5 24l-74 22v13h615v-13l-74 -22q-33 -11 -49 -23t-31 -40.5t-20 -93t-8 -157.5t-3 -256v-223q0 -136 1 -219.5t6.5 -149.5t11.5 -98t21 -55.5t29 -31t42 -17.5l74 -23v-12h-615v12l74 23q28 10 41.5 17.5t28.5 31
t21 55.5t11.5 97.5t7 150t1.5 219.5v125q-422 12 -635 12v-137q0 -135 1 -219.5t7 -150t11.5 -97.5t21 -55.5t29.5 -31t42 -17.5l72 -23v-12h-612v12l71 23q28 10 42 17.5t29 31t21 55.5t11.5 98t6.5 149.5t1 219.5v223q0 163 -3 255.5t-8 157t-20 93t-30.5 40.5t-49.5 24
l-71 22v13h612v-13l-72 -22q-28 -9 -42 -16.5t-29.5 -31t-21 -55.5t-11.5 -97.5t-7 -150t-1 -219.5v-53q283 0 635 10v43z" />
    <glyph glyph-name="I" unicode="I" horiz-adv-x="665" 
d="M209 829q0 163 -3 255.5t-8 157t-20 93t-30.5 40.5t-49.5 24l-71 22v13h612v-13l-72 -22q-28 -9 -42 -16.5t-29.5 -31t-21 -55.5t-11.5 -97.5t-7 -150t-1 -219.5v-223q0 -135 1 -219.5t7 -150t11.5 -97.5t21 -55.5t29.5 -31t42 -17.5l72 -23v-12h-612v12l71 23
q28 10 42 17.5t29 31t21 55.5t11.5 98t6.5 149.5t1 219.5v223z" />
    <glyph glyph-name="J" unicode="J" horiz-adv-x="720" 
d="M272 850q0 133 -1.5 215t-9.5 145.5t-15.5 93.5t-28.5 51.5t-39 28t-57 15.5l-103 22v13h680v-13l-73 -22q-24 -7 -35.5 -13.5t-25.5 -19t-20 -37t-12.5 -59.5t-8.5 -95.5t-3.5 -135.5t-1.5 -189v-358q0 -223 -52.5 -378t-155.5 -253t-269 -162l-4 16q38 17 69 38.5
t54 44t40.5 54t29.5 58t20 68.5t12.5 72.5t6.5 82t2.5 86t0.5 94.5v537z" />
    <glyph glyph-name="K" unicode="K" horiz-adv-x="1421" 
d="M1196 -18q-85 0 -147 43t-121 131l-402 583v11l324 370q55 62 83.5 108.5t34 77t-11 51.5t-44.5 32.5t-74 19.5l-66 12v13h582v-13q-82 -25 -158.5 -76t-210.5 -178l-278 -264l446 -639q72 -109 130.5 -160t125.5 -71v-13q-65 -21 -107 -29.5t-106 -8.5zM27 0v12l71 23
q28 10 42 17.5t29 31t21 55.5t11.5 98t6.5 149.5t1 219.5v223q0 163 -3 255.5t-8 157t-20 93t-30.5 40.5t-49.5 24l-71 22v13h612v-13l-72 -22q-28 -9 -42 -16.5t-29.5 -31t-21 -55.5t-11.5 -97.5t-7 -150t-1 -219.5v-223q0 -135 1 -219.5t7 -150t11.5 -97.5t21 -55.5
t29.5 -31t42 -17.5l72 -23v-12h-612z" />
    <glyph glyph-name="L" unicode="L" horiz-adv-x="1220" 
d="M27 0v12l71 23q28 9 41 15.5t28.5 28.5t20.5 52t11 94t7 145.5t1 215.5v264q0 133 -1 215t-6.5 145.5t-11 93.5t-21 52t-28.5 28t-41 15l-71 22v13h702v-15l-113 -22q-32 -8 -48 -13t-36.5 -18.5t-29.5 -28.5t-20 -47.5t-15 -71t-8 -103t-5 -139.5t-1 -185v-291
q0 -104 1.5 -168t7.5 -124t15.5 -90.5t27.5 -53.5t42.5 -29t60.5 -2l111 14q54 6 89 16t73.5 34.5t67.5 63.5t64.5 106.5t71 161t80.5 228.5h9l-56 -677h-2q-88 20 -256 20h-833z" />
    <glyph glyph-name="M" unicode="M" horiz-adv-x="1839" 
d="M838 -6l-506 1233l-49 -572q-11 -138 -14.5 -228.5t4 -161t20.5 -109t45 -66.5t67.5 -40.5t96.5 -24.5l61 -13v-12h-543v12l17 8q33 16 51.5 29t39.5 41t33 65.5t26.5 105t27 157t27.5 223.5l22 211q11 103 18 168t10.5 126t4 93.5t-5 63.5t-11 43.5t-21.5 25t-29.5 17
t-39.5 10.5l-94 22v13h420l445 -1094l309 852q34 97 41.5 151.5t-2.5 90.5h497v-13l-94 -22q-26 -6 -39.5 -10.5t-29.5 -16.5t-22.5 -25.5t-13.5 -43.5t-7.5 -64t0.5 -94t5 -127t11 -168l18 -246q14 -199 24 -302t26.5 -162.5t31 -75.5t47.5 -31l56 -21v-12h-639v12l71 17
q35 9 53.5 14.5t40 19t30.5 27.5t18.5 45t11 64.5t1.5 94t-4 125t-11 165.5l-48 663l-485 -1253h-20z" />
    <glyph glyph-name="N" unicode="N" horiz-adv-x="1435" 
d="M1219 -39l-998 1264l25 -574q4 -100 8 -164.5t11 -130t16 -104.5t24.5 -77.5t34.5 -59t48 -40t63 -30t81 -18.5l76 -15v-12h-581v12l45 13q33 9 47.5 15.5t33 29.5t25 58.5t14.5 106t9.5 168t1.5 248.5v131q0 400 -15 493t-96 124l-63 22v13h352l829 -1053l-16 401
q-4 102 -7.5 163.5t-10.5 129.5t-15.5 104.5t-24 77t-34 60t-48 40t-64 31t-83.5 19.5l-76 14v13h584v-13l-49 -12q-24 -7 -35.5 -11t-28.5 -16.5t-23.5 -28.5t-16.5 -48t-13.5 -74t-7.5 -107t-5 -147t-1 -195v-821h-16z" />
    <glyph glyph-name="O" unicode="O" horiz-adv-x="1501" 
d="M705 -31q-205 0 -351.5 88t-219.5 242t-73 360q0 175 54.5 325t150.5 255.5t232.5 165t294.5 59.5q205 0 353 -88t221 -240t73 -352q0 -238 -93.5 -424t-261 -288.5t-380.5 -102.5zM348 809q0 -363 123.5 -570.5t325.5 -207.5q167 0 261.5 157t94.5 437q0 363 -123 570.5
t-325 207.5q-168 0 -262.5 -156.5t-94.5 -437.5z" />
    <glyph glyph-name="P" unicode="P" horiz-adv-x="1185" 
d="M27 0v12l71 23q28 9 41 15.5t28.5 28.5t20.5 52t11 94t7 145.5t1 215.5v264q0 133 -1 215t-6.5 145.5t-11 93.5t-21 52t-28.5 28t-41 15l-71 22v13h591q263 0 412.5 -100t149.5 -298q0 -62 -19.5 -119.5t-66.5 -113.5t-118.5 -99t-182 -74t-250.5 -42l-4 18
q43 11 71.5 20t69.5 26t68.5 36t58 49t48.5 66t30 86.5t12 111.5q0 392 -389 392h-37q-18 -36 -18 -439v-368q0 -100 1 -168.5t5 -127.5t7.5 -94t15 -64t20 -43t29 -26t36 -16.5t47.5 -11.5l111 -23v-12h-698z" />
    <glyph glyph-name="Q" unicode="Q" horiz-adv-x="1501" 
d="M1139 -387q-73 0 -169.5 33t-177 72.5t-184.5 72.5t-190 33q-83 0 -158 -21l-6 72q112 8 168.5 13.5t176 27t206.5 53.5v8q-152 -10 -276 19t-210 89t-144.5 148.5t-86 195.5t-27.5 233q0 175 54.5 324.5t151 254.5t233.5 164t297 59q307 0 475 -185.5t168 -494.5
q0 -183 -54 -330.5t-147 -249t-227 -175t-284 -114t-329 -58.5v-7q70 9 93 9q86 0 348.5 -18.5t310.5 -18.5q41 0 66 5.5t54.5 24.5t55.5 59.5t55 108.5l15 -4q-38 -134 -63.5 -207.5t-55.5 -120.5t-60.5 -61t-78.5 -14zM348 807q0 -363 128.5 -566.5t342.5 -203.5
q50 0 97.5 21t91 67.5t75.5 113.5t51 166.5t19 219.5q0 364 -124 571t-331 207q-161 0 -255.5 -158.5t-94.5 -437.5z" />
    <glyph glyph-name="R" unicode="R" horiz-adv-x="1394" 
d="M27 0v12l71 23q28 9 41 15.5t28.5 28.5t20.5 52t11 94t7 145.5t1 215.5v264q0 133 -1 215t-6.5 145.5t-11 93.5t-21 52t-28.5 28t-41 15l-71 22v13h624q252 0 397.5 -100.5t145.5 -276.5q0 -60 -18 -114t-57.5 -104.5t-111.5 -89t-171 -59.5q151 -256 358 -522
q42 -53 83.5 -81.5t108.5 -55.5v-11q-104 -38 -212 -38q-86 0 -147 41t-122 135q-186 275 -305 508h-25h-122v-80q0 -133 1 -215.5t7 -146t11 -93.5t20.5 -52t28 -28.5t40.5 -15.5l74 -23v-12h-608zM453 705h131q164 0 245.5 81t81.5 232q0 194 -99.5 284.5t-303.5 90.5h-41
q-14 -42 -14 -439v-249z" />
    <glyph glyph-name="S" unicode="S" horiz-adv-x="1093" 
d="M518 -29q-134 0 -248.5 32.5t-183.5 68.5l35 495h10q106 -309 193 -425.5t219 -116.5q120 0 190 65t70 189q0 125 -78.5 208.5t-241.5 157.5q-202 88 -295.5 193.5t-93.5 265.5q0 163 116 262.5t341 99.5q120 0 259 -43t198 -88l-164 -444h-13q-12 199 -49 314.5
t-97 162.5t-155 47q-96 0 -154.5 -61t-58.5 -174q0 -95 54.5 -164t185.5 -127q71 -33 116 -55t99.5 -53.5t88 -59t68 -64.5t53 -76t30.5 -89.5t12 -108.5q0 -78 -31.5 -150.5t-91.5 -131.5t-159.5 -94.5t-223.5 -35.5z" />
    <glyph glyph-name="T" unicode="T" horiz-adv-x="1298" 
d="M276 0v12l95 23q36 9 53 15.5t37 28.5t26.5 52t14 93.5t9 146t1.5 215.5v348q0 381 -8 471l-76 -8q-41 -5 -66.5 -10.5t-54 -18t-46.5 -28.5t-40.5 -47.5t-39 -68t-39.5 -98t-45 -130t-52 -169.5h-14l22 641h4q96 -34 277 -34h602q226 0 326 34h4l-31 -641h-14
q-19 80 -31 130.5t-28 107t-26.5 89t-26.5 69.5t-29.5 56t-33 40.5t-38.5 31.5t-46 20.5t-55.5 15.5t-66.5 10l-74 8q-8 -106 -8 -471v-348q0 -133 1.5 -215.5t9 -146t14 -93.5t26 -52t36 -28.5t52.5 -15.5l96 -23v-12h-717z" />
    <glyph glyph-name="U" unicode="U" horiz-adv-x="1423" 
d="M750 -33q-91 0 -168 16t-147.5 57t-120 104.5t-78.5 164.5t-29 232v288q0 163 -3 255.5t-8 157t-20 93t-30.5 40.5t-49.5 24l-73 22v13h614v-13l-74 -22q-27 -9 -41 -16.5t-29 -31t-20.5 -55.5t-11.5 -97.5t-7 -150t-1 -219.5v-288q0 -256 94.5 -379t304.5 -123
q173 0 269 134.5t96 416.5q0 143 -3.5 244t-11.5 188t-24 143.5t-37.5 101t-55 71.5t-73.5 44t-97 27l-61 12v13h547v-13l-19 -8q-63 -25 -87 -60q-36 -54 -46 -225q-6 -122 -6 -542q0 -166 -33 -285.5t-97.5 -192.5t-154 -107t-208.5 -34z" />
    <glyph glyph-name="V" unicode="V" horiz-adv-x="1400" 
d="M205 1157q-24 62 -37 92.5t-30 63.5t-33.5 49t-39.5 31t-55 28v13h633v-13l-127 -24q-38 -7 -58 -16.5t-30.5 -28t-6 -47t22.5 -74.5l353 -920l190 533q47 123 72 204t35.5 147t-2 104.5t-43 62.5t-86.5 35l-123 24v13h551v-13q-52 -20 -91 -56t-89.5 -125.5
t-114.5 -246.5l-410 -1024h-18z" />
    <glyph glyph-name="W" unicode="W" horiz-adv-x="2045" 
d="M201 1165q-49 134 -82 181t-109 75v13h631v-13l-125 -24q-76 -17 -91 -48t15 -116l324 -887l188 647q31 95 -18 224q-36 102 -65.5 138.5t-112.5 65.5v13h622v-13l-114 -24q-36 -9 -54 -16.5t-30.5 -25t-8.5 -47t21 -77.5l319 -887l160 543q43 146 60.5 234.5t10 149
t-40 88t-95.5 40.5l-113 22v13h543v-13q-65 -27 -106.5 -68t-81.5 -122.5t-93 -237.5l-342 -1022h-18l-383 1030l-348 -1030h-19z" />
    <glyph glyph-name="X" unicode="X" horiz-adv-x="1421" 
d="M764 0v12l115 23q36 7 54.5 26.5t15 55t-35.5 82.5l-292 446l-191 -293q-67 -103 -83 -167.5t17.5 -102t120.5 -55.5l74 -15v-12h-547v12q68 22 123.5 63.5t101.5 96t132 170.5l239 326l-368 563q-59 91 -96 125.5t-111 64.5v13h645v-13l-119 -22q-123 -25 -33 -162
l271 -414l166 258q100 152 87.5 226t-141.5 100l-73 14v13h544v-13q-98 -32 -167 -98.5t-189 -230.5l-213 -289l389 -598q60 -92 98 -127.5t111 -65.5v-12h-645z" />
    <glyph glyph-name="Y" unicode="Y" horiz-adv-x="1312" 
d="M293 0v12l96 23q36 9 53 15.5t37 28.5t26.5 52t14 93.5t9 146t1.5 215.5v41l-331 600q-57 103 -92 137t-97 57v13h631v-13l-123 -24q-69 -15 -79 -54.5t30 -111.5l303 -567l160 376q58 133 70 204t-15.5 105.5t-105.5 49.5l-115 22v13h537v-13q-61 -20 -102.5 -52
t-91.5 -105.5t-118 -208.5l-215 -426v-43q0 -134 1.5 -215.5t8.5 -145.5t13.5 -94t26.5 -52t36.5 -28.5t52.5 -15.5l97 -23v-12h-719z" />
    <glyph glyph-name="Z" unicode="Z" horiz-adv-x="1224" 
d="M47 12q42 67 272 475l275 478q55 97 115 198t90 154t51 94l-281 -27q-66 -7 -106.5 -15.5t-81.5 -30.5t-66.5 -54t-54.5 -91t-53 -135.5t-55 -193.5h-11l-22 606h4q67 -36 330 -36h690v-15q-22 -35 -275 -473l-274 -479q-44 -77 -96 -165.5t-74.5 -127.5t-45.5 -81.5
t-38 -74.5l356 33q68 6 111.5 19.5t90 47.5t87.5 99t87.5 165.5t105.5 256.5h12l-74 -662h-4q-80 23 -303 23h-762v12z" />
    <glyph glyph-name="bracketleft" unicode="[" horiz-adv-x="563" 
d="M502 -240v-32h-475v1734h475v-32h-258v-1670h258z" />
    <glyph glyph-name="backslash" unicode="\" horiz-adv-x="772" 
d="M762 -193l-33 -10l-719 1737l33 10z" />
    <glyph glyph-name="bracketright" unicode="]" horiz-adv-x="563" 
d="M61 -240h258v1670h-258v32h476v-1734h-476v32z" />
    <glyph glyph-name="asciicircum" unicode="^" horiz-adv-x="552" 
d="M61 1042l205 392h21l205 -392h-33l-183 347l-182 -347h-33z" />
    <glyph glyph-name="underscore" unicode="_" horiz-adv-x="733" 
d="M-10 -135h753v-41h-753v41z" />
    <glyph glyph-name="grave" unicode="`" horiz-adv-x="466" 
d="M61 1479h248l97 -349l-11 -4l-332 340z" />
    <glyph glyph-name="a" unicode="a" horiz-adv-x="991" 
d="M276 -33q-89 0 -147.5 65t-58.5 163q0 117 82 185t290 105l140 27v188q0 129 -48.5 185.5t-113.5 56.5q-34 0 -57 -15t-39.5 -52t-15.5 -110.5t20 -180.5l-240 -23q8 100 40 178.5t76.5 126t102 78t112.5 42t113 11.5q138 0 203.5 -68.5t65.5 -203.5q0 -64 -4 -212.5
t-4 -256.5q0 -119 65 -119q55 0 74.5 54t19.5 188h17q5 -195 -42.5 -298.5t-160.5 -103.5q-183 0 -180 222h-8q-23 -36 -42 -62t-50.5 -60.5t-61 -56.5t-69 -37.5t-79.5 -15.5zM272 272q0 -61 32 -95t87 -34q14 0 29 2.5t26.5 5t27.5 10t23.5 10.5t24.5 13t21 13t21 14
t18 12v269l-121 -43q-102 -38 -145.5 -79t-43.5 -98z" />
    <glyph glyph-name="b" unicode="b" horiz-adv-x="1060" 
d="M539 -29q-180 0 -310 117l-116 -160h-9q11 176 16 352t6 298.5t1 373.5l-2 66q1 131 -7 188t-29 78.5t-71 28.5l-34 6v12l356 174h8q-1 -43 -1 -85v-146t-1 -242v-123l-6 -88h10q93 91 170 134.5t158 43.5q144 0 235 -116t91 -330q0 -131 -38 -241.5t-101.5 -184.5
t-148 -115t-177.5 -41zM342 338q0 -146 60 -230.5t157 -84.5q89 0 154 99t65 302q0 94 -14.5 167.5t-38.5 119.5t-57.5 75.5t-69 41.5t-76.5 12q-65 0 -178 -45q-2 -225 -2 -457z" />
    <glyph glyph-name="c" unicode="c" horiz-adv-x="923" 
d="M481 -29q-84 0 -159 30t-135 88t-95 152.5t-35 213.5t40.5 222t107.5 171.5t154 107.5t180 39q196 0 340 -90l-172 -352h-9q7 206 -40 297.5t-146 91.5q-105 0 -168 -100.5t-63 -282.5q0 -188 76.5 -306t222.5 -118q115 0 198 89t92 257l13 -2q-1 -248 -110 -378
t-292 -130z" />
    <glyph glyph-name="d" unicode="d" horiz-adv-x="1101" 
d="M389 -29q-148 0 -240 116t-92 329q0 263 133.5 422t327.5 159q113 0 201 -45l-2 66q0 131 -8.5 187.5t-29.5 78.5t-71 29l-33 6v12l355 174h8q-1 -35 -1 -71.5v-74t0.5 -129t0.5 -198.5v-575q0 -68 1 -108t5 -76.5t10.5 -54.5t20 -33t30 -21t42.5 -10l32 -4v-13
l-350 -168h-6l-2 181h-10q-90 -91 -166.5 -135t-155.5 -44zM283 545q0 -115 22 -198.5t60 -129t81.5 -66t94.5 -20.5q76 0 178 47v447q0 148 -58 233.5t-161 85.5q-87 0 -152 -99.5t-65 -299.5z" />
    <glyph glyph-name="e" unicode="e" horiz-adv-x="927" 
d="M483 -29q-64 0 -123.5 16t-115 53t-96.5 91.5t-66 137.5t-25 184q0 104 29 194t76.5 152.5t107 107.5t120.5 66.5t118 21.5q153 0 254.5 -102t101.5 -291l-24 -27l-557 19v-21q0 -205 79 -321.5t216 -116.5q121 0 200 89t88 257l13 -2q-3 -253 -106.5 -380.5
t-289.5 -127.5zM285 625l346 10q11 77 3.5 145t-47.5 115t-104 47q-76 0 -132.5 -84t-65.5 -233z" />
    <glyph glyph-name="f" unicode="f" horiz-adv-x="696" 
d="M408 375q0 -57 1 -97.5t6.5 -74.5t10 -55.5t18 -40t23.5 -28t33.5 -19.5t41.5 -15t54 -14l72 -19v-12h-633v12l63 19q28 9 39.5 16t24.5 25t17 55t6.5 93.5t2.5 154.5v547h-143v47h143q22 99 66 192.5t104.5 171t142 125t169.5 47.5q25 0 45 -2v-237h-8q-108 12 -166 12
q-215 0 -215 -129q0 -98 73 -180h301l7 -8v-39h-299v-547z" />
    <glyph glyph-name="g" unicode="g" horiz-adv-x="987" 
d="M266 -373q-108 0 -174.5 34.5t-66.5 98.5q0 67 44.5 128t153.5 149q-52 13 -70 35.5t-18 58.5q0 47 35.5 108t105.5 148q-90 35 -139 104t-49 154q0 147 115 250.5t286 103.5h3h2q252 0 460 -18v-12q-27 -7 -93.5 -28t-102.5 -30q92 -80 92 -206q0 -141 -116 -244
t-288 -103q-77 0 -151 23q-16 -57 -16 -94q0 -32 7.5 -44t48.5 -20t134 -8q55 0 92.5 -0.5t83.5 -3t77 -7t66 -13t57.5 -20t44.5 -28t34.5 -38t20 -50t7.5 -63.5q0 -97 -100.5 -182.5t-258.5 -134t-327 -48.5zM203 -121q0 -28 12.5 -57t39.5 -57t79.5 -46t122.5 -18
q52 0 106.5 10.5t104.5 31t82 55.5t32 79q0 47 -24.5 75.5t-97.5 46t-203 17.5q-139 0 -209 15q-45 -63 -45 -152zM295 733q0 -133 58 -230t155 -97q66 0 100.5 58.5t34.5 158.5q0 134 -58.5 230.5t-154.5 96.5q-66 0 -100.5 -58t-34.5 -159z" />
    <glyph glyph-name="h" unicode="h" horiz-adv-x="1136" 
d="M973 354q0 -75 1 -122.5t6 -84t9.5 -55t17 -32t23 -18t33.5 -11.5l61 -19v-12h-522v12l62 19q23 7 33.5 11.5t23 18t17 32t9.5 55t6 84t1 122.5v314q0 78 -30.5 116.5t-96.5 38.5q-96 0 -238 -45v-424q0 -75 1 -122.5t6 -84t9.5 -55t17 -32t23 -18t33.5 -11.5l62 -19v-12
h-523v12l62 19q23 7 33.5 11.5t23 18t17 32t9.5 55t6 84t1 122.5v164l-2 500q1 131 -7 188t-29 78.5t-71 28.5l-34 6v12l356 174h8q-1 -43 -1 -85v-146t-1 -242v-133l-4 -94h10q218 194 379 194q199 0 199 -251v-394z" />
    <glyph glyph-name="i" unicode="i" horiz-adv-x="567" 
d="M174 510q0 101 -3 152.5t-16 84.5t-32 43t-57 17l-35 4l2 12l354 176l8 -2q-1 -42 -1 -84v-146.5t-1 -242.5v-170q0 -75 1 -122.5t6 -84t9.5 -55t17 -32t23 -18t33.5 -11.5l62 -19v-12h-522v12l61 19q23 7 33.5 11.5t23 18t17 32t9.5 55t6 84t1 122.5v156zM152 1343
q0 65 39.5 100.5t105.5 35.5q67 0 106 -35.5t39 -100.5q0 -68 -39 -103.5t-106 -35.5q-66 0 -105.5 36t-39.5 103z" />
    <glyph glyph-name="j" unicode="j" horiz-adv-x="507" 
d="M-8 -389q28 21 50 42.5t39 40.5t29.5 47.5t21 48.5t14 59t8.5 63t4.5 76.5t1.5 84v99.5v338q0 132 -8.5 189t-29 78t-71.5 30l-33 4v12l355 176l8 -2v-473v-385q0 -207 -105 -344t-280 -192zM125 1343q0 65 39.5 100.5t105.5 35.5q67 0 106.5 -35.5t39.5 -100.5
q0 -68 -39 -103.5t-107 -35.5q-66 0 -105.5 36t-39.5 103z" />
    <glyph glyph-name="k" unicode="k" horiz-adv-x="1110" 
d="M18 0v12l62 19q22 7 33 12t23.5 19.5t17.5 34.5t10 60t6 92.5t2 135.5l2 635q1 80 -1.5 126.5t-7.5 81t-18.5 50.5t-30.5 24t-48 13l-33 6v12l356 172h8q-1 -13 -6 -473l-4 -647q-1 -125 1 -187.5t12.5 -100t23.5 -47.5t43 -21l53 -17v-12h-504zM453 477v39l239 260
q28 30 43 48.5t25.5 39.5t5.5 34t-24.5 25t-57.5 19l-68 14v13h437v-11q-123 -58 -271 -178l-188 -149q115 -184 219 -322q215 -276 287 -295v-12q-82 -16 -142 -16q-192 0 -278 143z" />
    <glyph glyph-name="l" unicode="l" horiz-adv-x="559" 
d="M168 1018q1 131 -7 188t-29 78.5t-71 28.5l-34 6v12l356 174h8q-1 -43 -1 -85v-146t-1 -242v-678q0 -75 1 -122.5t6 -84t9.5 -55t17 -32t23 -18t33.5 -11.5l62 -19v-12h-523v12l62 19q23 7 33.5 11.5t23 18t17 32t9.5 55t6 84t1 122.5z" />
    <glyph glyph-name="m" unicode="m" horiz-adv-x="1701" 
d="M973 805q218 194 375 194q105 0 147.5 -65.5t42.5 -202.5v-377q0 -75 1 -122.5t6 -84t9.5 -55t17 -32t23 -18t33.5 -11.5l60 -19v-12h-521v12l62 19q33 10 46.5 19t25 43.5t14 91t2.5 169.5v310q0 83 -30.5 121t-98.5 38t-221 -45v-67v-357q0 -113 2.5 -169.5t14 -91
t25 -43.5t46.5 -19l61 -19v-12h-520v12l59 19q23 7 33.5 11.5t23 18t17 32t9.5 55t6 84t1 122.5v310q0 83 -30.5 121t-98.5 38q-16 0 -32.5 -1.5t-35 -4.5t-31.5 -5.5t-34.5 -8.5t-30 -8t-32 -9t-27.5 -8v-424q0 -75 1 -122.5t6 -84t9.5 -55t17 -32t23 -18t33.5 -11.5
l62 -19v-12h-522v12l61 19q23 7 33.5 11.5t23 18t17 32t9.5 55t6 84t1 122.5v168q0 123 -7.5 174.5t-28.5 73t-72 29.5l-35 4v12l350 184h8v-194h10q111 98 201.5 146t175.5 48q91 0 136.5 -52.5t50.5 -141.5h10z" />
    <glyph glyph-name="n" unicode="n" horiz-adv-x="1140" 
d="M393 354q0 -75 1 -122.5t6 -84t9.5 -55t17 -32t23 -18t33.5 -11.5l62 -19v-12h-522v12l61 19q23 7 33.5 11.5t23 18t17 32t9.5 55t6 84t1 122.5v154q0 79 -2 121t-7 78.5t-18 52t-31 25t-50 14.5l-37 4v12l352 184h8v-194h10q218 194 379 194q109 0 155 -64.5t46 -186.5
v-394q0 -113 2.5 -169.5t14 -91t25 -43.5t46.5 -19l61 -19v-12h-520v12l60 19q23 7 33.5 11.5t23 18t17 32t9.5 55t6 84t1 122.5v314q0 79 -31.5 117t-101.5 38q-90 0 -232 -45v-424z" />
    <glyph glyph-name="o" unicode="o" horiz-adv-x="1046" 
d="M500 -29q-214 0 -328.5 122t-114.5 347q0 240 141 397.5t349 157.5q216 0 329 -123t113 -348q0 -158 -64.5 -285t-176 -197.5t-248.5 -70.5zM305 549q0 -238 63 -381t183 -143q192 0 192 391q0 239 -61.5 382.5t-183.5 143.5q-69 0 -113 -53.5t-62 -138.5t-18 -201z" />
    <glyph glyph-name="p" unicode="p" horiz-adv-x="1069" 
d="M569 23q89 0 154 99t65 302q0 117 -21 201t-58 129.5t-81 65.5t-98 20q-73 0 -180 -47v-443q0 -154 60 -240.5t159 -86.5zM-20 -348v12l63 19q28 9 39.5 16t24.5 25t17 55t6.5 93.5t2.5 154.5v481q0 76 -2 118.5t-7.5 78t-18.5 52.5t-31 27t-49 15l-33 4v12l350 184h8
v-180h8q92 92 171 136t159 44q144 0 235 -116t91 -328q0 -132 -37 -243t-101 -185t-148.5 -115t-178.5 -41q-107 0 -197 47q0 -55 1 -94.5t6.5 -72.5t10 -54t18 -39t23.5 -27t33.5 -19t41 -15t53.5 -14l73 -19v-12h-632z" />
    <glyph glyph-name="q" unicode="q" horiz-adv-x="1077" 
d="M938 27q0 -98 2.5 -154.5t6.5 -93.5t17 -55t24.5 -25t39.5 -16l64 -19v-12h-633v12l71 19q48 12 70 18.5t48.5 23t36 35.5t20 56.5t12.5 86t2 124.5v123h-6q-90 -92 -167 -135.5t-157 -43.5q-150 0 -241 115.5t-91 329.5q0 137 39 249t104.5 183.5t147 110t170.5 38.5
q178 0 311 -112l125 182h11q-29 -280 -29 -651zM283 543q0 -114 22 -198t60.5 -128.5t82 -65t93.5 -20.5q82 0 178 47v447q0 149 -59 235t-160 86q-39 0 -75.5 -22.5t-69 -68t-52.5 -126.5t-20 -186z" />
    <glyph glyph-name="r" unicode="r" horiz-adv-x="776" 
d="M397 375q0 -76 2 -124.5t12 -86t19.5 -56.5t35.5 -35.5t48.5 -23t69.5 -18.5l71 -19v-12h-632v12l63 19q28 9 39.5 16t24.5 25t17 55t6.5 93.5t2.5 154.5v145q0 122 -9 176.5t-29.5 74t-69.5 28.5l-35 4v12l352 184l8 -2v-241h8q211 241 347 241h14v-254h-6
q-208 52 -359 -14v-354z" />
    <glyph glyph-name="s" unicode="s" horiz-adv-x="821" 
d="M406 -33q-100 0 -200 24t-140 48l51 377h6q50 -217 127 -306.5t188 -89.5q78 0 119 42t41 100q0 65 -47.5 111.5t-185.5 109.5q-158 72 -216.5 142.5t-58.5 179.5q0 129 100.5 209.5t245.5 80.5q98 0 184 -27t140 -67l-129 -305h-6q-15 346 -230 346q-66 0 -105.5 -40.5
t-39.5 -100.5q0 -54 35.5 -90.5t136.5 -83.5q69 -31 107 -50t82.5 -44.5t67 -47.5t43.5 -51.5t28.5 -63.5t7.5 -77q0 -141 -94.5 -233.5t-257.5 -92.5z" />
    <glyph glyph-name="t" unicode="t" horiz-adv-x="722" 
d="M373 -29q-244 0 -244 277q0 77 9 314.5t12 359.5h-123v47h135l188 309h10v-309h326l4 -6l-6 -41h-324q-6 -307 -6 -607q0 -100 30 -142t95 -42q53 0 88 23.5t64 86.5t55 181l12 -2q-22 -227 -98.5 -338t-226.5 -111z" />
    <glyph glyph-name="u" unicode="u" horiz-adv-x="1118" 
d="M365 -33q-52 0 -90.5 14t-61.5 37t-36.5 58t-18 70t-4.5 81v283q1 131 -7.5 188.5t-29.5 78.5t-72 30l-33 4v12l357 176l8 -2q-2 -49 -2 -473v-211q0 -91 24.5 -130.5t98.5 -39.5q89 0 231 45l-2 322q1 101 -2 152.5t-15.5 84.5t-31.5 43t-57 17l-35 4v12l356 176l8 -2
q-1 -42 -1 -84v-146.5t-1 -242.5v-69q0 -79 2 -122t7.5 -80t18.5 -53.5t31.5 -26.5t49.5 -15l37 -4v-13l-355 -174h-6v193h-10q-220 -193 -358 -193z" />
    <glyph glyph-name="v" unicode="v" horiz-adv-x="993" 
d="M109 836q-22 50 -42.5 77t-56.5 48v8h469v-13l-53 -18q-63 -22 -74 -48t15 -95l221 -555l141 393q87 243 -104 317l-19 6v13h377v-8q-47 -47 -75.5 -93t-69.5 -135l-353 -766h-8z" />
    <glyph glyph-name="w" unicode="w" horiz-adv-x="1421" 
d="M100 836q-22 59 -39 81.5t-51 43.5v8h451v-13l-45 -18q-60 -25 -71.5 -51t9.5 -92l176 -551l234 725h8l285 -717l106 379q19 78 20 132t-19 92.5t-47 59.5t-64 33l-19 8v13h377v-8q-47 -50 -77.5 -101t-61.5 -127l-314 -766h-6l-252 613l-270 -613h-6z" />
    <glyph glyph-name="x" unicode="x" horiz-adv-x="1026" 
d="M528 0v12l60 15q44 14 51.5 40t-23.5 76l-184 277l-104 -160q-28 -45 -41.5 -80t-13 -67t23 -55.5t68.5 -37.5l26 -8v-12h-381v8q29 17 50 32.5t63 55.5t94 99l203 239l-252 375q-38 59 -68.5 93t-74.5 59v8h483v-13l-59 -16q-46 -14 -53 -40.5t24 -72.5l176 -274
l102 156q27 44 39 79t10 66.5t-26 55t-70 38.5l-24 8v13h379v-8q-74 -44 -197 -189l-199 -235l260 -379q46 -67 75.5 -98t68.5 -54v-6h-486z" />
    <glyph glyph-name="y" unicode="y" horiz-adv-x="1009" 
d="M72 -373l-31 271l6 2q116 -57 254 -33.5t184 115.5l-376 860q-22 49 -40.5 73t-56.5 46v8h473v-13l-55 -18q-63 -22 -75 -49.5t16 -93.5l231 -564l139 400q25 73 29.5 130t-11 94.5t-42 60.5t-64.5 34l-20 6v13h366v-8q-50 -50 -75 -90.5t-70 -135.5l-326 -708
q-48 -105 -90.5 -174t-96.5 -123t-119.5 -78.5t-149.5 -24.5z" />
    <glyph glyph-name="z" unicode="z" horiz-adv-x="911" 
d="M49 0v10l512 928l-129 -14q-89 -11 -140.5 -38.5t-95.5 -93.5t-98 -200h-8l10 395q53 -18 199 -18h530v-8l-516 -936l205 22q41 5 67.5 11t55 23t48 36.5t48 62.5t54.5 89.5t69 127.5l8 -2l-51 -395h-768z" />
    <glyph glyph-name="braceleft" unicode="{" horiz-adv-x="620" 
d="M559 1468h-6q-101 0 -168.5 -33.5t-67.5 -99.5q0 -40 31.5 -132.5t62.5 -194.5t31 -164q0 -48 -10 -84t-35.5 -70t-76 -56t-125.5 -32q75 -10 125.5 -32t76 -55.5t35.5 -69.5t10 -83q0 -63 -31 -165.5t-62.5 -195.5t-31.5 -132q0 -66 67.5 -99.5t168.5 -33.5h6v-12h-6
q-451 0 -451 192q0 54 25 124.5t55 128t55 124.5t25 115q0 95 -35.5 132.5t-154.5 57.5v8q119 20 154.5 57t35.5 132q0 49 -25 116.5t-55 125t-55 128t-25 123.5q0 193 451 193h6v-13z" />
    <glyph glyph-name="bar" unicode="|" horiz-adv-x="83" 
d="M59 -297h-32v1817h32v-1817z" />
    <glyph glyph-name="braceright" unicode="}" horiz-adv-x="620" 
d="M61 1481h7q450 0 450 -193q0 -53 -25 -123.5t-55 -128t-55 -125t-25 -116.5q0 -94 36 -131.5t155 -57.5v-8q-119 -20 -155 -57.5t-36 -132.5q0 -48 25 -115t55 -124.5t55 -128t25 -124.5q0 -192 -450 -192h-7v12h7q101 0 168 33.5t67 99.5q0 39 -31 132t-62.5 195.5
t-31.5 165.5q0 47 10 83t36 69.5t76.5 55.5t125.5 32q-75 10 -125.5 32t-76.5 56t-36 70t-10 84q0 62 31 164t62.5 194.5t31.5 132.5q0 66 -67 99.5t-168 33.5h-7v13z" />
    <glyph glyph-name="asciitilde" unicode="~" horiz-adv-x="552" 
d="M61 504q3 49 32 86t77 37q46 0 111 -39t106 -39q61 0 72 96l33 -6q-3 -49 -32 -86t-77 -37q-46 0 -110.5 39t-104.5 39q-60 0 -74 -96z" />
    <glyph glyph-name="uni00A0" unicode="&#xa0;" horiz-adv-x="481" 
 />
    <glyph glyph-name="exclamdown" unicode="&#xa1;" horiz-adv-x="595" 
d="M305 582q77 -568 131 -1033l-256 -32l-6 12q14 121 39.5 340t43.5 384t34 329h14zM160 868q0 51 39.5 87t95.5 36t95.5 -36t39.5 -87q0 -49 -39.5 -84.5t-95.5 -35.5t-95.5 35.5t-39.5 84.5z" />
    <glyph glyph-name="cent" unicode="&#xa2;" horiz-adv-x="923" 
d="M481 57q-84 0 -159 30t-135 88t-95 152.5t-35 213.5q0 116 38.5 217t103 169.5t148.5 109t175 44.5l13 338h32l-12 -338q186 -3 324 -90l-172 -352h-9q6 184 -31 275.5t-114 109.5l-31 -797q27 -6 58 -6q115 0 198 89t92 257l13 -2q-1 -237 -100 -366t-267 -140l-14 -350
h-33l14 348h-2zM281 645q0 -155 53 -265t155 -144l31 792h-8q-105 0 -168 -100.5t-63 -282.5z" />
    <glyph glyph-name="sterling" unicode="&#xa3;" horiz-adv-x="1099" 
d="M27 -18q48 119 88.5 171.5t117.5 90.5q39 85 39 219q0 79 -36 205h-164v34h153q-25 78 -34.5 110.5t-22 96.5t-12.5 115q0 137 62 239t164.5 152.5t231.5 50.5q250 0 459 -176l-221 -368h-8q-15 237 -81 359t-177 122q-92 0 -144.5 -73t-52.5 -197q0 -57 9 -124.5
t15.5 -100t27 -116t22.5 -90.5h356v-34h-348q14 -75 14 -121q0 -97 -50 -170.5t-171 -124.5v-2q121 9 212.5 0.5t201.5 -23t143 -14.5q133 0 217 156l9 -4q-15 -70 -28 -120t-35 -103.5t-47 -86t-62 -54t-82 -21.5q-75 0 -238 44t-244 44q-139 0 -276 -95z" />
    <glyph glyph-name="currency" unicode="&#xa4;" horiz-adv-x="811" 
d="M674 719q0 -90 -53 -162l129 -131l-50 -51l-131 131q-71 -55 -163 -55q-95 0 -162 55l-131 -131l-52 49l132 133q-56 69 -56 162q0 90 56 162l-132 131l52 51l131 -131q71 55 162 55q90 0 161 -55l131 131l52 -51l-132 -131q56 -72 56 -162zM250 674q17 -65 76 -98.5
t123 -14.5t97.5 77.5t16.5 123.5q-19 65 -78 98t-123 14q-65 -19 -98 -77.5t-14 -122.5z" />
    <glyph glyph-name="yen" unicode="&#xa5;" horiz-adv-x="1312" 
d="M293 -2v12l96 23q32 8 47 13.5t34 21t26.5 37.5t16 63t11.5 98.5t4 143.5h-258v34h260v140v37h-260v32h244l-315 572q-57 103 -92 137t-97 57v13h631v-13l-123 -24q-69 -15 -79 -54.5t30 -111.5l303 -567l160 376q58 133 70 204t-15.5 105.5t-105.5 49.5l-115 22v13h537
v-13q-61 -20 -102.5 -52t-91.5 -105.5t-118 -208.5l-200 -400h229v-32h-244v-37v-140h244v-34h-242q1 -86 3.5 -143.5t11 -98.5t16 -63t26.5 -37.5t33.5 -21t46.5 -13.5l97 -23v-12h-719z" />
    <glyph glyph-name="brokenbar" unicode="&#xa6;" horiz-adv-x="83" 
d="M59 -297h-32v766h32v-766zM27 750v766h32v-766h-32z" />
    <glyph glyph-name="section" unicode="&#xa7;" horiz-adv-x="1075" 
d="M88 563q0 98 65.5 171.5t141.5 99.5q-145 106 -145 278q0 71 25.5 133.5t75.5 112.5t133.5 79t190.5 29q112 0 238.5 -42.5t179.5 -86.5l-114 -370h-11q-28 174 -69.5 272t-98.5 137t-145 39q-85 0 -141 -53.5t-56 -155.5q0 -86 49.5 -147.5t174.5 -108.5
q111 -42 184.5 -78.5t131 -82.5t84 -100.5t26.5 -123.5q0 -99 -66 -172.5t-143 -97.5q147 -108 147 -279q0 -71 -26 -134t-76.5 -113.5t-134 -79.5t-189.5 -29q-112 0 -238 43t-182 88l115 369h12q28 -175 69.5 -272.5t98.5 -136t146 -38.5q85 0 139.5 52.5t54.5 154.5
q0 87 -48.5 148t-172.5 110q-112 42 -185.5 78.5t-131 82t-83.5 100.5t-26 124zM297 686q0 -99 64 -162.5t212 -117.5q125 -44 205 -97q21 53 21 133q0 98 -65.5 161.5t-211.5 117.5q-136 50 -207 98q-18 -56 -18 -133z" />
    <glyph glyph-name="dieresis" unicode="&#xa8;" horiz-adv-x="659" 
d="M150 1116q-49 0 -79 26.5t-30 74.5t30 74t79 26q50 0 78 -25.5t28 -74.5t-28 -75t-78 -26zM391 1217q0 48 29.5 74t77.5 26q50 0 78 -25.5t28 -74.5t-28 -75t-78 -26q-47 0 -77 26.5t-30 74.5z" />
    <glyph glyph-name="copyright" unicode="&#xa9;" horiz-adv-x="1601" 
d="M801 -29q-151 0 -289 59.5t-237.5 159.5t-158.5 238t-59 289q0 150 59 287.5t158.5 236.5t237.5 158t289 59t289 -59t238 -158t159 -236.5t59 -287.5q0 -151 -59 -289t-159 -238t-238 -159.5t-289 -59.5zM88 717q0 -145 57 -277t152.5 -228t227.5 -153t276 -57
q145 0 277 57t228 153t153 228t57 277q0 144 -57 275.5t-153 226.5t-228 151.5t-277 56.5q-144 0 -276 -56.5t-227.5 -151.5t-152.5 -226.5t-57 -275.5zM387 713q0 113 38 211t102 163.5t146.5 102.5t170.5 37q185 0 325 -86l-165 -336h-9q7 196 -37.5 283.5t-138.5 87.5
q-101 0 -161 -95t-60 -268q0 -178 74 -290.5t211 -112.5q111 0 190 84.5t86 244.5l12 -2q-1 -236 -104 -359.5t-276 -123.5q-80 0 -151.5 28.5t-128.5 83.5t-90.5 144.5t-33.5 202.5z" />
    <glyph glyph-name="ordfeminine" unicode="&#xaa;" horiz-adv-x="618" 
d="M162 928q-44 0 -72.5 32t-28.5 78q0 66 56.5 100.5t181.5 57.5l31 6v115q0 102 -62 102q-58 0 -22 -180l-166 -27q4 69 30 118.5t65.5 74t78.5 35t80 10.5q87 0 120 -36.5t33 -113.5q0 -40 -2 -102t-2 -98t7 -48t22 -12q21 0 29 22.5t8 94.5h8q3 -116 -26.5 -169.5
t-96.5 -53.5q-110 0 -100 119h-4q-77 -125 -168 -125zM82 811v29h459v-29h-459zM203 1100q0 -49 57 -49q38 0 70 14v129l-27 -10q-60 -21 -80 -39t-20 -45z" />
    <glyph glyph-name="guillemotleft" unicode="&#xab;" horiz-adv-x="817" 
d="M436 119l-409 350v43l409 352l17 -12l-213 -363l213 -358zM365 469v43l409 352l17 -12l-213 -363l213 -358l-17 -12z" />
    <glyph glyph-name="logicalnot" unicode="&#xac;" horiz-adv-x="516" 
d="M61 614v33h394v-192h-33v159h-361z" />
    <glyph glyph-name="uni00AD" unicode="&#xad;" horiz-adv-x="651" 
d="M61 549h529v-33h-529v33z" />
    <glyph glyph-name="registered" unicode="&#xae;" horiz-adv-x="1601" 
d="M801 -29q-151 0 -289 59.5t-237.5 159.5t-158.5 238t-59 289q0 150 59 287.5t158.5 236.5t237.5 158t289 59t289 -59t238 -158t159 -236.5t59 -287.5q0 -151 -59 -289t-159 -238t-238 -159.5t-289 -59.5zM88 717q0 -145 57 -277t152.5 -228t227.5 -153t276 -57
q145 0 277 57t228 153t153 228t57 277q0 144 -57 275.5t-153 226.5t-228 151.5t-277 56.5q-144 0 -276 -56.5t-227.5 -151.5t-152.5 -226.5t-57 -275.5zM418 301v8l43 13q26 8 36 16t19 44.5t10.5 96t1.5 183.5v159q0 123 -1.5 182.5t-10.5 96.5t-19.5 45t-35.5 16l-43 13v8
h383q156 0 245 -63.5t89 -178.5q0 -75 -46 -133.5t-149 -85.5q97 -179 201 -320q18 -24 34 -38t29.5 -21t50.5 -23v-6q-70 -24 -133 -24q-53 0 -91 24.5t-70 79.5q-104 176 -160 307h-45h-78v-38q0 -160 6 -226t17.5 -85t43.5 -29l46 -13v-8h-373zM678 725h84q97 0 149 50
t52 140q0 127 -61.5 184.5t-188.5 57.5h-25q-10 -30 -10 -270v-162z" />
    <glyph glyph-name="macron" unicode="&#xaf;" horiz-adv-x="579" 
d="M518 1225v-51h-457v51h457z" />
    <glyph glyph-name="degree" unicode="&#xb0;" horiz-adv-x="489" 
d="M244 1464q83 0 133.5 -47.5t50.5 -124.5t-50.5 -124.5t-133.5 -47.5q-82 0 -132.5 47.5t-50.5 124.5t50.5 124.5t132.5 47.5zM141 1294q0 -47 29.5 -76.5t75.5 -29.5t74 29.5t28 76.5t-28 76t-74 29t-75.5 -29t-29.5 -76z" />
    <glyph glyph-name="plusminus" unicode="&#xb1;" horiz-adv-x="651" 
d="M61 502h248v248h33v-248h248v-33h-248v-186h248v-33h-248v-29h-33v29h-248v33h248v186h-248v33z" />
    <glyph glyph-name="uni00B2" unicode="&#xb2;" horiz-adv-x="624" 
d="M555 1270l8 -2l-20 -307q-78 10 -174 10h-277l-31 86q145 113 220 232.5t75 219.5q0 49 -31 75t-79 26q-52 0 -101 -33t-59 -88h-8q5 98 71 156.5t175 58.5q93 0 149.5 -42t56.5 -122q0 -206 -393 -461l242 17q28 2 42 4.5t35 12.5t35 27.5t31 49.5t33 80z" />
    <glyph glyph-name="uni00B3" unicode="&#xb3;" horiz-adv-x="606" 
d="M281 1366q117 12 190.5 -29t73.5 -116q0 -115 -128 -187t-354 -78l-2 9q72 8 125 27.5t84 44t49.5 56.5t24.5 61t6 63q0 54 -33 84.5t-106 37.5q-4 -1 -20 -6t-25 -8l-8 25q86 20 130 61t44 113q0 43 -26.5 65.5t-69.5 22.5q-50 0 -88 -27.5t-46 -81.5h-6q1 98 54 150.5
t149 52.5q92 0 142.5 -41t50.5 -102q0 -73 -49 -118t-162 -79z" />
    <glyph glyph-name="acute" unicode="&#xb4;" horiz-adv-x="411" 
d="M406 1479l-3 -13l-331 -340l-11 4l97 349h248z" />
    <glyph glyph-name="paragraph" unicode="&#xb6;" horiz-adv-x="1034" 
d="M274 -346q179 62 266 176t87 311v377h-150q-228 0 -349.5 116t-121.5 349q0 226 121 338.5t350 112.5h533v-13l-74 -22q-21 -7 -31.5 -11t-24 -16t-19.5 -26t-13.5 -43t-10.5 -64.5t-6 -93.5t-3.5 -127t-0.5 -168v-717q0 -246 -143 -369.5t-410 -123.5v14z" />
    <glyph glyph-name="periodcentered" unicode="&#xb7;" horiz-adv-x="393" 
d="M199 573q-57 0 -97.5 36t-40.5 87q0 50 40.5 85.5t97.5 35.5q54 0 93.5 -36t39.5 -85q0 -51 -39.5 -87t-93.5 -36z" />
    <glyph glyph-name="cedilla" unicode="&#xb8;" horiz-adv-x="438" 
d="M242 0q-15 -57 -17 -72q79 -21 115.5 -53t36.5 -84q0 -150 -316 -172v6q98 19 132 40t34 52q0 29 -29 45t-102 37l-4 4q86 132 139 197h11z" />
    <glyph glyph-name="uni00B9" unicode="&#xb9;" horiz-adv-x="509" 
d="M80 971v12l37 23q27 14 38 37t18 98t7 233q0 126 -6 174l-111 13l-2 10l279 127l12 -4q-4 -176 -4 -293q0 -173 7.5 -256t18 -103.5t36.5 -35.5l39 -23v-12h-369z" />
    <glyph glyph-name="ordmasculine" unicode="&#xba;" horiz-adv-x="628" 
d="M307 934q-246 0 -246 246q0 118 75 195t183 77q248 0 248 -244q0 -120 -75.5 -197t-184.5 -77zM86 813v29h459v-29h-459zM231 1241q0 -129 29 -206t78 -77q61 0 61 185q0 130 -28 206t-80 76q-60 0 -60 -184z" />
    <glyph glyph-name="guillemotright" unicode="&#xbb;" horiz-adv-x="817" 
d="M381 119l-16 12l213 358l-213 363l16 12l410 -352v-43zM27 131l213 358l-213 363l16 12l410 -352v-43l-410 -350z" />
    <glyph glyph-name="onequarter" unicode="&#xbc;" horiz-adv-x="1368" 
d="M80 797v12l37 22q27 14 38 37t18 98.5t7 233.5q0 126 -6 174l-111 12l-2 11l279 127l12 -4q-4 -176 -4 -293q0 -132 3 -208t12.5 -114.5t18 -50.5t28.5 -23l39 -22v-12h-369zM66 0l847 1434h50l-848 -1434h-49zM727 248q122 140 236.5 252t263.5 233l30 -33
q-24 -19 -53 -38q-12 -108 -12 -291v-90q80 0 115 -2v-7l-31 -110q-53 0 -82 2q4 -112 8 -164h-174q6 80 6 164q-203 4 -297 -2zM793 274q186 7 243 7v90q0 100 -4 149q-114 -104 -239 -246z" />
    <glyph glyph-name="onehalf" unicode="&#xbd;" horiz-adv-x="1290" 
d="M80 797v12l37 22q27 14 38 37t18 98.5t7 233.5q0 126 -6 174l-111 12l-2 11l279 127l12 -4q-4 -176 -4 -293q0 -132 3 -208t12.5 -114.5t18 -50.5t28.5 -23l39 -22v-12h-369zM66 0l847 1434h50l-848 -1434h-49zM727 86q145 112 220 232.5t75 220.5q0 49 -31.5 74.5
t-79.5 25.5q-52 0 -100.5 -33t-58.5 -88h-9q5 98 71 156.5t175 58.5q93 0 150 -42t57 -122q0 -205 -393 -460l241 16q28 2 42.5 4.5t35.5 12.5t35 27.5t31 50t33 79.5l8 -2l-21 -307q-78 10 -174 10h-276z" />
    <glyph glyph-name="threequarters" unicode="&#xbe;" horiz-adv-x="1464" 
d="M281 1190q116 12 190 -29.5t74 -116.5q0 -115 -128 -186.5t-354 -77.5l-2 8q72 8 125 27.5t84 44t49.5 56.5t24.5 61t6 63q0 109 -139 123q-4 -1 -20 -6t-25 -8l-8 25q86 20 130 61t44 113q0 43 -26.5 65.5t-69.5 22.5q-50 0 -88 -27.5t-46 -81.5h-6q1 98 54 150.5
t149 52.5q91 0 142 -41t51 -103q0 -73 -48.5 -117.5t-162.5 -78.5zM162 0l848 1434h49l-848 -1434h-49zM823 248q122 140 236.5 252t263.5 233l31 -33q-18 -14 -54 -38q-12 -108 -12 -291v-90q80 0 115 -2v-7l-31 -110q-53 0 -82 2q4 -112 8 -164h-174q6 80 6 164
q-202 4 -296 -2zM889 274q186 7 244 7v90q0 88 -5 149q-114 -104 -239 -246z" />
    <glyph glyph-name="questiondown" unicode="&#xbf;" horiz-adv-x="827" 
d="M483 610q53 -48 92 -120.5t39 -133.5q0 -36 -9.5 -66.5t-33.5 -64t-72.5 -63t-119.5 -53.5q-165 -55 -213.5 -78.5t-48.5 -59.5q0 -56 171.5 -126t432.5 -128l-33 -211q-256 57 -429 189.5t-173 286.5q0 105 54.5 181.5t185.5 147.5q94 51 126.5 86.5t32.5 102.5
q0 47 -12 108zM356 885q0 46 35.5 78t85.5 32q51 0 87 -32t36 -78q0 -44 -36 -76.5t-87 -32.5q-49 0 -85 32.5t-36 76.5z" />
    <glyph glyph-name="Agrave" unicode="&#xc0;" horiz-adv-x="1419" 
d="M10 10q39 17 59 29.5t51 48t55.5 82t68 142t92.5 217.5t125 319l166 426l-60 156v8h285q11 -110 129 -463l227 -672q51 -149 87.5 -205.5t113.5 -85.5v-12h-627v12l129 25q66 15 80.5 44.5t-10.5 111.5l-135 415q-275 13 -432 13q-44 -120 -70 -201t-39 -146.5
t-11.5 -103.5t19.5 -66.5t47 -42.5t78 -24l121 -25v-12h-549v10zM426 653q179 0 401 11l-186 571l-213 -578q0 -2 -2 -4zM453 1694l170 168l276 -267l-6 -8l-438 96z" />
    <glyph glyph-name="Aacute" unicode="&#xc1;" horiz-adv-x="1419" 
d="M10 10q39 17 59 29.5t51 48t55.5 82t68 142t92.5 217.5t125 319l166 426l-60 156v8h285q11 -110 129 -463l227 -672q51 -149 87.5 -205.5t113.5 -85.5v-12h-627v12l129 25q66 15 80.5 44.5t-10.5 111.5l-135 415q-275 13 -432 13q-44 -120 -70 -201t-39 -146.5
t-11.5 -103.5t19.5 -66.5t47 -42.5t78 -24l121 -25v-12h-549v10zM426 653q179 0 401 11l-186 571l-213 -578q0 -2 -2 -4zM512 1597l276 267l170 -168l-2 -10l-438 -97z" />
    <glyph glyph-name="Acircumflex" unicode="&#xc2;" horiz-adv-x="1419" 
d="M10 10q39 17 59 29.5t51 48t55.5 82t68 142t92.5 217.5t125 319l166 426l-60 156v8h285q11 -110 129 -463l227 -672q51 -149 87.5 -205.5t113.5 -85.5v-12h-627v12l129 25q66 15 80.5 44.5t-10.5 111.5l-135 415q-275 13 -432 13q-44 -120 -70 -201t-39 -146.5
t-11.5 -103.5t19.5 -66.5t47 -42.5t78 -24l121 -25v-12h-549v10zM426 653q179 0 401 11l-186 571l-213 -578q0 -2 -2 -4zM442 1587q109 116 260 285h29q60 -69 258 -285l-4 -4q-154 46 -268 88q-114 -42 -268 -88z" />
    <glyph glyph-name="Atilde" unicode="&#xc3;" horiz-adv-x="1419" 
d="M10 10q39 17 59 29.5t51 48t55.5 82t68 142t92.5 217.5t125 319l166 426l-60 156v8h285q11 -110 129 -463l227 -672q51 -149 87.5 -205.5t113.5 -85.5v-12h-627v12l129 25q66 15 80.5 44.5t-10.5 111.5l-135 415q-275 13 -432 13q-44 -120 -70 -201t-39 -146.5
t-11.5 -103.5t19.5 -66.5t47 -42.5t78 -24l121 -25v-12h-549v10zM426 653q179 0 401 11l-186 571l-213 -578q0 -2 -2 -4zM475 1585q-5 252 127 252q53 0 135.5 -30.5t112.5 -30.5q42 0 65 20t35 68h8q3 -250 -129 -250q-53 0 -134.5 30.5t-110.5 30.5q-43 0 -66.5 -21.5
t-34.5 -68.5h-8z" />
    <glyph glyph-name="Adieresis" unicode="&#xc4;" horiz-adv-x="1419" 
d="M10 10q39 17 59 29.5t51 48t55.5 82t68 142t92.5 217.5t125 319l166 426l-60 156v8h285q11 -110 129 -463l227 -672q51 -149 87.5 -205.5t113.5 -85.5v-12h-627v12l129 25q66 15 80.5 44.5t-10.5 111.5l-135 415q-275 13 -432 13q-44 -120 -70 -201t-39 -146.5
t-11.5 -103.5t19.5 -66.5t47 -42.5t78 -24l121 -25v-12h-549v10zM426 653q179 0 401 11l-186 571l-213 -578q0 -2 -2 -4zM428 1696q0 48 30 74t79 26q50 0 78 -25.5t28 -74.5t-28 -75t-78 -26q-49 0 -79 26.5t-30 74.5zM778 1696q0 48 29.5 74t77.5 26q50 0 78 -25.5
t28 -74.5t-28 -75t-78 -26q-47 0 -77 26.5t-30 74.5z" />
    <glyph glyph-name="Aring" unicode="&#xc5;" horiz-adv-x="1419" 
d="M10 10q39 17 59 29.5t51 48t55.5 82t68 142t92.5 217.5t125 319l166 426l-60 156v8h285q11 -110 129 -463l227 -672q51 -149 87.5 -205.5t113.5 -85.5v-12h-627v12l129 25q66 15 80.5 44.5t-10.5 111.5l-135 415q-275 13 -432 13q-44 -120 -70 -201t-39 -146.5
t-11.5 -103.5t19.5 -66.5t47 -42.5t78 -24l121 -25v-12h-549v10zM426 653q179 0 401 11l-186 571l-213 -578q0 -2 -2 -4zM551 1743q0 68 45 110.5t117 42.5q75 0 120.5 -42.5t45.5 -110.5q0 -69 -45.5 -112.5t-120.5 -43.5q-72 0 -117 43.5t-45 112.5zM588 1743
q0 -54 35 -87.5t92 -33.5t92 33.5t35 87.5t-35 85.5t-92 31.5t-92 -31.5t-35 -85.5z" />
    <glyph glyph-name="AE" unicode="&#xc6;" horiz-adv-x="1964" 
d="M10 0v6l17 6q29 12 54.5 29t72.5 63.5t100.5 118t135.5 198.5t181 298l351 608q-11 34 -29 48t-53 24l-74 22v13h680q232 0 328 34l-29 -565h-10q-31 108 -52.5 174.5t-49 121.5t-50.5 82.5t-64 50t-80.5 32t-107.5 20.5l-125 19q-12 -46 -12 -447v-186l426 39v-111
l-426 43v-262q0 -80 1 -134.5t4 -105.5t8 -80.5t12.5 -58t18.5 -38.5t26.5 -22t34.5 -8.5t44 1.5l87 14q82 11 135 35.5t109.5 91.5t109.5 173t131 294h8l-88 -664h-2q-81 23 -260 23h-807v12l74 23q28 9 40.5 15.5t28 28.5t20.5 52t11 93.5t7 146t1 215.5v37h-395
q-163 -292 -198 -389q-39 -110 3 -153q28 -29 101 -44l116 -25v-12h-565zM571 655h377v195q0 351 -18 444l-357 -637q0 -2 -2 -2z" />
    <glyph glyph-name="Ccedilla" unicode="&#xc7;" horiz-adv-x="1323" 
d="M715 -31h-37q-1 -2 -6 -28q79 -20 115 -53t36 -85q0 -150 -315 -172v7q98 19 132 40t34 52q0 29 -29 45t-102 37l-4 4q80 121 108 157q-261 23 -423.5 216.5t-162.5 486.5q0 170 54.5 317.5t148.5 251t224 162.5t276 59q263 0 479 -139l-205 -493h-10q-4 302 -88 435.5
t-242 133.5q-168 0 -274.5 -156t-106.5 -409q0 -318 135 -489t359 -171q179 0 298.5 117t147.5 348h13q-2 -109 -19.5 -203.5t-58 -183t-102 -150.5t-157.5 -99.5t-218 -37.5z" />
    <glyph glyph-name="Egrave" unicode="&#xc8;" horiz-adv-x="1228" 
d="M27 0v12l71 23q28 9 41 15.5t28.5 28.5t20.5 52t11 94t7 145.5t1 215.5v264q0 133 -1 215t-6.5 145.5t-11 93.5t-21 52t-28.5 28t-41 15l-71 22v13h714q232 0 328 34h4l-33 -565h-10q-32 109 -53.5 175t-49 122.5t-50.5 84.5t-62.5 50.5t-80 31.5t-107.5 17l-162 19
q-12 -46 -12 -447v-186l462 39v-111l-462 43v-262q0 -126 4 -202t12.5 -130t27.5 -78t44 -32t67 -4l115 14q109 10 176 58.5t129.5 167.5t151.5 368h8l-58 -664h-2q-83 23 -260 23h-841zM410 1694l170 168l276 -267l-6 -8l-438 96z" />
    <glyph glyph-name="Eacute" unicode="&#xc9;" horiz-adv-x="1228" 
d="M27 0v12l71 23q28 9 41 15.5t28.5 28.5t20.5 52t11 94t7 145.5t1 215.5v264q0 133 -1 215t-6.5 145.5t-11 93.5t-21 52t-28.5 28t-41 15l-71 22v13h714q232 0 328 34h4l-33 -565h-10q-32 109 -53.5 175t-49 122.5t-50.5 84.5t-62.5 50.5t-80 31.5t-107.5 17l-162 19
q-12 -46 -12 -447v-186l462 39v-111l-462 43v-262q0 -126 4 -202t12.5 -130t27.5 -78t44 -32t67 -4l115 14q109 10 176 58.5t129.5 167.5t151.5 368h8l-58 -664h-2q-83 23 -260 23h-841zM469 1597l276 267l170 -168l-2 -10l-438 -97z" />
    <glyph glyph-name="Ecircumflex" unicode="&#xca;" horiz-adv-x="1228" 
d="M27 0v12l71 23q28 9 41 15.5t28.5 28.5t20.5 52t11 94t7 145.5t1 215.5v264q0 133 -1 215t-6.5 145.5t-11 93.5t-21 52t-28.5 28t-41 15l-71 22v13h714q232 0 328 34h4l-33 -565h-10q-32 109 -53.5 175t-49 122.5t-50.5 84.5t-62.5 50.5t-80 31.5t-107.5 17l-162 19
q-12 -46 -12 -447v-186l462 39v-111l-462 43v-262q0 -126 4 -202t12.5 -130t27.5 -78t44 -32t67 -4l115 14q109 10 176 58.5t129.5 167.5t151.5 368h8l-58 -664h-2q-83 23 -260 23h-841zM397 1587q109 116 260 285h29q60 -69 258 -285l-4 -4q-154 46 -268 88
q-109 -40 -269 -88z" />
    <glyph glyph-name="Edieresis" unicode="&#xcb;" horiz-adv-x="1228" 
d="M27 0v12l71 23q28 9 41 15.5t28.5 28.5t20.5 52t11 94t7 145.5t1 215.5v264q0 133 -1 215t-6.5 145.5t-11 93.5t-21 52t-28.5 28t-41 15l-71 22v13h714q232 0 328 34h4l-33 -565h-10q-32 109 -53.5 175t-49 122.5t-50.5 84.5t-62.5 50.5t-80 31.5t-107.5 17l-162 19
q-12 -46 -12 -447v-186l462 39v-111l-462 43v-262q0 -126 4 -202t12.5 -130t27.5 -78t44 -32t67 -4l115 14q109 10 176 58.5t129.5 167.5t151.5 368h8l-58 -664h-2q-83 23 -260 23h-841zM385 1696q0 48 30 74t79 26q50 0 78 -25.5t28 -74.5t-28 -75t-78 -26q-49 0 -79 26.5
t-30 74.5zM735 1696q0 48 29.5 74t77.5 26q50 0 78 -25.5t28 -74.5t-28 -75t-78 -26q-47 0 -77 26.5t-30 74.5z" />
    <glyph glyph-name="Igrave" unicode="&#xcc;" horiz-adv-x="665" 
d="M209 829q0 163 -3 255.5t-8 157t-20 93t-30.5 40.5t-49.5 24l-71 22v13h612v-13l-72 -22q-28 -9 -42 -16.5t-29.5 -31t-21 -55.5t-11.5 -97.5t-7 -150t-1 -219.5v-223q0 -135 1 -219.5t7 -150t11.5 -97.5t21 -55.5t29.5 -31t42 -17.5l72 -23v-12h-612v12l71 23
q28 10 42 17.5t29 31t21 55.5t11.5 98t6.5 149.5t1 219.5v223zM70 1694l170 168l276 -267l-6 -8l-438 96z" />
    <glyph glyph-name="Iacute" unicode="&#xcd;" horiz-adv-x="665" 
d="M209 829q0 163 -3 255.5t-8 157t-20 93t-30.5 40.5t-49.5 24l-71 22v13h612v-13l-72 -22q-28 -9 -42 -16.5t-29.5 -31t-21 -55.5t-11.5 -97.5t-7 -150t-1 -219.5v-223q0 -135 1 -219.5t7 -150t11.5 -97.5t21 -55.5t29.5 -31t42 -17.5l72 -23v-12h-612v12l71 23
q28 10 42 17.5t29 31t21 55.5t11.5 98t6.5 149.5t1 219.5v223zM129 1597l277 267l169 -168l-2 -10l-438 -97z" />
    <glyph glyph-name="Icircumflex" unicode="&#xce;" horiz-adv-x="665" 
d="M209 829q0 163 -3 255.5t-8 157t-20 93t-30.5 40.5t-49.5 24l-71 22v13h612v-13l-72 -22q-28 -9 -42 -16.5t-29.5 -31t-21 -55.5t-11.5 -97.5t-7 -150t-1 -219.5v-223q0 -135 1 -219.5t7 -150t11.5 -97.5t21 -55.5t29.5 -31t42 -17.5l72 -23v-12h-612v12l71 23
q28 10 42 17.5t29 31t21 55.5t11.5 98t6.5 149.5t1 219.5v223zM59 1587q109 116 260 285h29q60 -69 258 -285l-4 -4q-154 46 -268 88q-114 -42 -268 -88z" />
    <glyph glyph-name="Idieresis" unicode="&#xcf;" horiz-adv-x="665" 
d="M209 829q0 163 -3 255.5t-8 157t-20 93t-30.5 40.5t-49.5 24l-71 22v13h612v-13l-72 -22q-28 -9 -42 -16.5t-29.5 -31t-21 -55.5t-11.5 -97.5t-7 -150t-1 -219.5v-223q0 -135 1 -219.5t7 -150t11.5 -97.5t21 -55.5t29.5 -31t42 -17.5l72 -23v-12h-612v12l71 23
q28 10 42 17.5t29 31t21 55.5t11.5 98t6.5 149.5t1 219.5v223zM45 1696q0 48 30 74t79 26q50 0 78 -25.5t28 -74.5t-28 -75t-78 -26q-49 0 -79 26.5t-30 74.5zM395 1696q0 48 29.5 74t77.5 26q50 0 78 -25.5t28 -74.5t-28 -75t-78 -26q-47 0 -77 26.5t-30 74.5z" />
    <glyph glyph-name="Eth" unicode="&#xd0;" horiz-adv-x="1478" 
d="M653 0h-626v12l71 23q28 9 41 15.5t28.5 28.5t20.5 52t11 94t7 145.5t1 215.5v114h-187v33h187v117q0 133 -1 215t-6.5 145.5t-11 93.5t-21 52t-28.5 28t-41 15l-71 22v13h635q358 0 556.5 -183t198.5 -510q0 -159 -51.5 -294.5t-147 -235t-241 -155.5t-324.5 -56z
M453 477q0 -293 24 -364.5t137 -71.5h21q246 0 369.5 158t123.5 469q0 120 -16 222.5t-55.5 197t-101.5 160.5t-158.5 105.5t-221.5 39.5q-43 0 -108 -7q-14 -42 -14 -432v-221h204v-33h-204v-223z" />
    <glyph glyph-name="Ntilde" unicode="&#xd1;" horiz-adv-x="1435" 
d="M1219 -39l-998 1264l25 -574q4 -100 8 -164.5t11 -130t16 -104.5t24.5 -77.5t34.5 -59t48 -40t63 -30t81 -18.5l76 -15v-12h-581v12l45 13q33 9 47.5 15.5t33 29.5t25 58.5t14.5 106t9.5 168t1.5 248.5v131q0 400 -15 493t-96 124l-63 22v13h352l829 -1053l-16 401
q-4 102 -7.5 163.5t-10.5 129.5t-15.5 104.5t-24 77t-34 60t-48 40t-64 31t-83.5 19.5l-76 14v13h584v-13l-49 -12q-24 -7 -35.5 -11t-28.5 -16.5t-23.5 -28.5t-16.5 -48t-13.5 -74t-7.5 -107t-5 -147t-1 -195v-821h-16zM477 1585q-5 252 127 252q53 0 135.5 -30.5
t112.5 -30.5q42 0 65 20t35 68h9q3 -250 -130 -250q-53 0 -134.5 30.5t-110.5 30.5q-43 0 -66.5 -21.5t-34.5 -68.5h-8z" />
    <glyph glyph-name="Ograve" unicode="&#xd2;" horiz-adv-x="1501" 
d="M705 -31q-205 0 -351.5 88t-219.5 242t-73 360q0 175 54.5 325t150.5 255.5t232.5 165t294.5 59.5q205 0 353 -88t221 -240t73 -352q0 -238 -93.5 -424t-261 -288.5t-380.5 -102.5zM348 809q0 -363 123.5 -570.5t325.5 -207.5q167 0 261.5 157t94.5 437q0 363 -123 570.5
t-325 207.5q-168 0 -262.5 -156.5t-94.5 -437.5zM489 1694l170 168l277 -267l-6 -8l-438 96z" />
    <glyph glyph-name="Oacute" unicode="&#xd3;" horiz-adv-x="1501" 
d="M705 -31q-205 0 -351.5 88t-219.5 242t-73 360q0 175 54.5 325t150.5 255.5t232.5 165t294.5 59.5q205 0 353 -88t221 -240t73 -352q0 -238 -93.5 -424t-261 -288.5t-380.5 -102.5zM348 809q0 -363 123.5 -570.5t325.5 -207.5q167 0 261.5 157t94.5 437q0 363 -123 570.5
t-325 207.5q-168 0 -262.5 -156.5t-94.5 -437.5zM549 1597l276 267l170 -168l-2 -10l-438 -97z" />
    <glyph glyph-name="Ocircumflex" unicode="&#xd4;" horiz-adv-x="1501" 
d="M705 -31q-205 0 -351.5 88t-219.5 242t-73 360q0 175 54.5 325t150.5 255.5t232.5 165t294.5 59.5q205 0 353 -88t221 -240t73 -352q0 -238 -93.5 -424t-261 -288.5t-380.5 -102.5zM348 809q0 -363 123.5 -570.5t325.5 -207.5q167 0 261.5 157t94.5 437q0 363 -123 570.5
t-325 207.5q-168 0 -262.5 -156.5t-94.5 -437.5zM479 1587q109 116 260 285h29q60 -69 258 -285l-4 -4q-154 46 -268 88q-109 -40 -269 -88z" />
    <glyph glyph-name="Otilde" unicode="&#xd5;" horiz-adv-x="1501" 
d="M705 -31q-205 0 -351.5 88t-219.5 242t-73 360q0 175 54.5 325t150.5 255.5t232.5 165t294.5 59.5q205 0 353 -88t221 -240t73 -352q0 -238 -93.5 -424t-261 -288.5t-380.5 -102.5zM348 809q0 -363 123.5 -570.5t325.5 -207.5q167 0 261.5 157t94.5 437q0 363 -123 570.5
t-325 207.5q-168 0 -262.5 -156.5t-94.5 -437.5zM512 1585q-5 252 127 252q53 0 135.5 -30.5t112.5 -30.5q42 0 65 20t35 68h8q3 -250 -129 -250q-53 0 -134.5 30.5t-110.5 30.5q-43 0 -66.5 -21.5t-34.5 -68.5h-8z" />
    <glyph glyph-name="Odieresis" unicode="&#xd6;" horiz-adv-x="1501" 
d="M705 -31q-205 0 -351.5 88t-219.5 242t-73 360q0 175 54.5 325t150.5 255.5t232.5 165t294.5 59.5q205 0 353 -88t221 -240t73 -352q0 -238 -93.5 -424t-261 -288.5t-380.5 -102.5zM348 809q0 -363 123.5 -570.5t325.5 -207.5q167 0 261.5 157t94.5 437q0 363 -123 570.5
t-325 207.5q-168 0 -262.5 -156.5t-94.5 -437.5zM465 1696q0 48 29.5 74t78.5 26q50 0 78.5 -25.5t28.5 -74.5t-28.5 -75t-78.5 -26q-49 0 -78.5 26.5t-29.5 74.5zM815 1696q0 48 29.5 74t77.5 26q50 0 78 -25.5t28 -74.5t-28 -75t-78 -26q-47 0 -77 26.5t-30 74.5z" />
    <glyph glyph-name="multiply" unicode="&#xd7;" horiz-adv-x="520" 
d="M86 668l174 -174l176 174l23 -23l-174 -176l174 -174l-23 -25l-176 176l-174 -176l-25 25l177 174l-177 176z" />
    <glyph glyph-name="Oslash" unicode="&#xd8;" horiz-adv-x="1501" 
d="M705 -31q-207 0 -357 92l-94 -147l-27 16l95 148q-127 89 -194 238.5t-67 342.5q0 175 54.5 325t150.5 255.5t232.5 165t294.5 59.5q204 0 356 -90l94 148l27 -17l-94 -147q129 -87 196.5 -235t67.5 -339q0 -238 -93.5 -424t-261 -288.5t-380.5 -102.5zM348 809
q0 -326 103 -530l581 913q-123 211 -327 211q-168 0 -262.5 -156.5t-94.5 -437.5zM467 248q60 -106 144.5 -161.5t185.5 -55.5q167 0 261.5 157t94.5 437q0 328 -104 534z" />
    <glyph glyph-name="Ugrave" unicode="&#xd9;" horiz-adv-x="1423" 
d="M750 -33q-91 0 -168 16t-147.5 57t-120 104.5t-78.5 164.5t-29 232v288q0 163 -3 255.5t-8 157t-20 93t-30.5 40.5t-49.5 24l-73 22v13h614v-13l-74 -22q-27 -9 -41 -16.5t-29 -31t-20.5 -55.5t-11.5 -97.5t-7 -150t-1 -219.5v-288q0 -256 94.5 -379t304.5 -123
q173 0 269 134.5t96 416.5q0 143 -3.5 244t-11.5 188t-24 143.5t-37.5 101t-55 71.5t-73.5 44t-97 27l-61 12v13h547v-13l-19 -8q-63 -25 -87 -60q-36 -54 -46 -225q-6 -122 -6 -542q0 -166 -33 -285.5t-97.5 -192.5t-154 -107t-208.5 -34zM520 1694l170 168l277 -267l-6 -8
l-439 96z" />
    <glyph glyph-name="Uacute" unicode="&#xda;" horiz-adv-x="1423" 
d="M750 -33q-91 0 -168 16t-147.5 57t-120 104.5t-78.5 164.5t-29 232v288q0 163 -3 255.5t-8 157t-20 93t-30.5 40.5t-49.5 24l-73 22v13h614v-13l-74 -22q-27 -9 -41 -16.5t-29 -31t-20.5 -55.5t-11.5 -97.5t-7 -150t-1 -219.5v-288q0 -256 94.5 -379t304.5 -123
q173 0 269 134.5t96 416.5q0 143 -3.5 244t-11.5 188t-24 143.5t-37.5 101t-55 71.5t-73.5 44t-97 27l-61 12v13h547v-13l-19 -8q-63 -25 -87 -60q-36 -54 -46 -225q-6 -122 -6 -542q0 -166 -33 -285.5t-97.5 -192.5t-154 -107t-208.5 -34zM580 1597l276 267l170 -168
l-2 -10l-438 -97z" />
    <glyph glyph-name="Ucircumflex" unicode="&#xdb;" horiz-adv-x="1423" 
d="M750 -33q-91 0 -168 16t-147.5 57t-120 104.5t-78.5 164.5t-29 232v288q0 163 -3 255.5t-8 157t-20 93t-30.5 40.5t-49.5 24l-73 22v13h614v-13l-74 -22q-27 -9 -41 -16.5t-29 -31t-20.5 -55.5t-11.5 -97.5t-7 -150t-1 -219.5v-288q0 -256 94.5 -379t304.5 -123
q173 0 269 134.5t96 416.5q0 143 -3.5 244t-11.5 188t-24 143.5t-37.5 101t-55 71.5t-73.5 44t-97 27l-61 12v13h547v-13l-19 -8q-63 -25 -87 -60q-36 -54 -46 -225q-6 -122 -6 -542q0 -166 -33 -285.5t-97.5 -192.5t-154 -107t-208.5 -34zM508 1587q109 116 260 285h29
q60 -69 258 -285l-4 -4q-159 48 -269 88q-114 -42 -268 -88z" />
    <glyph glyph-name="Udieresis" unicode="&#xdc;" horiz-adv-x="1423" 
d="M750 -33q-91 0 -168 16t-147.5 57t-120 104.5t-78.5 164.5t-29 232v288q0 163 -3 255.5t-8 157t-20 93t-30.5 40.5t-49.5 24l-73 22v13h614v-13l-74 -22q-27 -9 -41 -16.5t-29 -31t-20.5 -55.5t-11.5 -97.5t-7 -150t-1 -219.5v-288q0 -256 94.5 -379t304.5 -123
q173 0 269 134.5t96 416.5q0 143 -3.5 244t-11.5 188t-24 143.5t-37.5 101t-55 71.5t-73.5 44t-97 27l-61 12v13h547v-13l-19 -8q-63 -25 -87 -60q-36 -54 -46 -225q-6 -122 -6 -542q0 -166 -33 -285.5t-97.5 -192.5t-154 -107t-208.5 -34zM496 1696q0 48 29.5 74t78.5 26
q50 0 78.5 -25.5t28.5 -74.5t-28.5 -75t-78.5 -26q-49 0 -78.5 26.5t-29.5 74.5zM846 1696q0 48 29.5 74t76.5 26q50 0 78.5 -25.5t28.5 -74.5t-28.5 -75t-78.5 -26q-47 0 -76.5 26.5t-29.5 74.5z" />
    <glyph glyph-name="Yacute" unicode="&#xdd;" horiz-adv-x="1312" 
d="M293 0v12l96 23q36 9 53 15.5t37 28.5t26.5 52t14 93.5t9 146t1.5 215.5v41l-331 600q-57 103 -92 137t-97 57v13h631v-13l-123 -24q-69 -15 -79 -54.5t30 -111.5l303 -567l160 376q58 133 70 204t-15.5 105.5t-105.5 49.5l-115 22v13h537v-13q-61 -20 -102.5 -52
t-91.5 -105.5t-118 -208.5l-215 -426v-43q0 -134 1.5 -215.5t8.5 -145.5t13.5 -94t26.5 -52t36.5 -28.5t52.5 -15.5l97 -23v-12h-719zM500 1597l276 267l170 -168l-2 -10l-438 -97z" />
    <glyph glyph-name="Thorn" unicode="&#xde;" horiz-adv-x="1196" 
d="M209 829q0 163 -3 255.5t-8 157t-20 93t-30.5 40.5t-49.5 24l-71 22v13h612v-13l-72 -22q-30 -10 -44.5 -19t-29.5 -33t-21.5 -66t-10.5 -114h121q312 0 460 -99t148 -314q0 -73 -19 -137t-64 -123t-113 -101t-173.5 -67t-238.5 -25h-123q4 -84 10.5 -132t21 -75.5
t30 -37.5t46.5 -21l72 -23v-12h-612v12l71 23q28 10 42 17.5t29 31t21 55.5t11.5 98t6.5 149.5t1 219.5v223zM455 606q0 -202 2 -274h104q32 0 58 2.5t63.5 12t67.5 26t61 48t52 74t34.5 107.5t13.5 146q0 70 -10.5 127t-28 97t-44 70t-55.5 48t-66 28.5t-71 14.5t-75 4
h-102q-4 -152 -4 -308v-223z" />
    <glyph glyph-name="germandbls" unicode="&#xdf;" horiz-adv-x="1318" 
d="M926 -33q-92 0 -184 24.5t-130 49.5l47 375h7q44 -218 114.5 -307t175.5 -89q65 0 105.5 43t40.5 99q0 72 -42 121t-171 114q-144 72 -198 140t-54 168q0 55 19 107.5t46.5 95.5t55 87t46.5 98t19 111q0 105 -37.5 147t-119.5 42t-134 -38t-82 -139.5t-30 -273.5v-557
q0 -100 2 -158t5.5 -97t13.5 -57t19.5 -26t31.5 -16l47 -19v-12h-490v12l60 19q23 7 33.5 12t23 19.5t17 34.5t9.5 60t6 92.5t1 135.5v483l-172 29v23l176 47q4 114 42 204t102 147t147.5 86.5t179.5 29.5q172 0 271 -69t99 -175q0 -50 -24 -92t-60 -69.5t-78.5 -55
t-78.5 -49.5t-60 -52t-24 -63q0 -44 48 -78.5t169 -95.5q13 -7 20 -10q74 -38 116 -62t83.5 -55t61 -60t31.5 -67.5t12 -87.5q0 -139 -93.5 -232.5t-240.5 -93.5z" />
    <glyph glyph-name="agrave" unicode="&#xe0;" horiz-adv-x="991" 
d="M276 -33q-89 0 -147.5 65t-58.5 163q0 117 82 185t290 105l140 27v188q0 129 -48.5 185.5t-113.5 56.5q-34 0 -57 -15t-39.5 -52t-15.5 -110.5t20 -180.5l-240 -23q8 100 40 178.5t76.5 126t102 78t112.5 42t113 11.5q138 0 203.5 -68.5t65.5 -203.5q0 -64 -4 -212.5
t-4 -256.5q0 -119 65 -119q55 0 74.5 54t19.5 188h17q5 -195 -42.5 -298.5t-160.5 -103.5q-183 0 -180 222h-8q-23 -36 -42 -62t-50.5 -60.5t-61 -56.5t-69 -37.5t-79.5 -15.5zM264 1438h248l96 -348l-10 -5l-332 340zM272 272q0 -61 32 -95t87 -34q14 0 29 2.5t26.5 5
t27.5 10t23.5 10.5t24.5 13t21 13t21 14t18 12v269l-121 -43q-102 -38 -145.5 -79t-43.5 -98z" />
    <glyph glyph-name="aacute" unicode="&#xe1;" horiz-adv-x="991" 
d="M276 -33q-89 0 -147.5 65t-58.5 163q0 117 82 185t290 105l140 27v188q0 129 -48.5 185.5t-113.5 56.5q-34 0 -57 -15t-39.5 -52t-15.5 -110.5t20 -180.5l-240 -23q8 100 40 178.5t76.5 126t102 78t112.5 42t113 11.5q138 0 203.5 -68.5t65.5 -203.5q0 -64 -4 -212.5
t-4 -256.5q0 -119 65 -119q55 0 74.5 54t19.5 188h17q5 -195 -42.5 -298.5t-160.5 -103.5q-183 0 -180 222h-8q-23 -36 -42 -62t-50.5 -60.5t-61 -56.5t-69 -37.5t-79.5 -15.5zM272 272q0 -61 32 -95t87 -34q14 0 29 2.5t26.5 5t27.5 10t23.5 10.5t24.5 13t21 13t21 14
t18 12v269l-121 -43q-102 -38 -145.5 -79t-43.5 -98zM371 1090l96 348h248l-2 -13l-332 -340z" />
    <glyph glyph-name="acircumflex" unicode="&#xe2;" horiz-adv-x="991" 
d="M276 -33q-89 0 -147.5 65t-58.5 163q0 117 82 185t290 105l140 27v188q0 129 -48.5 185.5t-113.5 56.5q-34 0 -57 -15t-39.5 -52t-15.5 -110.5t20 -180.5l-240 -23q8 100 40 178.5t76.5 126t102 78t112.5 42t113 11.5q138 0 203.5 -68.5t65.5 -203.5q0 -64 -4 -212.5
t-4 -256.5q0 -119 65 -119q55 0 74.5 54t19.5 188h17q5 -195 -42.5 -298.5t-160.5 -103.5q-183 0 -180 222h-8q-23 -36 -42 -62t-50.5 -60.5t-61 -56.5t-69 -37.5t-79.5 -15.5zM219 1098q172 245 260 358h27q48 -60 85.5 -111.5t95 -134t79.5 -112.5l-4 -4
q-175 106 -268 157q-72 -39 -271 -157zM272 272q0 -61 32 -95t87 -34q14 0 29 2.5t26.5 5t27.5 10t23.5 10.5t24.5 13t21 13t21 14t18 12v269l-121 -43q-102 -38 -145.5 -79t-43.5 -98z" />
    <glyph glyph-name="atilde" unicode="&#xe3;" horiz-adv-x="991" 
d="M276 -33q-89 0 -147.5 65t-58.5 163q0 117 82 185t290 105l140 27v188q0 129 -48.5 185.5t-113.5 56.5q-34 0 -57 -15t-39.5 -52t-15.5 -110.5t20 -180.5l-240 -23q8 100 40 178.5t76.5 126t102 78t112.5 42t113 11.5q138 0 203.5 -68.5t65.5 -203.5q0 -64 -4 -212.5
t-4 -256.5q0 -119 65 -119q55 0 74.5 54t19.5 188h17q5 -195 -42.5 -298.5t-160.5 -103.5q-183 0 -180 222h-8q-23 -36 -42 -62t-50.5 -60.5t-61 -56.5t-69 -37.5t-79.5 -15.5zM250 1102q-5 252 127 252q53 0 135.5 -31t112.5 -31q42 0 65 20t35 68h8q3 -250 -129 -250
q-53 0 -135 31t-111 31q-43 0 -66 -21.5t-34 -68.5h-8zM272 272q0 -61 32 -95t87 -34q14 0 29 2.5t26.5 5t27.5 10t23.5 10.5t24.5 13t21 13t21 14t18 12v269l-121 -43q-102 -38 -145.5 -79t-43.5 -98z" />
    <glyph glyph-name="adieresis" unicode="&#xe4;" horiz-adv-x="991" 
d="M276 -33q-89 0 -147.5 65t-58.5 163q0 117 82 185t290 105l140 27v188q0 129 -48.5 185.5t-113.5 56.5q-34 0 -57 -15t-39.5 -52t-15.5 -110.5t20 -180.5l-240 -23q8 100 40 178.5t76.5 126t102 78t112.5 42t113 11.5q138 0 203.5 -68.5t65.5 -203.5q0 -64 -4 -212.5
t-4 -256.5q0 -119 65 -119q55 0 74.5 54t19.5 188h17q5 -195 -42.5 -298.5t-160.5 -103.5q-183 0 -180 222h-8q-23 -36 -42 -62t-50.5 -60.5t-61 -56.5t-69 -37.5t-79.5 -15.5zM207 1210q0 48 29.5 74.5t78.5 26.5q50 0 78.5 -26t28.5 -75t-28.5 -74.5t-78.5 -25.5
q-49 0 -78.5 26t-29.5 74zM272 272q0 -61 32 -95t87 -34q14 0 29 2.5t26.5 5t27.5 10t23.5 10.5t24.5 13t21 13t21 14t18 12v269l-121 -43q-102 -38 -145.5 -79t-43.5 -98zM557 1210q0 48 30 74.5t77 26.5q50 0 78 -26t28 -75t-28 -74.5t-78 -25.5q-48 0 -77.5 26t-29.5 74z
" />
    <glyph glyph-name="aring" unicode="&#xe5;" horiz-adv-x="991" 
d="M276 -33q-89 0 -147.5 65t-58.5 163q0 117 82 185t290 105l140 27v188q0 129 -48.5 185.5t-113.5 56.5q-34 0 -57 -15t-39.5 -52t-15.5 -110.5t20 -180.5l-240 -23q8 100 40 178.5t76.5 126t102 78t112.5 42t113 11.5q138 0 203.5 -68.5t65.5 -203.5q0 -64 -4 -212.5
t-4 -256.5q0 -119 65 -119q55 0 74.5 54t19.5 188h17q5 -195 -42.5 -298.5t-160.5 -103.5q-183 0 -180 222h-8q-23 -36 -42 -62t-50.5 -60.5t-61 -56.5t-69 -37.5t-79.5 -15.5zM272 272q0 -61 32 -95t87 -34q14 0 29 2.5t26.5 5t27.5 10t23.5 10.5t24.5 13t21 13t21 14
t18 12v269l-121 -43q-102 -38 -145.5 -79t-43.5 -98zM307 1272q0 77 50 124.5t132 47.5q83 0 134 -47.5t51 -124.5t-51 -124.5t-134 -47.5q-82 0 -132 47.5t-50 124.5zM387 1274q0 -47 29.5 -77t75.5 -30t74 30t28 77t-28 75.5t-74 28.5t-75.5 -28.5t-29.5 -75.5z" />
    <glyph glyph-name="ae" unicode="&#xe6;" horiz-adv-x="1454" 
d="M1010 -29q-119 0 -223 60t-158 180q-195 -244 -353 -244q-89 0 -147.5 65t-58.5 163q0 92 83 152t293 104l136 30v219q0 68 -14 115.5t-38 71t-48.5 33.5t-53.5 10q-24 0 -42 -7t-35 -29.5t-24 -59t-4.5 -100.5t17.5 -150l-238 -23q8 100 39.5 178.5t74.5 126t98.5 78
t108 42t107.5 11.5q174 0 236 -114q61 55 132.5 83.5t137.5 28.5q72 0 135.5 -25t113 -72t78 -123.5t28.5 -172.5l-25 -27l-557 19v-21q0 -205 79 -321.5t216 -116.5q121 0 200.5 89t88.5 257l12 -2q-1 -252 -105 -380t-290 -128zM272 258q0 -52 32 -83.5t89 -31.5
q102 0 225 97q-34 87 -34 213v8h-2l-117 -43q-118 -43 -155.5 -77t-37.5 -83zM811 625l346 10q11 77 4 145t-47 115t-104 47q-76 0 -133 -84t-66 -233z" />
    <glyph glyph-name="ccedilla" unicode="&#xe7;" horiz-adv-x="923" 
d="M481 -29h-26q-2 -5 -3 -10t-1.5 -11t-1.5 -9q79 -20 115 -53t36 -85q0 -150 -315 -172v7q98 19 132 40t34 52q0 29 -29 45t-103 37l-4 4q45 70 111 159q-76 10 -141 44.5t-117 92.5t-81.5 146t-29.5 197q0 119 40.5 222t107.5 171.5t154 107.5t180 39q196 0 340 -90
l-172 -352h-9q7 206 -40 297.5t-146 91.5q-105 0 -168 -100.5t-63 -282.5q0 -188 76.5 -306t222.5 -118q115 0 198 89t92 257l13 -2q-1 -248 -110 -378t-292 -130z" />
    <glyph glyph-name="egrave" unicode="&#xe8;" horiz-adv-x="927" 
d="M483 -29q-64 0 -123.5 16t-115 53t-96.5 91.5t-66 137.5t-25 184q0 104 29 194t76.5 152.5t107 107.5t120.5 66.5t118 21.5q153 0 254.5 -102t101.5 -291l-24 -27l-557 19v-21q0 -205 79 -321.5t216 -116.5q121 0 200 89t88 257l13 -2q-3 -253 -106.5 -380.5
t-289.5 -127.5zM285 625l346 10q11 77 3.5 145t-47.5 115t-104 47q-76 0 -132.5 -84t-65.5 -233zM309 1438h248l96 -348l-10 -5l-332 340z" />
    <glyph glyph-name="eacute" unicode="&#xe9;" horiz-adv-x="927" 
d="M483 -29q-64 0 -123.5 16t-115 53t-96.5 91.5t-66 137.5t-25 184q0 104 29 194t76.5 152.5t107 107.5t120.5 66.5t118 21.5q153 0 254.5 -102t101.5 -291l-24 -27l-557 19v-21q0 -205 79 -321.5t216 -116.5q121 0 200 89t88 257l13 -2q-3 -253 -106.5 -380.5
t-289.5 -127.5zM285 625l346 10q11 77 3.5 145t-47.5 115t-104 47q-76 0 -132.5 -84t-65.5 -233zM416 1090l96 348h248l-2 -13l-332 -340z" />
    <glyph glyph-name="ecircumflex" unicode="&#xea;" horiz-adv-x="927" 
d="M483 -29q-64 0 -123.5 16t-115 53t-96.5 91.5t-66 137.5t-25 184q0 104 29 194t76.5 152.5t107 107.5t120.5 66.5t118 21.5q153 0 254.5 -102t101.5 -291l-24 -27l-557 19v-21q0 -205 79 -321.5t216 -116.5q121 0 200 89t88 257l13 -2q-3 -253 -106.5 -380.5
t-289.5 -127.5zM264 1098q172 245 260 358h27q48 -60 85.5 -111.5t95 -134t79.5 -112.5l-4 -4q-175 106 -268 157q-72 -39 -271 -157zM285 625l346 10q11 77 3.5 145t-47.5 115t-104 47q-76 0 -132.5 -84t-65.5 -233z" />
    <glyph glyph-name="edieresis" unicode="&#xeb;" horiz-adv-x="927" 
d="M483 -29q-64 0 -123.5 16t-115 53t-96.5 91.5t-66 137.5t-25 184q0 104 29 194t76.5 152.5t107 107.5t120.5 66.5t118 21.5q153 0 254.5 -102t101.5 -291l-24 -27l-557 19v-21q0 -205 79 -321.5t216 -116.5q121 0 200 89t88 257l13 -2q-3 -253 -106.5 -380.5
t-289.5 -127.5zM252 1210q0 48 29.5 74.5t78.5 26.5q50 0 78.5 -26t28.5 -75t-28.5 -74.5t-78.5 -25.5q-49 0 -78.5 26t-29.5 74zM285 625l346 10q11 77 3.5 145t-47.5 115t-104 47q-76 0 -132.5 -84t-65.5 -233zM602 1210q0 48 30 74.5t77 26.5q50 0 78 -26t28 -75
t-28 -74.5t-78 -25.5q-48 0 -77.5 26t-29.5 74z" />
    <glyph glyph-name="igrave" unicode="&#xec;" horiz-adv-x="567" 
d="M174 510q0 101 -3 152.5t-16 84.5t-32 43t-57 17l-35 4l2 12l354 176l8 -2q-1 -42 -1 -84v-146.5t-1 -242.5v-170q0 -75 1 -122.5t6 -84t9.5 -55t17 -32t23 -18t33.5 -11.5l62 -19v-12h-522v12l61 19q23 7 33.5 11.5t23 18t17 32t9.5 55t6 84t1 122.5v156zM74 1438h248
l96 -348l-10 -5l-332 340z" />
    <glyph glyph-name="iacute" unicode="&#xed;" horiz-adv-x="567" 
d="M174 510q0 101 -3 152.5t-16 84.5t-32 43t-57 17l-35 4l2 12l354 176l8 -2q-1 -42 -1 -84v-146.5t-1 -242.5v-170q0 -75 1 -122.5t6 -84t9.5 -55t17 -32t23 -18t33.5 -11.5l62 -19v-12h-522v12l61 19q23 7 33.5 11.5t23 18t17 32t9.5 55t6 84t1 122.5v156zM180 1090
l96 348h248l-2 -13l-332 -340z" />
    <glyph glyph-name="icircumflex" unicode="&#xee;" horiz-adv-x="567" 
d="M174 510q0 101 -3 152.5t-16 84.5t-32 43t-57 17l-35 4l2 12l354 176l8 -2q-1 -42 -1 -84v-146.5t-1 -242.5v-170q0 -75 1 -122.5t6 -84t9.5 -55t17 -32t23 -18t33.5 -11.5l62 -19v-12h-522v12l61 19q23 7 33.5 11.5t23 18t17 32t9.5 55t6 84t1 122.5v156zM29 1098
q172 245 260 358h26q48 -60 85.5 -111.5t95 -134t79.5 -112.5l-4 -4q-175 106 -268 157q-61 -33 -270 -157z" />
    <glyph glyph-name="idieresis" unicode="&#xef;" horiz-adv-x="567" 
d="M174 510q0 101 -3 152.5t-16 84.5t-32 43t-57 17l-35 4l2 12l354 176l8 -2q-1 -42 -1 -84v-146.5t-1 -242.5v-170q0 -75 1 -122.5t6 -84t9.5 -55t17 -32t23 -18t33.5 -11.5l62 -19v-12h-522v12l61 19q23 7 33.5 11.5t23 18t17 32t9.5 55t6 84t1 122.5v156zM16 1210
q0 48 30 74.5t79 26.5q50 0 78 -26t28 -75t-28 -74.5t-78 -25.5q-49 0 -79 26t-30 74zM367 1210q0 48 29.5 74.5t76.5 26.5q50 0 78.5 -26t28.5 -75t-28.5 -74.5t-78.5 -25.5q-47 0 -76.5 26t-29.5 74z" />
    <glyph glyph-name="eth" unicode="&#xf0;" horiz-adv-x="1054" 
d="M514 -29q-199 0 -314.5 126.5t-115.5 340.5q0 177 98 299.5t244 122.5q82 0 151 -29t144 -92h2q-50 200 -107.5 331.5t-162.5 232.5l-125 -142l-25 23l125 143q-131 115 -328 189l4 14q210 -41 383 -135l111 125l25 -25l-105 -119q163 -97 273.5 -239.5t159 -297
t48.5 -323.5q0 -117 -30 -215t-89 -172.5t-152.5 -116t-213.5 -41.5zM317 385q0 -177 60.5 -269.5t154.5 -92.5q103 0 156 112.5t53 370.5q0 108 -16 209q-59 39 -139 39q-118 0 -193.5 -99t-75.5 -270z" />
    <glyph glyph-name="ntilde" unicode="&#xf1;" horiz-adv-x="1140" 
d="M393 354q0 -75 1 -122.5t6 -84t9.5 -55t17 -32t23 -18t33.5 -11.5l62 -19v-12h-522v12l61 19q23 7 33.5 11.5t23 18t17 32t9.5 55t6 84t1 122.5v154q0 79 -2 121t-7 78.5t-18 52t-31 25t-50 14.5l-37 4v12l352 184h8v-194h10q218 194 379 194q109 0 155 -64.5t46 -186.5
v-394q0 -113 2.5 -169.5t14 -91t25 -43.5t46.5 -19l61 -19v-12h-520v12l60 19q23 7 33.5 11.5t23 18t17 32t9.5 55t6 84t1 122.5v314q0 79 -31.5 117t-101.5 38q-90 0 -232 -45v-424zM367 1102q-5 252 127 252q53 0 135 -31t112 -31q43 0 66 20.5t35 67.5h8
q3 -250 -129 -250q-53 0 -135 31t-111 31q-43 0 -66 -21.5t-34 -68.5h-8z" />
    <glyph glyph-name="ograve" unicode="&#xf2;" horiz-adv-x="1046" 
d="M500 -29q-214 0 -328.5 122t-114.5 347q0 240 141 397.5t349 157.5q216 0 329 -123t113 -348q0 -158 -64.5 -285t-176 -197.5t-248.5 -70.5zM305 549q0 -238 63 -381t183 -143q192 0 192 391q0 239 -61.5 382.5t-183.5 143.5q-69 0 -113 -53.5t-62 -138.5t-18 -201z
M319 1438h248l97 -348l-11 -5l-331 340z" />
    <glyph glyph-name="oacute" unicode="&#xf3;" horiz-adv-x="1046" 
d="M500 -29q-214 0 -328.5 122t-114.5 347q0 240 141 397.5t349 157.5q216 0 329 -123t113 -348q0 -158 -64.5 -285t-176 -197.5t-248.5 -70.5zM305 549q0 -238 63 -381t183 -143q192 0 192 391q0 239 -61.5 382.5t-183.5 143.5q-69 0 -113 -53.5t-62 -138.5t-18 -201z
M426 1090l96 348h248l-2 -13l-332 -340z" />
    <glyph glyph-name="ocircumflex" unicode="&#xf4;" horiz-adv-x="1046" 
d="M500 -29q-214 0 -328.5 122t-114.5 347q0 240 141 397.5t349 157.5q216 0 329 -123t113 -348q0 -158 -64.5 -285t-176 -197.5t-248.5 -70.5zM274 1098q163 233 261 358h26q48 -60 85.5 -111.5t95 -134t79.5 -112.5l-4 -4q-175 106 -268 157q-61 -33 -270 -157zM305 549
q0 -238 63 -381t183 -143q192 0 192 391q0 239 -61.5 382.5t-183.5 143.5q-69 0 -113 -53.5t-62 -138.5t-18 -201z" />
    <glyph glyph-name="otilde" unicode="&#xf5;" horiz-adv-x="1046" 
d="M500 -29q-214 0 -328.5 122t-114.5 347q0 240 141 397.5t349 157.5q216 0 329 -123t113 -348q0 -158 -64.5 -285t-176 -197.5t-248.5 -70.5zM305 549q0 -238 63 -381t183 -143q192 0 192 391q0 239 -61.5 382.5t-183.5 143.5q-69 0 -113 -53.5t-62 -138.5t-18 -201z
M305 1102q-5 252 127 252q53 0 135.5 -31t112.5 -31q42 0 65 20t35 68h8q3 -250 -129 -250q-53 0 -134.5 31t-110.5 31q-43 0 -66.5 -21.5t-34.5 -68.5h-8z" />
    <glyph glyph-name="odieresis" unicode="&#xf6;" horiz-adv-x="1046" 
d="M500 -29q-214 0 -328.5 122t-114.5 347q0 240 141 397.5t349 157.5q216 0 329 -123t113 -348q0 -158 -64.5 -285t-176 -197.5t-248.5 -70.5zM262 1210q0 48 30 74.5t79 26.5q50 0 78 -26t28 -75t-28 -74.5t-78 -25.5q-49 0 -79 26t-30 74zM305 549q0 -238 63 -381
t183 -143q192 0 192 391q0 239 -61.5 382.5t-183.5 143.5q-69 0 -113 -53.5t-62 -138.5t-18 -201zM612 1210q0 48 30 74.5t77 26.5q50 0 78 -26t28 -75t-28 -74.5t-78 -25.5q-48 0 -77.5 26t-29.5 74z" />
    <glyph glyph-name="divide" unicode="&#xf7;" horiz-adv-x="651" 
d="M61 547h529v-33h-529v33zM209 299q0 45 36.5 78t88.5 33q49 0 86 -33.5t37 -77.5q0 -46 -36.5 -79.5t-86.5 -33.5q-52 0 -88.5 33.5t-36.5 79.5zM209 764q0 45 36.5 77.5t88.5 32.5q49 0 86 -33t37 -77q0 -46 -36.5 -79.5t-86.5 -33.5q-52 0 -88.5 33.5t-36.5 79.5z" />
    <glyph glyph-name="oslash" unicode="&#xf8;" horiz-adv-x="1046" 
d="M500 -29q-192 0 -303 99l-111 -142l-25 19l113 143q-117 123 -117 350q0 240 141 397.5t349 157.5q170 0 280 -80l97 121l24 -18l-96 -123q137 -122 137 -371q0 -158 -64.5 -285t-176 -197.5t-248.5 -70.5zM305 549q0 -143 25 -262l368 467q-63 188 -200 188
q-69 0 -113 -53.5t-62 -138.5t-18 -201zM340 248q29 -106 82 -164.5t129 -58.5q192 0 192 391q0 184 -32 301z" />
    <glyph glyph-name="ugrave" unicode="&#xf9;" horiz-adv-x="1118" 
d="M365 -33q-52 0 -90.5 14t-61.5 37t-36.5 58t-18 70t-4.5 81v283q1 131 -7.5 188.5t-29.5 78.5t-72 30l-33 4v12l357 176l8 -2q-2 -49 -2 -473v-211q0 -91 24.5 -130.5t98.5 -39.5q89 0 231 45l-2 322q1 101 -2 152.5t-15.5 84.5t-31.5 43t-57 17l-35 4v12l356 176l8 -2
q-1 -42 -1 -84v-146.5t-1 -242.5v-69q0 -79 2 -122t7.5 -80t18.5 -53.5t31.5 -26.5t49.5 -15l37 -4v-13l-355 -174h-6v193h-10q-220 -193 -358 -193zM322 1438h247l97 -348l-11 -5l-331 340z" />
    <glyph glyph-name="uacute" unicode="&#xfa;" horiz-adv-x="1118" 
d="M365 -33q-52 0 -90.5 14t-61.5 37t-36.5 58t-18 70t-4.5 81v283q1 131 -7.5 188.5t-29.5 78.5t-72 30l-33 4v12l357 176l8 -2q-2 -49 -2 -473v-211q0 -91 24.5 -130.5t98.5 -39.5q89 0 231 45l-2 322q1 101 -2 152.5t-15.5 84.5t-31.5 43t-57 17l-35 4v12l356 176l8 -2
q-1 -42 -1 -84v-146.5t-1 -242.5v-69q0 -79 2 -122t7.5 -80t18.5 -53.5t31.5 -26.5t49.5 -15l37 -4v-13l-355 -174h-6v193h-10q-220 -193 -358 -193zM428 1090l96 348h248l-2 -13l-332 -340z" />
    <glyph glyph-name="ucircumflex" unicode="&#xfb;" horiz-adv-x="1118" 
d="M365 -33q-52 0 -90.5 14t-61.5 37t-36.5 58t-18 70t-4.5 81v283q1 131 -7.5 188.5t-29.5 78.5t-72 30l-33 4v12l357 176l8 -2q-2 -49 -2 -473v-211q0 -91 24.5 -130.5t98.5 -39.5q89 0 231 45l-2 322q1 101 -2 152.5t-15.5 84.5t-31.5 43t-57 17l-35 4v12l356 176l8 -2
q-1 -42 -1 -84v-146.5t-1 -242.5v-69q0 -79 2 -122t7.5 -80t18.5 -53.5t31.5 -26.5t49.5 -15l37 -4v-13l-355 -174h-6v193h-10q-220 -193 -358 -193zM276 1098q163 233 261 358h26q48 -60 85.5 -111.5t95 -134t79.5 -112.5l-4 -4q-175 106 -268 157q-61 -33 -270 -157z" />
    <glyph glyph-name="udieresis" unicode="&#xfc;" horiz-adv-x="1118" 
d="M365 -33q-52 0 -90.5 14t-61.5 37t-36.5 58t-18 70t-4.5 81v283q1 131 -7.5 188.5t-29.5 78.5t-72 30l-33 4v12l357 176l8 -2q-2 -49 -2 -473v-211q0 -91 24.5 -130.5t98.5 -39.5q89 0 231 45l-2 322q1 101 -2 152.5t-15.5 84.5t-31.5 43t-57 17l-35 4v12l356 176l8 -2
q-1 -42 -1 -84v-146.5t-1 -242.5v-69q0 -79 2 -122t7.5 -80t18.5 -53.5t31.5 -26.5t49.5 -15l37 -4v-13l-355 -174h-6v193h-10q-220 -193 -358 -193zM264 1210q0 48 30 74.5t79 26.5q50 0 78 -26t28 -75t-28 -74.5t-78 -25.5q-49 0 -79 26t-30 74zM614 1210q0 48 30 74.5
t77 26.5q50 0 78 -26t28 -75t-28 -74.5t-78 -25.5q-48 0 -77.5 26t-29.5 74z" />
    <glyph glyph-name="yacute" unicode="&#xfd;" horiz-adv-x="1009" 
d="M72 -373l-31 271l6 2q116 -57 254 -33.5t184 115.5l-376 860q-22 49 -40.5 73t-56.5 46v8h473v-13l-55 -18q-63 -22 -75 -49.5t16 -93.5l231 -564l139 400q25 73 29.5 130t-11 94.5t-42 60.5t-64.5 34l-20 6v13h366v-8q-50 -50 -75 -90.5t-70 -135.5l-326 -708
q-48 -105 -90.5 -174t-96.5 -123t-119.5 -78.5t-149.5 -24.5zM446 1090l97 348h248l-3 -13l-331 -340z" />
    <glyph glyph-name="thorn" unicode="&#xfe;" horiz-adv-x="1107" 
d="M608 23q89 0 154 99t65 302q0 416 -258 416q-71 0 -178 -47v-443q0 -154 59 -240.5t158 -86.5zM18 -348v12l64 19q44 14 59 33t22.5 85.5t6.5 225.5v991q0 131 -8.5 187.5t-29.5 78.5t-71 29l-34 6v12l356 174h8q-2 -50 -2 -473l2 -67l-2 -146h10q90 91 169 135.5
t159 44.5q144 0 235 -116t91 -328q0 -132 -37 -243t-100.5 -185t-147.5 -115t-178 -41q-111 0 -199 49q0 -56 1 -95.5t7 -72.5t10.5 -54t18 -39.5t23.5 -27.5t34 -19t41.5 -15t53.5 -14l71 -19v-12h-633z" />
    <glyph glyph-name="ydieresis" unicode="&#xff;" horiz-adv-x="1009" 
d="M72 -373l-31 271l6 2q116 -57 254 -33.5t184 115.5l-376 860q-22 49 -40.5 73t-56.5 46v8h473v-13l-55 -18q-63 -22 -75 -49.5t16 -93.5l231 -564l139 400q25 73 29.5 130t-11 94.5t-42 60.5t-64.5 34l-20 6v13h366v-8q-50 -50 -75 -90.5t-70 -135.5l-326 -708
q-48 -105 -90.5 -174t-96.5 -123t-119.5 -78.5t-149.5 -24.5zM283 1210q0 48 29.5 74.5t78.5 26.5q50 0 78.5 -26t28.5 -75t-28.5 -74.5t-78.5 -25.5q-49 0 -78.5 26t-29.5 74zM633 1210q0 48 29.5 74.5t76.5 26.5q50 0 78.5 -26t28.5 -75t-28.5 -74.5t-78.5 -25.5
q-47 0 -76.5 26t-29.5 74z" />
    <glyph glyph-name="Amacron" unicode="&#x100;" horiz-adv-x="1419" 
d="M10 10q39 17 59 29.5t51 48t55.5 82t68 142t92.5 217.5t125 319l166 426l-60 156v8h285q11 -110 129 -463l227 -672q51 -149 87.5 -205.5t113.5 -85.5v-12h-627v12l129 25q66 15 80.5 44.5t-10.5 111.5l-135 415q-275 13 -432 13q-44 -120 -70 -201t-39 -146.5
t-11.5 -103.5t19.5 -66.5t47 -42.5t78 -24l121 -25v-12h-549v10zM426 653q179 0 401 11l-186 571l-213 -578q0 -2 -2 -4zM463 1620v51h502v-51h-502z" />
    <glyph glyph-name="amacron" unicode="&#x101;" horiz-adv-x="991" 
d="M276 -33q-89 0 -147.5 65t-58.5 163q0 117 82 185t290 105l140 27v188q0 129 -48.5 185.5t-113.5 56.5q-34 0 -57 -15t-39.5 -52t-15.5 -110.5t20 -180.5l-240 -23q8 100 40 178.5t76.5 126t102 78t112.5 42t113 11.5q138 0 203.5 -68.5t65.5 -203.5q0 -64 -4 -212.5
t-4 -256.5q0 -119 65 -119q55 0 74.5 54t19.5 188h17q5 -195 -42.5 -298.5t-160.5 -103.5q-183 0 -180 222h-8q-23 -36 -42 -62t-50.5 -60.5t-61 -56.5t-69 -37.5t-79.5 -15.5zM264 1133v51h457v-51h-457zM272 272q0 -61 32 -95t87 -34q14 0 29 2.5t26.5 5t27.5 10
t23.5 10.5t24.5 13t21 13t21 14t18 12v269l-121 -43q-102 -38 -145.5 -79t-43.5 -98z" />
    <glyph glyph-name="Abreve" unicode="&#x102;" horiz-adv-x="1419" 
d="M10 10q39 17 59 29.5t51 48t55.5 82t68 142t92.5 217.5t125 319l166 426l-60 156v8h285q11 -110 129 -463l227 -672q51 -149 87.5 -205.5t113.5 -85.5v-12h-627v12l129 25q66 15 80.5 44.5t-10.5 111.5l-135 415q-275 13 -432 13q-44 -120 -70 -201t-39 -146.5
t-11.5 -103.5t19.5 -66.5t47 -42.5t78 -24l121 -25v-12h-549v10zM426 653q179 0 401 11l-186 571l-213 -578q0 -2 -2 -4zM504 1849h6q13 -39 64 -64.5t143 -25.5t143 25.5t64 64.5h6q18 -122 -41.5 -193t-171.5 -71q-113 0 -173 71t-40 193z" />
    <glyph glyph-name="abreve" unicode="&#x103;" horiz-adv-x="991" 
d="M276 -33q-89 0 -147.5 65t-58.5 163q0 117 82 185t290 105l140 27v188q0 129 -48.5 185.5t-113.5 56.5q-34 0 -57 -15t-39.5 -52t-15.5 -110.5t20 -180.5l-240 -23q8 100 40 178.5t76.5 126t102 78t112.5 42t113 11.5q138 0 203.5 -68.5t65.5 -203.5q0 -64 -4 -212.5
t-4 -256.5q0 -119 65 -119q55 0 74.5 54t19.5 188h17q5 -195 -42.5 -298.5t-160.5 -103.5q-183 0 -180 222h-8q-23 -36 -42 -62t-50.5 -60.5t-61 -56.5t-69 -37.5t-79.5 -15.5zM258 1417h8q27 -75 78 -108t148 -33q96 0 147.5 33t79.5 108h6q4 -158 -57.5 -236.5
t-175.5 -78.5t-175.5 78.5t-58.5 236.5zM272 272q0 -61 32 -95t87 -34q14 0 29 2.5t26.5 5t27.5 10t23.5 10.5t24.5 13t21 13t21 14t18 12v269l-121 -43q-102 -38 -145.5 -79t-43.5 -98z" />
    <glyph glyph-name="Aogonek" unicode="&#x104;" horiz-adv-x="1419" 
d="M10 10q39 17 59 29.5t51 48t55.5 82t68 142t92.5 217.5t125 319l166 426l-60 156v8h285q11 -110 129 -463l227 -672q51 -149 87.5 -205.5t113.5 -85.5v-12q-160 -77 -160 -190q0 -50 24 -68t68 -18q75 0 138 55l6 -4q-89 -133 -246 -133q-91 0 -141.5 38t-50.5 101
q0 78 101 137t232 82h-598v12l129 25q66 15 80.5 44.5t-10.5 111.5l-135 415q-275 13 -432 13q-44 -120 -70 -201t-39 -146.5t-11.5 -103.5t19.5 -66.5t47 -42.5t78 -24l121 -25v-12h-549v10zM426 653q179 0 401 11l-186 571l-213 -578q0 -2 -2 -4z" />
    <glyph glyph-name="aogonek" unicode="&#x105;" horiz-adv-x="991" 
d="M276 -33q-89 0 -147.5 65t-58.5 163q0 117 82 185t290 105l140 27v188q0 129 -48.5 185.5t-113.5 56.5q-34 0 -57 -15t-39.5 -52t-15.5 -110.5t20 -180.5l-240 -23q8 100 40 178.5t76.5 126t102 78t112.5 42t113 11.5q138 0 203.5 -68.5t65.5 -203.5q0 -64 -4 -212.5
t-4 -256.5q0 -119 65 -119q55 0 74.5 54t19.5 188h17q10 -357 -158 -397q-133 -71 -133 -177q0 -50 24 -68t68 -18q73 0 137 56l6 -4q-89 -133 -245 -133q-91 0 -142 38t-51 101q0 66 75 119t185 84q-152 16 -149 219h-8q-23 -36 -42 -62t-50.5 -60.5t-61 -56.5t-69 -37.5
t-79.5 -15.5zM272 272q0 -61 32 -95t87 -34q14 0 29 2.5t26.5 5t27.5 10t23.5 10.5t24.5 13t21 13t21 14t18 12v269l-121 -43q-102 -38 -145.5 -79t-43.5 -98z" />
    <glyph glyph-name="Cacute" unicode="&#x106;" horiz-adv-x="1323" 
d="M715 -31q-142 0 -263.5 52t-207.5 144.5t-134.5 224t-48.5 286.5q0 170 54.5 317.5t148.5 251t224 162.5t276 59q263 0 479 -139l-205 -493h-10q-4 302 -88 435.5t-242 133.5q-168 0 -274.5 -156t-106.5 -409q0 -318 135 -489t359 -171q179 0 298.5 117t147.5 348h13
q-2 -109 -19.5 -203.5t-58 -183t-102 -150.5t-157.5 -99.5t-218 -37.5zM571 1597l277 267l170 -168l-2 -10l-438 -97z" />
    <glyph glyph-name="cacute" unicode="&#x107;" horiz-adv-x="923" 
d="M481 -29q-84 0 -159 30t-135 88t-95 152.5t-35 213.5t40.5 222t107.5 171.5t154 107.5t180 39q196 0 340 -90l-172 -352h-9q7 206 -40 297.5t-146 91.5q-105 0 -168 -100.5t-63 -282.5q0 -188 76.5 -306t222.5 -118q115 0 198 89t92 257l13 -2q-1 -248 -110 -378
t-292 -130zM461 1090l96 348h248l-2 -13l-332 -340z" />
    <glyph glyph-name="Ccircumflex" unicode="&#x108;" horiz-adv-x="1323" 
d="M715 -31q-142 0 -263.5 52t-207.5 144.5t-134.5 224t-48.5 286.5q0 170 54.5 317.5t148.5 251t224 162.5t276 59q263 0 479 -139l-205 -493h-10q-4 302 -88 435.5t-242 133.5q-168 0 -274.5 -156t-106.5 -409q0 -318 135 -489t359 -171q179 0 298.5 117t147.5 348h13
q-2 -109 -19.5 -203.5t-58 -183t-102 -150.5t-157.5 -99.5t-218 -37.5zM500 1587q109 116 260 285h28q38 -44 259 -285l-5 -4q-154 46 -268 88q-114 -42 -268 -88z" />
    <glyph glyph-name="ccircumflex" unicode="&#x109;" horiz-adv-x="923" 
d="M481 -29q-84 0 -159 30t-135 88t-95 152.5t-35 213.5t40.5 222t107.5 171.5t154 107.5t180 39q196 0 340 -90l-172 -352h-9q7 206 -40 297.5t-146 91.5q-105 0 -168 -100.5t-63 -282.5q0 -188 76.5 -306t222.5 -118q115 0 198 89t92 257l13 -2q-1 -248 -110 -378
t-292 -130zM309 1098q172 245 260 358h27q48 -60 85.5 -111.5t95 -134t79.5 -112.5l-4 -4q-175 106 -268 157q-72 -39 -271 -157z" />
    <glyph glyph-name="Cdotaccent" unicode="&#x10a;" horiz-adv-x="1323" 
d="M715 -31q-142 0 -263.5 52t-207.5 144.5t-134.5 224t-48.5 286.5q0 170 54.5 317.5t148.5 251t224 162.5t276 59q263 0 479 -139l-205 -493h-10q-4 302 -88 435.5t-242 133.5q-168 0 -274.5 -156t-106.5 -409q0 -318 135 -489t359 -171q179 0 298.5 117t147.5 348h13
q-2 -109 -19.5 -203.5t-58 -183t-102 -150.5t-157.5 -99.5t-218 -37.5zM639 1704q0 60 37.5 92.5t97.5 32.5q62 0 97.5 -32t35.5 -93q0 -62 -35 -94.5t-98 -32.5q-61 0 -98 33t-37 94z" />
    <glyph glyph-name="cdotaccent" unicode="&#x10b;" horiz-adv-x="923" 
d="M481 -29q-84 0 -159 30t-135 88t-95 152.5t-35 213.5t40.5 222t107.5 171.5t154 107.5t180 39q196 0 340 -90l-172 -352h-9q7 206 -40 297.5t-146 91.5q-105 0 -168 -100.5t-63 -282.5q0 -188 76.5 -306t222.5 -118q115 0 198 89t92 257l13 -2q-1 -248 -110 -378
t-292 -130zM444 1237q0 60 37.5 92.5t98.5 32.5q62 0 97.5 -32t35.5 -93q0 -62 -35 -94.5t-98 -32.5q-61 0 -98.5 33t-37.5 94z" />
    <glyph glyph-name="Ccaron" unicode="&#x10c;" horiz-adv-x="1323" 
d="M715 -31q-142 0 -263.5 52t-207.5 144.5t-134.5 224t-48.5 286.5q0 170 54.5 317.5t148.5 251t224 162.5t276 59q263 0 479 -139l-205 -493h-10q-4 302 -88 435.5t-242 133.5q-168 0 -274.5 -156t-106.5 -409q0 -318 135 -489t359 -171q179 0 298.5 117t147.5 348h13
q-2 -109 -19.5 -203.5t-58 -183t-102 -150.5t-157.5 -99.5t-218 -37.5zM500 1872l6 4q154 -46 268 -88q114 42 268 88l5 -4q-221 -241 -259 -285h-28q-151 169 -260 285z" />
    <glyph glyph-name="ccaron" unicode="&#x10d;" horiz-adv-x="923" 
d="M481 -29q-84 0 -159 30t-135 88t-95 152.5t-35 213.5t40.5 222t107.5 171.5t154 107.5t180 39q196 0 340 -90l-172 -352h-9q7 206 -40 297.5t-146 91.5q-105 0 -168 -100.5t-63 -282.5q0 -188 76.5 -306t222.5 -118q115 0 198 89t92 257l13 -2q-1 -248 -110 -378
t-292 -130zM309 1450l4 4q217 -129 271 -158q75 41 268 158l4 -4q-26 -36 -65 -92.5t-62.5 -89.5t-59.5 -81t-73 -95h-27q-88 113 -260 358z" />
    <glyph glyph-name="Dcaron" unicode="&#x10e;" horiz-adv-x="1478" 
d="M653 0h-626v12l71 23q28 9 41 15.5t28.5 28.5t20.5 52t11 94t7 145.5t1 215.5v264q0 133 -1 215t-6.5 145.5t-11 93.5t-21 52t-28.5 28t-41 15l-71 22v13h635q358 0 556.5 -183t198.5 -510q0 -159 -51.5 -294.5t-147 -235t-241 -155.5t-324.5 -56zM453 477
q0 -293 24 -364.5t137 -71.5h21q246 0 369.5 158t123.5 469q0 120 -16 222.5t-55.5 197t-101.5 160.5t-158.5 105.5t-221.5 39.5q-43 0 -108 -7q-14 -42 -14 -432v-477zM528 1872l7 4q154 -46 268 -88q114 42 268 88l4 -4q-198 -216 -258 -285h-29q-151 169 -260 285z" />
    <glyph glyph-name="dcaron" unicode="&#x10f;" horiz-adv-x="1353" 
d="M389 -29q-148 0 -240 116t-92 329q0 263 133.5 422t327.5 159q113 0 201 -45l-2 66q0 131 -8.5 187.5t-29.5 78.5t-71 29l-33 6v12l355 174h8q-1 -35 -1 -71.5v-74t0.5 -129t0.5 -198.5v-575q0 -68 1 -108t5 -76.5t10.5 -54.5t20 -33t30 -21t42.5 -10l32 -4v-13
l-350 -168h-6l-2 181h-10q-90 -91 -166.5 -135t-155.5 -44zM283 545q0 -115 22 -198.5t60 -129t81.5 -66t94.5 -20.5q76 0 178 47v447q0 148 -58 233.5t-161 85.5q-87 0 -152 -99.5t-65 -299.5zM1112 1475h231l-194 -535h-6z" />
    <glyph glyph-name="Dcroat" unicode="&#x110;" horiz-adv-x="1478" 
d="M653 0h-626v12l71 23q28 9 41 15.5t28.5 28.5t20.5 52t11 94t7 145.5t1 215.5v114h-187v33h187v117q0 133 -1 215t-6.5 145.5t-11 93.5t-21 52t-28.5 28t-41 15l-71 22v13h635q358 0 556.5 -183t198.5 -510q0 -159 -51.5 -294.5t-147 -235t-241 -155.5t-324.5 -56z
M453 477q0 -293 24 -364.5t137 -71.5h21q246 0 369.5 158t123.5 469q0 120 -16 222.5t-55.5 197t-101.5 160.5t-158.5 105.5t-221.5 39.5q-43 0 -108 -7q-14 -42 -14 -432v-221h204v-33h-204v-223z" />
    <glyph glyph-name="dcroat" unicode="&#x111;" horiz-adv-x="1101" 
d="M389 -29q-148 0 -240 116t-92 329q0 263 133.5 422t327.5 159q113 0 201 -45l-2 66q0 117 -4 156h-293v32h289q-7 58 -29 78.5t-72 28.5l-33 6v12l355 174h8v-299h119v-32h-119v-142v-575q0 -68 1 -108t5 -76.5t10.5 -54.5t20 -33t30 -21t42.5 -10l32 -4v-13l-350 -168
h-6l-2 181h-10q-90 -91 -166.5 -135t-155.5 -44zM283 545q0 -115 22 -198.5t60 -129t81.5 -66t94.5 -20.5q76 0 178 47v447q0 148 -58 233.5t-161 85.5q-87 0 -152 -99.5t-65 -299.5z" />
    <glyph glyph-name="Emacron" unicode="&#x112;" horiz-adv-x="1228" 
d="M27 0v12l71 23q28 9 41 15.5t28.5 28.5t20.5 52t11 94t7 145.5t1 215.5v264q0 133 -1 215t-6.5 145.5t-11 93.5t-21 52t-28.5 28t-41 15l-71 22v13h714q232 0 328 34h4l-33 -565h-10q-32 109 -53.5 175t-49 122.5t-50.5 84.5t-62.5 50.5t-80 31.5t-107.5 17l-162 19
q-12 -46 -12 -447v-186l462 39v-111l-462 43v-262q0 -126 4 -202t12.5 -130t27.5 -78t44 -32t67 -4l115 14q109 10 176 58.5t129.5 167.5t151.5 368h8l-58 -664h-2q-83 23 -260 23h-841zM418 1620v51h502v-51h-502z" />
    <glyph glyph-name="emacron" unicode="&#x113;" horiz-adv-x="927" 
d="M483 -29q-64 0 -123.5 16t-115 53t-96.5 91.5t-66 137.5t-25 184q0 104 29 194t76.5 152.5t107 107.5t120.5 66.5t118 21.5q153 0 254.5 -102t101.5 -291l-24 -27l-557 19v-21q0 -205 79 -321.5t216 -116.5q121 0 200 89t88 257l13 -2q-3 -253 -106.5 -380.5
t-289.5 -127.5zM285 625l346 10q11 77 3.5 145t-47.5 115t-104 47q-76 0 -132.5 -84t-65.5 -233zM309 1133v51h457v-51h-457z" />
    <glyph glyph-name="Ebreve" unicode="&#x114;" horiz-adv-x="1228" 
d="M27 0v12l71 23q28 9 41 15.5t28.5 28.5t20.5 52t11 94t7 145.5t1 215.5v264q0 133 -1 215t-6.5 145.5t-11 93.5t-21 52t-28.5 28t-41 15l-71 22v13h714q232 0 328 34h4l-33 -565h-10q-32 109 -53.5 175t-49 122.5t-50.5 84.5t-62.5 50.5t-80 31.5t-107.5 17l-162 19
q-12 -46 -12 -447v-186l462 39v-111l-462 43v-262q0 -126 4 -202t12.5 -130t27.5 -78t44 -32t67 -4l115 14q109 10 176 58.5t129.5 167.5t151.5 368h8l-58 -664h-2q-83 23 -260 23h-841zM461 1849h6q13 -39 64 -64.5t143 -25.5t143 25.5t64 64.5h6q18 -122 -41.5 -193
t-171.5 -71q-113 0 -173 71t-40 193z" />
    <glyph glyph-name="ebreve" unicode="&#x115;" horiz-adv-x="927" 
d="M483 -29q-64 0 -123.5 16t-115 53t-96.5 91.5t-66 137.5t-25 184q0 104 29 194t76.5 152.5t107 107.5t120.5 66.5t118 21.5q153 0 254.5 -102t101.5 -291l-24 -27l-557 19v-21q0 -205 79 -321.5t216 -116.5q121 0 200 89t88 257l13 -2q-3 -253 -106.5 -380.5
t-289.5 -127.5zM285 625l346 10q11 77 3.5 145t-47.5 115t-104 47q-76 0 -132.5 -84t-65.5 -233zM303 1417h8q27 -75 78 -108t148 -33q96 0 147.5 33t79.5 108h6q4 -158 -57.5 -236.5t-175.5 -78.5t-175.5 78.5t-58.5 236.5z" />
    <glyph glyph-name="Edotaccent" unicode="&#x116;" horiz-adv-x="1228" 
d="M27 0v12l71 23q28 9 41 15.5t28.5 28.5t20.5 52t11 94t7 145.5t1 215.5v264q0 133 -1 215t-6.5 145.5t-11 93.5t-21 52t-28.5 28t-41 15l-71 22v13h714q232 0 328 34h4l-33 -565h-10q-32 109 -53.5 175t-49 122.5t-50.5 84.5t-62.5 50.5t-80 31.5t-107.5 17l-162 19
q-12 -46 -12 -447v-186l462 39v-111l-462 43v-262q0 -126 4 -202t12.5 -130t27.5 -78t44 -32t67 -4l115 14q109 10 176 58.5t129.5 167.5t151.5 368h8l-58 -664h-2q-83 23 -260 23h-841zM537 1704q0 60 37.5 92.5t97.5 32.5q62 0 97.5 -32t35.5 -93q0 -62 -35 -94.5
t-98 -32.5q-61 0 -98 33t-37 94z" />
    <glyph glyph-name="edotaccent" unicode="&#x117;" horiz-adv-x="927" 
d="M483 -29q-64 0 -123.5 16t-115 53t-96.5 91.5t-66 137.5t-25 184q0 104 29 194t76.5 152.5t107 107.5t120.5 66.5t118 21.5q153 0 254.5 -102t101.5 -291l-24 -27l-557 19v-21q0 -205 79 -321.5t216 -116.5q121 0 200 89t88 257l13 -2q-3 -253 -106.5 -380.5
t-289.5 -127.5zM285 625l346 10q11 77 3.5 145t-47.5 115t-104 47q-76 0 -132.5 -84t-65.5 -233zM399 1237q0 60 37.5 92.5t98.5 32.5q62 0 97.5 -32t35.5 -93q0 -62 -35 -94.5t-98 -32.5q-61 0 -98.5 33t-37.5 94z" />
    <glyph glyph-name="Eogonek" unicode="&#x118;" horiz-adv-x="1228" 
d="M27 0v12l71 23q28 9 41 15.5t28.5 28.5t20.5 52t11 94t7 145.5t1 215.5v264q0 133 -1 215t-6.5 145.5t-11 93.5t-21 52t-28.5 28t-41 15l-71 22v13h714q232 0 328 34h4l-33 -565h-10q-32 109 -53.5 175t-49 122.5t-50.5 84.5t-62.5 50.5t-80 31.5t-107.5 17l-162 19
q-12 -46 -12 -447v-186l462 39v-111l-462 43v-262q0 -126 4 -202t12.5 -130t27.5 -78t44 -32t67 -4l115 14q109 10 176 58.5t129.5 167.5t151.5 368h8l-58 -664q-159 -76 -159 -190q0 -50 24 -68t68 -18q74 0 137 55l6 -4q-89 -133 -245 -133q-91 0 -142 38t-51 101
q0 54 55.5 102.5t131.5 77.5t159 42l12 -3q-83 23 -258 23h-841z" />
    <glyph glyph-name="eogonek" unicode="&#x119;" horiz-adv-x="927" 
d="M483 -29q-64 0 -123.5 16t-115 53t-96.5 91.5t-66 137.5t-25 184q0 104 29 194t76.5 152.5t107 107.5t120.5 66.5t118 21.5q153 0 254.5 -102t101.5 -291l-24 -27l-557 19v-21q0 -205 79 -321.5t216 -116.5q121 0 200 89t88 257l13 -2q-3 -191 -64 -311.5t-172 -167.5
q31 8 49 10l17 -2q-160 -77 -160 -190q0 -50 24 -68t68 -18q74 0 137 55l6 -4q-89 -133 -245 -133q-91 0 -142 38t-51 101q0 59 60 107.5t155 80.5q-37 -6 -78 -6zM285 625l346 10q11 77 3.5 145t-47.5 115t-104 47q-76 0 -132.5 -84t-65.5 -233z" />
    <glyph glyph-name="Ecaron" unicode="&#x11a;" horiz-adv-x="1228" 
d="M27 0v12l71 23q28 9 41 15.5t28.5 28.5t20.5 52t11 94t7 145.5t1 215.5v264q0 133 -1 215t-6.5 145.5t-11 93.5t-21 52t-28.5 28t-41 15l-71 22v13h714q232 0 328 34h4l-33 -565h-10q-32 109 -53.5 175t-49 122.5t-50.5 84.5t-62.5 50.5t-80 31.5t-107.5 17l-162 19
q-12 -46 -12 -447v-186l462 39v-111l-462 43v-262q0 -126 4 -202t12.5 -130t27.5 -78t44 -32t67 -4l115 14q109 10 176 58.5t129.5 167.5t151.5 368h8l-58 -664h-2q-83 23 -260 23h-841zM397 1872l6 4q159 -48 269 -88q114 42 268 88l4 -4q-198 -216 -258 -285h-29
q-151 169 -260 285z" />
    <glyph glyph-name="ecaron" unicode="&#x11b;" horiz-adv-x="927" 
d="M483 -29q-64 0 -123.5 16t-115 53t-96.5 91.5t-66 137.5t-25 184q0 104 29 194t76.5 152.5t107 107.5t120.5 66.5t118 21.5q153 0 254.5 -102t101.5 -291l-24 -27l-557 19v-21q0 -205 79 -321.5t216 -116.5q121 0 200 89t88 257l13 -2q-3 -253 -106.5 -380.5
t-289.5 -127.5zM264 1450l4 4q217 -129 271 -158q75 41 268 158l4 -4q-26 -36 -65 -92.5t-62.5 -89.5t-59.5 -81t-73 -95h-27q-88 113 -260 358zM285 625l346 10q11 77 3.5 145t-47.5 115t-104 47q-76 0 -132.5 -84t-65.5 -233z" />
    <glyph glyph-name="Gcircumflex" unicode="&#x11c;" horiz-adv-x="1433" 
d="M1280 -84l-195 172q-70 -58 -150 -88.5t-206 -30.5q-311 0 -489.5 191.5t-178.5 539.5q0 160 57.5 303t154.5 244t229.5 160t277.5 59q301 0 498 -139l-205 -487h-10q-2 133 -19 232t-45.5 162t-72 101t-92.5 53t-113 15q-98 0 -171.5 -48t-116.5 -134t-64 -193.5
t-21 -236.5q0 -178 25 -316t76.5 -241t136.5 -157t200 -54q93 0 162.5 32.5t102.5 65.5v112v106t-4 79.5t-7.5 61t-16 42t-23.5 31.5t-36.5 20.5t-48.5 18t-65 14.5l-166 33v12h705v-12q-47 -24 -65 -50.5t-27 -102t-9 -246.5v-324h-8zM483 1587q109 116 260 285h29
q60 -69 258 -285l-4 -4q-154 46 -268 88q-109 -40 -269 -88z" />
    <glyph glyph-name="gcircumflex" unicode="&#x11d;" horiz-adv-x="987" 
d="M266 -373q-108 0 -174.5 34.5t-66.5 98.5q0 67 44.5 128t153.5 149q-52 13 -70 35.5t-18 58.5q0 47 35.5 108t105.5 148q-90 35 -139 104t-49 154q0 147 115 250.5t286 103.5h3h2q252 0 460 -18v-12q-27 -7 -93.5 -28t-102.5 -30q92 -80 92 -206q0 -141 -116 -244
t-288 -103q-77 0 -151 23q-16 -57 -16 -94q0 -32 7.5 -44t48.5 -20t134 -8q55 0 92.5 -0.5t83.5 -3t77 -7t66 -13t57.5 -20t44.5 -28t34.5 -38t20 -50t7.5 -63.5q0 -97 -100.5 -182.5t-258.5 -134t-327 -48.5zM182 1098q172 245 260 358h27q48 -60 85.5 -111.5t95 -134
t79.5 -112.5l-4 -4q-175 106 -268 157q-72 -39 -271 -157zM203 -121q0 -28 12.5 -57t39.5 -57t79.5 -46t122.5 -18q52 0 106.5 10.5t104.5 31t82 55.5t32 79q0 47 -24.5 75.5t-97.5 46t-203 17.5q-139 0 -209 15q-45 -63 -45 -152zM295 733q0 -133 58 -230t155 -97
q66 0 100.5 58.5t34.5 158.5q0 134 -58.5 230.5t-154.5 96.5q-66 0 -100.5 -58t-34.5 -159z" />
    <glyph glyph-name="Gbreve" unicode="&#x11e;" horiz-adv-x="1433" 
d="M1280 -84l-195 172q-70 -58 -150 -88.5t-206 -30.5q-311 0 -489.5 191.5t-178.5 539.5q0 160 57.5 303t154.5 244t229.5 160t277.5 59q301 0 498 -139l-205 -487h-10q-2 133 -19 232t-45.5 162t-72 101t-92.5 53t-113 15q-98 0 -171.5 -48t-116.5 -134t-64 -193.5
t-21 -236.5q0 -178 25 -316t76.5 -241t136.5 -157t200 -54q93 0 162.5 32.5t102.5 65.5v112v106t-4 79.5t-7.5 61t-16 42t-23.5 31.5t-36.5 20.5t-48.5 18t-65 14.5l-166 33v12h705v-12q-47 -24 -65 -50.5t-27 -102t-9 -246.5v-324h-8zM547 1849h6q13 -39 64 -64.5
t143 -25.5t143 25.5t64 64.5h6q18 -122 -41.5 -193t-171.5 -71q-113 0 -173 71t-40 193z" />
    <glyph glyph-name="gbreve" unicode="&#x11f;" horiz-adv-x="987" 
d="M266 -373q-108 0 -174.5 34.5t-66.5 98.5q0 67 44.5 128t153.5 149q-52 13 -70 35.5t-18 58.5q0 47 35.5 108t105.5 148q-90 35 -139 104t-49 154q0 147 115 250.5t286 103.5h3h2q252 0 460 -18v-12q-27 -7 -93.5 -28t-102.5 -30q92 -80 92 -206q0 -141 -116 -244
t-288 -103q-77 0 -151 23q-16 -57 -16 -94q0 -32 7.5 -44t48.5 -20t134 -8q55 0 92.5 -0.5t83.5 -3t77 -7t66 -13t57.5 -20t44.5 -28t34.5 -38t20 -50t7.5 -63.5q0 -97 -100.5 -182.5t-258.5 -134t-327 -48.5zM203 -121q0 -28 12.5 -57t39.5 -57t79.5 -46t122.5 -18
q52 0 106.5 10.5t104.5 31t82 55.5t32 79q0 47 -24.5 75.5t-97.5 46t-203 17.5q-139 0 -209 15q-45 -63 -45 -152zM221 1417h8q27 -75 78 -108t148 -33q96 0 147.5 33t79.5 108h6q4 -158 -57.5 -236.5t-175.5 -78.5t-175.5 78.5t-58.5 236.5zM295 733q0 -133 58 -230
t155 -97q66 0 100.5 58.5t34.5 158.5q0 134 -58.5 230.5t-154.5 96.5q-66 0 -100.5 -58t-34.5 -159z" />
    <glyph glyph-name="Gdotaccent" unicode="&#x120;" horiz-adv-x="1433" 
d="M1085 88q-70 -58 -150 -88.5t-206 -30.5q-311 0 -489.5 191.5t-178.5 539.5q0 160 57.5 303t154.5 244t229.5 160t277.5 59q301 0 498 -139l-205 -487h-10q-2 133 -19 232t-45.5 162t-72 101t-92.5 53t-113 15q-98 0 -171.5 -48t-116.5 -134t-64 -193.5t-21 -236.5
q0 -178 25 -316t76.5 -241t136.5 -157t200 -54q93 0 162.5 32.5t102.5 65.5v112v106t-4 79.5t-7.5 61t-16 42t-23.5 31.5t-36.5 20.5t-48.5 18t-65 14.5l-166 33v12h705v-12q-47 -24 -65 -50.5t-27 -102t-9 -246.5v-324h-8zM623 1704q0 60 37.5 92.5t97.5 32.5
q62 0 97.5 -32t35.5 -93q0 -62 -35 -94.5t-98 -32.5q-61 0 -98 33t-37 94z" />
    <glyph glyph-name="gdotaccent" unicode="&#x121;" horiz-adv-x="987" 
d="M266 -373q-108 0 -174.5 34.5t-66.5 98.5q0 67 44.5 128t153.5 149q-52 13 -70 35.5t-18 58.5q0 47 35.5 108t105.5 148q-90 35 -139 104t-49 154q0 147 115 250.5t286 103.5h3h2q252 0 460 -18v-12q-27 -7 -93.5 -28t-102.5 -30q92 -80 92 -206q0 -141 -116 -244
t-288 -103q-77 0 -151 23q-16 -57 -16 -94q0 -32 7.5 -44t48.5 -20t134 -8q55 0 92.5 -0.5t83.5 -3t77 -7t66 -13t57.5 -20t44.5 -28t34.5 -38t20 -50t7.5 -63.5q0 -97 -100.5 -182.5t-258.5 -134t-327 -48.5zM203 -121q0 -28 12.5 -57t39.5 -57t79.5 -46t122.5 -18
q52 0 106.5 10.5t104.5 31t82 55.5t32 79q0 47 -24.5 75.5t-97.5 46t-203 17.5q-139 0 -209 15q-45 -63 -45 -152zM295 733q0 -133 58 -230t155 -97q66 0 100.5 58.5t34.5 158.5q0 134 -58.5 230.5t-154.5 96.5q-66 0 -100.5 -58t-34.5 -159zM317 1237q0 60 37.5 92.5
t98.5 32.5q62 0 97.5 -32t35.5 -93q0 -62 -35 -94.5t-98 -32.5q-61 0 -98.5 33t-37.5 94z" />
    <glyph glyph-name="uni0122" unicode="&#x122;" horiz-adv-x="1433" 
d="M1085 88q-70 -58 -150 -88.5t-206 -30.5q-311 0 -489.5 191.5t-178.5 539.5q0 160 57.5 303t154.5 244t229.5 160t277.5 59q301 0 498 -139l-205 -487h-10q-2 133 -19 232t-45.5 162t-72 101t-92.5 53t-113 15q-98 0 -171.5 -48t-116.5 -134t-64 -193.5t-21 -236.5
q0 -178 25 -316t76.5 -241t136.5 -157t200 -54q93 0 162.5 32.5t102.5 65.5v112v106t-4 79.5t-7.5 61t-16 42t-23.5 31.5t-36.5 20.5t-48.5 18t-65 14.5l-166 33v12h705v-12q-47 -24 -65 -50.5t-27 -102t-9 -246.5v-324h-8zM657 -383q107 63 107 162q0 60 -76 63
q0 57 28.5 85t74.5 28q48 0 76 -28t28 -77q0 -160 -233 -239z" />
    <glyph glyph-name="uni0123" unicode="&#x123;" horiz-adv-x="987" 
d="M266 -373q-108 0 -174.5 34.5t-66.5 98.5q0 67 44.5 128t153.5 149q-52 13 -70 35.5t-18 58.5q0 47 35.5 108t105.5 148q-90 35 -139 104t-49 154q0 147 115 250.5t286 103.5h3h2q252 0 460 -18v-12q-27 -7 -93.5 -28t-102.5 -30q92 -80 92 -206q0 -141 -116 -244
t-288 -103q-77 0 -151 23q-16 -57 -16 -94q0 -32 7.5 -44t48.5 -20t134 -8q55 0 92.5 -0.5t83.5 -3t77 -7t66 -13t57.5 -20t44.5 -28t34.5 -38t20 -50t7.5 -63.5q0 -97 -100.5 -182.5t-258.5 -134t-327 -48.5zM203 -121q0 -28 12.5 -57t39.5 -57t79.5 -46t122.5 -18
q52 0 106.5 10.5t104.5 31t82 55.5t32 79q0 47 -24.5 75.5t-97.5 46t-203 17.5q-139 0 -209 15q-45 -63 -45 -152zM295 733q0 -133 58 -230t155 -97q66 0 100.5 58.5t34.5 158.5q0 134 -58.5 230.5t-154.5 96.5q-66 0 -100.5 -58t-34.5 -159zM342 1219q0 174 252 258l2 -9
q-113 -67 -113 -172q0 -66 82 -69q0 -61 -30.5 -91t-79.5 -30q-52 0 -82.5 30t-30.5 83z" />
    <glyph glyph-name="Hcircumflex" unicode="&#x124;" horiz-adv-x="1544" 
d="M1090 829q0 163 -3 255.5t-8 157t-20 93t-30.5 40.5t-49.5 24l-74 22v13h615v-13l-74 -22q-33 -11 -49 -23t-31 -40.5t-20 -93t-8 -157.5t-3 -256v-223q0 -136 1 -219.5t6.5 -149.5t11.5 -98t21 -55.5t29 -31t42 -17.5l74 -23v-12h-615v12l74 23q28 10 41.5 17.5t28.5 31
t21 55.5t11.5 97.5t7 150t1.5 219.5v125q-422 12 -635 12v-137q0 -135 1 -219.5t7 -150t11.5 -97.5t21 -55.5t29.5 -31t42 -17.5l72 -23v-12h-612v12l71 23q28 10 42 17.5t29 31t21 55.5t11.5 98t6.5 149.5t1 219.5v223q0 163 -3 255.5t-8 157t-20 93t-30.5 40.5t-49.5 24
l-71 22v13h612v-13l-72 -22q-28 -9 -42 -16.5t-29.5 -31t-21 -55.5t-11.5 -97.5t-7 -150t-1 -219.5v-53q283 0 635 10v43zM518 1587q109 116 260 285h29q60 -69 258 -285l-4 -4q-154 46 -268 88q-109 -40 -269 -88z" />
    <glyph glyph-name="hcircumflex" unicode="&#x125;" horiz-adv-x="1136" 
d="M973 354q0 -75 1 -122.5t6 -84t9.5 -55t17 -32t23 -18t33.5 -11.5l61 -19v-12h-522v12l62 19q23 7 33.5 11.5t23 18t17 32t9.5 55t6 84t1 122.5v314q0 78 -30.5 116.5t-96.5 38.5q-96 0 -238 -45v-424q0 -75 1 -122.5t6 -84t9.5 -55t17 -32t23 -18t33.5 -11.5l62 -19v-12
h-523v12l62 19q23 7 33.5 11.5t23 18t17 32t9.5 55t6 84t1 122.5v164l-2 500q1 131 -7 188t-29 78.5t-71 28.5l-34 6v12l356 174h8q-1 -43 -1 -85v-146t-1 -242v-133l-4 -94h10q218 194 379 194q199 0 199 -251v-394zM-2 1587q109 116 260 285h29q60 -69 258 -285l-4 -4
q-159 48 -269 88q-114 -42 -268 -88z" />
    <glyph glyph-name="Hbar" unicode="&#x126;" horiz-adv-x="1544" 
d="M1090 829q0 136 -3 230h-630q-2 -63 -2 -230v-53q283 0 635 10v43zM27 0v12l71 23q28 10 42 17.5t29 31t21 55.5t11.5 98t6.5 149.5t1 219.5v223q0 163 -3 255.5t-8 157t-20 93t-30.5 40.5t-49.5 24l-71 22v13h612v-13l-72 -22q-33 -11 -49 -21.5t-31 -42t-21 -88
t-9 -155.5h630q-4 130 -16 191.5t-30.5 81t-61.5 34.5l-74 22v13h615v-13l-74 -22q-33 -11 -49 -23t-31 -40.5t-20 -93t-8 -157.5t-3 -256v-223q0 -136 1 -219.5t6.5 -149.5t11.5 -98t21 -55.5t29 -31t42 -17.5l74 -23v-12h-615v12l74 23q28 10 41.5 17.5t28.5 31t21 55.5
t11.5 97.5t7 150t1.5 219.5v125q-422 12 -635 12v-137q0 -135 1 -219.5t7 -150t11.5 -97.5t21 -55.5t29.5 -31t42 -17.5l72 -23v-12h-612z" />
    <glyph glyph-name="hbar" unicode="&#x127;" horiz-adv-x="1136" 
d="M973 354q0 -75 1 -122.5t6 -84t9.5 -55t17 -32t23 -18t33.5 -11.5l61 -19v-12h-522v12l62 19q23 7 33.5 11.5t23 18t17 32t9.5 55t6 84t1 122.5v314q0 78 -30.5 116.5t-96.5 38.5q-96 0 -238 -45v-424q0 -75 1 -122.5t6 -84t9.5 -55t17 -32t23 -18t33.5 -11.5l62 -19v-12
h-523v12l62 19q23 7 33.5 11.5t23 18t17 32t9.5 55t6 84t1 122.5v164l-2 500q0 112 -2 151h-154v33h150q-7 60 -29 81.5t-72 29.5l-34 6v12l356 174h8q-1 -40 -1 -125.5t-1 -177.5h260v-33h-260v-137v-133l-4 -94h10q218 194 379 194q199 0 199 -251v-394z" />
    <glyph glyph-name="Itilde" unicode="&#x128;" horiz-adv-x="665" 
d="M209 829q0 163 -3 255.5t-8 157t-20 93t-30.5 40.5t-49.5 24l-71 22v13h612v-13l-72 -22q-28 -9 -42 -16.5t-29.5 -31t-21 -55.5t-11.5 -97.5t-7 -150t-1 -219.5v-223q0 -135 1 -219.5t7 -150t11.5 -97.5t21 -55.5t29.5 -31t42 -17.5l72 -23v-12h-612v12l71 23
q28 10 42 17.5t29 31t21 55.5t11.5 98t6.5 149.5t1 219.5v223zM92 1585q-5 252 127 252q53 0 135.5 -30.5t112.5 -30.5q42 0 65 20t35 68h8q3 -250 -129 -250q-53 0 -134.5 30.5t-110.5 30.5q-43 0 -66.5 -21.5t-34.5 -68.5h-8z" />
    <glyph glyph-name="itilde" unicode="&#x129;" horiz-adv-x="567" 
d="M174 510q0 101 -3 152.5t-16 84.5t-32 43t-57 17l-35 4l2 12l354 176l8 -2q-1 -42 -1 -84v-146.5t-1 -242.5v-170q0 -75 1 -122.5t6 -84t9.5 -55t17 -32t23 -18t33.5 -11.5l62 -19v-12h-522v12l61 19q23 7 33.5 11.5t23 18t17 32t9.5 55t6 84t1 122.5v156zM59 1102
q-5 252 127 252q53 0 135.5 -31t112.5 -31q43 0 66 20.5t35 67.5h8q3 -250 -129 -250q-53 0 -135 31t-111 31q-43 0 -66 -21.5t-34 -68.5h-9z" />
    <glyph glyph-name="Imacron" unicode="&#x12a;" horiz-adv-x="665" 
d="M209 829q0 163 -3 255.5t-8 157t-20 93t-30.5 40.5t-49.5 24l-71 22v13h612v-13l-72 -22q-28 -9 -42 -16.5t-29.5 -31t-21 -55.5t-11.5 -97.5t-7 -150t-1 -219.5v-223q0 -135 1 -219.5t7 -150t11.5 -97.5t21 -55.5t29.5 -31t42 -17.5l72 -23v-12h-612v12l71 23
q28 10 42 17.5t29 31t21 55.5t11.5 98t6.5 149.5t1 219.5v223zM80 1620v51h502v-51h-502z" />
    <glyph glyph-name="imacron" unicode="&#x12b;" horiz-adv-x="567" 
d="M174 510q0 101 -3 152.5t-16 84.5t-32 43t-57 17l-35 4l2 12l354 176l8 -2q-1 -42 -1 -84v-146.5t-1 -242.5v-170q0 -75 1 -122.5t6 -84t9.5 -55t17 -32t23 -18t33.5 -11.5l62 -19v-12h-522v12l61 19q23 7 33.5 11.5t23 18t17 32t9.5 55t6 84t1 122.5v156zM74 1133v51
h456v-51h-456z" />
    <glyph glyph-name="Ibreve" unicode="&#x12c;" horiz-adv-x="665" 
d="M209 829q0 163 -3 255.5t-8 157t-20 93t-30.5 40.5t-49.5 24l-71 22v13h612v-13l-72 -22q-28 -9 -42 -16.5t-29.5 -31t-21 -55.5t-11.5 -97.5t-7 -150t-1 -219.5v-223q0 -135 1 -219.5t7 -150t11.5 -97.5t21 -55.5t29.5 -31t42 -17.5l72 -23v-12h-612v12l71 23
q28 10 42 17.5t29 31t21 55.5t11.5 98t6.5 149.5t1 219.5v223zM121 1849h6q13 -39 64 -64.5t143 -25.5t143 25.5t64 64.5h6q18 -122 -41.5 -193t-171.5 -71q-113 0 -173 71t-40 193z" />
    <glyph glyph-name="ibreve" unicode="&#x12d;" horiz-adv-x="567" 
d="M174 510q0 101 -3 152.5t-16 84.5t-32 43t-57 17l-35 4l2 12l354 176l8 -2q-1 -42 -1 -84v-146.5t-1 -242.5v-170q0 -75 1 -122.5t6 -84t9.5 -55t17 -32t23 -18t33.5 -11.5l62 -19v-12h-522v12l61 19q23 7 33.5 11.5t23 18t17 32t9.5 55t6 84t1 122.5v156zM68 1417h8
q27 -75 78 -108t147 -33t147.5 33t79.5 108h7q4 -158 -58 -236.5t-176 -78.5t-175 78t-58 237z" />
    <glyph glyph-name="Iogonek" unicode="&#x12e;" horiz-adv-x="665" 
d="M209 829q0 163 -3 255.5t-8 157t-20 93t-30.5 40.5t-49.5 24l-71 22v13h612v-13l-72 -22q-28 -9 -42 -16.5t-29.5 -31t-21 -55.5t-11.5 -97.5t-7 -150t-1 -219.5v-223q0 -135 1 -219.5t7 -150t11.5 -97.5t21 -55.5t29.5 -31t42 -17.5l72 -23v-12h-197q-159 -76 -159 -190
q0 -50 24 -68t68 -18q74 0 137 55l6 -4q-89 -133 -246 -133q-91 0 -141.5 38t-50.5 101q0 78 101.5 137t232.5 82h-387v12l71 23q28 10 42 17.5t29 31t21 55.5t11.5 98t6.5 149.5t1 219.5v223z" />
    <glyph glyph-name="iogonek" unicode="&#x12f;" horiz-adv-x="567" 
d="M174 510q0 101 -3 152.5t-16 84.5t-32 43t-57 17l-35 4l2 12l354 176l8 -2q-1 -42 -1 -84v-146.5t-1 -242.5v-170q0 -75 1 -122.5t6 -84t9.5 -55t17 -32t23 -18t33.5 -11.5l62 -19v-12h-160q-111 -67 -111 -164q0 -50 24.5 -68t68.5 -18q74 0 137 55l6 -4
q-89 -133 -246 -133q-91 0 -141.5 38t-50.5 101q0 61 64 111t163 82h-276v12l61 19q23 7 33.5 11.5t23 18t17 32t9.5 55t6 84t1 122.5v156zM152 1343q0 65 39.5 100.5t105.5 35.5q67 0 106 -35.5t39 -100.5q0 -68 -39 -103.5t-106 -35.5q-66 0 -105.5 36t-39.5 103z" />
    <glyph glyph-name="Idotaccent" unicode="&#x130;" horiz-adv-x="665" 
d="M209 829q0 163 -3 255.5t-8 157t-20 93t-30.5 40.5t-49.5 24l-71 22v13h612v-13l-72 -22q-28 -9 -42 -16.5t-29.5 -31t-21 -55.5t-11.5 -97.5t-7 -150t-1 -219.5v-223q0 -135 1 -219.5t7 -150t11.5 -97.5t21 -55.5t29.5 -31t42 -17.5l72 -23v-12h-612v12l71 23
q28 10 42 17.5t29 31t21 55.5t11.5 98t6.5 149.5t1 219.5v223zM197 1704q0 60 37.5 92.5t97.5 32.5q62 0 97.5 -32t35.5 -93q0 -62 -35 -94.5t-98 -32.5q-61 0 -98 33t-37 94z" />
    <glyph glyph-name="dotlessi" unicode="&#x131;" horiz-adv-x="567" 
d="M174 510q0 101 -3 152.5t-16 84.5t-32 43t-57 17l-35 4l2 12l354 176l8 -2q-1 -42 -1 -84v-146.5t-1 -242.5v-170q0 -75 1 -122.5t6 -84t9.5 -55t17 -32t23 -18t33.5 -11.5l62 -19v-12h-522v12l61 19q23 7 33.5 11.5t23 18t17 32t9.5 55t6 84t1 122.5v156z" />
    <glyph glyph-name="IJ" unicode="&#x132;" horiz-adv-x="1386" 
d="M209 829q0 163 -3 255.5t-8 157t-20 93t-30.5 40.5t-49.5 24l-71 22v13h612v-13l-72 -22q-28 -9 -42 -16.5t-29.5 -31t-21 -55.5t-11.5 -97.5t-7 -150t-1 -219.5v-223q0 -135 1 -219.5t7 -150t11.5 -97.5t21 -55.5t29.5 -31t42 -17.5l72 -23v-12h-612v12l71 23
q28 10 42 17.5t29 31t21 55.5t11.5 98t6.5 149.5t1 219.5v223zM684 1421v13h680v-13l-74 -22q-27 -9 -40 -15t-28 -28t-20 -52t-10.5 -94t-6.5 -145t-1 -215v-358q0 -223 -52.5 -378t-155.5 -253t-269 -162l-5 16q38 17 69 38.5t54 44t41 54t29.5 58.5t20 68t13 72.5t6.5 82
t2.5 86t0.5 94.5v537q0 99 -1 168t-5 127t-7.5 93.5t-14.5 64.5t-19 43t-27 26t-34 16t-44 11z" />
    <glyph glyph-name="ij" unicode="&#x133;" horiz-adv-x="1064" 
d="M174 510q0 101 -3 152.5t-16 84.5t-32 43t-57 17l-35 4l2 12l354 176l8 -2q-1 -42 -1 -84v-146.5t-1 -242.5v-170q0 -75 1 -122.5t6 -84t9.5 -55t17 -32t23 -18t33.5 -11.5l62 -19v-12h-522v12l61 19q23 7 33.5 11.5t23 18t17 32t9.5 55t6 84t1 122.5v156zM152 1343
q0 65 39.5 100.5t105.5 35.5q67 0 106 -35.5t39 -100.5q0 -68 -39 -103.5t-106 -35.5q-66 0 -105.5 36t-39.5 103zM549 -389q28 21 50 42.5t39 40.5t29.5 47.5t21 48.5t14 59t8.5 63t4.5 76.5t1.5 84v99.5v338q0 132 -8.5 189t-29 78t-71.5 30l-33 4v12l355 176l8 -2
q-1 -35 -1 -71v-73.5t0.5 -129.5t0.5 -199v-385q0 -207 -105 -344t-280 -192zM682 1343q0 65 39.5 100.5t105.5 35.5q67 0 106.5 -35.5t39.5 -100.5q0 -68 -39 -103.5t-107 -35.5q-66 0 -105.5 36t-39.5 103z" />
    <glyph glyph-name="Jcircumflex" unicode="&#x134;" horiz-adv-x="720" 
d="M272 850q0 133 -1.5 215t-9.5 145.5t-15.5 93.5t-28.5 51.5t-39 28t-57 15.5l-103 22v13h680v-13l-73 -22q-24 -7 -35.5 -13.5t-25.5 -19t-20 -37t-12.5 -59.5t-8.5 -95.5t-3.5 -135.5t-1.5 -189v-358q0 -223 -52.5 -378t-155.5 -253t-269 -162l-4 16q38 17 69 38.5
t54 44t40.5 54t29.5 58t20 68.5t12.5 72.5t6.5 82t2.5 86t0.5 94.5v537zM109 1587q109 116 260 285h28q60 -69 258 -285l-4 -4q-154 46 -268 88q-114 -42 -268 -88z" />
    <glyph glyph-name="jcircumflex" unicode="&#x135;" horiz-adv-x="507" 
d="M-8 -389q28 21 50 42.5t39 40.5t29.5 47.5t21 48.5t14 59t8.5 63t4.5 76.5t1.5 84v99.5v338q0 132 -8.5 189t-29 78t-71.5 30l-33 4v12l355 176l8 -2v-473v-385q0 -207 -105 -344t-280 -192zM2 1098q172 245 260 358h27q48 -60 85.5 -111.5t95 -134t79.5 -112.5l-4 -4
q-166 100 -269 157q-61 -33 -270 -157z" />
    <glyph glyph-name="uni0136" unicode="&#x136;" horiz-adv-x="1421" 
d="M1196 -18q-85 0 -147 43t-121 131l-402 583v11l324 370q55 62 83.5 108.5t34 77t-11 51.5t-44.5 32.5t-74 19.5l-66 12v13h582v-13q-82 -25 -158.5 -76t-210.5 -178l-278 -264l446 -639q72 -109 130.5 -160t125.5 -71v-13q-65 -21 -107 -29.5t-106 -8.5zM27 0v12l71 23
q28 10 42 17.5t29 31t21 55.5t11.5 98t6.5 149.5t1 219.5v223q0 163 -3 255.5t-8 157t-20 93t-30.5 40.5t-49.5 24l-71 22v13h612v-13l-72 -22q-28 -9 -42 -16.5t-29.5 -31t-21 -55.5t-11.5 -97.5t-7 -150t-1 -219.5v-223q0 -135 1 -219.5t7 -150t11.5 -97.5t21 -55.5
t29.5 -31t42 -17.5l72 -23v-12h-612zM563 -383q107 63 107 162q0 60 -76 63q0 57 28 85t74 28q48 0 76.5 -28t28.5 -77q0 -160 -234 -239z" />
    <glyph glyph-name="uni0137" unicode="&#x137;" horiz-adv-x="1110" 
d="M18 0v12l62 19q22 7 33 12t23.5 19.5t17.5 34.5t10 60t6 92.5t2 135.5l2 635q1 80 -1.5 126.5t-7.5 81t-18.5 50.5t-30.5 24t-48 13l-33 6v12l356 172h8q-1 -13 -6 -473l-4 -647q-1 -125 1 -187.5t12.5 -100t23.5 -47.5t43 -21l53 -17v-12h-504zM387 -383q107 63 107 162
q0 60 -76 63q0 57 28 85t74 28q48 0 76.5 -28t28.5 -77q0 -160 -234 -239zM453 477v39l239 260q28 30 43 48.5t25.5 39.5t5.5 34t-24.5 25t-57.5 19l-68 14v13h437v-11q-123 -58 -271 -178l-188 -149q115 -184 219 -322q215 -276 287 -295v-12q-82 -16 -142 -16
q-192 0 -278 143z" />
    <glyph glyph-name="kgreenlandic" unicode="&#x138;" horiz-adv-x="1116" 
d="M23 0v12l61 19q43 13 59 34t24.5 89t10.5 231l-2 127q2 101 -0.5 152.5t-15 84.5t-31.5 43t-57 17l-33 6v12l356 172l8 -2q-1 -12 -6 -471l-2 -141q-1 -163 5.5 -231.5t20.5 -89.5t52 -35l55 -19v-12zM457 477v39l239 260q28 30 43.5 48.5t26.5 39.5t6 34t-24.5 25
t-57.5 19l-69 14v13h436v-11q-128 -62 -271 -178l-188 -149q118 -188 221 -322q211 -276 287 -295v-12q-85 -16 -143 -16q-190 0 -279 143z" />
    <glyph glyph-name="Lacute" unicode="&#x139;" horiz-adv-x="1220" 
d="M27 0v12l71 23q28 9 41 15.5t28.5 28.5t20.5 52t11 94t7 145.5t1 215.5v264q0 133 -1 215t-6.5 145.5t-11 93.5t-21 52t-28.5 28t-41 15l-71 22v13h702v-15l-113 -22q-32 -8 -48 -13t-36.5 -18.5t-29.5 -28.5t-20 -47.5t-15 -71t-8 -103t-5 -139.5t-1 -185v-291
q0 -104 1.5 -168t7.5 -124t15.5 -90.5t27.5 -53.5t42.5 -29t60.5 -2l111 14q54 6 89 16t73.5 34.5t67.5 63.5t64.5 106.5t71 161t80.5 228.5h9l-56 -677h-2q-88 20 -256 20h-833zM145 1597l277 267l170 -168l-2 -10l-438 -97z" />
    <glyph glyph-name="lacute" unicode="&#x13a;" horiz-adv-x="559" 
d="M168 1018q1 131 -7 188t-29 78.5t-71 28.5l-34 6v12l356 174h8q-1 -43 -1 -85v-146t-1 -242v-678q0 -75 1 -122.5t6 -84t9.5 -55t17 -32t23 -18t33.5 -11.5l62 -19v-12h-523v12l62 19q23 7 33.5 11.5t23 18t17 32t9.5 55t6 84t1 122.5zM74 1679l276 267l170 -168l-2 -11
l-438 -96z" />
    <glyph glyph-name="uni013B" unicode="&#x13b;" horiz-adv-x="1220" 
d="M27 0v12l71 23q28 9 41 15.5t28.5 28.5t20.5 52t11 94t7 145.5t1 215.5v264q0 133 -1 215t-6.5 145.5t-11 93.5t-21 52t-28.5 28t-41 15l-71 22v13h702v-15l-113 -22q-32 -8 -48 -13t-36.5 -18.5t-29.5 -28.5t-20 -47.5t-15 -71t-8 -103t-5 -139.5t-1 -185v-291
q0 -104 1.5 -168t7.5 -124t15.5 -90.5t27.5 -53.5t42.5 -29t60.5 -2l111 14q54 6 89 16t73.5 34.5t67.5 63.5t64.5 106.5t71 161t80.5 228.5h9l-56 -677h-2q-88 20 -256 20h-833zM449 -383q106 62 106 162q0 60 -76 63q0 57 28.5 85t74.5 28q48 0 76 -28t28 -77
q0 -160 -233 -239z" />
    <glyph glyph-name="uni013C" unicode="&#x13c;" horiz-adv-x="559" 
d="M168 1018q1 131 -7 188t-29 78.5t-71 28.5l-34 6v12l356 174h8q-1 -43 -1 -85v-146t-1 -242v-678q0 -75 1 -122.5t6 -84t9.5 -55t17 -32t23 -18t33.5 -11.5l62 -19v-12h-523v12l62 19q23 7 33.5 11.5t23 18t17 32t9.5 55t6 84t1 122.5zM121 -383q106 62 106 162
q0 60 -75 63q0 57 28 85t74 28q48 0 76 -28t28 -77q0 -160 -233 -239z" />
    <glyph glyph-name="Lcaron" unicode="&#x13d;" horiz-adv-x="1220" 
d="M27 0v12l71 23q28 9 41 15.5t28.5 28.5t20.5 52t11 94t7 145.5t1 215.5v264q0 133 -1 215t-6.5 145.5t-11 93.5t-21 52t-28.5 28t-41 15l-71 22v13h702v-15l-113 -22q-32 -8 -48 -13t-36.5 -18.5t-29.5 -28.5t-20 -47.5t-15 -71t-8 -103t-5 -139.5t-1 -185v-291
q0 -104 1.5 -168t7.5 -124t15.5 -90.5t27.5 -53.5t42.5 -29t60.5 -2l111 14q54 6 89 16t73.5 34.5t67.5 63.5t64.5 106.5t71 161t80.5 228.5h9l-56 -677h-2q-88 20 -256 20h-833zM985 1434h232l-195 -535h-6z" />
    <glyph glyph-name="lcaron" unicode="&#x13e;" horiz-adv-x="796" 
d="M168 1018q1 131 -7 188t-29 78.5t-71 28.5l-34 6v12l356 174h8q-1 -43 -1 -85v-146t-1 -242v-678q0 -75 1 -122.5t6 -84t9.5 -55t17 -32t23 -18t33.5 -11.5l62 -19v-12h-523v12l62 19q23 7 33.5 11.5t23 18t17 32t9.5 55t6 84t1 122.5zM557 1475h231l-194 -535h-6z" />
    <glyph glyph-name="Ldot" unicode="&#x13f;" horiz-adv-x="1230" 
d="M27 0v12l71 23q28 9 41 15.5t28.5 28.5t20.5 52t11 94t7 145.5t1 215.5v264q0 133 -1 215t-6.5 145.5t-11 93.5t-21 52t-28.5 28t-41 15l-71 22v13h702v-15l-113 -22q-32 -8 -48 -13t-36.5 -18.5t-29.5 -28.5t-20 -47.5t-15 -71t-8 -103t-5 -139.5t-1 -185v-291
q0 -104 1.5 -168t7.5 -124t15.5 -90.5t27.5 -53.5t42.5 -29t60.5 -2l111 14q54 6 89 16t73.5 34.5t67.5 63.5t64.5 106.5t71 161t80.5 228.5h9l-56 -677h-2q-88 20 -256 20h-833zM676 741q0 50 40 85.5t97 35.5q54 0 93.5 -36t39.5 -85q0 -51 -39.5 -87t-93.5 -36
q-57 0 -97 36t-40 87z" />
    <glyph glyph-name="ldot" unicode="&#x140;" horiz-adv-x="688" 
d="M168 1018q1 131 -7 188t-29 78.5t-71 28.5l-34 6v12l356 174h8q-1 -43 -1 -85v-146t-1 -242v-678q0 -75 1 -122.5t6 -84t9.5 -55t17 -32t23 -18t33.5 -11.5l62 -19v-12h-523v12l62 19q23 7 33.5 11.5t23 18t17 32t9.5 55t6 84t1 122.5zM481 764q0 37 30 63.5t71 26.5
q40 0 69 -26.5t29 -63.5t-29 -63.5t-69 -26.5q-41 0 -71 26.5t-30 63.5z" />
    <glyph glyph-name="Lslash" unicode="&#x141;" horiz-adv-x="1220" 
d="M27 0v12l71 23q28 9 41 15.5t28.5 28.5t20.5 52t11 94t7 145.5t1 215.5v37l-129 -74l-19 29l148 84v188q0 133 -1 215t-6.5 145.5t-11 93.5t-21 52t-28.5 28t-41 15l-71 22v13h702v-15l-113 -22q-32 -8 -47.5 -13t-36 -18t-29.5 -28.5t-20.5 -46.5t-15 -69.5t-8 -101
t-5.5 -136.5t-1 -181l159 92l17 -29l-176 -102v-264q0 -104 1.5 -168t7.5 -124t15.5 -90.5t27.5 -53.5t42.5 -29t60.5 -2l111 14q54 6 89 16t73.5 34.5t67.5 63.5t64.5 106.5t71 161t80.5 228.5h9l-56 -677h-2q-88 20 -256 20h-833z" />
    <glyph glyph-name="lslash" unicode="&#x142;" horiz-adv-x="559" 
d="M168 1018q1 131 -7 188t-29 78.5t-71 28.5l-34 6v12l356 174h8q-1 -43 -1 -85v-146t-1 -242v-196l160 92l16 -29l-176 -102v-443q0 -75 1 -122.5t6 -84t9.5 -55t17 -32t23 -18t33.5 -11.5l62 -19v-12h-523v12l62 19q23 7 33.5 11.5t23 18t17 32t9.5 55t6 84t1 122.5v316
l-158 -90l-16 28l172 101v309z" />
    <glyph glyph-name="Nacute" unicode="&#x143;" horiz-adv-x="1435" 
d="M1219 -39l-998 1264l25 -574q4 -100 8 -164.5t11 -130t16 -104.5t24.5 -77.5t34.5 -59t48 -40t63 -30t81 -18.5l76 -15v-12h-581v12l45 13q33 9 47.5 15.5t33 29.5t25 58.5t14.5 106t9.5 168t1.5 248.5v131q0 400 -15 493t-96 124l-63 22v13h352l829 -1053l-16 401
q-4 102 -7.5 163.5t-10.5 129.5t-15.5 104.5t-24 77t-34 60t-48 40t-64 31t-83.5 19.5l-76 14v13h584v-13l-49 -12q-24 -7 -35.5 -11t-28.5 -16.5t-23.5 -28.5t-16.5 -48t-13.5 -74t-7.5 -107t-5 -147t-1 -195v-821h-16zM514 1597l277 267l170 -168l-3 -10l-438 -97z" />
    <glyph glyph-name="nacute" unicode="&#x144;" horiz-adv-x="1140" 
d="M393 354q0 -75 1 -122.5t6 -84t9.5 -55t17 -32t23 -18t33.5 -11.5l62 -19v-12h-522v12l61 19q23 7 33.5 11.5t23 18t17 32t9.5 55t6 84t1 122.5v154q0 79 -2 121t-7 78.5t-18 52t-31 25t-50 14.5l-37 4v12l352 184h8v-194h10q218 194 379 194q109 0 155 -64.5t46 -186.5
v-394q0 -113 2.5 -169.5t14 -91t25 -43.5t46.5 -19l61 -19v-12h-520v12l60 19q23 7 33.5 11.5t23 18t17 32t9.5 55t6 84t1 122.5v314q0 79 -31.5 117t-101.5 38q-90 0 -232 -45v-424zM485 1090l97 348h247l-2 -13l-331 -340z" />
    <glyph glyph-name="uni0145" unicode="&#x145;" horiz-adv-x="1435" 
d="M1219 -39l-998 1264l25 -574q4 -100 8 -164.5t11 -130t16 -104.5t24.5 -77.5t34.5 -59t48 -40t63 -30t81 -18.5l76 -15v-12h-581v12l45 13q33 9 47.5 15.5t33 29.5t25 58.5t14.5 106t9.5 168t1.5 248.5v131q0 400 -15 493t-96 124l-63 22v13h352l829 -1053l-16 401
q-4 102 -7.5 163.5t-10.5 129.5t-15.5 104.5t-24 77t-34 60t-48 40t-64 31t-83.5 19.5l-76 14v13h584v-13l-49 -12q-24 -7 -35.5 -11t-28.5 -16.5t-23.5 -28.5t-16.5 -48t-13.5 -74t-7.5 -107t-5 -147t-1 -195v-821h-16zM600 -383q107 63 107 162q0 60 -76 63q0 57 28 85
t74 28q48 0 76.5 -28t28.5 -77q0 -160 -234 -239z" />
    <glyph glyph-name="uni0146" unicode="&#x146;" horiz-adv-x="1140" 
d="M393 354q0 -75 1 -122.5t6 -84t9.5 -55t17 -32t23 -18t33.5 -11.5l62 -19v-12h-522v12l61 19q23 7 33.5 11.5t23 18t17 32t9.5 55t6 84t1 122.5v154q0 79 -2 121t-7 78.5t-18 52t-31 25t-50 14.5l-37 4v12l352 184h8v-194h10q218 194 379 194q109 0 155 -64.5t46 -186.5
v-394q0 -113 2.5 -169.5t14 -91t25 -43.5t46.5 -19l61 -19v-12h-520v12l60 19q23 7 33.5 11.5t23 18t17 32t9.5 55t6 84t1 122.5v314q0 79 -31.5 117t-101.5 38q-90 0 -232 -45v-424zM449 -383q106 62 106 162q0 60 -76 63q0 57 28.5 85t74.5 28q48 0 76 -28t28 -77
q0 -160 -233 -239z" />
    <glyph glyph-name="Ncaron" unicode="&#x147;" horiz-adv-x="1435" 
d="M1219 -39l-998 1264l25 -574q4 -100 8 -164.5t11 -130t16 -104.5t24.5 -77.5t34.5 -59t48 -40t63 -30t81 -18.5l76 -15v-12h-581v12l45 13q33 9 47.5 15.5t33 29.5t25 58.5t14.5 106t9.5 168t1.5 248.5v131q0 400 -15 493t-96 124l-63 22v13h352l829 -1053l-16 401
q-4 102 -7.5 163.5t-10.5 129.5t-15.5 104.5t-24 77t-34 60t-48 40t-64 31t-83.5 19.5l-76 14v13h584v-13l-49 -12q-24 -7 -35.5 -11t-28.5 -16.5t-23.5 -28.5t-16.5 -48t-13.5 -74t-7.5 -107t-5 -147t-1 -195v-821h-16zM442 1872l7 4q154 -46 268 -88q114 42 268 88l4 -4
q-198 -216 -258 -285h-29q-151 169 -260 285z" />
    <glyph glyph-name="ncaron" unicode="&#x148;" horiz-adv-x="1140" 
d="M393 354q0 -75 1 -122.5t6 -84t9.5 -55t17 -32t23 -18t33.5 -11.5l62 -19v-12h-522v12l61 19q23 7 33.5 11.5t23 18t17 32t9.5 55t6 84t1 122.5v154q0 79 -2 121t-7 78.5t-18 52t-31 25t-50 14.5l-37 4v12l352 184h8v-194h10q218 194 379 194q109 0 155 -64.5t46 -186.5
v-394q0 -113 2.5 -169.5t14 -91t25 -43.5t46.5 -19l61 -19v-12h-520v12l60 19q23 7 33.5 11.5t23 18t17 32t9.5 55t6 84t1 122.5v314q0 79 -31.5 117t-101.5 38q-90 0 -232 -45v-424zM334 1450l4 4q226 -135 270 -158q86 47 269 158l4 -4q-26 -36 -65 -92.5t-62.5 -89.5
t-59.5 -81t-73 -95h-27q-88 113 -260 358z" />
    <glyph glyph-name="Omacron" unicode="&#x14c;" horiz-adv-x="1501" 
d="M705 -31q-205 0 -351.5 88t-219.5 242t-73 360q0 175 54.5 325t150.5 255.5t232.5 165t294.5 59.5q205 0 353 -88t221 -240t73 -352q0 -238 -93.5 -424t-261 -288.5t-380.5 -102.5zM348 809q0 -363 123.5 -570.5t325.5 -207.5q167 0 261.5 157t94.5 437q0 363 -123 570.5
t-325 207.5q-168 0 -262.5 -156.5t-94.5 -437.5zM500 1620v51h501v-51h-501z" />
    <glyph glyph-name="omacron" unicode="&#x14d;" horiz-adv-x="1046" 
d="M500 -29q-214 0 -328.5 122t-114.5 347q0 240 141 397.5t349 157.5q216 0 329 -123t113 -348q0 -158 -64.5 -285t-176 -197.5t-248.5 -70.5zM305 549q0 -238 63 -381t183 -143q192 0 192 391q0 239 -61.5 382.5t-183.5 143.5q-69 0 -113 -53.5t-62 -138.5t-18 -201z
M319 1133v51h457v-51h-457z" />
    <glyph glyph-name="Obreve" unicode="&#x14e;" horiz-adv-x="1501" 
d="M705 -31q-205 0 -351.5 88t-219.5 242t-73 360q0 175 54.5 325t150.5 255.5t232.5 165t294.5 59.5q205 0 353 -88t221 -240t73 -352q0 -238 -93.5 -424t-261 -288.5t-380.5 -102.5zM348 809q0 -363 123.5 -570.5t325.5 -207.5q167 0 261.5 157t94.5 437q0 363 -123 570.5
t-325 207.5q-168 0 -262.5 -156.5t-94.5 -437.5zM541 1849h6q13 -39 64 -64.5t143 -25.5t143 25.5t64 64.5h6q18 -122 -41.5 -193t-171.5 -71q-113 0 -173 71t-40 193z" />
    <glyph glyph-name="obreve" unicode="&#x14f;" horiz-adv-x="1046" 
d="M500 -29q-214 0 -328.5 122t-114.5 347q0 240 141 397.5t349 157.5q216 0 329 -123t113 -348q0 -158 -64.5 -285t-176 -197.5t-248.5 -70.5zM305 549q0 -238 63 -381t183 -143q192 0 192 391q0 239 -61.5 382.5t-183.5 143.5q-69 0 -113 -53.5t-62 -138.5t-18 -201z
M313 1417h9q27 -75 78 -108t147 -33t147.5 33t79.5 108h6q4 -158 -57.5 -236.5t-175.5 -78.5t-175.5 78.5t-58.5 236.5z" />
    <glyph glyph-name="Ohungarumlaut" unicode="&#x150;" horiz-adv-x="1501" 
d="M705 -31q-205 0 -351.5 88t-219.5 242t-73 360q0 175 54.5 325t150.5 255.5t232.5 165t294.5 59.5q205 0 353 -88t221 -240t73 -352q0 -238 -93.5 -424t-261 -288.5t-380.5 -102.5zM348 809q0 -363 123.5 -570.5t325.5 -207.5q167 0 261.5 157t94.5 437q0 363 -123 570.5
t-325 207.5q-168 0 -262.5 -156.5t-94.5 -437.5zM563 1585l64 338l233 21v-13l-287 -350zM850 1585l63 338l234 21v-13l-287 -350z" />
    <glyph glyph-name="ohungarumlaut" unicode="&#x151;" horiz-adv-x="1046" 
d="M500 -29q-214 0 -328.5 122t-114.5 347q0 240 141 397.5t349 157.5q216 0 329 -123t113 -348q0 -158 -64.5 -285t-176 -197.5t-248.5 -70.5zM305 549q0 -238 63 -381t183 -143q192 0 192 391q0 239 -61.5 382.5t-183.5 143.5q-69 0 -113 -53.5t-62 -138.5t-18 -201z
M369 1075l63 338l234 21v-13l-287 -350zM655 1075l64 338l233 21v-13l-286 -350z" />
    <glyph glyph-name="OE" unicode="&#x152;" horiz-adv-x="2072" 
d="M705 -31q-205 0 -351.5 88t-219.5 242t-73 360q0 175 54.5 325t150.5 255.5t232.5 165t294.5 59.5q118 0 227 -32v2h534q230 0 326 34h4l-31 -565h-10q-23 81 -40.5 136t-37.5 105.5t-36.5 81t-40 58t-45 42t-55 27t-67 19t-83.5 12.5l-160 19q-12 -46 -12 -447v-186
l463 39v-111l-463 43v-262q0 -126 4 -202t12.5 -130t27.5 -78t44 -32t67 -4l115 14q54 5 93.5 17t79.5 39.5t72 66.5t71 107t78 153t91 211h9l-86 -664h-2q-83 23 -263 23h-659v37q-149 -68 -315 -68zM348 809q0 -364 124.5 -571t330.5 -207q130 0 217 104v1071
q-124 197 -322 197q-163 0 -256.5 -157t-93.5 -437z" />
    <glyph glyph-name="oe" unicode="&#x153;" horiz-adv-x="1642" 
d="M1198 -29q-100 0 -190 41.5t-150 126.5q-67 -80 -159.5 -124t-198.5 -44q-214 0 -328.5 122t-114.5 347q0 240 141 397.5t349 157.5q246 0 358 -159q68 77 154 118t164 41q153 0 254.5 -102t101.5 -291l-25 -27l-557 19v-21q0 -205 79 -321.5t216 -116.5q121 0 200.5 89
t88.5 257l12 -2q-3 -253 -106 -380.5t-289 -127.5zM305 549q0 -238 63 -381t183 -143q192 0 192 391q0 239 -61.5 382.5t-183.5 143.5q-69 0 -113 -53.5t-62 -138.5t-18 -201zM999 625l347 10q11 77 3.5 145t-47.5 115t-104 47q-76 0 -133 -84t-66 -233z" />
    <glyph glyph-name="Racute" unicode="&#x154;" horiz-adv-x="1394" 
d="M27 0v12l71 23q28 9 41 15.5t28.5 28.5t20.5 52t11 94t7 145.5t1 215.5v264q0 133 -1 215t-6.5 145.5t-11 93.5t-21 52t-28.5 28t-41 15l-71 22v13h624q252 0 397.5 -100.5t145.5 -276.5q0 -60 -18 -114t-57.5 -104.5t-111.5 -89t-171 -59.5q151 -256 358 -522
q42 -53 83.5 -81.5t108.5 -55.5v-11q-104 -38 -212 -38q-86 0 -147 41t-122 135q-186 275 -305 508h-25h-122v-80q0 -133 1 -215.5t7 -146t11 -93.5t20.5 -52t28 -28.5t40.5 -15.5l74 -23v-12h-608zM401 1597l277 267l170 -168l-2 -10l-438 -97zM453 705h131q164 0 245.5 81
t81.5 232q0 194 -99.5 284.5t-303.5 90.5h-41q-14 -42 -14 -439v-249z" />
    <glyph glyph-name="racute" unicode="&#x155;" horiz-adv-x="776" 
d="M397 375q0 -76 2 -124.5t12 -86t19.5 -56.5t35.5 -35.5t48.5 -23t69.5 -18.5l71 -19v-12h-632v12l63 19q28 9 39.5 16t24.5 25t17 55t6.5 93.5t2.5 154.5v145q0 122 -9 176.5t-29.5 74t-69.5 28.5l-35 4v12l352 184l8 -2v-241h8q211 241 347 241h14v-254h-6
q-208 52 -359 -14v-354zM346 1090l96 348h248l-2 -13l-332 -340z" />
    <glyph glyph-name="uni0156" unicode="&#x156;" horiz-adv-x="1394" 
d="M27 0v12l71 23q28 9 41 15.5t28.5 28.5t20.5 52t11 94t7 145.5t1 215.5v264q0 133 -1 215t-6.5 145.5t-11 93.5t-21 52t-28.5 28t-41 15l-71 22v13h624q252 0 397.5 -100.5t145.5 -276.5q0 -60 -18 -114t-57.5 -104.5t-111.5 -89t-171 -59.5q151 -256 358 -522
q42 -53 83.5 -81.5t108.5 -55.5v-11q-104 -38 -212 -38q-86 0 -147 41t-122 135q-186 275 -305 508h-25h-122v-80q0 -133 1 -215.5t7 -146t11 -93.5t20.5 -52t28 -28.5t40.5 -15.5l74 -23v-12h-608zM453 705h131q164 0 245.5 81t81.5 232q0 194 -99.5 284.5t-303.5 90.5h-41
q-14 -42 -14 -439v-249zM555 -383q107 63 107 162q0 60 -76 63q0 57 28 85t74 28q48 0 76.5 -28t28.5 -77q0 -160 -234 -239z" />
    <glyph glyph-name="uni0157" unicode="&#x157;" horiz-adv-x="776" 
d="M397 375q0 -76 2 -124.5t12 -86t19.5 -56.5t35.5 -35.5t48.5 -23t69.5 -18.5l71 -19v-12h-632v12l63 19q28 9 39.5 16t24.5 25t17 55t6.5 93.5t2.5 154.5v145q0 122 -9 176.5t-29.5 74t-69.5 28.5l-35 4v12l352 184l8 -2v-241h8q211 241 347 241h14v-254h-6
q-208 52 -359 -14v-354zM217 -383q107 63 107 162q0 60 -76 63q0 57 28 85t74 28q48 0 76.5 -28t28.5 -77q0 -160 -234 -239z" />
    <glyph glyph-name="Rcaron" unicode="&#x158;" horiz-adv-x="1394" 
d="M27 0v12l71 23q28 9 41 15.5t28.5 28.5t20.5 52t11 94t7 145.5t1 215.5v264q0 133 -1 215t-6.5 145.5t-11 93.5t-21 52t-28.5 28t-41 15l-71 22v13h624q252 0 397.5 -100.5t145.5 -276.5q0 -60 -18 -114t-57.5 -104.5t-111.5 -89t-171 -59.5q151 -256 358 -522
q42 -53 83.5 -81.5t108.5 -55.5v-11q-104 -38 -212 -38q-86 0 -147 41t-122 135q-186 275 -305 508h-25h-122v-80q0 -133 1 -215.5t7 -146t11 -93.5t20.5 -52t28 -28.5t40.5 -15.5l74 -23v-12h-608zM330 1872l6 4q154 -46 268 -88q114 42 268 88l5 -4q-221 -241 -259 -285
h-28q-151 169 -260 285zM453 705h131q164 0 245.5 81t81.5 232q0 194 -99.5 284.5t-303.5 90.5h-41q-14 -42 -14 -439v-249z" />
    <glyph glyph-name="rcaron" unicode="&#x159;" horiz-adv-x="776" 
d="M397 375q0 -76 2 -124.5t12 -86t19.5 -56.5t35.5 -35.5t48.5 -23t69.5 -18.5l71 -19v-12h-632v12l63 19q28 9 39.5 16t24.5 25t17 55t6.5 93.5t2.5 154.5v145q0 122 -9 176.5t-29.5 74t-69.5 28.5l-35 4v12l352 184l8 -2v-241h8q211 241 347 241h14v-254h-6
q-208 52 -359 -14v-354zM195 1450l4 4q226 -135 270 -158q75 41 268 158l4 -4q-26 -36 -65 -92.5t-62.5 -89.5t-59.5 -81t-73 -95h-26q-88 113 -260 358z" />
    <glyph glyph-name="Sacute" unicode="&#x15a;" horiz-adv-x="1093" 
d="M518 -29q-134 0 -248.5 32.5t-183.5 68.5l35 495h10q106 -309 193 -425.5t219 -116.5q120 0 190 65t70 189q0 125 -78.5 208.5t-241.5 157.5q-202 88 -295.5 193.5t-93.5 265.5q0 163 116 262.5t341 99.5q120 0 259 -43t198 -88l-164 -444h-13q-12 199 -49 314.5
t-97 162.5t-155 47q-96 0 -154.5 -61t-58.5 -174q0 -95 54.5 -164t185.5 -127q71 -33 116 -55t99.5 -53.5t88 -59t68 -64.5t53 -76t30.5 -89.5t12 -108.5q0 -78 -31.5 -150.5t-91.5 -131.5t-159.5 -94.5t-223.5 -35.5zM340 1597l276 267l170 -168l-2 -10l-438 -97z" />
    <glyph glyph-name="sacute" unicode="&#x15b;" horiz-adv-x="821" 
d="M406 -33q-100 0 -200 24t-140 48l51 377h6q50 -217 127 -306.5t188 -89.5q78 0 119 42t41 100q0 65 -47.5 111.5t-185.5 109.5q-158 72 -216.5 142.5t-58.5 179.5q0 129 100.5 209.5t245.5 80.5q98 0 184 -27t140 -67l-129 -305h-6q-15 346 -230 346q-66 0 -105.5 -40.5
t-39.5 -100.5q0 -54 35.5 -90.5t136.5 -83.5q69 -31 107 -50t82.5 -44.5t67 -47.5t43.5 -51.5t28.5 -63.5t7.5 -77q0 -141 -94.5 -233.5t-257.5 -92.5zM317 1090l97 348h248l-3 -13l-331 -340z" />
    <glyph glyph-name="Scircumflex" unicode="&#x15c;" horiz-adv-x="1093" 
d="M518 -29q-134 0 -248.5 32.5t-183.5 68.5l35 495h10q106 -309 193 -425.5t219 -116.5q120 0 190 65t70 189q0 125 -78.5 208.5t-241.5 157.5q-202 88 -295.5 193.5t-93.5 265.5q0 163 116 262.5t341 99.5q120 0 259 -43t198 -88l-164 -444h-13q-12 199 -49 314.5
t-97 162.5t-155 47q-96 0 -154.5 -61t-58.5 -174q0 -95 54.5 -164t185.5 -127q71 -33 116 -55t99.5 -53.5t88 -59t68 -64.5t53 -76t30.5 -89.5t12 -108.5q0 -78 -31.5 -150.5t-91.5 -131.5t-159.5 -94.5t-223.5 -35.5zM268 1587q109 116 260 285h29q60 -69 258 -285l-4 -4
q-154 46 -268 88q-110 -40 -269 -88z" />
    <glyph glyph-name="scircumflex" unicode="&#x15d;" horiz-adv-x="821" 
d="M406 -33q-100 0 -200 24t-140 48l51 377h6q50 -217 127 -306.5t188 -89.5q78 0 119 42t41 100q0 65 -47.5 111.5t-185.5 109.5q-158 72 -216.5 142.5t-58.5 179.5q0 129 100.5 209.5t245.5 80.5q98 0 184 -27t140 -67l-129 -305h-6q-15 346 -230 346q-66 0 -105.5 -40.5
t-39.5 -100.5q0 -54 35.5 -90.5t136.5 -83.5q69 -31 107 -50t82.5 -44.5t67 -47.5t43.5 -51.5t28.5 -63.5t7.5 -77q0 -141 -94.5 -233.5t-257.5 -92.5zM166 1098q172 245 260 358h27q48 -60 85.5 -111.5t95 -134t79.5 -112.5l-4 -4q-166 100 -269 157q-61 -33 -270 -157z
" />
    <glyph glyph-name="Scedilla" unicode="&#x15e;" horiz-adv-x="1093" 
d="M86 72l35 495h10q106 -309 193 -425.5t219 -116.5q120 0 190 65t70 189q0 125 -78.5 208.5t-241.5 157.5q-202 88 -295.5 193.5t-93.5 265.5q0 163 116 262.5t341 99.5q120 0 259 -43t198 -88l-164 -444h-13q-12 199 -49 314.5t-97 162.5t-155 47q-96 0 -154.5 -61
t-58.5 -174q0 -95 54.5 -164t185.5 -127q71 -33 116 -55t99.5 -53.5t88 -59t68 -64.5t53 -76t30.5 -89.5t12 -108.5q0 -61 -19 -119.5t-59.5 -111.5t-98 -93t-141 -63.5t-182.5 -24.5q-2 -5 -3 -10t-1.5 -11t-1.5 -9q79 -20 115.5 -53t36.5 -85q0 -150 -316 -172v7
q98 19 132 40t34 52q0 29 -29 45t-102 37l-4 4q65 99 109 155q-127 4 -233.5 35.5t-174.5 65.5z" />
    <glyph glyph-name="scedilla" unicode="&#x15f;" horiz-adv-x="821" 
d="M406 -33h-11q-4 -20 -4 -26q79 -20 115.5 -53t36.5 -85q0 -150 -316 -172v7q98 19 132 40t34 52q0 29 -29 45t-102 37l-4 4q10 14 47.5 70.5t56.5 82.5q-90 4 -175 26t-121 44l51 377h6q50 -217 127 -306.5t188 -89.5q78 0 119 42t41 100q0 65 -47.5 111.5t-185.5 109.5
q-158 72 -216.5 142.5t-58.5 179.5q0 129 100.5 209.5t245.5 80.5q98 0 184 -27t140 -67l-129 -305h-6q-15 346 -230 346q-66 0 -105.5 -40.5t-39.5 -100.5q0 -54 35.5 -90.5t136.5 -83.5q69 -31 107 -50t82.5 -44.5t67 -47.5t43.5 -51.5t28.5 -63.5t7.5 -77
q0 -141 -94.5 -233.5t-257.5 -92.5z" />
    <glyph glyph-name="Scaron" unicode="&#x160;" horiz-adv-x="1093" 
d="M518 -29q-134 0 -248.5 32.5t-183.5 68.5l35 495h10q106 -309 193 -425.5t219 -116.5q120 0 190 65t70 189q0 125 -78.5 208.5t-241.5 157.5q-202 88 -295.5 193.5t-93.5 265.5q0 163 116 262.5t341 99.5q120 0 259 -43t198 -88l-164 -444h-13q-12 199 -49 314.5
t-97 162.5t-155 47q-96 0 -154.5 -61t-58.5 -174q0 -95 54.5 -164t185.5 -127q71 -33 116 -55t99.5 -53.5t88 -59t68 -64.5t53 -76t30.5 -89.5t12 -108.5q0 -78 -31.5 -150.5t-91.5 -131.5t-159.5 -94.5t-223.5 -35.5zM268 1872l6 4q159 -48 269 -88q114 42 268 88l4 -4
q-198 -216 -258 -285h-29q-151 169 -260 285z" />
    <glyph glyph-name="scaron" unicode="&#x161;" horiz-adv-x="821" 
d="M406 -33q-100 0 -200 24t-140 48l51 377h6q50 -217 127 -306.5t188 -89.5q78 0 119 42t41 100q0 65 -47.5 111.5t-185.5 109.5q-158 72 -216.5 142.5t-58.5 179.5q0 129 100.5 209.5t245.5 80.5q98 0 184 -27t140 -67l-129 -305h-6q-15 346 -230 346q-66 0 -105.5 -40.5
t-39.5 -100.5q0 -54 35.5 -90.5t136.5 -83.5q69 -31 107 -50t82.5 -44.5t67 -47.5t43.5 -51.5t28.5 -63.5t7.5 -77q0 -141 -94.5 -233.5t-257.5 -92.5zM166 1450l4 4q226 -135 270 -158q86 47 269 158l4 -4q-26 -36 -65 -92.5t-62.5 -89.5t-59.5 -81t-73 -95h-27
q-88 113 -260 358z" />
    <glyph glyph-name="uni0162" unicode="&#x162;" horiz-adv-x="1298" 
d="M276 0v12l95 23q36 9 53 15.5t37 28.5t26.5 52t14 93.5t9 146t1.5 215.5v348q0 381 -8 471l-76 -8q-41 -5 -66.5 -10.5t-54 -18t-46.5 -28.5t-40.5 -47.5t-39 -68t-39.5 -98t-45 -130t-52 -169.5h-14l22 641h4q96 -34 277 -34h602q226 0 326 34h4l-31 -641h-14
q-19 80 -31 130.5t-28 107t-26.5 89t-26.5 69.5t-29.5 56t-33 40.5t-38.5 31.5t-46 20.5t-55.5 15.5t-66.5 10l-74 8q-8 -106 -8 -471v-348q0 -133 1.5 -215.5t9 -146t14 -93.5t26 -52t36 -28.5t52.5 -15.5l96 -23v-12h-356q-12 -56 -12 -59q79 -20 115 -53t36 -85
q0 -150 -315 -172v7q98 19 132 40t34 52q0 29 -29 45t-102 37l-4 4q68 105 129 184h-345z" />
    <glyph glyph-name="uni0163" unicode="&#x163;" horiz-adv-x="722" 
d="M373 -29h-2q-2 -5 -3 -10t-1.5 -11t-1.5 -9q79 -20 115 -53t36 -85q0 -150 -315 -172v7q98 19 132 40t34 52q0 29 -29 45t-102 37l-5 4q74 112 109 157q-211 15 -211 275q0 77 9 314.5t12 359.5h-123v47h135l188 309h10v-309h326l4 -6l-6 -41h-324q-6 -307 -6 -607
q0 -100 30 -142t95 -42q53 0 88 23.5t64 86.5t55 181l12 -2q-22 -227 -98.5 -338t-226.5 -111z" />
    <glyph glyph-name="Tcaron" unicode="&#x164;" horiz-adv-x="1298" 
d="M276 0v12l95 23q36 9 53 15.5t37 28.5t26.5 52t14 93.5t9 146t1.5 215.5v348q0 381 -8 471l-76 -8q-41 -5 -66.5 -10.5t-54 -18t-46.5 -28.5t-40.5 -47.5t-39 -68t-39.5 -98t-45 -130t-52 -169.5h-14l22 641h4q96 -34 277 -34h602q226 0 326 34h4l-31 -641h-14
q-19 80 -31 130.5t-28 107t-26.5 89t-26.5 69.5t-29.5 56t-33 40.5t-38.5 31.5t-46 20.5t-55.5 15.5t-66.5 10l-74 8q-8 -106 -8 -471v-348q0 -133 1.5 -215.5t9 -146t14 -93.5t26 -52t36 -28.5t52.5 -15.5l96 -23v-12h-717zM365 1872l6 4q154 -46 268 -88q114 42 268 88
l4 -4q-198 -216 -258 -285h-28q-151 169 -260 285z" />
    <glyph glyph-name="tcaron" unicode="&#x165;" horiz-adv-x="722" 
d="M373 -29q-244 0 -244 277q0 77 9 314.5t12 359.5h-123v47h135l188 309h10v-309h326l4 -6l-6 -41h-324q-6 -307 -6 -607q0 -100 30 -142t95 -42q53 0 88 23.5t64 86.5t55 181l12 -2q-22 -227 -98.5 -338t-226.5 -111zM551 1565h231l-194 -428h-6z" />
    <glyph glyph-name="Tbar" unicode="&#x166;" horiz-adv-x="1298" 
d="M276 0v12l95 23q36 9 53 15.5t37 28.5t26.5 52t14 93.5t9 146t1.5 215.5v92h-193v33h193v223q0 381 -8 471l-76 -8q-41 -5 -66.5 -10.5t-54 -18t-46.5 -28.5t-40.5 -47.5t-39 -68t-39.5 -98t-45 -130t-52 -169.5h-14l22 641h4q96 -34 277 -34h602q226 0 326 34h4
l-31 -641h-14q-19 80 -31 130.5t-28 107t-26.5 89t-26.5 69.5t-29.5 56t-33 40.5t-38.5 31.5t-46 20.5t-55.5 15.5t-66.5 10l-74 8q-8 -106 -8 -471v-223h198v-33h-198v-92q0 -133 1.5 -215.5t9 -146t14 -93.5t26 -52t36 -28.5t52.5 -15.5l96 -23v-12h-717z" />
    <glyph glyph-name="tbar" unicode="&#x167;" horiz-adv-x="722" 
d="M373 -29q-244 0 -244 277q0 115 10 350h-178v33h180q1 43 4.5 141t4.5 150h-123v47h135l188 309h10v-309h326l4 -6l-6 -41h-324q-4 -192 -4 -291h242v-33h-242q-2 -96 -2 -283q0 -100 30 -142t95 -42q53 0 88 23.5t64 86.5t55 181l12 -2q-22 -227 -98.5 -338t-226.5 -111
z" />
    <glyph glyph-name="Utilde" unicode="&#x168;" horiz-adv-x="1423" 
d="M750 -33q-91 0 -168 16t-147.5 57t-120 104.5t-78.5 164.5t-29 232v288q0 163 -3 255.5t-8 157t-20 93t-30.5 40.5t-49.5 24l-73 22v13h614v-13l-74 -22q-27 -9 -41 -16.5t-29 -31t-20.5 -55.5t-11.5 -97.5t-7 -150t-1 -219.5v-288q0 -256 94.5 -379t304.5 -123
q173 0 269 134.5t96 416.5q0 143 -3.5 244t-11.5 188t-24 143.5t-37.5 101t-55 71.5t-73.5 44t-97 27l-61 12v13h547v-13l-19 -8q-63 -25 -87 -60q-36 -54 -46 -225q-6 -122 -6 -542q0 -166 -33 -285.5t-97.5 -192.5t-154 -107t-208.5 -34zM543 1585q-5 252 127 252
q53 0 135.5 -30.5t112.5 -30.5q42 0 65 20t35 68h8q3 -250 -129 -250q-53 0 -135 30.5t-111 30.5q-43 0 -66 -21.5t-34 -68.5h-8z" />
    <glyph glyph-name="utilde" unicode="&#x169;" horiz-adv-x="1118" 
d="M365 -33q-52 0 -90.5 14t-61.5 37t-36.5 58t-18 70t-4.5 81v283q1 131 -7.5 188.5t-29.5 78.5t-72 30l-33 4v12l357 176l8 -2q-2 -49 -2 -473v-211q0 -91 24.5 -130.5t98.5 -39.5q89 0 231 45l-2 322q1 101 -2 152.5t-15.5 84.5t-31.5 43t-57 17l-35 4v12l356 176l8 -2
q-1 -42 -1 -84v-146.5t-1 -242.5v-69q0 -79 2 -122t7.5 -80t18.5 -53.5t31.5 -26.5t49.5 -15l37 -4v-13l-355 -174h-6v193h-10q-220 -193 -358 -193zM307 1102q-5 252 127 252q53 0 135.5 -31t112.5 -31q42 0 65 20t35 68h9q3 -250 -129 -250q-53 0 -135 31t-111 31
q-43 0 -66.5 -21.5t-34.5 -68.5h-8z" />
    <glyph glyph-name="Umacron" unicode="&#x16a;" horiz-adv-x="1423" 
d="M750 -33q-91 0 -168 16t-147.5 57t-120 104.5t-78.5 164.5t-29 232v288q0 163 -3 255.5t-8 157t-20 93t-30.5 40.5t-49.5 24l-73 22v13h614v-13l-74 -22q-27 -9 -41 -16.5t-29 -31t-20.5 -55.5t-11.5 -97.5t-7 -150t-1 -219.5v-288q0 -256 94.5 -379t304.5 -123
q173 0 269 134.5t96 416.5q0 143 -3.5 244t-11.5 188t-24 143.5t-37.5 101t-55 71.5t-73.5 44t-97 27l-61 12v13h547v-13l-19 -8q-63 -25 -87 -60q-36 -54 -46 -225q-6 -122 -6 -542q0 -166 -33 -285.5t-97.5 -192.5t-154 -107t-208.5 -34zM528 1620v51h502v-51h-502z" />
    <glyph glyph-name="umacron" unicode="&#x16b;" horiz-adv-x="1118" 
d="M365 -33q-52 0 -90.5 14t-61.5 37t-36.5 58t-18 70t-4.5 81v283q1 131 -7.5 188.5t-29.5 78.5t-72 30l-33 4v12l357 176l8 -2q-2 -49 -2 -473v-211q0 -91 24.5 -130.5t98.5 -39.5q89 0 231 45l-2 322q1 101 -2 152.5t-15.5 84.5t-31.5 43t-57 17l-35 4v12l356 176l8 -2
q-1 -42 -1 -84v-146.5t-1 -242.5v-69q0 -79 2 -122t7.5 -80t18.5 -53.5t31.5 -26.5t49.5 -15l37 -4v-13l-355 -174h-6v193h-10q-220 -193 -358 -193zM322 1133v51h456v-51h-456z" />
    <glyph glyph-name="Ubreve" unicode="&#x16c;" horiz-adv-x="1423" 
d="M750 -33q-91 0 -168 16t-147.5 57t-120 104.5t-78.5 164.5t-29 232v288q0 163 -3 255.5t-8 157t-20 93t-30.5 40.5t-49.5 24l-73 22v13h614v-13l-74 -22q-27 -9 -41 -16.5t-29 -31t-20.5 -55.5t-11.5 -97.5t-7 -150t-1 -219.5v-288q0 -256 94.5 -379t304.5 -123
q173 0 269 134.5t96 416.5q0 143 -3.5 244t-11.5 188t-24 143.5t-37.5 101t-55 71.5t-73.5 44t-97 27l-61 12v13h547v-13l-19 -8q-63 -25 -87 -60q-36 -54 -46 -225q-6 -122 -6 -542q0 -166 -33 -285.5t-97.5 -192.5t-154 -107t-208.5 -34zM571 1849h7q13 -39 63.5 -64.5
t142.5 -25.5t143 25.5t64 64.5h6q18 -122 -41.5 -193t-171.5 -71q-113 0 -173 71t-40 193z" />
    <glyph glyph-name="ubreve" unicode="&#x16d;" horiz-adv-x="1118" 
d="M365 -33q-52 0 -90.5 14t-61.5 37t-36.5 58t-18 70t-4.5 81v283q1 131 -7.5 188.5t-29.5 78.5t-72 30l-33 4v12l357 176l8 -2q-2 -49 -2 -473v-211q0 -91 24.5 -130.5t98.5 -39.5q89 0 231 45l-2 322q1 101 -2 152.5t-15.5 84.5t-31.5 43t-57 17l-35 4v12l356 176l8 -2
q-1 -42 -1 -84v-146.5t-1 -242.5v-69q0 -79 2 -122t7.5 -80t18.5 -53.5t31.5 -26.5t49.5 -15l37 -4v-13l-355 -174h-6v193h-10q-220 -193 -358 -193zM315 1417h9q27 -75 78 -108t147 -33t147.5 33t79.5 108h6q4 -158 -57.5 -236.5t-175.5 -78.5t-175.5 78.5t-58.5 236.5z
" />
    <glyph glyph-name="Uring" unicode="&#x16e;" horiz-adv-x="1423" 
d="M750 -33q-91 0 -168 16t-147.5 57t-120 104.5t-78.5 164.5t-29 232v288q0 163 -3 255.5t-8 157t-20 93t-30.5 40.5t-49.5 24l-73 22v13h614v-13l-74 -22q-27 -9 -41 -16.5t-29 -31t-20.5 -55.5t-11.5 -97.5t-7 -150t-1 -219.5v-288q0 -256 94.5 -379t304.5 -123
q173 0 269 134.5t96 416.5q0 143 -3.5 244t-11.5 188t-24 143.5t-37.5 101t-55 71.5t-73.5 44t-97 27l-61 12v13h547v-13l-19 -8q-63 -25 -87 -60q-36 -54 -46 -225q-6 -122 -6 -542q0 -166 -33 -285.5t-97.5 -192.5t-154 -107t-208.5 -34zM618 1743q0 68 45 110.5t117 42.5
q75 0 120.5 -42.5t45.5 -110.5q0 -69 -45.5 -112.5t-120.5 -43.5q-72 0 -117 43.5t-45 112.5zM655 1743q0 -54 35 -87.5t92 -33.5t92 33.5t35 87.5t-35 85.5t-92 31.5t-92 -31.5t-35 -85.5z" />
    <glyph glyph-name="uring" unicode="&#x16f;" horiz-adv-x="1118" 
d="M365 -33q-52 0 -90.5 14t-61.5 37t-36.5 58t-18 70t-4.5 81v283q1 131 -7.5 188.5t-29.5 78.5t-72 30l-33 4v12l357 176l8 -2q-2 -49 -2 -473v-211q0 -91 24.5 -130.5t98.5 -39.5q89 0 231 45l-2 322q1 101 -2 152.5t-15.5 84.5t-31.5 43t-57 17l-35 4v12l356 176l8 -2
q-1 -42 -1 -84v-146.5t-1 -242.5v-69q0 -79 2 -122t7.5 -80t18.5 -53.5t31.5 -26.5t49.5 -15l37 -4v-13l-355 -174h-6v193h-10q-220 -193 -358 -193zM367 1272q0 77 50 124.5t132 47.5q83 0 133.5 -47.5t50.5 -124.5t-50.5 -124.5t-133.5 -47.5q-82 0 -132 47.5t-50 124.5z
M446 1274q0 -47 29.5 -77t75.5 -30t74 30t28 77t-28 75.5t-74 28.5t-75.5 -28.5t-29.5 -75.5z" />
    <glyph glyph-name="Uhungarumlaut" unicode="&#x170;" horiz-adv-x="1423" 
d="M750 -33q-91 0 -168 16t-147.5 57t-120 104.5t-78.5 164.5t-29 232v288q0 163 -3 255.5t-8 157t-20 93t-30.5 40.5t-49.5 24l-73 22v13h614v-13l-74 -22q-27 -9 -41 -16.5t-29 -31t-20.5 -55.5t-11.5 -97.5t-7 -150t-1 -219.5v-288q0 -256 94.5 -379t304.5 -123
q173 0 269 134.5t96 416.5q0 143 -3.5 244t-11.5 188t-24 143.5t-37.5 101t-55 71.5t-73.5 44t-97 27l-61 12v13h547v-13l-19 -8q-63 -25 -87 -60q-36 -54 -46 -225q-6 -122 -6 -542q0 -166 -33 -285.5t-97.5 -192.5t-154 -107t-208.5 -34zM594 1585l63 338l234 21v-13
l-287 -350zM881 1585l63 338l234 21v-13l-287 -350z" />
    <glyph glyph-name="uhungarumlaut" unicode="&#x171;" horiz-adv-x="1118" 
d="M365 -33q-52 0 -90.5 14t-61.5 37t-36.5 58t-18 70t-4.5 81v283q1 131 -7.5 188.5t-29.5 78.5t-72 30l-33 4v12l357 176l8 -2q-2 -49 -2 -473v-211q0 -91 24.5 -130.5t98.5 -39.5q89 0 231 45l-2 322q1 101 -2 152.5t-15.5 84.5t-31.5 43t-57 17l-35 4v12l356 176l8 -2
q-1 -42 -1 -84v-146.5t-1 -242.5v-69q0 -79 2 -122t7.5 -80t18.5 -53.5t31.5 -26.5t49.5 -15l37 -4v-13l-355 -174h-6v193h-10q-220 -193 -358 -193zM373 1075l63 338l234 21v-13l-287 -350zM659 1075l64 338l233 21v-13l-286 -350z" />
    <glyph glyph-name="Uogonek" unicode="&#x172;" horiz-adv-x="1423" 
d="M750 -33q-91 0 -168 16t-147.5 57t-120 104.5t-78.5 164.5t-29 232v288q0 163 -3 255.5t-8 157t-20 93t-30.5 40.5t-49.5 24l-73 22v13h614v-13l-74 -22q-27 -9 -41 -16.5t-29 -31t-20.5 -55.5t-11.5 -97.5t-7 -150t-1 -219.5v-288q0 -256 94.5 -379t304.5 -123
q173 0 269 134.5t96 416.5q0 143 -3.5 244t-11.5 188t-24 143.5t-37.5 101t-55 71.5t-73.5 44t-97 27l-61 12v13h547v-13l-19 -8q-63 -25 -87 -60q-36 -54 -46 -225q-6 -122 -6 -542q0 -443 -244 -568q-159 -76 -159 -190q0 -50 24 -68t68 -18q74 0 137 55l6 -4
q-89 -133 -246 -133q-91 0 -141.5 38t-50.5 101q0 96 166 170q-16 -2 -53 -2z" />
    <glyph glyph-name="uogonek" unicode="&#x173;" horiz-adv-x="1118" 
d="M365 -33q-52 0 -90.5 14t-61.5 37t-36.5 58t-18 70t-4.5 81v283q1 131 -7.5 188.5t-29.5 78.5t-72 30l-33 4v12l357 176l8 -2q-2 -49 -2 -473v-211q0 -91 24.5 -130.5t98.5 -39.5q89 0 231 45l-2 322q1 101 -2 152.5t-15.5 84.5t-31.5 43t-57 17l-35 4v12l356 176l8 -2
q-1 -42 -1 -84v-146.5t-1 -242.5v-69q0 -79 2 -122t7.5 -80t18.5 -53.5t31.5 -26.5t49.5 -15l37 -4v-13l-330 -161q-135 -71 -135 -179q0 -50 24 -68t68 -18q73 0 137 56l6 -4q-90 -134 -246 -134q-90 0 -141 38.5t-51 101.5q0 49 47 94t114.5 74t145.5 45v174h-10
q-220 -193 -358 -193z" />
    <glyph glyph-name="Wcircumflex" unicode="&#x174;" horiz-adv-x="2045" 
d="M201 1165q-49 134 -82 181t-109 75v13h631v-13l-125 -24q-76 -17 -91 -48t15 -116l324 -887l188 647q31 95 -18 224q-36 102 -65.5 138.5t-112.5 65.5v13h622v-13l-114 -24q-36 -9 -54 -16.5t-30.5 -25t-8.5 -47t21 -77.5l319 -887l160 543q43 146 60.5 234.5t10 149
t-40 88t-95.5 40.5l-113 22v13h543v-13q-65 -27 -106.5 -68t-81.5 -122.5t-93 -237.5l-342 -1022h-18l-383 1030l-348 -1030h-19zM741 1587q109 116 260 285h29q60 -69 258 -285l-4 -4q-154 46 -268 88q-114 -42 -268 -88z" />
    <glyph glyph-name="wcircumflex" unicode="&#x175;" horiz-adv-x="1421" 
d="M100 836q-22 59 -39 81.5t-51 43.5v8h451v-13l-45 -18q-60 -25 -71.5 -51t9.5 -92l176 -551l234 725h8l285 -717l106 379q19 78 20 132t-19 92.5t-47 59.5t-64 33l-19 8v13h377v-8q-47 -50 -77.5 -101t-61.5 -127l-314 -766h-6l-252 613l-270 -613h-6zM444 1098
q163 233 261 358h26q48 -60 85.5 -111.5t95 -134t79.5 -112.5l-4 -4q-175 106 -268 157q-61 -33 -270 -157z" />
    <glyph glyph-name="Ycircumflex" unicode="&#x176;" horiz-adv-x="1312" 
d="M293 0v12l96 23q36 9 53 15.5t37 28.5t26.5 52t14 93.5t9 146t1.5 215.5v41l-331 600q-57 103 -92 137t-97 57v13h631v-13l-123 -24q-69 -15 -79 -54.5t30 -111.5l303 -567l160 376q58 133 70 204t-15.5 105.5t-105.5 49.5l-115 22v13h537v-13q-61 -20 -102.5 -52
t-91.5 -105.5t-118 -208.5l-215 -426v-43q0 -134 1.5 -215.5t8.5 -145.5t13.5 -94t26.5 -52t36.5 -28.5t52.5 -15.5l97 -23v-12h-719zM428 1587q109 116 260 285h29q60 -69 258 -285l-4 -4q-159 48 -269 88q-114 -42 -268 -88z" />
    <glyph glyph-name="ycircumflex" unicode="&#x177;" horiz-adv-x="1009" 
d="M72 -373l-31 271l6 2q116 -57 254 -33.5t184 115.5l-376 860q-22 49 -40.5 73t-56.5 46v8h473v-13l-55 -18q-63 -22 -75 -49.5t16 -93.5l231 -564l139 400q25 73 29.5 130t-11 94.5t-42 60.5t-64.5 34l-20 6v13h366v-8q-50 -50 -75 -90.5t-70 -135.5l-326 -708
q-48 -105 -90.5 -174t-96.5 -123t-119.5 -78.5t-149.5 -24.5zM297 1098q172 245 260 358h27q48 -60 85.5 -111.5t95 -134t79.5 -112.5l-4 -4q-166 100 -269 157q-61 -33 -270 -157z" />
    <glyph glyph-name="Ydieresis" unicode="&#x178;" horiz-adv-x="1312" 
d="M293 0v12l96 23q36 9 53 15.5t37 28.5t26.5 52t14 93.5t9 146t1.5 215.5v41l-331 600q-57 103 -92 137t-97 57v13h631v-13l-123 -24q-69 -15 -79 -54.5t30 -111.5l303 -567l160 376q58 133 70 204t-15.5 105.5t-105.5 49.5l-115 22v13h537v-13q-61 -20 -102.5 -52
t-91.5 -105.5t-118 -208.5l-215 -426v-43q0 -134 1.5 -215.5t8.5 -145.5t13.5 -94t26.5 -52t36.5 -28.5t52.5 -15.5l97 -23v-12h-719zM416 1696q0 48 29.5 74t78.5 26q50 0 78.5 -25.5t28.5 -74.5t-28.5 -75t-78.5 -26q-49 0 -78.5 26.5t-29.5 74.5zM766 1696q0 48 29.5 74
t76.5 26q50 0 78.5 -25.5t28.5 -74.5t-28.5 -75t-78.5 -26q-47 0 -76.5 26.5t-29.5 74.5z" />
    <glyph glyph-name="Zacute" unicode="&#x179;" horiz-adv-x="1224" 
d="M47 12q42 67 272 475l275 478q55 97 115 198t90 154t51 94l-281 -27q-66 -7 -106.5 -15.5t-81.5 -30.5t-66.5 -54t-54.5 -91t-53 -135.5t-55 -193.5h-11l-22 606h4q67 -36 330 -36h690v-15q-22 -35 -275 -473l-274 -479q-44 -77 -96 -165.5t-74.5 -127.5t-45.5 -81.5
t-38 -74.5l356 33q68 6 111.5 19.5t90 47.5t87.5 99t87.5 165.5t105.5 256.5h12l-74 -662h-4q-80 23 -303 23h-762v12zM406 1597l276 267l170 -168l-2 -10l-438 -97z" />
    <glyph glyph-name="zacute" unicode="&#x17a;" horiz-adv-x="911" 
d="M49 0v10l512 928l-129 -14q-89 -11 -140.5 -38.5t-95.5 -93.5t-98 -200h-8l10 395q53 -18 199 -18h530v-8l-516 -936l205 22q41 5 67.5 11t55 23t48 36.5t48 62.5t54.5 89.5t69 127.5l8 -2l-51 -395h-768zM311 1090l97 348h247l-2 -13l-331 -340z" />
    <glyph glyph-name="Zdotaccent" unicode="&#x17b;" horiz-adv-x="1224" 
d="M47 12q42 67 272 475l275 478q55 97 115 198t90 154t51 94l-281 -27q-66 -7 -106.5 -15.5t-81.5 -30.5t-66.5 -54t-54.5 -91t-53 -135.5t-55 -193.5h-11l-22 606h4q67 -36 330 -36h690v-15q-22 -35 -275 -473l-274 -479q-44 -77 -96 -165.5t-74.5 -127.5t-45.5 -81.5
t-38 -74.5l356 33q68 6 111.5 19.5t90 47.5t87.5 99t87.5 165.5t105.5 256.5h12l-74 -662h-4q-80 23 -303 23h-762v12zM473 1704q0 60 37.5 92.5t97.5 32.5q62 0 97.5 -32t35.5 -93q0 -62 -35 -94.5t-98 -32.5q-61 0 -98 33t-37 94z" />
    <glyph glyph-name="zdotaccent" unicode="&#x17c;" horiz-adv-x="911" 
d="M49 0v10l512 928l-129 -14q-89 -11 -140.5 -38.5t-95.5 -93.5t-98 -200h-8l10 395q53 -18 199 -18h530v-8l-516 -936l205 22q41 5 67.5 11t55 23t48 36.5t48 62.5t54.5 89.5t69 127.5l8 -2l-51 -395h-768zM297 1237q0 60 37.5 92.5t97.5 32.5q62 0 97.5 -32t35.5 -93
q0 -62 -35 -94.5t-98 -32.5q-61 0 -98 33t-37 94z" />
    <glyph glyph-name="Zcaron" unicode="&#x17d;" horiz-adv-x="1224" 
d="M47 12q42 67 272 475l275 478q55 97 115 198t90 154t51 94l-281 -27q-66 -7 -106.5 -15.5t-81.5 -30.5t-66.5 -54t-54.5 -91t-53 -135.5t-55 -193.5h-11l-22 606h4q67 -36 330 -36h690v-15q-22 -35 -275 -473l-274 -479q-44 -77 -96 -165.5t-74.5 -127.5t-45.5 -81.5
t-38 -74.5l356 33q68 6 111.5 19.5t90 47.5t87.5 99t87.5 165.5t105.5 256.5h12l-74 -662h-4q-80 23 -303 23h-762v12zM334 1872l6 4q154 -46 268 -88q110 40 269 88l4 -4q-198 -216 -258 -285h-29q-151 169 -260 285z" />
    <glyph glyph-name="zcaron" unicode="&#x17e;" horiz-adv-x="911" 
d="M49 0v10l512 928l-129 -14q-89 -11 -140.5 -38.5t-95.5 -93.5t-98 -200h-8l10 395q53 -18 199 -18h530v-8l-516 -936l205 22q41 5 67.5 11t55 23t48 36.5t48 62.5t54.5 89.5t69 127.5l8 -2l-51 -395h-768zM160 1450l4 4q226 -135 270 -158q75 41 268 158l5 -4
q-23 -33 -64.5 -92t-64 -90.5t-59 -80t-73.5 -95.5h-26q-88 113 -260 358z" />
    <glyph glyph-name="florin" unicode="&#x192;" horiz-adv-x="1107" 
d="M61 -332q-17 0 -51 6l47 217h6q93 -16 209 -16q54 0 92.5 33.5t47.5 85.5q8 45 -3.5 151.5t-19 208t13.5 246.5l58 322h-144l7 47h143l8 39q24 126 110 245.5t207.5 196t239.5 76.5q32 0 66 -6l-45 -217h-9q-91 16 -204 16q-106 0 -162.5 -40.5t-71.5 -127.5
q-9 -50 13.5 -102.5t60.5 -79.5h299l8 -8l-8 -39h-299l-127 -725q-19 -107 -70.5 -206t-120 -169t-148 -112t-153.5 -42z" />
    <glyph glyph-name="uni01CD" unicode="&#x1cd;" horiz-adv-x="1419" 
d="M10 10q39 17 59 29.5t51 48t55.5 82t68 142t92.5 217.5t125 319l166 426l-60 156v8h285q11 -110 129 -463l227 -672q51 -149 87.5 -205.5t113.5 -85.5v-12h-627v12l129 25q66 15 80.5 44.5t-10.5 111.5l-135 415q-275 13 -432 13q-44 -120 -70 -201t-39 -146.5
t-11.5 -103.5t19.5 -66.5t47 -42.5t78 -24l121 -25v-12h-549v10zM426 653q179 0 401 11l-186 571l-213 -578q0 -2 -2 -4zM442 1872l7 4q154 -46 268 -88q114 42 268 88l4 -4q-198 -216 -258 -285h-29q-151 169 -260 285z" />
    <glyph glyph-name="uni01CE" unicode="&#x1ce;" horiz-adv-x="991" 
d="M276 -33q-89 0 -147.5 65t-58.5 163q0 117 82 185t290 105l140 27v188q0 129 -48.5 185.5t-113.5 56.5q-34 0 -57 -15t-39.5 -52t-15.5 -110.5t20 -180.5l-240 -23q8 100 40 178.5t76.5 126t102 78t112.5 42t113 11.5q138 0 203.5 -68.5t65.5 -203.5q0 -64 -4 -212.5
t-4 -256.5q0 -119 65 -119q55 0 74.5 54t19.5 188h17q5 -195 -42.5 -298.5t-160.5 -103.5q-183 0 -180 222h-8q-23 -36 -42 -62t-50.5 -60.5t-61 -56.5t-69 -37.5t-79.5 -15.5zM219 1450l4 4q217 -129 271 -158q75 41 268 158l4 -4q-26 -36 -65 -92.5t-62.5 -89.5t-59.5 -81
t-73 -95h-27q-88 113 -260 358zM272 272q0 -61 32 -95t87 -34q14 0 29 2.5t26.5 5t27.5 10t23.5 10.5t24.5 13t21 13t21 14t18 12v269l-121 -43q-102 -38 -145.5 -79t-43.5 -98z" />
    <glyph glyph-name="uni01CF" unicode="&#x1cf;" horiz-adv-x="665" 
d="M209 829q0 163 -3 255.5t-8 157t-20 93t-30.5 40.5t-49.5 24l-71 22v13h612v-13l-72 -22q-28 -9 -42 -16.5t-29.5 -31t-21 -55.5t-11.5 -97.5t-7 -150t-1 -219.5v-223q0 -135 1 -219.5t7 -150t11.5 -97.5t21 -55.5t29.5 -31t42 -17.5l72 -23v-12h-612v12l71 23
q28 10 42 17.5t29 31t21 55.5t11.5 98t6.5 149.5t1 219.5v223zM59 1872l7 4q154 -46 268 -88q114 42 268 88l4 -4q-198 -216 -258 -285h-29q-151 169 -260 285z" />
    <glyph glyph-name="uni01D0" unicode="&#x1d0;" horiz-adv-x="567" 
d="M174 510q0 101 -3 152.5t-16 84.5t-32 43t-57 17l-35 4l2 12l354 176l8 -2q-1 -42 -1 -84v-146.5t-1 -242.5v-170q0 -75 1 -122.5t6 -84t9.5 -55t17 -32t23 -18t33.5 -11.5l62 -19v-12h-522v12l61 19q23 7 33.5 11.5t23 18t17 32t9.5 55t6 84t1 122.5v156zM29 1450l4 4
q226 -135 270 -158q75 41 268 158l4 -4q-26 -36 -65 -92.5t-62.5 -89.5t-59.5 -81t-73 -95h-26q-88 113 -260 358z" />
    <glyph glyph-name="uni01D1" unicode="&#x1d1;" horiz-adv-x="1501" 
d="M705 -31q-205 0 -351.5 88t-219.5 242t-73 360q0 175 54.5 325t150.5 255.5t232.5 165t294.5 59.5q205 0 353 -88t221 -240t73 -352q0 -238 -93.5 -424t-261 -288.5t-380.5 -102.5zM348 809q0 -363 123.5 -570.5t325.5 -207.5q167 0 261.5 157t94.5 437q0 363 -123 570.5
t-325 207.5q-168 0 -262.5 -156.5t-94.5 -437.5zM479 1872l6 4q159 -48 269 -88q114 42 268 88l4 -4q-198 -216 -258 -285h-29q-151 169 -260 285z" />
    <glyph glyph-name="uni01D2" unicode="&#x1d2;" horiz-adv-x="1046" 
d="M500 -29q-214 0 -328.5 122t-114.5 347q0 240 141 397.5t349 157.5q216 0 329 -123t113 -348q0 -158 -64.5 -285t-176 -197.5t-248.5 -70.5zM274 1450l5 4q226 -135 270 -158q75 41 268 158l4 -4q-26 -36 -65 -92.5t-62.5 -89.5t-59.5 -81t-73 -95h-26q-98 125 -261 358z
M305 549q0 -238 63 -381t183 -143q192 0 192 391q0 239 -61.5 382.5t-183.5 143.5q-69 0 -113 -53.5t-62 -138.5t-18 -201z" />
    <glyph glyph-name="uni01D3" unicode="&#x1d3;" horiz-adv-x="1423" 
d="M750 -33q-91 0 -168 16t-147.5 57t-120 104.5t-78.5 164.5t-29 232v288q0 163 -3 255.5t-8 157t-20 93t-30.5 40.5t-49.5 24l-73 22v13h614v-13l-74 -22q-27 -9 -41 -16.5t-29 -31t-20.5 -55.5t-11.5 -97.5t-7 -150t-1 -219.5v-288q0 -256 94.5 -379t304.5 -123
q173 0 269 134.5t96 416.5q0 143 -3.5 244t-11.5 188t-24 143.5t-37.5 101t-55 71.5t-73.5 44t-97 27l-61 12v13h547v-13l-19 -8q-63 -25 -87 -60q-36 -54 -46 -225q-6 -122 -6 -542q0 -166 -33 -285.5t-97.5 -192.5t-154 -107t-208.5 -34zM508 1872l6 4q154 -46 268 -88
q110 40 269 88l4 -4q-198 -216 -258 -285h-29q-151 169 -260 285z" />
    <glyph glyph-name="uni01D4" unicode="&#x1d4;" horiz-adv-x="1118" 
d="M365 -33q-52 0 -90.5 14t-61.5 37t-36.5 58t-18 70t-4.5 81v283q1 131 -7.5 188.5t-29.5 78.5t-72 30l-33 4v12l357 176l8 -2q-2 -49 -2 -473v-211q0 -91 24.5 -130.5t98.5 -39.5q89 0 231 45l-2 322q1 101 -2 152.5t-15.5 84.5t-31.5 43t-57 17l-35 4v12l356 176l8 -2
q-1 -42 -1 -84v-146.5t-1 -242.5v-69q0 -79 2 -122t7.5 -80t18.5 -53.5t31.5 -26.5t49.5 -15l37 -4v-13l-355 -174h-6v193h-10q-220 -193 -358 -193zM276 1450l5 4q226 -135 270 -158q75 41 268 158l4 -4q-26 -36 -65 -92.5t-62.5 -89.5t-59.5 -81t-73 -95h-26
q-98 125 -261 358z" />
    <glyph glyph-name="Gcaron" unicode="&#x1e6;" horiz-adv-x="1433" 
d="M1280 -84l-195 172q-70 -58 -150 -88.5t-206 -30.5q-311 0 -489.5 191.5t-178.5 539.5q0 160 57.5 303t154.5 244t229.5 160t277.5 59q301 0 498 -139l-205 -487h-10q-2 133 -19 232t-45.5 162t-72 101t-92.5 53t-113 15q-98 0 -171.5 -48t-116.5 -134t-64 -193.5
t-21 -236.5q0 -178 25 -316t76.5 -241t136.5 -157t200 -54q93 0 162.5 32.5t102.5 65.5v112v106t-4 79.5t-7.5 61t-16 42t-23.5 31.5t-36.5 20.5t-48.5 18t-65 14.5l-166 33v12h705v-12q-47 -24 -65 -50.5t-27 -102t-9 -246.5v-324h-8zM483 1872l6 4q159 -48 269 -88
q114 42 268 88l4 -4q-198 -216 -258 -285h-29q-151 169 -260 285z" />
    <glyph glyph-name="gcaron" unicode="&#x1e7;" horiz-adv-x="987" 
d="M266 -373q-108 0 -174.5 34.5t-66.5 98.5q0 67 44.5 128t153.5 149q-52 13 -70 35.5t-18 58.5q0 47 35.5 108t105.5 148q-90 35 -139 104t-49 154q0 147 115 250.5t286 103.5h3h2q252 0 460 -18v-12q-27 -7 -93.5 -28t-102.5 -30q92 -80 92 -206q0 -141 -116 -244
t-288 -103q-77 0 -151 23q-16 -57 -16 -94q0 -32 7.5 -44t48.5 -20t134 -8q55 0 92.5 -0.5t83.5 -3t77 -7t66 -13t57.5 -20t44.5 -28t34.5 -38t20 -50t7.5 -63.5q0 -97 -100.5 -182.5t-258.5 -134t-327 -48.5zM182 1450l4 4q217 -129 271 -158q75 41 268 158l4 -4
q-26 -36 -65 -92.5t-62.5 -89.5t-59.5 -81t-73 -95h-27q-88 113 -260 358zM203 -121q0 -28 12.5 -57t39.5 -57t79.5 -46t122.5 -18q52 0 106.5 10.5t104.5 31t82 55.5t32 79q0 47 -24.5 75.5t-97.5 46t-203 17.5q-139 0 -209 15q-45 -63 -45 -152zM295 733q0 -133 58 -230
t155 -97q66 0 100.5 58.5t34.5 158.5q0 134 -58.5 230.5t-154.5 96.5q-66 0 -100.5 -58t-34.5 -159z" />
    <glyph glyph-name="uni01EA" unicode="&#x1ea;" horiz-adv-x="1501" 
d="M705 -31q-205 0 -351.5 88t-219.5 242t-73 360q0 175 54.5 325t150.5 255.5t232.5 165t294.5 59.5q205 0 353 -88t221 -240t73 -352q0 -296 -142 -506t-380 -280q-138 -72 -138 -178q0 -50 24 -68t68 -18q75 0 138 55l6 -4q-89 -133 -246 -133q-91 0 -141.5 38t-50.5 101
q0 55 54 101.5t140 78.5q-23 -2 -67 -2zM348 809q0 -363 123.5 -570.5t325.5 -207.5q167 0 261.5 157t94.5 437q0 363 -123 570.5t-325 207.5q-168 0 -262.5 -156.5t-94.5 -437.5z" />
    <glyph glyph-name="uni01EB" unicode="&#x1eb;" horiz-adv-x="1046" 
d="M500 -29q-214 0 -328.5 122t-114.5 347q0 240 141 397.5t349 157.5q216 0 329 -123t113 -348q0 -197 -97 -340.5t-255 -191.5q-131 -72 -131 -176q0 -50 24 -68t68 -18q74 0 137 55l6 -4q-89 -133 -245 -133q-91 0 -142 38t-51 101q0 57 57 104.5t146 79.5h-6zM305 549
q0 -238 63 -381t183 -143q192 0 192 391q0 239 -61.5 382.5t-183.5 143.5q-69 0 -113 -53.5t-62 -138.5t-18 -201z" />
    <glyph glyph-name="Aringacute" unicode="&#x1fa;" horiz-adv-x="1419" 
d="M10 10q39 17 59 29.5t51 48t55.5 82t68 142t92.5 217.5t125 319l166 426l-60 156v8h285q11 -110 129 -463l227 -672q51 -149 87.5 -205.5t113.5 -85.5v-12h-627v12l129 25q66 15 80.5 44.5t-10.5 111.5l-135 415q-275 13 -432 13q-44 -120 -70 -201t-39 -146.5
t-11.5 -103.5t19.5 -66.5t47 -42.5t78 -24l121 -25v-12h-549v10zM426 653q179 0 401 11l-186 571l-213 -578q0 -2 -2 -4zM532 1950l250 239l152 -151l-2 -8l-393 -88zM551 1743q0 68 45 110.5t117 42.5q75 0 120.5 -42.5t45.5 -110.5q0 -69 -45.5 -112.5t-120.5 -43.5
q-72 0 -117 43.5t-45 112.5zM588 1743q0 -54 35 -87.5t92 -33.5t92 33.5t35 87.5t-35 85.5t-92 31.5t-92 -31.5t-35 -85.5z" />
    <glyph glyph-name="aringacute" unicode="&#x1fb;" horiz-adv-x="991" 
d="M276 -33q-89 0 -147.5 65t-58.5 163q0 117 82 185t290 105l140 27v188q0 129 -48.5 185.5t-113.5 56.5q-34 0 -57 -15t-39.5 -52t-15.5 -110.5t20 -180.5l-240 -23q8 100 40 178.5t76.5 126t102 78t112.5 42t113 11.5q138 0 203.5 -68.5t65.5 -203.5q0 -64 -4 -212.5
t-4 -256.5q0 -119 65 -119q55 0 74.5 54t19.5 188h17q5 -195 -42.5 -298.5t-160.5 -103.5q-183 0 -180 222h-8q-23 -36 -42 -62t-50.5 -60.5t-61 -56.5t-69 -37.5t-79.5 -15.5zM272 272q0 -61 32 -95t87 -34q14 0 29 2.5t26.5 5t27.5 10t23.5 10.5t24.5 13t21 13t21 14
t18 12v269l-121 -43q-102 -38 -145.5 -79t-43.5 -98zM307 1272q0 77 50 124.5t132 47.5q83 0 134 -47.5t51 -124.5t-51 -124.5t-134 -47.5q-82 0 -132 47.5t-50 124.5zM360 1473l97 348h248l-3 -13l-331 -340zM387 1274q0 -47 29.5 -77t75.5 -30t74 30t28 77t-28 75.5
t-74 28.5t-75.5 -28.5t-29.5 -75.5z" />
    <glyph glyph-name="AEacute" unicode="&#x1fc;" horiz-adv-x="1964" 
d="M10 0v6l17 6q29 12 54.5 29t72.5 63.5t100.5 118t135.5 198.5t181 298l351 608q-11 34 -29 48t-53 24l-74 22v13h680q232 0 328 34l-29 -565h-10q-31 108 -52.5 174.5t-49 121.5t-50.5 82.5t-64 50t-80.5 32t-107.5 20.5l-125 19q-12 -46 -12 -447v-186l426 39v-111
l-426 43v-262q0 -80 1 -134.5t4 -105.5t8 -80.5t12.5 -58t18.5 -38.5t26.5 -22t34.5 -8.5t44 1.5l87 14q82 11 135 35.5t109.5 91.5t109.5 173t131 294h8l-88 -664h-2q-81 23 -260 23h-807v12l74 23q28 9 40.5 15.5t28 28.5t20.5 52t11 93.5t7 146t1 215.5v37h-395
q-163 -292 -198 -389q-39 -110 3 -153q28 -29 101 -44l116 -25v-12h-565zM571 655h377v195q0 351 -18 444l-357 -637q0 -2 -2 -2zM993 1597l277 267l170 -168l-2 -10l-439 -97z" />
    <glyph glyph-name="aeacute" unicode="&#x1fd;" horiz-adv-x="1454" 
d="M1010 -29q-119 0 -223 60t-158 180q-195 -244 -353 -244q-89 0 -147.5 65t-58.5 163q0 92 83 152t293 104l136 30v219q0 68 -14 115.5t-38 71t-48.5 33.5t-53.5 10q-24 0 -42 -7t-35 -29.5t-24 -59t-4.5 -100.5t17.5 -150l-238 -23q8 100 39.5 178.5t74.5 126t98.5 78
t108 42t107.5 11.5q174 0 236 -114q61 55 132.5 83.5t137.5 28.5q72 0 135.5 -25t113 -72t78 -123.5t28.5 -172.5l-25 -27l-557 19v-21q0 -205 79 -321.5t216 -116.5q121 0 200.5 89t88.5 257l12 -2q-1 -252 -105 -380t-290 -128zM272 258q0 -52 32 -83.5t89 -31.5
q102 0 225 97q-34 87 -34 213v8h-2l-117 -43q-118 -43 -155.5 -77t-37.5 -83zM618 1090l97 348h248l-2 -13l-332 -340zM811 625l346 10q11 77 4 145t-47 115t-104 47q-76 0 -133 -84t-66 -233z" />
    <glyph glyph-name="uni0218" unicode="&#x218;" horiz-adv-x="1093" 
d="M518 -29q-134 0 -248.5 32.5t-183.5 68.5l35 495h10q106 -309 193 -425.5t219 -116.5q120 0 190 65t70 189q0 125 -78.5 208.5t-241.5 157.5q-202 88 -295.5 193.5t-93.5 265.5q0 163 116 262.5t341 99.5q120 0 259 -43t198 -88l-164 -444h-13q-12 199 -49 314.5
t-97 162.5t-155 47q-96 0 -154.5 -61t-58.5 -174q0 -95 54.5 -164t185.5 -127q71 -33 116 -55t99.5 -53.5t88 -59t68 -64.5t53 -76t30.5 -89.5t12 -108.5q0 -78 -31.5 -150.5t-91.5 -131.5t-159.5 -94.5t-223.5 -35.5zM373 -383q106 62 106 162q0 60 -76 63q0 57 28.5 85
t74.5 28q48 0 76 -28t28 -77q0 -160 -233 -239z" />
    <glyph glyph-name="uni0219" unicode="&#x219;" horiz-adv-x="821" 
d="M406 -33q-100 0 -200 24t-140 48l51 377h6q50 -217 127 -306.5t188 -89.5q78 0 119 42t41 100q0 65 -47.5 111.5t-185.5 109.5q-158 72 -216.5 142.5t-58.5 179.5q0 129 100.5 209.5t245.5 80.5q98 0 184 -27t140 -67l-129 -305h-6q-15 346 -230 346q-66 0 -105.5 -40.5
t-39.5 -100.5q0 -54 35.5 -90.5t136.5 -83.5q69 -31 107 -50t82.5 -44.5t67 -47.5t43.5 -51.5t28.5 -63.5t7.5 -77q0 -141 -94.5 -233.5t-257.5 -92.5zM244 -383q106 62 106 162q0 60 -76 63q0 57 28.5 85t74.5 28q48 0 76 -28t28 -77q0 -160 -233 -239z" />
    <glyph glyph-name="uni021A" unicode="&#x21a;" horiz-adv-x="1298" 
d="M276 0v12l95 23q36 9 53 15.5t37 28.5t26.5 52t14 93.5t9 146t1.5 215.5v348q0 381 -8 471l-76 -8q-41 -5 -66.5 -10.5t-54 -18t-46.5 -28.5t-40.5 -47.5t-39 -68t-39.5 -98t-45 -130t-52 -169.5h-14l22 641h4q96 -34 277 -34h602q226 0 326 34h4l-31 -641h-14
q-19 80 -31 130.5t-28 107t-26.5 89t-26.5 69.5t-29.5 56t-33 40.5t-38.5 31.5t-46 20.5t-55.5 15.5t-66.5 10l-74 8q-8 -106 -8 -471v-348q0 -133 1.5 -215.5t9 -146t14 -93.5t26 -52t36 -28.5t52.5 -15.5l96 -23v-12h-717zM479 -383q107 63 107 162q0 60 -76 63
q0 57 28 85t74 28q48 0 76.5 -28t28.5 -77q0 -160 -234 -239z" />
    <glyph glyph-name="uni021B" unicode="&#x21b;" horiz-adv-x="722" 
d="M373 -29q-244 0 -244 277q0 77 9 314.5t12 359.5h-123v47h135l188 309h10v-309h326l4 -6l-6 -41h-324q-6 -307 -6 -607q0 -100 30 -142t95 -42q53 0 88 23.5t64 86.5t55 181l12 -2q-22 -227 -98.5 -338t-226.5 -111zM217 -383q107 63 107 162q0 60 -76 63q0 57 28 85
t74 28q48 0 76.5 -28t28.5 -77q0 -160 -234 -239z" />
    <glyph glyph-name="uni0232" unicode="&#x232;" horiz-adv-x="1312" 
d="M293 0v12l96 23q36 9 53 15.5t37 28.5t26.5 52t14 93.5t9 146t1.5 215.5v41l-331 600q-57 103 -92 137t-97 57v13h631v-13l-123 -24q-69 -15 -79 -54.5t30 -111.5l303 -567l160 376q58 133 70 204t-15.5 105.5t-105.5 49.5l-115 22v13h537v-13q-61 -20 -102.5 -52
t-91.5 -105.5t-118 -208.5l-215 -426v-43q0 -134 1.5 -215.5t8.5 -145.5t13.5 -94t26.5 -52t36.5 -28.5t52.5 -15.5l97 -23v-12h-719zM449 1620v51h501v-51h-501z" />
    <glyph glyph-name="uni0233" unicode="&#x233;" horiz-adv-x="1009" 
d="M72 -373l-31 271l6 2q116 -57 254 -33.5t184 115.5l-376 860q-22 49 -40.5 73t-56.5 46v8h473v-13l-55 -18q-63 -22 -75 -49.5t16 -93.5l231 -564l139 400q25 73 29.5 130t-11 94.5t-42 60.5t-64.5 34l-20 6v13h366v-8q-50 -50 -75 -90.5t-70 -135.5l-326 -708
q-48 -105 -90.5 -174t-96.5 -123t-119.5 -78.5t-149.5 -24.5zM340 1133v51h457v-51h-457z" />
    <glyph glyph-name="uni0237" unicode="&#x237;" horiz-adv-x="507" 
d="M-8 -389q28 21 50 42.5t39 40.5t29.5 47.5t21 48.5t14 59t8.5 63t4.5 76.5t1.5 84v99.5v338q0 132 -8.5 189t-29 78t-71.5 30l-33 4v12l355 176l8 -2v-473v-385q0 -207 -105 -344t-280 -192z" />
    <glyph glyph-name="uni02BC" unicode="&#x2bc;" horiz-adv-x="1228" 
 />
    <glyph glyph-name="circumflex" unicode="&#x2c6;" horiz-adv-x="669" 
d="M61 1130q170 243 261 359h26q48 -60 86.5 -113t93.5 -132t80 -114l-4 -4q-193 117 -268 158q-44 -23 -270 -158z" />
    <glyph glyph-name="caron" unicode="&#x2c7;" horiz-adv-x="669" 
d="M66 1464q209 -124 270 -157q93 51 268 157l4 -4q-26 -36 -65 -92.5t-62.5 -89.5t-59.5 -81t-73 -95h-26q-98 125 -261 358z" />
    <glyph glyph-name="breve" unicode="&#x2d8;" horiz-adv-x="591" 
d="M295 1133q-114 0 -175.5 78.5t-58.5 236.5h9q27 -75 78 -108t147 -33t147.5 33t79.5 108h6q4 -158 -57.5 -236.5t-175.5 -78.5z" />
    <glyph glyph-name="dotaccent" unicode="&#x2d9;" horiz-adv-x="659" 
d="M330 1110q-61 0 -98 33t-37 94q0 60 37.5 92.5t97.5 32.5q62 0 97.5 -32t35.5 -93q0 -62 -35 -94.5t-98 -32.5z" />
    <glyph glyph-name="ring" unicode="&#x2da;" horiz-adv-x="489" 
d="M244 1475q83 0 133.5 -47.5t50.5 -124.5t-50.5 -125t-133.5 -48q-82 0 -132.5 48t-50.5 125t50.5 124.5t132.5 47.5zM141 1305q0 -47 29.5 -77t75.5 -30t74 30t28 77t-28 75.5t-74 28.5t-75.5 -28.5t-29.5 -75.5z" />
    <glyph glyph-name="ogonek" unicode="&#x2db;" horiz-adv-x="561" 
d="M254 -346q-91 0 -142 38t-51 101q0 54 55.5 102t132 77t159.5 42l16 -2q-160 -77 -160 -190q0 -50 24 -68t68 -18q75 0 138 55l6 -4q-89 -133 -246 -133z" />
    <glyph glyph-name="tilde" unicode="&#x2dc;" horiz-adv-x="608" 
d="M63 1137q-5 252 127 252q53 0 135.5 -31t112.5 -31q43 0 66 20.5t35 67.5h8q3 -250 -129 -250q-53 0 -135 31t-111 31q-43 0 -66 -21.5t-34 -68.5h-9z" />
    <glyph glyph-name="hungarumlaut" unicode="&#x2dd;" horiz-adv-x="706" 
d="M645 1475v-13l-287 -350l-10 4l64 338zM61 1116l64 338l233 21v-13l-286 -350z" />
    <glyph glyph-name="gravecomb" unicode="&#x300;" 
d="M61 1438h248l97 -348l-11 -5l-332 340z" />
    <glyph glyph-name="acutecomb" unicode="&#x301;" 
d="M395 1438l-2 -13l-332 -340l-10 5l96 348h248z" />
    <glyph glyph-name="uni0302" unicode="&#x302;" 
d="M61 1098q163 233 261 358h26q48 -60 85.5 -111.5t95 -134t79.5 -112.5l-4 -4q-175 106 -268 157q-61 -33 -270 -157z" />
    <glyph glyph-name="tildecomb" unicode="&#x303;" 
d="M63 1102q-5 252 127 252q53 0 135.5 -31t112.5 -31q43 0 66 20.5t35 67.5h8q3 -250 -129 -250q-53 0 -135 31t-111 31q-43 0 -66 -21.5t-34 -68.5h-9z" />
    <glyph glyph-name="uni0304" unicode="&#x304;" 
d="M518 1184v-51h-457v51h457z" />
    <glyph glyph-name="uni0306" unicode="&#x306;" 
d="M295 1102q-114 0 -175.5 78.5t-58.5 236.5h9q27 -75 78 -108t147 -33t147.5 33t79.5 108h6q4 -158 -57.5 -236.5t-175.5 -78.5z" />
    <glyph glyph-name="uni0307" unicode="&#x307;" 
d="M330 1110q-61 0 -98 33t-37 94q0 60 37.5 92.5t97.5 32.5q62 0 97.5 -32t35.5 -93q0 -62 -35 -94.5t-98 -32.5z" />
    <glyph glyph-name="uni0308" unicode="&#x308;" 
d="M150 1110q-49 0 -79 26t-30 74t30 74.5t79 26.5q50 0 78 -26t28 -75t-28 -74.5t-78 -25.5zM391 1210q0 48 30 74.5t77 26.5q50 0 78 -26t28 -75t-28 -74.5t-78 -25.5q-48 0 -77.5 26t-29.5 74z" />
    <glyph glyph-name="uni030A" unicode="&#x30a;" 
d="M244 1444q83 0 133.5 -47.5t50.5 -124.5t-50.5 -124.5t-133.5 -47.5q-82 0 -132.5 47.5t-50.5 124.5t50.5 124.5t132.5 47.5zM141 1274q0 -47 29.5 -77t75.5 -30t74 30t28 77t-28 75.5t-74 28.5t-75.5 -28.5t-29.5 -75.5z" />
    <glyph glyph-name="uni030B" unicode="&#x30b;" 
d="M666 1434v-13l-287 -350l-10 4l63 338zM82 1075l63 338l234 21v-13l-287 -350z" />
    <glyph glyph-name="uni030C" unicode="&#x30c;" 
d="M66 1454q226 -135 270 -158q75 41 268 158l4 -4q-26 -36 -65 -92.5t-62.5 -89.5t-59.5 -81t-73 -95h-26q-98 125 -261 358z" />
    <glyph glyph-name="uni0312" unicode="&#x312;" 
d="M283 1227q0 -61 -31 -91t-80 -30q-52 0 -82.5 30t-30.5 83q0 174 252 258l2 -9q-112 -66 -112 -172q0 -66 82 -69z" />
    <glyph glyph-name="uni0326" unicode="&#x326;" 
d="M94 -158q0 57 28.5 85t74.5 28q48 0 76 -28t28 -77q0 -160 -233 -239l-5 6q107 63 107 162q0 60 -76 63z" />
    <glyph glyph-name="uni0327" unicode="&#x327;" 
d="M254 12q-14 -51 -16 -71q79 -20 115 -53t36 -85q0 -150 -315 -172v7q98 19 132 40t34 52q0 29 -29 45t-102 37l-5 4q79 121 140 196h10z" />
    <glyph glyph-name="uni0328" unicode="&#x328;" 
d="M276 -342q-91 0 -141.5 38t-50.5 101q0 54 55.5 102t131.5 77t159 42l16 -2q-159 -76 -159 -190q0 -50 24 -68t68 -18q74 0 137 55l6 -4q-89 -133 -246 -133z" />
    <glyph glyph-name="uni0335" unicode="&#x335;" 
d="M61 702h637v-32h-637v32z" />
    <glyph glyph-name="uni0336" unicode="&#x336;" 
d="M61 702h1004v-32h-1004v32z" />
    <glyph glyph-name="uni0337" unicode="&#x337;" 
d="M61 524l553 320l17 -29l-553 -319z" />
    <glyph glyph-name="uni0338" unicode="&#x338;" 
d="M221 -6l862 1089l25 -18l-862 -1090z" />
    <glyph glyph-name="uni0401" unicode="&#x401;" horiz-adv-x="1228" 
d="M27 0v12l71 23q28 9 41 15.5t28.5 28.5t20.5 52t11 94t7 145.5t1 215.5v264q0 133 -1 215t-6.5 145.5t-11 93.5t-21 52t-28.5 28t-41 15l-71 22v13h714q232 0 328 34h4l-33 -565h-10q-32 109 -53.5 175t-49 122.5t-50.5 84.5t-62.5 50.5t-80 31.5t-107.5 17l-162 19
q-12 -46 -12 -447v-186l462 39v-111l-462 43v-262q0 -126 4 -202t12.5 -130t27.5 -78t44 -32t67 -4l115 14q109 10 176 58.5t129.5 167.5t151.5 368h8l-58 -664h-2q-83 23 -260 23h-841zM385 1696q0 48 30 74t79 26q50 0 78 -25.5t28 -74.5t-28 -75t-78 -26q-49 0 -79 26.5
t-30 74.5zM735 1696q0 48 29.5 74t77.5 26q50 0 78 -25.5t28 -74.5t-28 -75t-78 -26q-47 0 -77 26.5t-30 74.5z" />
    <glyph glyph-name="uni0404" unicode="&#x404;" horiz-adv-x="1296" 
d="M754 -31q-144 0 -270.5 52.5t-220.5 147.5t-148 237.5t-54 312.5t53.5 312t145.5 236.5t214 146.5t259 52q147 0 275.5 -41.5t214.5 -97.5l-160 -473h-10q-36 292 -127 420.5t-248 128.5q-61 0 -113.5 -22.5t-97.5 -72.5t-77 -124.5t-51.5 -183.5t-21.5 -246l496 24
l-4 -90l-492 39v-8q0 -180 28 -313.5t79.5 -213.5t119.5 -118.5t154 -38.5q155 0 247 128.5t128 420.5h10l160 -473q-86 -59 -211 -100.5t-278 -41.5z" />
    <glyph glyph-name="uni0406" unicode="&#x406;" horiz-adv-x="665" 
d="M209 829q0 163 -3 255.5t-8 157t-20 93t-30.5 40.5t-49.5 24l-71 22v13h612v-13l-72 -22q-28 -9 -42 -16.5t-29.5 -31t-21 -55.5t-11.5 -97.5t-7 -150t-1 -219.5v-223q0 -135 1 -219.5t7 -150t11.5 -97.5t21 -55.5t29.5 -31t42 -17.5l72 -23v-12h-612v12l71 23
q28 10 42 17.5t29 31t21 55.5t11.5 98t6.5 149.5t1 219.5v223z" />
    <glyph glyph-name="uni0407" unicode="&#x407;" horiz-adv-x="665" 
d="M209 829q0 163 -3 255.5t-8 157t-20 93t-30.5 40.5t-49.5 24l-71 22v13h612v-13l-72 -22q-28 -9 -42 -16.5t-29.5 -31t-21 -55.5t-11.5 -97.5t-7 -150t-1 -219.5v-223q0 -135 1 -219.5t7 -150t11.5 -97.5t21 -55.5t29.5 -31t42 -17.5l72 -23v-12h-612v12l71 23
q28 10 42 17.5t29 31t21 55.5t11.5 98t6.5 149.5t1 219.5v223zM45 1696q0 48 30 74t79 26q50 0 78 -25.5t28 -74.5t-28 -75t-78 -26q-49 0 -79 26.5t-30 74.5zM395 1696q0 48 29.5 74t77.5 26q50 0 78 -25.5t28 -74.5t-28 -75t-78 -26q-47 0 -77 26.5t-30 74.5z" />
    <glyph glyph-name="uni0410" unicode="&#x410;" horiz-adv-x="1419" 
d="M10 10q39 17 59 29.5t51 48t55.5 82t68 142t92.5 217.5t125 319l166 426l-60 156v8h285q11 -110 129 -463l227 -672q51 -149 87.5 -205.5t113.5 -85.5v-12h-627v12l129 25q66 15 80.5 44.5t-10.5 111.5l-135 415q-275 13 -432 13q-44 -120 -70 -201t-39 -146.5
t-11.5 -103.5t19.5 -66.5t47 -42.5t78 -24l121 -25v-12h-549v10zM426 653q179 0 401 11l-186 571l-213 -578q0 -2 -2 -4z" />
    <glyph glyph-name="uni0411" unicode="&#x411;" horiz-adv-x="1312" 
d="M27 0v12l71 23q28 9 41 15.5t28.5 28.5t20.5 52t11 94t7 145.5t1 215.5v264q0 133 -1 215t-6.5 145.5t-11 93.5t-21 52t-28.5 28t-41 15l-71 22v13h714q232 0 328 34h4l-33 -565h-10q-32 109 -53.5 175t-49 122.5t-50.5 84.5t-62.5 50.5t-80 31.5t-107.5 17l-158 19
q-16 -46 -16 -449v-133l165 -4q321 -8 478 -106t157 -297q0 -195 -139 -304.5t-424 -109.5h-663zM453 498q0 -106 2 -177.5t7.5 -125.5t13 -83.5t22 -47.5t31 -23.5t42.5 -5.5h129q145 0 220 93.5t75 252.5q0 90 -18.5 157t-63 123t-126.5 86.5t-201 34.5l-133 4v-288z" />
    <glyph glyph-name="uni0412" unicode="&#x412;" horiz-adv-x="1273" 
d="M27 0v12l71 23q28 9 41 15.5t28.5 28.5t20.5 52t11 94t7 145.5t1 215.5v264q0 133 -1 215t-6.5 145.5t-11 93.5t-21 52t-28.5 28t-41 15l-71 22v13h624q106 0 187.5 -15t146.5 -49.5t99 -96.5t34 -149q0 -61 -28 -120t-72.5 -103t-97.5 -76t-105 -45q201 -34 299 -126
t98 -251q0 -190 -138 -296.5t-433 -106.5h-614zM451 498q0 -74 0.5 -120t3 -97.5t6.5 -80.5t12 -60t18.5 -46.5t26.5 -29.5t36.5 -18.5t47.5 -4.5h6q180 0 259 82t79 248q0 60 -8.5 109.5t-35 102t-69 89t-115.5 62t-171 28.5l-96 2v-266zM451 805l137 -4q117 -3 198 -17
q30 40 48 116t18 161q0 162 -78 247t-233 85h-76q-14 -42 -14 -439v-149z" />
    <glyph glyph-name="uni0413" unicode="&#x413;" horiz-adv-x="1157" 
d="M27 0v12l71 23q28 9 41 15.5t28.5 28.5t20.5 52t11 94t7 145.5t1 215.5v264q0 133 -1 215t-6.5 145.5t-11 93.5t-21 52t-28.5 28t-41 15l-71 22v13h749q244 0 326 36h6l-31 -567h-10q-32 110 -53.5 176t-49.5 123.5t-52.5 85.5t-65 50.5t-83.5 31t-112 14.5l-186 19
q-12 -46 -12 -447v-284q0 -114 1 -193t5 -146t7.5 -108t14.5 -74.5t19 -49.5t28 -30t35 -19t45 -13l107 -25v-14h-688z" />
    <glyph glyph-name="uni0414" unicode="&#x414;" horiz-adv-x="1507" 
d="M57 -354l-8 354v33h82q83 0 142.5 59.5t97 180t58 272.5t32.5 366q5 87 7.5 147.5t2.5 111.5t-0.5 82t-7 57t-12 38.5t-18.5 23t-24 14.5t-32 10l-88 26v13h1179v-13l-73 -22q-21 -7 -31.5 -11t-24 -16t-19.5 -26t-13.5 -43t-10.5 -64.5t-6 -93.5t-3.5 -127t-0.5 -168
v-668q0 -53 12 -84.5t25.5 -41t36.5 -15.5l115 -29v-14l-9 -352h-20l-117 282q-20 43 -37 57.5t-57 14.5h-950q-38 0 -54.5 -13.5t-37.5 -58.5l-117 -282h-19zM238 33h802v1368h-524q-6 -163 -12 -281t-15 -247.5t-19.5 -222t-25.5 -186.5t-34.5 -159t-44.5 -122
t-56.5 -93.5t-70.5 -56.5z" />
    <glyph glyph-name="uni0415" unicode="&#x415;" horiz-adv-x="1228" 
d="M27 0v12l71 23q28 9 41 15.5t28.5 28.5t20.5 52t11 94t7 145.5t1 215.5v264q0 133 -1 215t-6.5 145.5t-11 93.5t-21 52t-28.5 28t-41 15l-71 22v13h714q232 0 328 34h4l-33 -565h-10q-32 109 -53.5 175t-49 122.5t-50.5 84.5t-62.5 50.5t-80 31.5t-107.5 17l-162 19
q-12 -46 -12 -447v-186l462 39v-111l-462 43v-262q0 -126 4 -202t12.5 -130t27.5 -78t44 -32t67 -4l115 14q109 10 176 58.5t129.5 167.5t151.5 368h8l-58 -664h-2q-83 23 -260 23h-841z" />
    <glyph glyph-name="uni0416" unicode="&#x416;" horiz-adv-x="2113" 
d="M1919 -16q-85 0 -137.5 29.5t-91.5 103.5l-215 405q-30 57 -50.5 90t-48.5 66.5t-59.5 48t-69.5 14.5v23l303 354q83 94 105.5 154t-7.5 91.5t-112 47.5l-57 10v13h559v-13q-80 -26 -155 -78t-202 -176l-399 -399q106 -1 177.5 -13.5t122 -43.5t82.5 -69t69 -103
l172 -303q60 -108 101.5 -156.5t92.5 -52.5v-11q-86 -32 -180 -32zM12 16v11q29 2 54.5 18t52.5 51t43.5 61.5t46.5 78.5l170 303q38 65 70 103t83 69t122 43.5t177 13.5l-399 399q-125 126 -201 177.5t-155 76.5v13h559v-13l-57 -10q-45 -9 -71 -17.5t-47.5 -29t-18 -50
t32.5 -79t89 -117.5l303 -354v-23q-73 0 -121 -52.5t-108 -166.5l-213 -405q-39 -74 -91.5 -103.5t-137.5 -29.5q-93 0 -183 32zM750 0v12l73 23q28 10 41.5 17.5t28.5 31t21 55.5t11.5 97.5t7 150t1.5 219.5v223q0 163 -3 255.5t-8 157t-20 93t-30.5 40.5t-49.5 24l-73 22
v13h614v-13l-74 -22q-21 -7 -32.5 -12t-25 -18t-20 -28t-13.5 -45.5t-9.5 -67t-5.5 -97.5t-3.5 -130.5t-0.5 -171.5v-223q0 -137 1 -220t6.5 -149.5t11 -98t20.5 -55t29 -31t42 -17.5l74 -23v-12h-614z" />
    <glyph glyph-name="uni0417" unicode="&#x417;" horiz-adv-x="1177" 
d="M545 -18q-144 0 -285.5 39.5t-206.5 84.5l140 457h12q8 -163 34 -271.5t71 -165.5t98.5 -79t130.5 -22q299 0 299 354q0 375 -455 375h-16v32h18q131 0 225.5 53t138.5 136.5t44 185.5q0 114 -56.5 187t-171.5 73q-65 0 -114 -20.5t-91.5 -70.5t-68.5 -144t-35 -232h-12
l-119 387q64 44 198.5 84.5t262.5 40.5q228 0 346.5 -80.5t118.5 -218.5q0 -137 -135 -244t-359 -147q253 -6 406 -107t153 -272q0 -185 -156.5 -300t-414.5 -115z" />
    <glyph glyph-name="uni0418" unicode="&#x418;" horiz-adv-x="1544" 
d="M1516 1434v-13l-72 -22q-28 -9 -41 -15t-28.5 -28t-21 -52t-11 -93.5t-6.5 -145.5t-1 -215v-244q0 -136 1 -219.5t6.5 -149.5t11.5 -98t21 -55.5t29 -31t42 -17.5l74 -23v-12h-615v12l74 23q28 10 41.5 17.5t28.5 31t21 55.5t11.5 97.5t7 150t1.5 219.5v735l-635 -1341
h-426v12l73 23q28 9 40.5 15.5t27.5 28.5t20.5 52t11 93.5t6.5 146t1 215.5v243q0 163 -3 255.5t-8 157t-20 93t-30.5 40.5t-49.5 24l-71 22v13h612v-13l-72 -22q-28 -9 -42 -16.5t-29.5 -31t-21 -55.5t-11.5 -97.5t-7 -150t-1 -219.5v-737l635 1342h426z" />
    <glyph glyph-name="uni0419" unicode="&#x419;" horiz-adv-x="1544" 
d="M1516 1434v-13l-72 -22q-28 -9 -41 -15t-28.5 -28t-21 -52t-11 -93.5t-6.5 -145.5t-1 -215v-244q0 -136 1 -219.5t6.5 -149.5t11.5 -98t21 -55.5t29 -31t42 -17.5l74 -23v-12h-615v12l74 23q28 10 41.5 17.5t28.5 31t21 55.5t11.5 97.5t7 150t1.5 219.5v735l-635 -1341
h-426v12l73 23q28 9 40.5 15.5t27.5 28.5t20.5 52t11 93.5t6.5 146t1 215.5v243q0 163 -3 255.5t-8 157t-20 93t-30.5 40.5t-49.5 24l-71 22v13h612v-13l-72 -22q-28 -9 -42 -16.5t-29.5 -31t-21 -55.5t-11.5 -97.5t-7 -150t-1 -219.5v-737l635 1342h426zM541 1915h8
q27 -75 78 -108t147 -33t147.5 33t79.5 108h7q4 -158 -58 -237t-176 -79q-113 0 -174.5 78.5t-58.5 237.5z" />
    <glyph glyph-name="uni041A" unicode="&#x41a;" horiz-adv-x="1429" 
d="M1231 -16q-85 0 -139.5 30t-94.5 103l-225 405q-65 118 -116.5 168.5t-129.5 50.5v23l324 356q57 60 86 106.5t33.5 77t-13 52.5t-48 34t-77.5 21l-59 10v13h582v-13q-82 -25 -158.5 -76t-210.5 -178l-424 -399q113 -1 186.5 -12.5t126 -42.5t84.5 -68t74 -106l180 -303
q64 -108 107 -156.5t98 -52.5v-11q-90 -32 -186 -32zM27 0v12l71 23q28 10 42 17.5t29 31t21 55.5t11.5 98t6.5 149.5t1 219.5v223q0 163 -3 255.5t-8 157t-20 93t-30.5 40.5t-49.5 24l-71 22v13h612v-13l-72 -22q-28 -9 -42 -16.5t-29.5 -31t-21 -55.5t-11.5 -97.5t-7 -150
t-1 -219.5v-223q0 -135 1 -219.5t7 -150t11.5 -97.5t21 -55.5t29.5 -31t42 -17.5l72 -23v-12h-612z" />
    <glyph glyph-name="uni041B" unicode="&#x41b;" horiz-adv-x="1548" 
d="M1520 1434v-13l-74 -22q-21 -7 -31.5 -11t-24 -16t-19.5 -26t-13.5 -43t-10.5 -64.5t-6 -93.5t-3.5 -127t-0.5 -168v-244q0 -135 1.5 -219.5t7 -150t11.5 -97.5t21.5 -55.5t29.5 -31t42 -17.5l72 -23v-12h-613v12l72 23q28 10 42 17.5t29 31t21 55.5t11.5 98t6.5 149.5
t1 219.5v795h-576q-7 -192 -14 -322.5t-17.5 -279.5t-24 -246.5t-33 -199t-45.5 -163t-61 -112.5t-79.5 -73.5t-100.5 -22.5q-40 0 -92 8v286h4q79 -14 111 -14q77 0 125 25.5t85 98t56.5 197.5t30.5 328q8 139 9 220t-1 134.5t-16 78.5t-28.5 35t-47.5 20l-74 22v13h1217z
" />
    <glyph glyph-name="uni041C" unicode="&#x41c;" horiz-adv-x="1839" 
d="M838 -6l-506 1233l-49 -572q-11 -138 -14.5 -228.5t4 -161t20.5 -109t45 -66.5t67.5 -40.5t96.5 -24.5l61 -13v-12h-543v12l17 8q33 16 51.5 29t39.5 41t33 65.5t26.5 105t27 157t27.5 223.5l22 211q11 103 18 168t10.5 126t4 93.5t-5 63.5t-11 43.5t-21.5 25t-29.5 17
t-39.5 10.5l-94 22v13h420l445 -1094l309 852q34 97 41.5 151.5t-2.5 90.5h497v-13l-94 -22q-26 -6 -39.5 -10.5t-29.5 -16.5t-22.5 -25.5t-13.5 -43.5t-7.5 -64t0.5 -94t5 -127t11 -168l18 -246q14 -199 24 -302t26.5 -162.5t31 -75.5t47.5 -31l56 -21v-12h-639v12l71 17
q35 9 53.5 14.5t40 19t30.5 27.5t18.5 45t11 64.5t1.5 94t-4 125t-11 165.5l-48 663l-485 -1253h-20z" />
    <glyph glyph-name="uni041D" unicode="&#x41d;" horiz-adv-x="1544" 
d="M1090 829q0 163 -3 255.5t-8 157t-20 93t-30.5 40.5t-49.5 24l-74 22v13h615v-13l-74 -22q-33 -11 -49 -23t-31 -40.5t-20 -93t-8 -157.5t-3 -256v-223q0 -136 1 -219.5t6.5 -149.5t11.5 -98t21 -55.5t29 -31t42 -17.5l74 -23v-12h-615v12l74 23q28 10 41.5 17.5t28.5 31
t21 55.5t11.5 97.5t7 150t1.5 219.5v125q-422 12 -635 12v-137q0 -135 1 -219.5t7 -150t11.5 -97.5t21 -55.5t29.5 -31t42 -17.5l72 -23v-12h-612v12l71 23q28 10 42 17.5t29 31t21 55.5t11.5 98t6.5 149.5t1 219.5v223q0 163 -3 255.5t-8 157t-20 93t-30.5 40.5t-49.5 24
l-71 22v13h612v-13l-72 -22q-28 -9 -42 -16.5t-29.5 -31t-21 -55.5t-11.5 -97.5t-7 -150t-1 -219.5v-53q283 0 635 10v43z" />
    <glyph glyph-name="uni041E" unicode="&#x41e;" horiz-adv-x="1501" 
d="M705 -31q-205 0 -351.5 88t-219.5 242t-73 360q0 175 54.5 325t150.5 255.5t232.5 165t294.5 59.5q205 0 353 -88t221 -240t73 -352q0 -238 -93.5 -424t-261 -288.5t-380.5 -102.5zM348 809q0 -363 123.5 -570.5t325.5 -207.5q167 0 261.5 157t94.5 437q0 363 -123 570.5
t-325 207.5q-168 0 -262.5 -156.5t-94.5 -437.5z" />
    <glyph glyph-name="uni041F" unicode="&#x41f;" horiz-adv-x="1523" 
d="M1495 1434v-13l-72 -22q-28 -9 -41 -15t-28 -28t-20.5 -52t-11 -94t-6.5 -145t-1 -215v-244q0 -137 1 -220t6.5 -149.5t11 -98t20.5 -55t29 -31t42 -17.5l74 -23v-12h-614v12l73 23q28 10 41.5 17.5t28.5 31t21 55.5t11.5 97.5t7 150t1.5 219.5v795h-614v-795
q0 -135 1 -219.5t7 -150t11.5 -97.5t21 -55.5t29.5 -31t42 -17.5l72 -23v-12h-612v12l71 23q28 10 42 17.5t29 31t21 55.5t11.5 98t6.5 149.5t1 219.5v244q0 114 -1.5 189t-3.5 135.5t-8.5 95.5t-12.5 59.5t-20 37t-25.5 19t-35.5 13.5l-73 22v13h1466z" />
    <glyph glyph-name="uni0420" unicode="&#x420;" horiz-adv-x="1185" 
d="M27 0v12l71 23q28 9 41 15.5t28.5 28.5t20.5 52t11 94t7 145.5t1 215.5v264q0 133 -1 215t-6.5 145.5t-11 93.5t-21 52t-28.5 28t-41 15l-71 22v13h591q263 0 412.5 -100t149.5 -298q0 -62 -19.5 -119.5t-66.5 -113.5t-118.5 -99t-182 -74t-250.5 -42l-4 18
q43 11 71.5 20t69.5 26t68.5 36t58 49t48.5 66t30 86.5t12 111.5q0 392 -389 392h-37q-18 -36 -18 -439v-368q0 -100 1 -168.5t5 -127.5t7.5 -94t15 -64t20 -43t29 -26t36 -16.5t47.5 -11.5l111 -23v-12h-698z" />
    <glyph glyph-name="uni0421" unicode="&#x421;" horiz-adv-x="1323" 
d="M715 -31q-142 0 -263.5 52t-207.5 144.5t-134.5 224t-48.5 286.5q0 170 54.5 317.5t148.5 251t224 162.5t276 59q263 0 479 -139l-205 -493h-10q-4 302 -88 435.5t-242 133.5q-168 0 -274.5 -156t-106.5 -409q0 -318 135 -489t359 -171q179 0 298.5 117t147.5 348h13
q-2 -109 -19.5 -203.5t-58 -183t-102 -150.5t-157.5 -99.5t-218 -37.5z" />
    <glyph glyph-name="uni0422" unicode="&#x422;" horiz-adv-x="1298" 
d="M276 0v12l95 23q36 9 53 15.5t37 28.5t26.5 52t14 93.5t9 146t1.5 215.5v348q0 381 -8 471l-76 -8q-41 -5 -66.5 -10.5t-54 -18t-46.5 -28.5t-40.5 -47.5t-39 -68t-39.5 -98t-45 -130t-52 -169.5h-14l22 641h4q96 -34 277 -34h602q226 0 326 34h4l-31 -641h-14
q-19 80 -31 130.5t-28 107t-26.5 89t-26.5 69.5t-29.5 56t-33 40.5t-38.5 31.5t-46 20.5t-55.5 15.5t-66.5 10l-74 8q-8 -106 -8 -471v-348q0 -133 1.5 -215.5t9 -146t14 -93.5t26 -52t36 -28.5t52.5 -15.5l96 -23v-12h-717z" />
    <glyph glyph-name="uni0423" unicode="&#x423;" horiz-adv-x="1359" 
d="M293 -20q-28 0 -60 4v282q80 -14 191 -14q86 0 133 8.5t80 34.5l-434 932q-48 102 -91 140t-102 54v13h633v-13l-121 -24q-29 -7 -46.5 -19t-24.5 -26.5t-5 -34.5t8 -38.5t17 -43.5l297 -690l207 493q30 67 46.5 113.5t24 92t-2.5 74.5t-38.5 50.5t-78.5 30.5l-123 22v13
h547v-13q-90 -29 -156 -104t-137 -227l-303 -654q-56 -121 -102 -199.5t-101.5 -140t-118 -89t-139.5 -27.5z" />
    <glyph glyph-name="uni0424" unicode="&#x424;" horiz-adv-x="1726" 
d="M559 -33v13l74 22q34 12 50.5 24t30 47.5t19.5 100.5q-160 2 -280 31t-210 91.5t-136 168t-46 252.5q0 247 181 392.5t491 150.5q-6 65 -19.5 100.5t-30 47.5t-50.5 24l-74 22v12h608v-12l-71 -22q-51 -15 -73 -46t-30 -126q160 -2 280 -31t210 -92t136 -168t46 -252
q0 -248 -181 -393t-491 -150q7 -65 21 -100.5t31 -47.5t51 -24l71 -22v-13h-608zM346 717q0 -259 100.5 -375t290.5 -121q6 120 6 352v289q0 230 -6 350q-179 -6 -285 -141t-106 -354zM983 573q0 -232 6 -352q179 6 285 141.5t106 354.5q0 132 -27 227.5t-79 153t-122 85
t-163 29.5q-6 -120 -6 -350v-289z" />
    <glyph glyph-name="uni0425" unicode="&#x425;" horiz-adv-x="1421" 
d="M764 0v12l115 23q36 7 54.5 26.5t15 55t-35.5 82.5l-292 446l-191 -293q-67 -103 -83 -167.5t17.5 -102t120.5 -55.5l74 -15v-12h-547v12q68 22 123.5 63.5t101.5 96t132 170.5l239 326l-368 563q-59 91 -96 125.5t-111 64.5v13h645v-13l-119 -22q-123 -25 -33 -162
l271 -414l166 258q100 152 87.5 226t-141.5 100l-73 14v13h544v-13q-98 -32 -167 -98.5t-189 -230.5l-213 -289l389 -598q60 -92 98 -127.5t111 -65.5v-12h-645z" />
    <glyph glyph-name="uni0426" unicode="&#x426;" horiz-adv-x="1536" 
d="M1069 829q0 163 -3 255.5t-8 157t-20 93t-30.5 40.5t-49.5 24l-73 22v13h614v-13l-74 -22q-21 -7 -32.5 -12t-25 -18t-20 -28t-13.5 -45.5t-9.5 -67t-5.5 -97.5t-3.5 -130.5t-0.5 -171.5v-647q0 -53 12 -84.5t25.5 -41t36.5 -15.5l112 -29v-14l-6 -352h-20l-117 282
q-20 43 -38 57.5t-58 14.5h-1233v12l73 23q28 9 40.5 15.5t27.5 28.5t20.5 52t11 93.5t6.5 146t1 215.5v243q0 163 -3 255.5t-8 157t-20 93t-30.5 40.5t-49.5 24l-71 22v13h612v-13l-72 -22q-28 -9 -42 -16.5t-29.5 -31t-21 -55.5t-11.5 -97.5t-7 -150t-1 -219.5v-796h614
v796z" />
    <glyph glyph-name="uni0427" unicode="&#x427;" horiz-adv-x="1499" 
d="M582 510q-375 0 -375 438q0 149 -4.5 232.5t-20 129.5t-32.5 60.5t-54 28.5l-73 22v13h614v-13l-74 -22q-47 -16 -67.5 -44.5t-31.5 -117t-11 -274.5q0 -155 72.5 -227t211.5 -72q137 0 307 30v135q0 135 -1 219.5t-7 150t-11.5 97t-21 55t-29.5 31t-42 17.5l-72 22v13
h613v-13l-72 -22q-33 -11 -49 -23t-31 -40.5t-20 -93t-8 -157.5t-3 -256v-243q0 -133 1 -215.5t6.5 -146t11 -93.5t20.5 -52t27.5 -28.5t40.5 -15.5l73 -23v-12h-645v12l88 23q34 9 49.5 15.5t34 28.5t25 52t13 94t8 145.5t1.5 215.5v80q-105 -77 -216 -116.5t-246 -39.5z
" />
    <glyph glyph-name="uni0428" unicode="&#x428;" horiz-adv-x="2283" 
d="M1827 829q0 163 -3 255.5t-8 157t-20 93t-30.5 40.5t-49.5 24l-71 22v13h612v-13l-72 -22q-28 -9 -42 -16.5t-29.5 -31t-21 -55.5t-11.5 -97.5t-7 -150t-1 -219.5v-243q0 -133 1 -215.5t7 -146t11 -93.5t20.5 -52t28 -28.5t40.5 -15.5l74 -23v-12h-2226v12l73 23
q28 9 40.5 15.5t27.5 28.5t20.5 52t11 93.5t6.5 146t1 215.5v243q0 163 -3 255.5t-8 157t-20 93t-30.5 40.5t-49.5 24l-71 22v13h612v-13l-72 -22q-28 -9 -42 -16.5t-29.5 -31t-21 -55.5t-11.5 -97.5t-7 -150t-1 -219.5v-796h563v817q0 133 -1 215t-5.5 145.5t-8.5 93.5
t-16 51.5t-22.5 28t-32.5 15.5l-60 22v13h537v-13l-59 -22q-22 -9 -32.5 -15.5t-22.5 -28t-16 -51.5t-8.5 -93.5t-5.5 -145.5t-1 -215v-817h563v796z" />
    <glyph glyph-name="uni0429" unicode="&#x429;" horiz-adv-x="2252" 
d="M1786 829q0 163 -3 255.5t-8 157t-20 93t-30.5 40.5t-49.5 24l-71 22v13h612v-13l-72 -22q-28 -9 -42 -16.5t-29.5 -31t-21 -55.5t-11.5 -97.5t-7 -150t-1 -219.5v-647q0 -76 19.5 -104t55.5 -37l113 -29v-14l-8 -352h-21l-114 282q-19 43 -38 57.5t-59 14.5h-1951v12
l73 23q28 9 40.5 15.5t27.5 28.5t20.5 52t11 93.5t6.5 146t1 215.5v243q0 163 -3 255.5t-8 157t-20 93t-30.5 40.5t-49.5 24l-71 22v13h612v-13l-72 -22q-28 -9 -42 -16.5t-29.5 -31t-21 -55.5t-11.5 -97.5t-7 -150t-1 -219.5v-796h542v817q0 133 -1 215t-5.5 145.5
t-8.5 93.5t-16 51.5t-22.5 28t-32.5 15.5l-59 22v13h537v-13l-60 -22q-22 -9 -32.5 -15.5t-22.5 -28t-16 -51.5t-8.5 -93.5t-5.5 -145.5t-1 -215v-817h543v796z" />
    <glyph glyph-name="uni042A" unicode="&#x42a;" horiz-adv-x="1525" 
d="M313 0v12l74 23q28 9 40.5 15.5t28 28.5t21 52.5t11.5 93.5t7 146t1 215v803l-19 -3q-67 -8 -107.5 -17t-80 -31.5t-62.5 -50.5t-50.5 -85.5t-49 -123t-53.5 -175.5h-11l-32 565h4q96 -34 327 -34h596v-13l-88 -22q-25 -7 -37.5 -11t-29 -16t-23.5 -26t-16 -43t-12 -64.5
t-6.5 -94t-4 -127t-0.5 -167.5v-29l150 -4q317 -8 473 -106t156 -297q0 -195 -137 -304.5t-418 -109.5h-652zM741 498q0 -128 3.5 -207t10 -133t21 -79t33 -34.5t49.5 -9.5h117q141 0 215 93.5t74 252.5q0 89 -18.5 156.5t-63 123t-126 86.5t-198.5 35l-117 4v-288z" />
    <glyph glyph-name="uni042B" unicode="&#x42b;" horiz-adv-x="1923" 
d="M27 0v12l71 23q28 9 41 15.5t28.5 28.5t20.5 52t11 94t7 145.5t1 215.5v264q0 133 -1 215t-6.5 145.5t-11 93.5t-21 52t-28.5 28t-41 15l-71 22v13h643v-13l-88 -22q-25 -7 -37.5 -11t-29 -16t-23.5 -26t-16 -43t-12 -64.5t-6.5 -94t-4 -127t-0.5 -167.5v-29l165 -4
q321 -8 478 -106t157 -297q0 -195 -139 -304.5t-424 -109.5h-663zM453 498q0 -106 2 -177.5t7.5 -125.5t13 -83.5t22 -47.5t31 -23.5t42.5 -5.5h129q145 0 220 93.5t75 252.5q0 90 -18.5 157t-63 123t-126.5 86.5t-201 34.5l-133 4v-288zM1286 0v12l72 23q28 10 42 17.5
t29 31t20.5 55t11 98t6.5 149.5t1 220v223q0 137 -1 220t-6.5 149t-11 97.5t-20.5 55t-29 31t-42 17.5l-72 22v13h612v-13l-71 -22q-28 -9 -42 -16.5t-29.5 -30.5t-21.5 -55.5t-11.5 -98t-7 -150t-1.5 -219.5v-223q0 -135 1.5 -219.5t7 -150t11.5 -97.5t21.5 -55.5t29.5 -31
t42 -17.5l71 -23v-12h-612z" />
    <glyph glyph-name="uni042C" unicode="&#x42c;" horiz-adv-x="1259" 
d="M27 0v12l71 23q28 9 41 15.5t28.5 28.5t20.5 52t11 94t7 145.5t1 215.5v264q0 133 -1 215t-6.5 145.5t-11 93.5t-21 52t-28.5 28t-41 15l-71 22v13h643v-13l-88 -22q-25 -7 -37.5 -11t-29 -16t-23.5 -26t-16 -43t-12 -64.5t-6.5 -94t-4 -127t-0.5 -167.5v-29l165 -4
q321 -8 478 -106t157 -297q0 -195 -139 -304.5t-424 -109.5h-663zM453 498q0 -106 2 -177.5t7.5 -125.5t13 -83.5t22 -47.5t31 -23.5t42.5 -5.5h129q145 0 220 93.5t75 252.5q0 90 -18.5 157t-63 123t-126.5 86.5t-201 34.5l-133 4v-288z" />
    <glyph glyph-name="uni042D" unicode="&#x42d;" horiz-adv-x="1296" 
d="M543 -31q-154 0 -279 41.5t-211 100.5l160 473h10q36 -292 128 -420.5t247 -128.5q86 0 154 38.5t119.5 118.5t79.5 213.5t28 313.5v8l-492 -39l-4 90l496 -24q-2 137 -21.5 246t-51.5 183.5t-77 124.5t-97.5 72.5t-113.5 22.5q-157 0 -247.5 -128.5t-126.5 -420.5h-11
l-159 473q86 56 214 97.5t275 41.5q137 0 259 -52t214 -146.5t145.5 -236.5t53.5 -312t-54 -312.5t-147.5 -237.5t-220 -147.5t-270.5 -52.5z" />
    <glyph glyph-name="uni042E" unicode="&#x42e;" horiz-adv-x="2172" 
d="M1395 -31q-194 0 -335.5 87t-213.5 242t-72 361q0 53 2 78q-138 6 -321 6v-137q0 -135 1 -219.5t7 -150t11.5 -97.5t21 -55.5t29.5 -31t42 -17.5l72 -23v-12h-612v12l71 23q28 10 42 17.5t29 31t21 55.5t11.5 98t6.5 149.5t1 219.5v223q0 163 -3 255.5t-8 157t-20 93
t-30.5 40.5t-49.5 24l-71 22v13h612v-13l-72 -22q-28 -9 -42 -16.5t-29.5 -31t-21 -55.5t-11.5 -97.5t-7 -150t-1 -219.5v-53q141 0 325 4q23 202 120 357.5t249.5 241t337.5 85.5q195 0 337.5 -87t214.5 -239.5t72 -353.5q0 -178 -54 -330.5t-149 -258.5t-227.5 -166
t-285.5 -60zM1061 809q0 -361 121 -569.5t313 -208.5q150 0 240 159t90 435q0 361 -121 569.5t-313 208.5q-150 0 -240 -158t-90 -436z" />
    <glyph glyph-name="uni042F" unicode="&#x42f;" horiz-adv-x="1394" 
d="M1368 0h-608v12l74 23q28 9 40.5 15.5t28 28.5t20.5 52t11 93.5t7 146t1 215.5v80h-123h-24q-116 -227 -306 -508q-61 -94 -121.5 -135t-146.5 -41q-109 0 -213 38v11q68 27 110 55.5t83 81.5q207 266 358 522q-99 21 -171 59.5t-111.5 89t-57.5 104.5t-18 114
q0 176 145.5 276.5t396.5 100.5h625v-13l-72 -22q-28 -9 -41 -15t-28 -28t-20.5 -52t-11 -94t-6.5 -145t-1 -215v-264q0 -134 1 -215.5t6.5 -145.5t10.5 -94t20.5 -52t28.5 -28.5t41 -15.5l72 -23v-12zM483 1018q0 -151 82 -232t246 -81h131v249q0 397 -14 439h-41
q-204 0 -304 -90.5t-100 -284.5z" />
    <glyph glyph-name="uni0430" unicode="&#x430;" horiz-adv-x="991" 
d="M276 -33q-89 0 -147.5 65t-58.5 163q0 117 82 185t290 105l140 27v188q0 129 -48.5 185.5t-113.5 56.5q-34 0 -57 -15t-39.5 -52t-15.5 -110.5t20 -180.5l-240 -23q8 100 40 178.5t76.5 126t102 78t112.5 42t113 11.5q138 0 203.5 -68.5t65.5 -203.5q0 -64 -4 -212.5
t-4 -256.5q0 -119 65 -119q55 0 74.5 54t19.5 188h17q5 -195 -42.5 -298.5t-160.5 -103.5q-183 0 -180 222h-8q-23 -36 -42 -62t-50.5 -60.5t-61 -56.5t-69 -37.5t-79.5 -15.5zM272 272q0 -61 32 -95t87 -34q14 0 29 2.5t26.5 5t27.5 10t23.5 10.5t24.5 13t21 13t21 14
t18 12v269l-121 -43q-102 -38 -145.5 -79t-43.5 -98z" />
    <glyph glyph-name="uni0431" unicode="&#x431;" horiz-adv-x="1050" 
d="M539 -33q-244 0 -363 150.5t-119 470.5q0 181 25 315t70 223.5t120 149.5t163 92t212 51q191 31 252 86l10 -2q52 -142 -14.5 -210.5t-271.5 -90.5q-174 -17 -233 -33q-125 -34 -182 -130q-75 -125 -75 -416h2q15 70 41.5 127t60 94.5t70.5 64.5t78 41t78 20.5t76 6.5
q205 0 330.5 -121.5t125.5 -349.5q0 -238 -133 -388.5t-323 -150.5zM301 479q0 -232 55 -346.5t179 -114.5q101 0 158 110.5t57 334.5q0 212 -66 333.5t-166 121.5q-69 0 -119 -59t-74 -157t-24 -223z" />
    <glyph glyph-name="uni0432" unicode="&#x432;" horiz-adv-x="1024" 
d="M23 0v12l61 19q23 7 33.5 12t23 19.5t17 34.5t9.5 60t6 92.5t1 135.5v199q0 123 -2.5 186t-14.5 100t-26 47t-47 21l-61 18v13h516q78 0 139 -9t113.5 -31.5t81 -65.5t28.5 -105q0 -83 -76 -142t-172 -79q314 -46 314 -263q0 -129 -106.5 -201.5t-330.5 -72.5h-507z
M393 315q0 -156 22 -212t89 -56h31q93 0 137.5 55t44.5 148q0 107 -66 175.5t-221 74.5l-37 2v-187zM393 549h72q75 0 139 -6q49 58 49 166q0 213 -207 213h-43q-10 -30 -10 -277v-96z" />
    <glyph glyph-name="uni0433" unicode="&#x433;" horiz-adv-x="884" 
d="M23 0v12l61 19q23 7 33.5 12t23 19.5t17 34.5t9.5 60t6 92.5t1 135.5v199q0 123 -2.5 186t-14.5 100t-26 47t-47 21l-61 18v13h595q183 0 250 24h2l-14 -385l-16 -2q-38 100 -67 157.5t-64.5 92.5t-72.5 47.5t-97 16.5l-136 8q-10 -38 -10 -291v-195q0 -96 1.5 -156
t8.5 -106.5t13.5 -69t24.5 -39.5t34 -22.5t49 -13.5l88 -21v-14h-589z" />
    <glyph glyph-name="uni0434" unicode="&#x434;" horiz-adv-x="1089" 
d="M18 -295l-8 295v51h51q120 0 181 141.5t80 438.5q5 88 6 137.5t0.5 83t-9.5 48.5t-17 21t-28 13l-77 22v13h866v-13l-62 -18q-33 -11 -47 -21t-26 -47t-14.5 -100t-2.5 -186v-338q0 -84 11.5 -130.5t28.5 -62t48 -24.5l64 -17v-14l-8 -293h-21l-86 242q-12 32 -27 42.5
t-49 10.5h-673q-31 0 -46 -10.5t-28 -44.5l-86 -240h-21zM197 51h495v867h-307q-18 -405 -59 -603t-129 -264z" />
    <glyph glyph-name="uni0435" unicode="&#x435;" horiz-adv-x="927" 
d="M483 -29q-64 0 -123.5 16t-115 53t-96.5 91.5t-66 137.5t-25 184q0 104 29 194t76.5 152.5t107 107.5t120.5 66.5t118 21.5q153 0 254.5 -102t101.5 -291l-24 -27l-557 19v-21q0 -205 79 -321.5t216 -116.5q121 0 200 89t88 257l13 -2q-3 -253 -106.5 -380.5
t-289.5 -127.5zM285 625l346 10q11 77 3.5 145t-47.5 115t-104 47q-76 0 -132.5 -84t-65.5 -233z" />
    <glyph glyph-name="uni0436" unicode="&#x436;" horiz-adv-x="1601" 
d="M1450 -12q-87 0 -135.5 29.5t-77.5 86.5l-133 252q-35 74 -63 104.5t-68 31.5v30l209 217q41 43 62 69t33 50.5t3.5 39t-32.5 27t-70 21.5l-41 8v15h419v-13q-110 -48 -278 -192l-279 -242q115 2 175.5 -12t93.5 -44.5t73 -100.5l111 -185q79 -145 139 -153v-19
q-65 -20 -141 -20zM10 8v19q61 8 140 153l110 185q31 54 54 82t62 47.5t89 24.5t137 3l-278 242q-177 150 -281 192v13h422v-15l-41 -8q-35 -7 -54 -13t-35.5 -16t-17 -23.5t8 -34.5t32 -50t62.5 -70l209 -217v-30q-39 -1 -64.5 -30.5t-64.5 -105.5l-135 -252
q-30 -57 -79 -86.5t-134 -29.5q-77 0 -142 20zM541 0v12l59 19q23 7 33.5 12t23 19.5t17 34.5t9.5 60t6 92.5t1 135.5v199q0 123 -2.5 186t-14.5 100t-26 47t-47 21l-59 18v13h497v-13l-51 -18q-37 -14 -50.5 -35.5t-19.5 -88.5t-6 -230v-199q0 -100 2.5 -158t6 -97
t14.5 -57t22 -26t35 -16l56 -19v-12h-506z" />
    <glyph glyph-name="uni0437" unicode="&#x437;" horiz-adv-x="888" 
d="M397 -20q-96 0 -197.5 25t-158.5 61l127 311h4q21 -188 76 -267t151 -79q99 0 143 63t44 160q0 70 -22 117.5t-63.5 70.5t-86 32t-105.5 9h-12v52h12q109 0 171.5 70t62.5 186q0 67 -36.5 111t-96.5 44q-87 0 -132.5 -76t-64.5 -241h-8l-117 274q60 38 151 66t177 28
q170 0 265 -61t95 -156q0 -197 -354 -264q195 0 303.5 -64.5t108.5 -175.5q0 -133 -123.5 -214.5t-313.5 -81.5z" />
    <glyph glyph-name="uni0438" unicode="&#x438;" horiz-adv-x="1179" 
d="M23 0v12l61 19q23 7 33.5 12t23 19.5t17 34.5t9.5 60t6 92.5t1 135.5v199q0 123 -2.5 186t-14.5 100t-26 47t-47 21l-61 18v13h520v-13l-62 -18q-33 -11 -47 -21t-26 -47t-14.5 -100t-2.5 -186v-506l397 891h369v-13l-61 -18q-33 -11 -47 -21t-26 -47t-14.5 -100
t-2.5 -186v-199q0 -83 1 -135.5t6 -92.5t9.5 -60t17 -34.5t23 -19.5t33.5 -12l61 -19v-12h-520v12l61 19q23 7 33.5 12t23 19.5t17 34.5t9.5 60t6 92.5t1 135.5v498l-397 -883h-368z" />
    <glyph glyph-name="uni0439" unicode="&#x439;" horiz-adv-x="1179" 
d="M23 0v12l61 19q23 7 33.5 12t23 19.5t17 34.5t9.5 60t6 92.5t1 135.5v199q0 123 -2.5 186t-14.5 100t-26 47t-47 21l-61 18v13h520v-13l-62 -18q-33 -11 -47 -21t-26 -47t-14.5 -100t-2.5 -186v-506l397 891h369v-13l-61 -18q-33 -11 -47 -21t-26 -47t-14.5 -100
t-2.5 -186v-199q0 -83 1 -135.5t6 -92.5t9.5 -60t17 -34.5t23 -19.5t33.5 -12l61 -19v-12h-520v12l61 19q23 7 33.5 12t23 19.5t17 34.5t9.5 60t6 92.5t1 135.5v498l-397 -883h-368zM360 1448h9q27 -75 78 -108t147 -33t147.5 33t79.5 108h6q4 -158 -57.5 -236.5
t-175.5 -78.5t-175.5 78.5t-58.5 236.5z" />
    <glyph glyph-name="uni043A" unicode="&#x43a;" horiz-adv-x="1122" 
d="M971 -12q-87 0 -137.5 28.5t-81.5 87.5l-142 252q-43 76 -71 105.5t-70 30.5v30l221 219q106 104 105.5 144.5t-107.5 60.5l-43 8v15h432v-13q-99 -40 -284 -192l-297 -242q157 5 223 -23.5t131 -133.5l117 -185q45 -75 78.5 -112t66.5 -41v-19q-65 -20 -141 -20zM23 0
v12l61 19q23 7 33.5 12t23 19.5t17 34.5t9.5 60t6 92.5t1 135.5v199q0 123 -2.5 186t-14.5 100t-26 47t-47 21l-61 18v13h499v-13l-53 -18q-36 -14 -49 -35t-20 -89.5t-7 -229.5v-199q0 -84 1 -136t5 -92.5t8.5 -60t15.5 -34t21 -19.5t31 -12l53 -19v-12h-505z" />
    </font>
</defs>
</svg>
