<?xml version="1.0" standalone="no"?>
<!DOCTYPE svg PUBLIC "-//W3C//DTD SVG 1.1//EN" "http://www.w3.org/Graphics/SVG/1.1/DTD/svg11.dtd" >
<svg xmlns="http://www.w3.org/2000/svg" xmlns:xlink="http://www.w3.org/1999/xlink" version="1.1">
<metadata>
Created by FontForge 20201107 at Tue Dec  5 23:56:11 2023
 By 
2023 Armed Forces of Ukraine. All rights reserved. 
</metadata>
<defs>
<font id="UAFMemory-Regular" horiz-adv-x="1036" >
  <font-face 
    font-family="UAF Memory"
    font-weight="400"
    font-stretch="normal"
    units-per-em="1000"
    panose-1="0 0 0 0 0 0 0 0 0 0"
    ascent="800"
    descent="-200"
    x-height="552"
    cap-height="702"
    bbox="-196 -296 1187 997"
    underline-thickness="55"
    underline-position="-200"
    unicode-range="U+000D-1F535"
  />
<missing-glyph horiz-adv-x="1000" 
d="M410 0h-276v701q158 -72 158 -321q0 -78 -20 -225h149l-5 193q-1 59 -9 159l-4 81q0 133 97 238q97 -105 97 -238l-4 -81q-8 -100 -9 -159l-5 -193h149q-20 147 -20 225q0 249 158 321v-701h-276q-30 -87 -90 -159q-60 72 -90 159z" />
    <glyph glyph-name="uni2722" unicode="&#x3c;died&#x3e;" horiz-adv-x="1000" 
d="M455 142q7 47 12 177q-128 -7 -172.5 -13.5t-69.5 -21.5q2 44 2 49v34q0 5 -2 49q25 -15 69.5 -21.5t172.5 -13.5q-5 130 -12 177t-23 74q22 -2 51 -2h34q29 0 51 2q-16 -27 -23 -74t-12 -177q128 7 172.5 13.5t69.5 21.5q-2 -44 -2 -49v-34q0 -5 2 -49
q-25 15 -69.5 21.5t-172.5 13.5q5 -130 12 -177t23 -74q-22 2 -51 2h-34q-29 0 -51 -2q16 27 23 74z" />
    <glyph glyph-name="uni274B" unicode="&#x3c;born&#x3e;" horiz-adv-x="1000" 
d="M464 264q-84 -59 -155 -119l-14 14q60 71 119 155q-89 16 -194 26v20q105 10 194 26q-59 84 -119 155l14 14q71 -60 155 -119q16 89 26 194h20q10 -105 26 -194q84 59 155 119l14 -14q-60 -71 -119 -155q89 -16 194 -26v-20q-105 -10 -194 -26q59 -84 119 -155l-14 -14
q-71 60 -155 119q-16 -89 -26 -194h-20q-10 105 -26 194z" />
    <glyph glyph-name="u1D400" unicode="&#x3c;&#x417;&#x421;&#x423;&#x3e;" horiz-adv-x="1000" 
d="M410 0h-276v701q158 -72 158 -321q0 -78 -20 -225h149l-5 193q-1 59 -9 159l-4 81q0 133 97 238q97 -105 97 -238l-4 -81q-8 -100 -9 -159l-5 -193h149q-20 147 -20 225q0 249 158 321v-701h-276q-30 -87 -90 -159q-60 72 -90 159z" />
    <glyph glyph-name="u1D401" unicode="&#x3c;&#x41f;&#x421;&#x3e;" horiz-adv-x="1000" 
d="M460.5 -222q-2.5 3 -0.5 13l9 29q2 5 2 14t-2 14l-52 152h-291v721q87 -41 131.5 -132.5t44.5 -212.5q0 -67 -11.5 -124t-37.5 -117q-6 -16 -6 -39q0 -14 1 -21h115q38 0 58.5 27t22.5 67q-26 -4 -26 19q0 6 1 10q12 60 21.5 141.5t9.5 151.5q0 72 -7.5 155.5
t-16.5 139.5h148q-9 -56 -16.5 -139.5t-7.5 -155.5q0 -70 9.5 -151.5t21.5 -141.5q1 -4 1 -10q0 -23 -26 -19q2 -40 22.5 -67t58.5 -27h115q1 7 1 21q0 23 -6 39q-26 60 -37.5 117t-11.5 124q0 121 44.5 212.5t131.5 132.5v-721h-291l-52 -152q-2 -5 -2 -14t2 -14l9 -29
q1 -3 1 -8q0 -8 -14 -8h-54q-10 0 -12.5 3z" />
    <glyph glyph-name="u1D402" unicode="&#x3c;&#x412;&#x41c;&#x421;&#x3e;" horiz-adv-x="1000" 
d="M314 59l-55 -13q21 -18 46 -27t48 -9q50 0 76 37q25 -54 71 -89q46 35 71 89q26 -37 76 -37q23 0 48 9t46 27l-55 13q124 25 256 147q-36 -104 -88 -166t-104 -90t-124 -53q-55 -20 -81 -33t-45 -37q-19 24 -45 37t-81 33q-72 25 -124 53t-104 90t-88 166
q132 -122 256 -147zM146 751h54v-69l-54 8v61zM210 762h38v-101l-38 6v95zM429 112q12 -80 71 -131q59 51 71 131h210v542q-67 -26 -100 -80.5t-33 -140.5q0 -61 16 -198h-108l6 145l3 57q5 125 5 174q0 43 -8 72t-22 49t-40 48q-26 -28 -40 -48t-22 -49t-8 -72
q0 -49 5 -174l3 -57l6 -145h-108q16 137 16 198q0 86 -33 140.5t-100 80.5v-542h210zM258 751h57v-87l-57 8v79zM325 762h38v-119l-38 5v114zM373 751h65q-27 14 -42 40t-15 58q0 49 34 82.5t85 33.5t85 -33.5t34 -82.5q0 -32 -15 -58t-42 -40h65v-97l-42 -7q-5 48 -21.5 78
t-50.5 65q21 4 34 20t13 39q0 26 -17 43t-43 17t-43 -17t-17 -43q0 -23 13 -39t34 -20q-34 -35 -50.5 -65t-21.5 -78l-42 7v97zM637 762h38v-114l-38 -5v119zM685 751h57v-79l-57 -8v87zM752 762h38v-95l-38 -6v101zM800 751h54v-61l-54 -8v69z" />
    <glyph glyph-name="u1D404" unicode="&#x3c;&#x421;&#x421;&#x41e;&#x3e;" horiz-adv-x="1000" 
d="M482 -163q-50 90 -93 194q-2 9 -9 9h-198v681q143 -46 187 -184t44 -296h174q0 158 44 296t187 184v-681h-198q-4 0 -9 -9q-43 -104 -93 -194q-1 -4 -6 -4h-24q-3 0 -6 4z" />
    <glyph glyph-name="u1D405" unicode="&#x3c;&#x41c;&#x41f;&#x3e;" horiz-adv-x="1000" 
d="M411 -1h-278v702q84 -38 134.5 -96t55.5 -123q-20 1 -33 -12.5t-13 -35.5q0 -124 -13 -281h156l-4 194q-4 108 -12 211q-1 11 -1 33q0 132 97 236q97 -104 97 -236q0 -22 -1 -33q-8 -103 -12 -211l-4 -194h156q-13 157 -13 281q0 22 -13 35.5t-33 12.5q5 65 55.5 123
t134.5 96v-702h-278q-28 -87 -89 -160q-61 73 -89 160z" />
    <glyph glyph-name="u1D406" unicode="&#x3c;&#x414;&#x428;&#x412;&#x3e;" horiz-adv-x="1000" 
d="M277 245v439q53 -24 74.5 -74.5t21.5 -121.5q0 -65 -12 -151h91l-3 132q-1 44 -7 128q-1 7 -1 21q0 78 59 143q59 -65 59 -143q0 -14 -1 -21q-6 -84 -7 -128l-3 -132h91q-12 86 -12 151q0 71 21.5 121.5t74.5 74.5v-440l118 222q-6 73 -47.5 144t-116.5 117.5t-177 46.5
t-177 -46.5t-116 -117.5t-47 -144zM153 625.5q47 87.5 136.5 146t210.5 58.5t210.5 -58.5t137 -146t49.5 -171.5l-397 -750l-396 750q2 84 49 171.5zM500 -176l221 416h-165q-16 -55 -56 -104q-40 49 -56 104h-164z" />
    <glyph glyph-name="u1D4D0" unicode="&#x3c;&#x28;&#x417;&#x421;&#x423;&#x29;&#x3e;" horiz-adv-x="1000" 
d="M201.5 78.5q-98.5 148.5 -98.5 333.5v348h794v-348q0 -185 -98.5 -333.5t-298.5 -226.5q-200 78 -298.5 226.5zM436 114q21 -61 64 -114q44 53 64 114h197v500q-62 -28 -87 -87t-25 -142q0 -59 14 -161h-107l4 138q1 69 8 150q1 8 1 22q0 97 -69 170q-77 -83 -68 -192
q7 -81 8 -150l4 -138h-107q14 102 14 161q0 83 -25 142t-87 87v-500h197z" />
    <glyph glyph-name="u1D4D1" unicode="&#x3c;&#x28;&#x41f;&#x421;&#x29;&#x3e;" horiz-adv-x="1000" 
d="M64.5 -28.5q-25.5 31.5 -25.5 73.5q0 24 11 49l372 809q12 24 32.5 39.5t45.5 15.5t46 -15.5t32 -39.5l372 -809q11 -25 11 -49q0 -42 -25.5 -73.5t-64.5 -31.5h-742q-39 0 -64.5 31.5zM454 112l29 -84q1 -3 1 -8t-1 -8l-5 -16l-1 -4q0 -5 8 -5h30q5 0 6.5 2t0.5 7l-5 16
q-1 3 -1 8t1 8l29 84h162v401q-49 -23 -73.5 -74t-24.5 -118q0 -37 6 -68.5t21 -65.5q5 -13 3 -33h-64q-21 0 -32 15t-13 37h4q14 0 10 16q-17 90 -17 163q0 40 4 86.5t9 77.5h-82q5 -31 9 -77.5t4 -86.5q0 -73 -17 -163l-1 -6q0 -12 15 -10q-2 -22 -13 -37t-32 -15h-64
l-1 11q0 13 4 22q15 34 21 65.5t6 68.5q0 67 -24.5 118t-73.5 74v-401h162z" />
    <glyph glyph-name="u1D4D2" unicode="&#x3c;&#x28;&#x412;&#x41c;&#x421;&#x29;&#x3e;" horiz-adv-x="1000" 
d="M241.5 -92.5q-116.5 67.5 -184 184t-67.5 258.5t67.5 258.5t184 184t258.5 67.5t258.5 -67.5t184 -184t67.5 -258.5t-67.5 -258.5t-184 -184t-258.5 -67.5t-258.5 67.5zM247 96.5q37 -44.5 74 -64.5t89 -38q38 -13 57 -22.5t33 -27.5q14 18 33 27.5t57 22.5q52 18 89 38
t74 64.5t63 118.5q-94 -87 -183 -105l39 -9q-30 -26 -67 -26q-36 0 -55 26q-16 -38 -50 -63q-34 25 -50 63q-19 -26 -55 -26q-37 0 -67 26l39 9q-89 18 -183 105q26 -74 63 -118.5zM286 555v49h-39v-43zM320 540v72h-27v-68zM449 148q9 -57 51 -94q42 37 51 94h150v387
q-95 -36 -95 -158q0 -49 11 -141h-77l4 103l1 26q5 95 5 139q0 45 -11.5 68.5t-38.5 52.5q-27 -29 -38.5 -52.5t-11.5 -68.5q0 -44 5 -139l1 -26l4 -103h-77q11 92 11 141q0 122 -95 158v-387h150zM368 542v62h-41v-56zM402 527v85h-27v-81zM439 530q3 34 15 55.5t36 46.5
q-15 3 -24 14.5t-9 27.5q0 19 12 31t31 12t31 -12t12 -31q0 -16 -9 -27.5t-24 -14.5q24 -25 36 -46.5t15 -55.5l30 5v69h-47q19 11 30 29t11 41q0 35 -24 59t-61 24t-61 -24t-24 -59q0 -23 11 -41t30 -29h-47v-69zM625 531v81h-27v-85zM673 548v56h-41v-62zM707 544v68h-27
v-72zM753 561v43h-39v-49z" />
    <glyph glyph-name="u1D4D3" unicode="&#x3c;&#x28;&#x414;&#x428;&#x412;&#x29;&#x3e;" horiz-adv-x="1000" 
d="M170 603q42 81 125.5 135t204.5 54t204.5 -54t125.5 -135t46 -163l-376 -720l-376 720q4 82 46 163zM445 241q17 -53 55 -97q38 44 55 97h168v428q-53 -24 -74.5 -74.5t-21.5 -121.5q0 -49 12 -137h-91l3 118q1 44 7 128q1 7 1 21q0 78 -59 143q-59 -65 -59 -143
q0 -14 1 -21q6 -84 7 -128l3 -118h-91q12 88 12 137q0 71 -21.5 121.5t-74.5 74.5v-428h168z" />
    <glyph glyph-name="u1D4D4" unicode="&#x3c;&#x28;&#x421;&#x421;&#x41e;&#x29;&#x3e;" horiz-adv-x="1000" 
d="M24 512l204 248h544l204 -248l-476 -762zM420 213q4 0 6 -6q30 -72 62 -129q2 -3 4 -3h16q3 0 4 3q32 57 62 129q2 6 6 6h132v454q-154 -50 -154 -320h-116q0 270 -154 320v-454h132z" />
    <glyph glyph-name="u1D4D5" unicode="&#x3c;&#x28;&#x41c;&#x41f;&#x29;&#x3e;" horiz-adv-x="1000" 
d="M241.5 -92.5q-116.5 67.5 -184 184t-67.5 258.5t67.5 258.5t184 184t258.5 67.5t258.5 -67.5t184 -184t67.5 -258.5t-67.5 -258.5t-184 -184t-258.5 -67.5t-258.5 67.5zM425 61q23 -73 75 -134q52 61 75 134h233v590q-71 -32 -113 -80.5t-46 -103.5q16 1 27 -10.5
t11 -29.5q0 -93 11 -236h-131l4 163q1 76 10 177q1 9 1 26q0 112 -82 200q-82 -88 -82 -200q0 -17 1 -26q9 -101 10 -177l4 -163h-131q11 143 11 236q0 18 11 29.5t27 10.5q-4 55 -46 103.5t-113 80.5v-590h233z" />
    <glyph glyph-name="u1F531" unicode="&#x3c;&#x28;&#x433;&#x435;&#x440;&#x431;&#x29;&#x3e;" horiz-adv-x="1000" 
d="M118.5 -73.5q-24.5 39.5 -24.5 84.5v856h812v-856q0 -45 -24.5 -84.5t-67.5 -58.5l-314 -138l-314 138q-43 19 -67.5 58.5zM367 0q9 -52 35.5 -96t66.5 -71q22 -15 31 -35q9 20 31 35q40 27 66.5 71t35.5 96h167v724q-66 -33 -108.5 -100t-52.5 -147l-26 -203l13 1
q20 0 35 -15.5t15 -34.5q0 -17 -12 -31t-29 -18l-31 -7q-79 152 -79 281q0 42 6 124q7 74 7 126q0 54 -38 99q-38 -45 -38 -99q0 -52 7 -126q6 -82 6 -124q0 -129 -79 -281l-31 7q-17 4 -29 18t-12 31q0 19 15 34.5t35 15.5l13 -1l-26 203q-10 80 -52.5 147t-108.5 100v-724
h167zM250 200h29q7 -26 25.5 -45.5t44.5 -26.5l23 -6q-9 -41 -9 -72h-113v150zM250 619q53 -62 61 -137l20 -167q-19 -11 -33 -28t-19 -37h-29v369zM421 112q23 -3 38.5 -21t15.5 -41h-63q0 32 9 62zM475 0v-106q-43 48 -56 106h56zM500 281q18 -61 54 -124q-30 -8 -54 -36
q-24 28 -54 36q36 63 54 124zM525 0h56q-13 -58 -56 -106v106zM540.5 91q15.5 18 38.5 21q9 -30 9 -62h-63q0 23 15.5 41zM651 128q26 7 44.5 26.5t25.5 45.5h29v-150h-113q0 31 -9 72zM689 482q8 75 61 137v-369h-29q-5 20 -19 37t-33 28z" />
    <glyph glyph-name="u1F532" unicode="&#x3c;&#x433;&#x435;&#x440;&#x431;&#x3e;" horiz-adv-x="1000" 
d="M500 -263l312 136q41 19 64.5 57t23.5 81v850h-800v-850q0 -43 23.5 -81t64.5 -57zM88 873h824v-862q0 -46 -26 -87.5t-70 -60.5l-316 -140l-316 140q-44 19 -70 60.5t-26 87.5v862zM367 0q9 -52 35.5 -96t66.5 -71q22 -15 31 -35q9 20 31 35q40 27 66.5 71t35.5 96h167
v724q-66 -33 -108.5 -100t-52.5 -147l-26 -203l13 1q20 0 35 -15.5t15 -34.5q0 -17 -12 -31t-29 -18l-31 -7q-79 152 -79 281q0 42 6 124q7 74 7 126q0 54 -38 99q-38 -45 -38 -99q0 -52 7 -126q6 -82 6 -124q0 -129 -79 -281l-31 7q-17 4 -29 18t-12 31q0 19 15 34.5
t35 15.5l13 -1l-26 203q-10 80 -52.5 147t-108.5 100v-724h167zM250 200h29q7 -26 25.5 -45.5t44.5 -26.5l23 -6q-9 -41 -9 -72h-113v150zM250 619q53 -62 61 -137l20 -167q-19 -11 -33 -28t-19 -37h-29v369zM421 112q23 -3 38.5 -21t15.5 -41h-63q0 32 9 62zM475 0v-106
q-43 48 -56 106h56zM500 281q18 -61 54 -124q-30 -8 -54 -36q-24 28 -54 36q36 63 54 124zM525 0h56q-13 -58 -56 -106v106zM540.5 91q15.5 18 38.5 21q9 -30 9 -62h-63q0 23 15.5 41zM651 128q26 7 44.5 26.5t25.5 45.5h29v-150h-113q0 31 -9 72zM689 482q8 75 61 137v-369
h-29q-5 20 -19 37t-33 28z" />
    <glyph glyph-name="u1F533" unicode="&#x3c;&#x442;&#x440;&#x438;&#x437;&#x443;&#x431;&#x3e;" horiz-adv-x="1000" 
d="M419 0h56v-106q-43 48 -56 106zM367 0q9 -52 35.5 -96t66.5 -71q22 -15 31 -35q9 20 31 35q40 27 66.5 71t35.5 96h167v724q-66 -33 -108.5 -100t-52.5 -147l-26 -203l13 1q20 0 35 -15.5t15 -34.5q0 -17 -12 -31t-29 -18l-31 -7q-79 152 -79 281q0 42 6 124q7 74 7 126
q0 54 -38 99q-38 -45 -38 -99q0 -52 7 -126q6 -82 6 -124q0 -129 -79 -281l-31 7q-17 4 -29 18t-12 31q0 19 15 34.5t35 15.5l13 -1l-26 203q-10 80 -52.5 147t-108.5 100v-724h167zM250 200h29q7 -26 25.5 -45.5t44.5 -26.5l23 -6q-9 -41 -9 -72h-113v150zM250 619
q53 -62 61 -137l20 -167q-19 -11 -33 -28t-19 -37h-29v369zM421 112q23 -3 38.5 -21t15.5 -41h-63q0 32 9 62zM500 281q18 -61 54 -124q-30 -8 -54 -36q-24 28 -54 36q36 63 54 124zM525 0h56q-13 -58 -56 -106v106zM540.5 91q15.5 18 38.5 21q9 -30 9 -62h-63q0 23 15.5 41
zM651 128q26 7 44.5 26.5t25.5 45.5h29v-150h-113q0 31 -9 72zM689 482q8 75 61 137v-369h-29q-5 20 -19 37t-33 28z" />
    <glyph glyph-name="f_f.liga" unicode="ff" horiz-adv-x="800" 
d="M146 37q8 24 10.5 71.5t2.5 144.5v237q-63 -5 -134 -27l9 90q8 0 36 -2q47 -4 92 -5q-43 46 -43 102q0 53 38.5 86t109.5 33q38 0 57 1.5t31 5.5v-40l22 -70q-62 23 -113 23q-34 0 -52.5 -17.5t-18.5 -42.5q0 -60 57 -77h258q-39 45 -39 98t39 86t110 33q40 0 58.5 1.5
t32.5 6.5v-41l22 -73q-63 26 -116 26q-34 0 -53 -17t-19 -43q0 -59 57 -77q57 0 93 3t72 11v-30l24 -75q-63 25 -193 31v-186q0 -118 3.5 -174t14 -84.5t34.5 -47.5q-46 2 -99 2q-45 0 -79 -2q18 15 26 39t10.5 71.5t2.5 144.5v236h-263v-185q0 -117 3.5 -173.5t14 -85
t33.5 -47.5q-45 2 -98 2q-45 0 -79 -2q18 15 26 39z" />
    <glyph glyph-name="f_t.liga" unicode="ft" horiz-adv-x="802" 
d="M517.5 26q-32.5 36 -31.5 104l2 359h-242v-185q0 -117 3.5 -173.5t14 -85t33.5 -47.5q-45 2 -98 2q-45 0 -79 -2q18 15 26 39t10.5 71.5t2.5 144.5v237q-63 -5 -134 -27l9 90q8 0 36 -2q47 -4 92 -5q-43 46 -43 102q0 53 38.5 86t109.5 33q40 0 59 1.5t33 6.5v-41l22 -73
q-63 26 -117 26q-34 0 -52.5 -17.5t-18.5 -42.5q0 -60 57 -77h239l52 130h46q-10 -71 -11 -130q58 0 94.5 2.5t72.5 11.5v-30l22 -71q-61 24 -191 28v-350q0 -41 17.5 -61t53.5 -20q62 0 105 34q-8 -46 -45 -75t-92 -29q-63 0 -95.5 36z" />
    <glyph glyph-name="t_f.liga" unicode="tf" horiz-adv-x="831" 
d="M188 26q-32 36 -31 104l1 360q-61 -4 -133 -26l9 89q8 0 36 -2q45 -4 87 -5l54 134h46q-10 -73 -10 -130h291q-38 44 -38 98q0 53 38.5 86t109.5 33q40 0 58.5 1.5t32.5 6.5v-41l22 -73q-62 26 -116 26q-34 0 -52.5 -17.5t-18.5 -42.5q0 -60 57 -77q56 0 92 3t73 11v-30
l23 -75q-61 25 -193 31v-186q0 -118 3.5 -174t14 -84.5t34.5 -47.5q-46 2 -99 2q-45 0 -79 -2q18 15 26 39t10.5 70.5t2.5 145.5v236h-295v-348q0 -41 17.5 -61t54.5 -20q61 0 104 34q-7 -46 -44 -75t-92 -29q-64 0 -96 36z" />
    <glyph glyph-name="uni04070407.liga" unicode="&#x407;&#x407;" horiz-adv-x="642" 
d="M100 47q9 29 12 89.5t3 193.5v40q0 133 -3 193.5t-12 89.5t-30 49q40 -2 88 -2h5q48 0 88 2q-21 -21 -30.5 -49.5t-12.5 -89.5t-3 -193v-40q0 -132 3 -193t12.5 -89.5t30.5 -49.5q-40 2 -88 2h-5q-48 0 -88 -2q21 20 30 49zM421 47q9 29 12 89.5t3 193.5v40
q0 133 -3 193.5t-12 89.5t-30 49q40 -2 88 -2h5q48 0 88 2q-21 -21 -30.5 -49.5t-12.5 -89.5t-3 -193v-40q0 -132 3 -193t12.5 -89.5t30.5 -49.5q-40 2 -88 2h-5q-48 0 -88 -2q21 20 30 49zM-21 872q24 21 45 42t42 45q21 -24 42 -45t45 -42q-46 -40 -87 -87q-40 47 -87 87z
M234 872q24 21 45 42t42 45q21 -24 42 -45t45 -42q-46 -40 -87 -87q-40 47 -87 87zM489 872q24 21 45 42t42 45q21 -24 42 -45t45 -42q-46 -40 -87 -87q-40 47 -87 87z" />
    <glyph glyph-name="uni04560457.liga" unicode="&#x456;&#x457;" horiz-adv-x="593" 
d="M95 37q8 24 10.5 70.5t2.5 145.5v25q0 99 -2.5 144.5t-12 70t-30.5 38.5q75 13 154 34q-22 -66 -22 -233v-79q0 -97 2.5 -144.5t10.5 -71.5t26 -39q-36 2 -77 2h-11q-41 0 -77 -2q18 15 26 39zM389 37q8 24 10.5 70.5t2.5 145.5v25q0 99 -2.5 144.5t-12 70t-30.5 38.5
q75 13 154 34q-22 -66 -22 -233v-79q0 -97 2.5 -144.5t10.5 -71.5t26 -39q-36 2 -77 2h-11q-41 0 -77 -2q18 15 26 39zM60 722q24 21 45 42t42 45q21 -24 42 -45t45 -42q-46 -40 -87 -87q-40 47 -87 87zM270 722q24 21 45 42t42 45q21 -24 42 -45t45 -42q-46 -40 -87 -87
q-40 47 -87 87zM480 722q24 21 45 42t42 45q21 -24 42 -45t45 -42q-46 -40 -87 -87q-40 47 -87 87z" />
    <glyph glyph-name="uni04570457.liga" unicode="&#x457;&#x457;" horiz-adv-x="593" 
d="M97 37q8 24 10.5 70.5t2.5 145.5v25q0 99 -2.5 144.5t-12 70t-30.5 38.5q75 13 154 34q-22 -66 -22 -233v-79q0 -97 2.5 -144.5t10.5 -71.5t26 -39q-36 2 -77 2h-11q-41 0 -77 -2q18 15 26 39zM387 37q8 24 10.5 70.5t2.5 145.5v25q0 99 -2.5 144.5t-12 70t-30.5 38.5
q75 13 154 34q-22 -66 -22 -233v-79q0 -97 2.5 -144.5t10.5 -71.5t26 -39q-36 2 -77 2h-11q-41 0 -77 -2q18 15 26 39zM-20 722q24 21 45 42t42 45q21 -24 42 -45t45 -42q-46 -40 -87 -87q-40 47 -87 87zM211 722q24 21 45 42t42 45q21 -24 42 -45t45 -42q-46 -40 -87 -87
q-40 47 -87 87zM444 722q24 21 45 42t42 45q21 -24 42 -45t45 -42q-46 -40 -87 -87q-40 47 -87 87z" />
    <glyph glyph-name="uni20190457.liga" unicode="&#x2019;&#x457;" horiz-adv-x="547" 
d="M113 551q-50 46 -78 67q45 41 90 92q42 -26 60 -49t18 -52q0 -41 -31 -95t-78 -101l-30 15q37 54 49 123zM344 37q8 24 10.5 70.5t2.5 145.5v25q0 99 -2.5 144.5t-12 70t-30.5 38.5q75 13 154 34q-22 -66 -22 -233v-79q0 -97 2.5 -144.5t10.5 -71.5t26 -39q-36 2 -77 2
h-11q-41 0 -77 -2q18 15 26 39zM217 722q24 21 45 42t42 45q21 -24 42 -45t45 -42q-46 -40 -87 -87q-40 47 -87 87zM426 722q24 21 45 42t42 45q21 -24 42 -45t45 -42q-46 -40 -87 -87q-40 47 -87 87z" />
    <glyph glyph-name=".notdef" horiz-adv-x="1000" 
d="M410 0h-276v701q158 -72 158 -321q0 -78 -20 -225h149l-5 193q-1 59 -9 159l-4 81q0 133 97 238q97 -105 97 -238l-4 -81q-8 -100 -9 -159l-5 -193h149q-20 147 -20 225q0 249 158 321v-701h-276q-30 -87 -90 -159q-60 72 -90 159z" />
    <glyph glyph-name=".null" horiz-adv-x="0" 
 />
    <glyph glyph-name="nonmarkingreturn" unicode="&#xd;" horiz-adv-x="220" 
 />
    <glyph glyph-name="space" unicode=" " horiz-adv-x="220" 
 />
    <glyph glyph-name="exclam" unicode="!" horiz-adv-x="324" 
d="M70 79q51 45 92 90q45 -49 91 -90q-45 -38 -91 -89q-43 47 -92 89zM235 718q-27 -88 -33 -279l-6 -195l-65 -8l-4 137q-4 117 -9 173t-16.5 85.5t-34.5 46.5q84 14 168 40z" />
    <glyph glyph-name="quotedbl" unicode="&#x22;" horiz-adv-x="412" 
d="M61 700h113q-22 -141 -32 -241h-49q-9 106 -32 241zM237 700h113q-22 -141 -32 -241h-49q-9 106 -32 241z" />
    <glyph glyph-name="numbersign" unicode="#" horiz-adv-x="656" 
d="M172 191h-114v66h114v186h-114v66h114v191h66v-191h181v191h65v-191h115v-66h-115v-186h115v-66h-115v-191h-65v191h-181v-191h-66v191zM419 257v186h-181v-186h181z" />
    <glyph glyph-name="dollar" unicode="$" horiz-adv-x="656" 
d="M170 20q-50 13 -64 13q-15 0 -30 -5v155q97 -100 217 -122v259q-66 24 -108 47.5t-69 62t-27 97.5q0 74 53 123t151 56v94h61v-93q13 0 77 -6q40 -5 70 -5q13 0 25 3v-39l29 -101q-102 64 -201 78v-246q75 -27 121.5 -51t76.5 -64t30 -101q0 -81 -62 -129.5t-166 -52.5
v-93h-61v95q-47 5 -123 25zM202 464.5q30 -27.5 91 -52.5v231h-1q-52 -2 -86 -29.5t-34 -73.5q0 -48 30 -75.5zM457 86.5q37 30.5 37 75.5q0 39 -17.5 63.5t-45.5 39.5t-77 33v-243q66 1 103 31.5z" />
    <glyph glyph-name="percent" unicode="%" horiz-adv-x="832" 
d="M79 392.5q-45 48.5 -45 130.5q0 83 48 133t128 50q76 0 121 -48.5t45 -129.5q0 -83 -48.5 -133.5t-127.5 -50.5q-76 0 -121 48.5zM140 428q25 -40 69 -40q41 0 63 31.5t22 90.5q0 71 -25 112t-69 41q-41 0 -63 -31.5t-22 -90.5q0 -73 25 -113zM563 700h65l-361 -700h-65z
M501 42.5q-45 48.5 -45 130.5q0 83 48 133t128 50q76 0 121 -48.5t45 -129.5q0 -83 -48.5 -133.5t-127.5 -50.5q-76 0 -121 48.5zM562 78q25 -40 69 -40q41 0 63 31.5t22 90.5q0 71 -25 112t-69 41q-41 0 -63 -31.5t-22 -90.5q0 -73 25 -113z" />
    <glyph glyph-name="ampersand" unicode="&#x26;" horiz-adv-x="800" 
d="M122 45.5q-72 56.5 -72 156.5q0 63 35.5 109.5t92.5 71.5t122 29l-225 294q102 -6 250 -6q78 0 152 4.5t102 13.5v-35l34 -106q-128 65 -358 65h-21l260 -342l19 -26q54 -69 73 -92q34 64 34 142q0 52 -18 96q48 1 74.5 -21.5t26.5 -78.5q0 -52 -18 -102t-53 -92
q46 -55 70 -77.5t54 -48.5q-20 1 -47 1q-21 0 -31 -1q-70 -3 -79 -4q-10 26 -38 67q-47 -35 -107 -54.5t-130 -19.5q-130 0 -202 56.5zM209.5 96q52.5 -43 136.5 -43q114 0 182 60q-31 42 -73 97l-109 142q-22 2 -32 2q-68 0 -112.5 -34.5t-44.5 -107.5t52.5 -116z" />
    <glyph glyph-name="quotesingle" unicode="'" horiz-adv-x="236" 
d="M61 700h113q-22 -141 -32 -241h-49q-9 106 -32 241z" />
    <glyph glyph-name="parenleft" unicode="(" horiz-adv-x="435" 
d="M162 94.5q-47 117.5 -47 256.5q0 138 47 255t130 194h63q-68 -79 -106.5 -195t-38.5 -252q0 -137 39.5 -255t108.5 -198h-66q-83 77 -130 194.5z" />
    <glyph glyph-name="parenright" unicode=")" horiz-adv-x="434" 
d="M273 605.5q47 -117.5 47 -256.5q0 -138 -47 -255t-130 -194h-63q68 79 106.5 195t38.5 252q0 137 -39.5 255t-108.5 198h66q83 -77 130 -194.5z" />
    <glyph glyph-name="asterisk" unicode="*" horiz-adv-x="444" 
d="M199 471l-138 -85l-28 54l143 69l-143 69l28 54l138 -85l-8 153h62l-8 -153l138 84l28 -54l-141 -68l141 -68l-28 -54l-138 84l8 -153h-62z" />
    <glyph glyph-name="plus" unicode="+" horiz-adv-x="616" 
d="M272 315h-207v70h207v215h72v-215h207v-70h-207v-215h-72v215z" />
    <glyph glyph-name="comma" unicode="," horiz-adv-x="307" 
d="M142 10q-50 46 -78 67q45 41 90 92q42 -26 60 -49t18 -52q0 -41 -31 -95t-78 -101l-30 15q37 54 49 123z" />
    <glyph glyph-name="hyphen" unicode="-" horiz-adv-x="492" 
d="M71 356h349v-72h-349v72z" />
    <glyph glyph-name="period" unicode="." horiz-adv-x="307" 
d="M62 79q51 45 92 90q45 -49 91 -90q-45 -38 -91 -89q-43 47 -92 89z" />
    <glyph glyph-name="slash" unicode="/" horiz-adv-x="405" 
d="M335 800h79l-345 -900h-77z" />
    <glyph glyph-name="zero" unicode="0" horiz-adv-x="695" 
d="M188 32.5q-64 42.5 -98.5 122.5t-34.5 190q0 112 36.5 194.5t104 126.5t159.5 44q88 0 152 -42.5t98.5 -122.5t34.5 -190q0 -111 -36.5 -193.5t-104.5 -127t-159 -44.5q-88 0 -152 42.5zM210 131.5q50 -81.5 142 -81.5q89 0 136.5 75t47.5 214q0 147 -51 229t-143 82
q-88 0 -135 -75t-47 -214q0 -148 50 -229.5z" />
    <glyph glyph-name="one" unicode="1" horiz-adv-x="409" 
d="M147.5 45q12.5 27 17 83t4.5 171v37v127q0 77 -5 105t-26 41.5t-81 30.5q115 37 215 77q-18 -85 -18 -286v-89q0 -138 4 -201t16.5 -92.5t40.5 -50.5q-46 2 -103 2t-103 -2q26 20 38.5 47z" />
    <glyph glyph-name="two" unicode="2" horiz-adv-x="558" 
d="M401.5 -3q-78.5 3 -175.5 3q-136 0 -202 -2q3 58 32.5 107.5t72 88.5t107.5 88q60 45 95 77t55.5 68.5t20.5 80.5q0 65 -39.5 103.5t-109.5 38.5q-64 0 -100 -36.5t-36 -90.5q0 -28 6.5 -52t20.5 -50q-54 4 -82.5 35.5t-28.5 85.5q0 41 27 79.5t80.5 63.5t129.5 25
q72 0 125 -23.5t82 -67t29 -101.5q0 -56 -33.5 -106.5t-80.5 -89.5t-113 -83q-74 -52 -112.5 -87.5t-50.5 -77.5h17q280 0 397 36l-27 -83v-39q-28 6 -106.5 9z" />
    <glyph glyph-name="three" unicode="3" horiz-adv-x="573" 
d="M151.5 7.5q-54.5 17.5 -88 51.5t-33.5 81q0 25 15.5 46.5t48.5 31.5q8 -78 58.5 -123t129.5 -45q66 0 105 37t39 95q0 74 -48 109t-111 35q-12 0 -46 -4v67q45 -5 55 -5q58 0 99.5 33.5t41.5 98.5q0 61 -41 98.5t-109 37.5q-70 0 -106 -36t-36 -99q0 -12 4 -42
q-41 4 -63 27.5t-22 60.5q0 34 26 68t79 56.5t129 22.5q72 0 126 -23.5t84 -65.5t30 -97q0 -58 -36 -100.5t-98 -63.5q68 -20 106 -65t38 -109q0 -57 -33.5 -101.5t-93 -69.5t-132.5 -25q-63 0 -117.5 17.5z" />
    <glyph glyph-name="four" unicode="4" horiz-adv-x="622" 
d="M379.5 33q8.5 19 13 53t6.5 97h-396l109 186q88 150 119 210.5t31 87.5q0 17 -14 34q46 -1 139 -1h56q45 0 85 2q-20 -20 -29 -49t-12 -89.5t-3 -193.5v-116q74 8 122 22l-22 -67v-39q-25 8 -99 10q3 -89 12 -124.5t32 -57.5q-39 2 -83 2h-4q-48 0 -87 -2q16 16 24.5 35z
M261 244q84 0 139 4v389h-68l-191 -393h120z" />
    <glyph glyph-name="five" unicode="5" horiz-adv-x="558" 
d="M146.5 6.5q-50.5 16.5 -81.5 49t-31 78.5q0 23 13 45t36 37q6 -78 54.5 -122t125.5 -44q71 0 113.5 43.5t42.5 112.5q0 77 -50.5 125t-139.5 48q-44 0 -84 -10.5t-70 -30.5v185q0 125 -2 189q14 -5 71.5 -8t138.5 -4q142 1 217 23l-25 -77v-40q-27 10 -96 14.5t-147 4.5
h-76l-10 -201q56 21 125 21q71 0 128 -27.5t89.5 -78t32.5 -117.5q0 -68 -33.5 -120.5t-94.5 -82t-140 -29.5q-56 0 -106.5 16.5z" />
    <glyph glyph-name="six" unicode="6" horiz-adv-x="629" 
d="M130 81.5q-75 91.5 -75 263.5q0 112 37.5 194.5t106 126.5t159.5 44q197 0 189 -165q-45 46 -102 71t-117 25q-61 0 -102.5 -38t-60.5 -105.5t-15 -154.5q34 45 87 70.5t114 25.5q70 0 124.5 -28.5t84.5 -78t30 -111.5q0 -66 -31 -118.5t-88 -82.5t-133 -30
q-133 0 -208 91.5zM215.5 107q47.5 -56 121.5 -56q49 0 83.5 22.5t51.5 59.5t17 79q0 68 -40.5 115t-116.5 47q-57 0 -105 -33t-64 -91q5 -87 52.5 -143z" />
    <glyph glyph-name="seven" unicode="7" horiz-adv-x="539" 
d="M159 113.5q48 81.5 107 195.5l163 315h-32q-248 0 -388 -35l31 95v34q55 -18 277 -18q126 0 212 5l-177 -383q-57 -125 -94 -214t-40 -110q-35 2 -67 2t-67 -2q27 34 75 115.5z" />
    <glyph glyph-name="eight" unicode="8" horiz-adv-x="644" 
d="M177.5 13.5q-62.5 23.5 -97.5 67t-35 99.5q0 60 43 105t118 69q-73 27 -109 67.5t-36 98.5q0 56 34 99.5t93.5 67t134.5 23.5t134.5 -23t92.5 -64.5t33 -93.5q0 -54 -39.5 -96t-109.5 -64q83 -26 124 -70t41 -112q0 -57 -36 -102t-99 -70t-143 -25q-81 0 -143.5 23.5z
M196.5 86q48.5 -37 136.5 -37q74 0 118 35.5t44 94.5q0 61 -44 96t-141 53q-77 -9 -119.5 -45t-42.5 -92q0 -68 48.5 -105zM199.5 440q41.5 -33 132.5 -48q69 11 109.5 44.5t40.5 81.5q0 63 -43.5 99.5t-120.5 36.5q-73 0 -116.5 -33.5t-43.5 -89.5q0 -58 41.5 -91z" />
    <glyph glyph-name="nine" unicode="9" horiz-adv-x="629" 
d="M499 618q75 -92 75 -264q0 -112 -37.5 -194t-106 -126t-159.5 -44q-196 0 -189 164q45 -45 102 -70t118 -25q85 0 131.5 72.5t46.5 192.5q0 21 -1 32q-34 -45 -86 -70t-114 -25q-70 0 -124.5 28.5t-85 78t-30.5 111.5q0 66 31 118.5t88 82.5t133 30q133 0 208 -92z
M180.5 372.5q40.5 -47.5 116.5 -47.5q58 0 106 33.5t63 91.5q-3 56 -25.5 101.5t-61 71.5t-87.5 26t-83.5 -22.5t-51.5 -59.5t-17 -79q0 -68 40.5 -115.5z" />
    <glyph glyph-name="colon" unicode=":" horiz-adv-x="307" 
d="M62 79q51 45 92 90q45 -49 91 -90q-45 -38 -91 -89q-43 47 -92 89zM62 470q51 45 92 90q45 -49 91 -90q-45 -38 -91 -89q-43 47 -92 89z" />
    <glyph glyph-name="semicolon" unicode=";" horiz-adv-x="307" 
d="M142 10q-50 46 -78 67q45 41 90 92q42 -26 60 -49t18 -52q0 -41 -31 -95t-78 -101l-30 15q37 54 49 123zM62 470q51 45 92 90q45 -49 91 -90q-45 -38 -91 -89q-43 47 -92 89z" />
    <glyph glyph-name="less" unicode="&#x3c;" horiz-adv-x="616" 
d="M551 520l-387 -169l387 -169v-75l-486 212v62l486 212v-73z" />
    <glyph glyph-name="equal" unicode="=" horiz-adv-x="616" 
d="M65 498h486v-70h-486v70zM65 272h486v-70h-486v70z" />
    <glyph glyph-name="greater" unicode="&#x3e;" horiz-adv-x="616" 
d="M65 180l387 169l-387 169v75l486 -212v-62l-486 -212v73z" />
    <glyph glyph-name="question" unicode="?" horiz-adv-x="530" 
d="M70 655v46q19 -9 37 -9t56 7q69 13 113 13q98 0 157.5 -42.5t59.5 -119.5q0 -59 -33.5 -102t-94.5 -85q-40 -27 -61.5 -51t-21.5 -53v-16h-60q-6 15 -6 32q0 51 60 102q70 63 92.5 98.5t22.5 71.5q0 47 -34 74t-98 27q-103 0 -219 -106zM253 169q45 -49 91 -90
q-45 -38 -91 -89q-43 47 -92 89q51 45 92 90z" />
    <glyph glyph-name="at" unicode="@" horiz-adv-x="849" 
d="M230 0.5q-85 45.5 -130.5 125.5t-45.5 179q0 110 51 196.5t141 135t202 48.5q97 0 176.5 -41t125 -113.5t45.5 -163.5q0 -65 -24.5 -118t-72 -84.5t-115.5 -31.5q-26 0 -51.5 -1.5t-31.5 -3.5q10 31 11 72q-20 -32 -56 -51t-80 -19q-58 0 -91.5 28t-33.5 74q0 70 69 99
t188 35v93h-42q-115 -2 -182 -41l21 66v29q17 -6 67 -8.5t96 -2.5q69 0 114 3q-6 -16 -7.5 -48.5t-1.5 -121.5v-19q0 -55 1.5 -83.5t6.5 -45.5q14 -2 22 -2q56 0 89 42.5t33 119.5q0 82 -37.5 145.5t-103.5 99t-149 35.5q-99 0 -168 -39.5t-104 -108.5t-35 -158
q0 -85 38.5 -154.5t110 -110t167.5 -40.5q69 0 123.5 20t87.5 52q1 -4 1 -12q0 -35 -28.5 -62.5t-80 -43t-118.5 -15.5q-113 0 -198 45.5zM345 200.5q18 -14.5 50 -14.5q44 0 74.5 24t37.5 64v44q-85 -1 -132.5 -16t-47.5 -63q0 -24 18 -38.5z" />
    <glyph glyph-name="A" unicode="A" horiz-adv-x="752" 
d="M98 -1l-26 1l-56 -2q27 28 57.5 90.5t87.5 222.5l28 78q35 101 50 153.5t15 85.5q0 45 -30 75q81 -2 156 -2t157 2q-16 -16 -24 -34t-8 -42q0 -33 14 -86t48 -154l25 -74q39 -116 64 -178t42 -90t38 -47l-62 2l-30 -1q-43 0 -90 -2q8 10 11.5 18t3.5 22q0 34 -30 134
h-348q-27 -94 -27 -128q0 -15 4 -24.5t12 -21.5q-43 2 -82 2zM520 234l-75 233l-56 169h-50l-55 -170l-75 -232h311z" />
    <glyph glyph-name="B" unicode="B" horiz-adv-x="719" 
d="M100 47q9 29 12 89.5t3 193.5v40q0 133 -3 193.5t-12 89.5t-30 49q40 -2 88 -2h199q135 0 209 -47.5t74 -133.5q0 -52 -35.5 -92.5t-100.5 -61.5q80 -18 121.5 -61.5t41.5 -107.5q0 -59 -35 -103.5t-99 -68.5t-151 -24h-224q-48 0 -88 -2q21 20 30 49zM208 74
q74 -14 160 -14q91 0 140 33t49 95q0 69 -53 101.5t-167 32.5q-64 0 -133 -7q0 -125 4 -241zM339 381q92 0 141.5 33.5t49.5 94.5q0 132 -188 132q-90 0 -138 -4v-254q84 -2 135 -2z" />
    <glyph glyph-name="C" unicode="C" horiz-adv-x="717" 
d="M226 33.5q-81 45.5 -126.5 126t-45.5 183.5q0 106 48 190t132.5 131.5t191.5 47.5q34 0 95 -7q33 -5 54 -5q29 0 52 9v-46l32 -117q-73 44 -107 62.5t-70 28.5t-82 10q-68 0 -121 -36.5t-83 -102t-30 -151.5q0 -91 33.5 -160.5t94 -108t139.5 -38.5q67 0 122.5 34
t110.5 100v-157q-20 1 -36 -2t-42 -11q-42 -13 -79 -19.5t-99 -6.5q-103 0 -184 45.5z" />
    <glyph glyph-name="D" unicode="D" horiz-adv-x="780" 
d="M100 47q9 29 12 89.5t3 193.5v40q0 133 -3 193.5t-12 89.5t-30 49q40 -2 88 -2h197q112 0 196 -43t129.5 -120.5t45.5 -179.5q0 -104 -47.5 -185t-131.5 -126.5t-190 -45.5h-199q-48 0 -88 -2q21 20 30 49zM209 73q63 -12 165 -12q72 0 126.5 35t84.5 98.5t30 147.5
q0 88 -33.5 155.5t-96.5 104.5t-150 37q-73 0 -130 -4v-305q0 -137 4 -257z" />
    <glyph glyph-name="E" unicode="E" horiz-adv-x="628" 
d="M213 0h-55q-48 0 -88 -2q21 20 30 49t12 89.5t3 193.5v40q0 133 -3 193.5t-12 89.5t-30 49q40 -2 88 -2h109q85 0 159 4.5t103 13.5v-34l36 -108q-90 63 -274 66h-86v-263q85 2 128 5.5t65 11.5t39 23q-2 -32 -2 -69t2 -69q-17 15 -39 23t-65 11.5t-128 5.5
q0 -163 5 -260q32 -2 53 -2q116 1 202.5 20t142.5 50l-37 -104v-39q-67 14 -358 14z" />
    <glyph glyph-name="F" unicode="F" horiz-adv-x="571" 
d="M100 47q9 29 12 89.5t3 193.5v40q0 133 -3 193.5t-12 89.5t-30 49q40 -2 88 -2h108q209 0 262 18v-34l35 -108q-89 62 -272 65h-86v-262q85 2 128 5t65 10.5t39 21.5l-1 -27q-1 -16 -1 -39t1 -39l1 -27q-17 14 -39 21.5t-65 10.5t-128 5q0 -128 3 -187.5t12 -87t30 -48.5
q-40 2 -88 2h-4q-48 0 -88 -2q21 20 30 49z" />
    <glyph glyph-name="G" unicode="G" horiz-adv-x="771" 
d="M226 33.5q-81 45.5 -126.5 126t-45.5 183.5q0 106 48 190t132.5 131.5t191.5 47.5q34 0 95 -7q33 -5 54 -5q31 0 58 11v-48l33 -121l-21 13q-64 39 -96.5 56.5t-67.5 26.5t-81 9q-68 0 -121 -36.5t-83 -102t-30 -151.5q0 -90 33.5 -160t94 -108.5t139.5 -38.5
q83 0 155 52q-2 92 -8 138t-20.5 69t-43.5 41l40 -1q29 -1 72 -1h9l58 1l32 1q-24 -19 -34.5 -46.5t-14 -84.5t-3.5 -184v-10q-16 2 -23 2q-16 0 -32.5 -4t-33.5 -9q-40 -12 -77.5 -19t-98.5 -7q-103 0 -184 45.5z" />
    <glyph glyph-name="H" unicode="H" horiz-adv-x="798" 
d="M100 47q9 29 12 89.5t3 193.5v40q0 133 -3 193.5t-12 89.5t-30 49q40 -2 88 -2h5q48 0 88 2q-21 -20 -30 -48t-12 -86t-4 -184h388q-1 126 -4 184t-12 86t-30 48q40 -2 88 -2h5q48 0 88 2q-21 -20 -30 -49t-12 -89.5t-3 -193.5v-40q0 -133 3 -193.5t12 -89.5t30 -49
q-40 2 -88 2h-5q-48 0 -88 -2q21 20 30 48t12 86t4 184h-388q1 -126 4 -184t12 -86t30 -48q-40 2 -88 2h-5q-48 0 -88 -2q21 20 30 49z" />
    <glyph glyph-name="I" unicode="I" horiz-adv-x="321" 
d="M100 47q9 29 12 89.5t3 193.5v40q0 133 -3 193.5t-12 89.5t-30 49q40 -2 88 -2h5q48 0 88 2q-21 -21 -30.5 -49.5t-12.5 -89.5t-3 -193v-40q0 -132 3 -193t12.5 -89.5t30.5 -49.5q-40 2 -88 2h-5q-48 0 -88 -2q21 20 30 49z" />
    <glyph glyph-name="J" unicode="J" horiz-adv-x="523" 
d="M143 -6.5q-26 5.5 -52 15.5q-33 11 -48 11q-12 0 -26 -3v158q45 -61 95 -90.5t97 -29.5q121 0 121 141v174q0 132 -3 193t-12 89.5t-30 49.5q40 -2 88 -2h5q47 0 88 2q-21 -21 -30.5 -49.5t-12.5 -89.5t-3 -193v-173q0 -97 -57 -153t-160 -56q-34 0 -60 5.5z" />
    <glyph glyph-name="K" unicode="K" horiz-adv-x="732" 
d="M100 47q9 29 12 89.5t3 193.5v40q0 133 -3 193.5t-12 89.5t-30 49q40 -2 88 -2h5q48 0 88 2q-21 -20 -30 -48t-12 -86.5t-4 -184.5h125l78 99q74 97 102 140t42 81q41 -2 78 -2q38 0 79 2q-91 -67 -205 -204l-78 -97l52 -84q74 -113 121 -177t71.5 -90t53.5 -53
q-45 2 -86 2q-42 0 -87 -2q-4 31 -27.5 74.5t-96.5 159.5l-57 85h-165q1 -126 4 -184.5t12 -86.5t30 -48q-40 2 -88 2h-5q-48 0 -88 -2q21 20 30 49z" />
    <glyph glyph-name="L" unicode="L" horiz-adv-x="606" 
d="M202 0h-44q-48 0 -88 -2q21 20 30 49t12 89.5t3 193.5v40q0 133 -3 193.5t-12 89.5t-30 49q40 -2 88 -2h5q48 0 88 2q-21 -21 -30.5 -49.5t-12.5 -89.5t-3 -193v-40q0 -165 5 -265q43 -5 94 -7q97 1 166 21t128 52l-38 -106v-39q-67 14 -358 14z" />
    <glyph glyph-name="M" unicode="M" horiz-adv-x="963" 
d="M98.5 47q9.5 29 13 89.5t4.5 193.5l1 215q0 39 -8 62t-24.5 42t-54.5 53q67 0 111.5 3.5t84.5 13.5l260 -414l247 400q28 -3 72 -5q48 0 88 2q-21 -21 -30.5 -49.5t-12.5 -89.5t-3 -193v-40q0 -132 3 -193t12.5 -89.5t30.5 -49.5q-40 2 -88 2h-5q-48 0 -88 -2
q21 20 30 49t12 89.5t3 193.5v264l-286 -426l-286 425v-239q0 -142 4 -207.5t15 -96t36 -52.5q-41 2 -92 2q-45 0 -82 -2q23 20 32.5 49z" />
    <glyph glyph-name="N" unicode="N" horiz-adv-x="809" 
d="M185 587v-233q0 -142 4 -207.5t15 -96t36 -52.5q-40 2 -91 2q-47 0 -86 -2q24 24 35 58.5t14.5 107.5t4.5 232v149q0 38 -8.5 61.5t-26 42t-58.5 53.5h40q50 0 85.5 2.5t71.5 10.5l411 -541v190q-1 134 -5.5 196t-15.5 91.5t-36 50.5q40 -2 91 -2q47 0 86 2
q-24 -24 -34.5 -58.5t-14 -108t-3.5 -231.5v-314h-20z" />
    <glyph glyph-name="O" unicode="O" horiz-adv-x="844" 
d="M227.5 33.5q-81.5 45.5 -127.5 126t-46 183.5q0 106 48.5 190t134.5 131.5t194 47.5q104 0 185.5 -45.5t127.5 -126t46 -183.5q0 -106 -48.5 -190t-134.5 -131.5t-194 -47.5q-104 0 -185.5 45.5zM199.5 197q32.5 -70 92 -108.5t136.5 -38.5q74 0 130.5 36.5t87.5 102.5
t31 153q0 91 -33 161t-92.5 108.5t-136.5 38.5q-74 0 -130 -36.5t-87 -102.5t-31 -153q0 -91 32.5 -161z" />
    <glyph glyph-name="P" unicode="P" horiz-adv-x="671" 
d="M100 47q9 29 12 89.5t3 193.5v40q0 133 -3 193.5t-12 89.5t-30 49q40 -2 88 -2h197q86 0 149.5 -25.5t97.5 -73t34 -111.5t-34 -114t-95.5 -77.5t-140.5 -27.5h-161q1 -103 5 -153.5t13 -75.5t28 -44q-40 2 -88 2h-5q-48 0 -88 -2q21 20 30 49zM327 328q200 0 200 155
q0 77 -53.5 117.5t-155.5 40.5q-61 0 -113 -5v-296q57 -12 122 -12z" />
    <glyph glyph-name="Q" unicode="Q" horiz-adv-x="835" 
d="M482 -101.5q-12 26.5 -54 89.5h-15q-104 0 -185.5 45.5t-127.5 126t-46 183.5q0 106 48.5 190t134.5 131.5t194 47.5q104 0 185.5 -45.5t127.5 -126t46 -183.5q0 -89 -34.5 -163.5t-97.5 -124.5t-146 -69q42 -47 75 -74.5t94 -69.5h-136l-49 -12q-2 28 -14 54.5z
M199.5 197q32.5 -70 92 -108.5t136.5 -38.5q74 0 130.5 36.5t87.5 102.5t31 153q0 91 -33 161t-92.5 108.5t-136.5 38.5q-74 0 -130 -36.5t-87 -102.5t-31 -153q0 -91 32.5 -161z" />
    <glyph glyph-name="R" unicode="R" horiz-adv-x="715" 
d="M100 47q9 29 12 89.5t3 193.5v40q0 133 -3 193.5t-12 89.5t-30 49q40 -2 88 -2h208q136 0 212.5 -50t76.5 -139q0 -71 -49 -123t-132 -71q106 -154 157.5 -216.5t93.5 -102.5q-44 2 -84 2q-41 0 -84 -2q-2 21 -10.5 42t-34 61t-84.5 127l-54 77h-169q1 -119 4.5 -176
t12.5 -84t29 -47q-40 2 -88 2h-5q-48 0 -88 -2q21 20 30 49zM338 360q108 0 157 34.5t49 109.5q0 66 -52.5 101.5t-152.5 35.5q-74 0 -134 -5v-266q60 -10 133 -10z" />
    <glyph glyph-name="S" unicode="S" horiz-adv-x="600" 
d="M223.5 -4.5q-38.5 7.5 -86.5 20.5q-50 13 -65 13t-30 -5v159q64 -65 136.5 -98t149.5 -33q63 0 99.5 31t36.5 76q0 41 -19 66.5t-49 40.5t-88 35q-24 8 -29 10q-74 27 -119 50t-75 64t-30 104q0 53 27.5 94.5t81.5 65t131 23.5q47 0 99 -7q11 -1 35 -3t42 -2q15 0 26 4
v-41l30 -103q-63 41 -129.5 63.5t-129.5 22.5q-55 0 -90.5 -27.5t-35.5 -75.5q0 -42 22 -68t56.5 -42.5t102.5 -40.5q77 -27 124 -51t78 -64.5t31 -103.5q0 -86 -67 -135.5t-182 -49.5q-45 0 -83.5 7.5z" />
    <glyph glyph-name="T" unicode="T" horiz-adv-x="645" 
d="M262.5 50q9.5 30 12.5 94.5t3 203.5v293h-11q-168 -4 -259 -69l36 110v36q27 -10 98 -14t149 -4h63q78 0 149 4t98 14v-36l36 -110q-91 65 -259 69h-10v-293q0 -141 3 -204.5t12 -94t30 -51.5q-40 2 -88 2h-5q-48 0 -88 -2q21 22 30.5 52z" />
    <glyph glyph-name="U" unicode="U" horiz-adv-x="796" 
d="M177 57.5q-74 69.5 -74 202.5v110q0 132 -3 193t-12.5 89.5t-30.5 49.5q41 -2 88 -2h8q49 0 89 2q-21 -21 -30.5 -49.5t-12.5 -89.5t-4 -193v-77q0 -238 204 -238q107 0 158.5 52t50.5 155v42q-1 158 -5 231.5t-16 108t-38 58.5q43 -2 97 -2q52 0 95 2
q-26 -24 -37.5 -58.5t-15 -106.5t-4.5 -233v-44q0 -132 -74.5 -202t-215.5 -70q-143 0 -217 69.5z" />
    <glyph glyph-name="V" unicode="V" horiz-adv-x="771" 
d="M246 29q7 16 7 38q0 32 -15 85t-52 160l-26 76q-39 113 -65.5 174.5t-43.5 88.5t-40 51q40 -2 87 -2h17q50 0 91 2q-12 -12 -17 -24t-5 -30q0 -28 13.5 -75.5t53.5 -172.5l20 -62l89 -271h67l63 194q23 73 39 119q41 123 56.5 178t15.5 86q0 18 -5.5 32t-16.5 27
q43 -3 94 -3h11q41 0 77 2q-23 -25 -40.5 -52t-43.5 -88.5t-65 -173.5l-27 -76q-37 -106 -52 -159t-15 -85q0 -22 7 -38.5t22 -32.5q-46 3 -105 3h-113q-58 0 -105 -3q15 16 22 32z" />
    <glyph glyph-name="W" unicode="W" horiz-adv-x="968" 
d="M180.5 145.5q-20.5 83.5 -24.5 101.5l-15 60l-17 72q-36 149 -62.5 221t-51.5 102q47 -2 90 -2q44 0 91 2q-20 -20 -20 -63q0 -36 12.5 -95t42.5 -181l9 -39l57 -229l199 449l206 -454l60 259l8 32q28 120 38 171t10 83q0 44 -23 67q44 -2 85 -2q39 0 83 2
q-20 -22 -35 -52t-34.5 -93t-47.5 -177l-20 -82q-43 -174 -67 -298q-50 0 -112 -10l-164 364l-152 -354q-49 0 -112 -10q-13 72 -33.5 155.5z" />
    <glyph glyph-name="X" unicode="X" horiz-adv-x="736" 
d="M239 325l20 33l-48 82q-84 139 -120 189t-62 73q42 -2 81 -2t81 2q2 -30 25.5 -79t79.5 -147l53 -92h56l52 89q57 99 80.5 148t27.5 81q38 -2 72 -2q33 0 71 2q-28 -26 -65 -73.5t-125 -184.5l-40 -62l28 -52q100 -174 142.5 -237t72.5 -95q-42 2 -81 2t-82 -2
q-2 31 -25.5 81.5t-80.5 148.5l-51 88h-85l-46 -85q-62 -113 -81 -157.5t-18 -75.5q-40 2 -78 2q-37 0 -78 -2q62 63 224 327z" />
    <glyph glyph-name="Y" unicode="Y" horiz-adv-x="721" 
d="M298 41q9 24 13 72.5t5 146.5l-101 161q-86 139 -131 195t-80 86q50 -2 97 -2t97 2q-14 -16 -14 -32q0 -21 19 -56t79 -131q5 -8 56 -91l36 -57l34 55l47 79q62 104 82 142t20 60q0 16 -15 31q46 -2 88 -2q41 0 87 2q-30 -19 -74.5 -76t-136.5 -205l-100 -159
q1 -98 4.5 -147.5t12.5 -74t28 -42.5q-40 2 -88 2h-5q-48 0 -88 -2q19 19 28 43z" />
    <glyph glyph-name="Z" unicode="Z" horiz-adv-x="646" 
d="M281 0q-54 0 -164 -2l-81 -1l415 646h-26q-244 -3 -365 -62l34 103v34q29 -9 111 -13.5t167 -4.5q140 0 239 5l-431 -645h39q136 0 238 19t167 51l-37 -104v-40q-57 14 -306 14z" />
    <glyph glyph-name="bracketleft" unicode="[" horiz-adv-x="435" 
d="M298 -101.5q-57 1.5 -161 1.5h-19q5 20 8.5 111.5t3.5 218.5v240q0 127 -3.5 218.5t-8.5 111.5h19q104 0 161 1.5t69 6.5l1 -9l6 -49l1 -13q-10 4 -56 7.5t-107 4.5v-798q61 1 107 4.5t56 7.5l-1 -13l-6 -49l-1 -9q-12 5 -69 6.5z" />
    <glyph glyph-name="backslash" unicode="\" horiz-adv-x="400" 
d="M334 -100l-345 900h79l343 -900h-77z" />
    <glyph glyph-name="bracketright" unicode="]" horiz-adv-x="434" 
d="M136 801.5q57 -1.5 161 -1.5h20q-5 -20 -8.5 -111.5t-3.5 -218.5v-240q0 -127 3.5 -218.5t8.5 -111.5h-20q-104 0 -161 -1.5t-69 -6.5l-1 9l-5 49l-1 13q10 -4 56 -7.5t106 -4.5v798q-60 -1 -106 -4.5t-56 -7.5l1 13l5 49l1 9q12 -5 69 -6.5z" />
    <glyph glyph-name="asciicircum" unicode="^" horiz-adv-x="616" 
d="M273 700h70l212 -290h-84l-164 224l-165 -224h-81z" />
    <glyph glyph-name="underscore" unicode="_" horiz-adv-x="576" 
d="M67 72h442v-72h-442v72z" />
    <glyph glyph-name="a" unicode="a" horiz-adv-x="619" 
d="M433 99q-30 -50 -84.5 -79.5t-120.5 -29.5q-88 0 -138.5 42t-50.5 111q0 105 107.5 145.5t281.5 48.5v157h-78q-172 -1 -269 -61l31 95v35q26 -7 98.5 -10t146.5 -3q109 0 166 5q-6 -24 -8 -73.5t-2 -184.5v-27q0 -98 3 -144t12 -70.5t30 -38.5q-76 -13 -140 -30
q12 39 15 112zM168.5 84q28.5 -25 79.5 -25q77 0 127 47t53 124v44q-85 0 -145.5 -8t-101.5 -35t-41 -81q0 -41 28.5 -66z" />
    <glyph glyph-name="b" unicode="b" horiz-adv-x="697" 
d="M101 83.5q4 48.5 4 164.5l-1 202q0 99 -2.5 144.5t-12 70t-30.5 38.5q75 13 154 34q-22 -64 -22 -227v-50q35 48 86 74t114 26q75 0 134 -35.5t92 -99.5t33 -145q0 -83 -35.5 -149.5t-98.5 -104t-142 -37.5q-65 0 -116 26.5t-85 75.5q-14 -28 -35.5 -57.5t-42.5 -50.5
l-12 3q14 49 18 97.5zM247 101.5q48 -50.5 123 -50.5q51 0 90 27t61 76t22 113q0 67 -23 118.5t-64 80t-94 28.5q-71 0 -117 -48.5t-53 -132.5v-75q7 -86 55 -136.5z" />
    <glyph glyph-name="c" unicode="c" horiz-adv-x="576" 
d="M174.5 28q-63.5 38 -95.5 101.5t-32 137.5q0 77 35.5 144t103 108t158.5 41q21 0 71 -6l40 -3q20 0 42 9v-43l28 -98q-71 47 -113 64.5t-87 17.5q-56 0 -96 -29.5t-60 -77.5t-20 -102q0 -59 23.5 -111.5t70 -85.5t112.5 -33q64 0 112 28t93 81q1 -46 -26 -88t-80 -67.5
t-127 -25.5q-89 0 -152.5 38z" />
    <glyph glyph-name="d" unicode="d" horiz-adv-x="696" 
d="M510 95q-34 -50 -86.5 -78t-118.5 -28q-75 0 -133.5 35.5t-91.5 99.5t-33 145q0 84 35.5 150t98.5 103.5t142 37.5q58 0 104.5 -22t78.5 -63q-1 86 -4 128t-12 64.5t-29 35.5q72 12 153 34q-22 -66 -22 -233v-234q0 -99 2.5 -144.5t12 -70t30.5 -38.5q-82 -14 -141 -30
q11 43 14 108zM177 163.5q23 -51.5 63.5 -79.5t93.5 -28q71 0 117.5 48t53.5 130v75q-7 86 -55.5 138t-122.5 52q-51 0 -90.5 -27.5t-61 -76.5t-21.5 -113q0 -67 23 -118.5z" />
    <glyph glyph-name="e" unicode="e" horiz-adv-x="653" 
d="M189 24.5q-66 34.5 -104 97.5t-38 145q0 85 37.5 152t102.5 104t146 37q86 0 149 -38t95.5 -108.5t28.5 -164.5h-458q11 -86 68.5 -134t147.5 -48q57 0 109.5 19.5t92.5 54.5q-1 -43 -32 -77.5t-83 -54t-114 -19.5q-82 0 -148 34.5zM504 315q-7 85 -56 135.5t-124 50.5
q-78 0 -127 -52.5t-53 -142.5z" />
    <glyph glyph-name="f" unicode="f" horiz-adv-x="450" 
d="M146 37q8 24 10.5 71.5t2.5 144.5v237q-63 -5 -134 -27l9 90q17 0 41 -3q43 -4 87 -5q-43 48 -43 103q0 53 38.5 86t109.5 33q40 0 59 1.5t33 6.5v-41l22 -73q-63 26 -117 26q-34 0 -52.5 -17.5t-18.5 -42.5q0 -60 57 -77q57 0 93 3t72 11v-30l24 -75q-63 25 -193 31
v-186q0 -117 3.5 -173.5t14 -85t33.5 -47.5q-45 2 -98 2h-4q-41 0 -75 -2q18 15 26 39z" />
    <glyph glyph-name="g" unicode="g" horiz-adv-x="655" 
d="M48 -53q0 40 26 67.5t72 41.5q-25 22 -25 56q0 56 59 82q-56 24 -87.5 68.5t-31.5 103.5q0 58 31 102t87.5 68.5t131.5 24.5q38 0 78 -8q28 -6 44 -6q38 0 86.5 6.5t93.5 20.5v-36l20 -67q-55 19 -152 22q37 -23 55.5 -56.5t18.5 -73.5q0 -56 -30 -99.5t-86 -68.5
t-131 -25q-20 0 -52 4q-33 -4 -44.5 -15t-11.5 -28t17.5 -27t53.5 -10h157q93 0 139 -30.5t46 -86.5q0 -73 -78 -115t-222 -42q-265 0 -265 127zM191.5 -99q51.5 -22 151.5 -22q96 0 144 23.5t48 58.5q0 29 -27 41.5t-104 12.5h-112q-49 0 -85 9q-32 -7 -49.5 -22.5
t-17.5 -38.5q0 -40 51.5 -62zM200 264q41 -39 112 -39q68 0 106.5 36t38.5 99q0 68 -41.5 107t-112.5 39q-67 0 -105.5 -36t-38.5 -99q0 -68 41 -107z" />
    <glyph glyph-name="h" unicode="h" horiz-adv-x="697" 
d="M93 37q8 24 11 71.5t3 144.5v197q0 99 -2.5 144.5t-12 70t-30.5 38.5q72 12 153 34q-21 -66 -21 -227v-50q32 48 85.5 74.5t119.5 26.5q96 0 149 -54t52 -150v-104q0 -99 2.5 -145.5t10.5 -70.5t26 -39q-36 2 -78 2h-13q-42 0 -77 -2q18 15 26 39t10.5 71.5t2.5 144.5v81
q0 73 -38 115t-105 42q-77 0 -124 -51t-49 -139v-48q0 -99 2.5 -145.5t10.5 -70.5t26 -39q-36 2 -78 2h-10q-42 0 -78 -2q18 15 26 39z" />
    <glyph glyph-name="i" unicode="i" horiz-adv-x="303" 
d="M95 37q8 24 10.5 70.5t2.5 145.5v25q0 99 -2.5 144.5t-12 70t-30.5 38.5q75 13 154 34q-22 -66 -22 -233v-79q0 -97 2.5 -144.5t10.5 -71.5t26 -39q-36 2 -77 2h-11q-41 0 -77 -2q18 15 26 39zM62 722q24 21 45 42t42 45q21 -24 42 -45t45 -42q-46 -40 -87 -87
q-40 47 -87 87z" />
    <glyph glyph-name="j" unicode="j" horiz-adv-x="299" 
d="M90.5 -111.5q16.5 56.5 16.5 170.5v219q0 98 -3 144t-12 70.5t-30 38.5q72 12 153 34q-22 -66 -22 -233v-82q0 -44 4 -134q4 -94 4 -138q0 -83 -38.5 -122t-117.5 -41q29 17 45.5 73.5zM60 722q24 21 45 42t42 45q21 -24 42 -45t45 -42q-46 -40 -87 -87q-40 47 -87 87z
" />
    <glyph glyph-name="k" unicode="k" horiz-adv-x="625" 
d="M93 37q8 24 11 71.5t3 144.5v197q0 99 -2.5 144.5t-12 70t-30.5 38.5q72 12 153 34q-21 -63 -21 -233v-197h96l61 73q55 72 76 106t33 66q38 -2 74 -2q35 0 73 2q-32 -23 -68.5 -56t-102.5 -111l-61 -72l57 -85q56 -82 91 -126.5t49.5 -59t47.5 -43.5q-53 2 -82 1
q-40 0 -83 -2q-4 30 -22 64.5t-75 120.5l-42 60h-122q0 -93 2.5 -138t10.5 -68.5t26 -38.5q-36 2 -78 2h-10q-42 0 -78 -2q18 15 26 39z" />
    <glyph glyph-name="l" unicode="l" horiz-adv-x="305" 
d="M98 37q8 24 11 71.5t3 144.5v197q0 98 -3 144t-12 70.5t-30 38.5q72 12 153 34q-22 -66 -22 -233v-251q0 -97 3 -144.5t11 -71.5t26 -39q-36 2 -78 2h-10q-42 0 -78 -2q18 15 26 39z" />
    <glyph glyph-name="m" unicode="m" horiz-adv-x="1027" 
d="M93 37q8 24 11 71.5t3 144.5v27q0 99 -2.5 144.5t-12 70t-30.5 38.5q82 14 141 30q-9 -34 -14 -100q28 46 76 72t108 26q62 0 104.5 -25t64.5 -72q30 46 79.5 71.5t110.5 25.5q95 0 147 -49.5t52 -144.5l-1 -114q0 -99 2.5 -145.5t10.5 -70.5t26 -39q-36 2 -77 2h-13
q-42 0 -78 -2q18 15 26 39t10.5 70.5t2.5 145.5v91q0 71 -31.5 109t-92.5 38q-73 0 -113 -46.5t-43 -134.5v-57q0 -97 3 -144.5t11 -71.5t26 -39q-36 2 -78 2h-10q-42 0 -78 -2q18 15 26 39t11 71.5t3 144.5v91q0 147 -125 147q-71 0 -112.5 -48.5t-42.5 -133.5v-56
q0 -99 2.5 -145.5t10.5 -70.5t26 -39q-36 2 -78 2h-10q-42 0 -78 -2q18 15 26 39z" />
    <glyph glyph-name="n" unicode="n" horiz-adv-x="697" 
d="M93 37q8 24 11 71.5t3 144.5v27q0 99 -2.5 144.5t-12 70t-30.5 38.5q82 14 141 30q-11 -35 -14 -111q31 51 86 80t124 29q96 0 149 -54t52 -150v-104q0 -99 2.5 -145.5t10.5 -70.5t26 -39q-36 2 -78 2h-13q-42 0 -77 -2q18 15 26 39t10.5 71.5t2.5 144.5v81q0 73 -38 115
t-105 42q-77 0 -124 -51t-49 -139v-48q0 -99 2.5 -145.5t10.5 -70.5t26 -39q-36 2 -78 2h-10q-42 0 -78 -2q18 15 26 39z" />
    <glyph glyph-name="o" unicode="o" horiz-adv-x="697" 
d="M188.5 25.5q-66.5 35.5 -104 99t-37.5 145.5q0 83 40 149.5t110.5 103.5t158.5 37q86 0 152.5 -35.5t104 -99t37.5 -145.5q0 -83 -40 -149.5t-110.5 -103.5t-158.5 -37q-86 0 -152.5 35.5zM179 162.5q25 -53.5 70.5 -83t104.5 -29.5q56 0 98.5 27t66.5 75.5t24 112.5
q0 69 -25 122.5t-70.5 83t-104.5 29.5q-56 0 -98.5 -27t-66.5 -75.5t-24 -112.5q0 -69 25 -122.5z" />
    <glyph glyph-name="p" unicode="p" horiz-adv-x="699" 
d="M93 -133q8 24 11 71.5t3 144.5v197q0 99 -2.5 144.5t-12 70t-30.5 38.5q82 14 141 30q-11 -36 -14 -108q33 50 86 78t118 28q75 0 134 -35.5t92 -99.5t33 -145q0 -84 -35.5 -150t-98.5 -103.5t-142 -37.5q-58 0 -104.5 22t-78.5 63q1 -86 6 -132.5t15.5 -71.5t31.5 -43
q-40 2 -87 2h-15q-42 0 -77 -2q18 15 26 39zM248.5 102.5q48.5 -51.5 122.5 -51.5q51 0 90.5 27.5t61.5 76.5t22 113q0 67 -23 118.5t-64 79.5t-94 28q-71 0 -117 -48t-53 -132l-1 -72q7 -88 55.5 -139.5z" />
    <glyph glyph-name="q" unicode="q" horiz-adv-x="693" 
d="M485 -132q12 24 16 70t5 142v9q-35 -48 -86 -73.5t-115 -25.5q-75 0 -133.5 35.5t-91.5 99t-33 145.5q0 83 35.5 149.5t98.5 104t142 37.5q65 0 116 -26.5t84 -75.5q15 28 36.5 57.5t42.5 50.5l11 -3q-14 -49 -17.5 -97.5t-3.5 -164.5v-219q0 -99 2.5 -145.5t10.5 -70.5
t26 -39q-32 2 -76 2q-58 0 -108 -2q26 16 38 40zM177 163.5q23 -51.5 63.5 -79.5t93.5 -28q72 0 118 48.5t53 132.5v73q-7 86 -55.5 137.5t-122.5 51.5q-51 0 -90.5 -27.5t-61 -76.5t-21.5 -113q0 -67 23 -118.5z" />
    <glyph glyph-name="r" unicode="r" horiz-adv-x="467" 
d="M93 37q8 24 11 71.5t3 144.5v27q0 99 -2.5 144.5t-12 70t-30.5 38.5q82 14 141 30q-12 -41 -15 -119q26 51 73 81t104 33q21 2 35 4.5t30 9.5v-42l28 -87q-25 15 -63 26t-66 11q-33 0 -63 -19.5t-50 -56t-23 -83.5v-47q0 -106 3.5 -156.5t14 -76.5t33.5 -43q-37 2 -80 2
h-21q-41 0 -76 -2q18 15 26 39z" />
    <glyph glyph-name="s" unicode="s" horiz-adv-x="543" 
d="M113 32q-63 42 -75 124q54 -51 118 -75t131 -24q53 0 86 20t33 55q0 30 -18 47.5t-43 26.5t-85 27q-66 19 -106 37.5t-65.5 52.5t-25.5 89q0 67 54 109t155 42q36 0 80 -6q32 -4 44 -4q24 0 46 11v-46l27 -97q-55 38 -114 59.5t-108 21.5q-44 0 -73 -20.5t-29 -57.5
q0 -31 19.5 -49.5t49 -29t99.5 -30.5q57 -16 96 -34.5t64 -51.5t25 -84q0 -71 -57.5 -113t-152.5 -42q-112 0 -175 42z" />
    <glyph glyph-name="t" unicode="t" horiz-adv-x="473" 
d="M188 26q-32 36 -31 104l1 360q-61 -4 -133 -26l9 89q8 0 36 -2q45 -4 87 -5l54 134h46q-10 -73 -10 -130q58 0 94 2.5t73 11.5v-30l22 -71q-61 24 -192 28v-350q0 -41 17.5 -61t54.5 -20q61 0 104 34q-7 -46 -44 -75t-92 -29q-64 0 -96 36z" />
    <glyph glyph-name="u" unicode="u" horiz-adv-x="694" 
d="M506 99q-30 -52 -82.5 -80.5t-119.5 -28.5q-102 0 -156 53t-53 157l2 78q0 99 -2.5 144.5t-12 70t-30.5 38.5q75 13 154 34q-22 -66 -22 -233v-126q0 -70 38.5 -108.5t106.5 -38.5q76 0 122.5 52t49.5 138v48q0 97 -3 144.5t-11 71.5t-26 39q36 -2 78 -2h10q42 0 78 2
q-18 -15 -26 -39t-11 -71.5t-3 -144.5v-27q0 -99 2.5 -144.5t12 -70t30.5 -38.5q-82 -14 -141 -30q12 42 15 112z" />
    <glyph glyph-name="v" unicode="v" horiz-adv-x="628" 
d="M215.5 109.5q-21.5 57.5 -62.5 155.5l-16 35q-56 132 -84 182.5t-48 69.5q43 -2 83 -2q39 0 82 2q-5 -12 -5 -25q0 -29 20 -90t71 -186l73 -181l95 237q62 155 62 213q0 14 -4 32q37 -2 71 -2t71 2q-18 -17 -45 -67t-85 -187l-23 -51l-14 -31q-39 -94 -55 -134t-27 -83
q-54 -1 -116 -14q-22 67 -43.5 124.5z" />
    <glyph glyph-name="w" unicode="w" horiz-adv-x="836" 
d="M139 215l-22 87q-31 125 -49.5 176t-36.5 74q39 -2 76 -2q35 0 75 2q-13 -10 -13 -44q0 -32 10 -81.5t30 -134.5l48 -194l172 352l174 -348l46 200q14 64 23 113.5t9 87.5q0 37 -11 49q35 -2 67 -2t68 2q-18 -26 -36 -76t-50 -173l-23 -88l-6 -24q-32 -134 -42 -193
q-43 1 -89 -6l-144 290l-138 -284q-43 1 -88 -6q-15 88 -50 223z" />
    <glyph glyph-name="x" unicode="x" horiz-adv-x="622" 
d="M76 70.5q35 45.5 119 177.5l19 30l-44 70q-65 105 -96 145t-53 59q39 -2 76 -2q35 0 74 2q-3 -18 8.5 -46t46.5 -87l67 -113h48l43 69q45 77 63.5 115.5t19.5 61.5q35 -2 66 -2l22 -1q5 0 45 2q-23 -20 -53.5 -57.5t-99.5 -141.5l-38 -57l33 -55q101 -166 131.5 -202
t34.5 -40q-38 2 -73 2q-36 0 -74 -2q1 24 -17 64t-62 113l-40 67h-73l-36 -64q-43 -76 -59.5 -115t-16.5 -65q-37 2 -71 2t-72 -2q27 27 62 72.5z" />
    <glyph glyph-name="y" unicode="y" horiz-adv-x="631" 
d="M238.5 -110.5q23.5 30.5 50.5 90.5l-145 320q-59 132 -89 183.5t-50 67.5q42 0 56 1h27q29 0 83 5q-6 -13 -6 -31q0 -27 16.5 -75.5t56.5 -141.5l101 -233l92 231q35 89 49 138t14 76q0 16 -5 31q36 -2 69 -2t69 2q-18 -17 -44.5 -67.5t-82.5 -186.5l-105 -254
q-40 -96 -54 -140t-15 -76q-38 2 -74 2q-35 0 -74 -2q37 31 60.5 61.5z" />
    <glyph glyph-name="z" unicode="z" horiz-adv-x="545" 
d="M391.5 -3q-73.5 3 -150.5 3q-68 0 -102 -1l-103 -1l321 498h-8q-104 -1 -173.5 -15.5t-123.5 -40.5l30 91v37q44 -18 224 -18q115 0 202 4l-336 -498h19q209 3 324 63l-28 -86v-45q-22 6 -95.5 9z" />
    <glyph glyph-name="braceleft" unicode="{" horiz-adv-x="435" 
d="M174 -67q-39 33 -39 104q0 23 4 46.5t12 55.5q1 5 8 36.5t7 59.5q0 86 -84 86h-31v58h31q84 0 84 86q0 28 -7 59.5t-8 36.5q-8 32 -12 55.5t-4 46.5q0 69 41.5 103t125.5 34h63l7 -65q-50 13 -78 13q-74 0 -74 -85q0 -33 12 -101q1 -7 6 -39t5 -60q0 -45 -21 -73t-59 -40
q38 -12 59 -40t21 -73q0 -28 -5 -60t-6 -39q-12 -68 -12 -101q0 -85 74 -85q28 0 78 13l-7 -65h-63q-89 0 -128 33z" />
    <glyph glyph-name="bar" unicode="|" horiz-adv-x="310" 
d="M118 800h74v-900h-74v900z" />
    <glyph glyph-name="braceright" unicode="}" horiz-adv-x="434" 
d="M260.5 767q39.5 -33 39.5 -104q0 -23 -4 -46.5t-12 -55.5t-12 -53.5t-4 -42.5q0 -86 84 -86h32v-58h-32q-84 0 -84 -86q0 -21 4 -42.5t12 -53.5t12 -55.5t4 -46.5q0 -69 -42 -103t-126 -34h-62l-7 65q49 -13 77 -13q75 0 75 85q0 33 -12 101q-1 7 -6 39t-5 60q0 45 21 73
t59 40q-38 12 -59 40t-21 73q0 28 5 60t6 39q12 68 12 101q0 85 -75 85q-28 0 -77 -13l7 65h62q89 0 128.5 -33z" />
    <glyph glyph-name="asciitilde" unicode="~" horiz-adv-x="616" 
d="M342.5 282.5q-26.5 14.5 -54.5 40.5q-26 23 -42.5 33t-39.5 10q-38 0 -54 -21t-20 -75h-68q3 78 40.5 120t102.5 42q40 0 65 -13.5t56 -40.5q27 -24 43 -34t40 -10q38 0 54 21t19 75h69q-4 -78 -41 -120t-102 -42q-41 0 -67.5 14.5z" />
    <glyph glyph-name="uni00A0" unicode="&#xa0;" horiz-adv-x="220" 
 />
    <glyph glyph-name="exclamdown" unicode="&#xa1;" horiz-adv-x="322" 
d="M251 471q-51 -45 -92 -90q-45 49 -91 90q45 38 91 89q43 -47 92 -89zM119 111l6 195l65 8l4 -137q4 -117 9 -173t16.5 -85.5t34.5 -46.5q-84 -14 -168 -40q27 88 33 279z" />
    <glyph glyph-name="cent" unicode="&#xa2;" horiz-adv-x="656" 
d="M194 114.5q-56 39.5 -84.5 100.5t-28.5 130q0 70 29.5 132.5t86 105t133.5 52.5v95h61v-92l57 -5q38 -4 40 -4q22 0 42 8v-42l27 -96q-58 39 -94.5 56.5t-71.5 22.5v-439q63 1 109.5 28.5t91.5 80.5q1 -42 -22.5 -81.5t-69 -66t-109.5 -31.5v-99h-61v99q-80 6 -136 45.5z
M218 229.5q39 -62.5 112 -81.5v429q-72 -11 -111.5 -71t-39.5 -138q0 -76 39 -138.5z" />
    <glyph glyph-name="sterling" unicode="&#xa3;" horiz-adv-x="656" 
d="M438 -3.5q-102 3.5 -218 3.5q-119 0 -180 -2l-4 79q38 -9 82 -14q36 29 48.5 59.5t12.5 73.5q0 49 -23 118h-115v59h93q-14 47 -21 79.5t-7 69.5q0 52 26.5 95t76 68.5t115.5 25.5q27 0 93 -6q50 -4 54 -4q18 0 40 7v-41l28 -101q-81 49 -130 67t-102 18
q-50 0 -77.5 -30.5t-27.5 -82.5q0 -39 5.5 -71.5t19.5 -93.5h184v-59h-172q8 -54 8 -88q0 -48 -10 -89t-35 -78h43q119 1 203 16.5t161 41.5l-33 -92v-39q-36 7 -138 10.5z" />
    <glyph glyph-name="currency" unicode="&#xa4;" horiz-adv-x="656" 
d="M42 114l79 80q-51 62 -51 152t54 157l-82 83l46 44l82 -84q70 50 166 50q88 0 154 -44l79 79l46 -46l-77 -77q51 -65 51 -153q0 -93 -55 -159l81 -81l-46 -46l-84 84q-68 -48 -162 -48q-92 0 -156 46l-79 -81zM183.5 254q21.5 -46 61 -71.5t89.5 -25.5q72 0 117.5 51
t45.5 134q0 59 -21.5 105t-61 71.5t-89.5 25.5q-73 0 -118 -51t-45 -134q0 -59 21.5 -105z" />
    <glyph glyph-name="yen" unicode="&#xa5;" horiz-adv-x="656" 
d="M270 45q8 27 11 85h-205v59h207l1 71l-13 22h-195v59h160l-47 80q-82 138 -124.5 195t-74.5 86q50 -2 95 -2q46 0 96 2q-13 -14 -13 -33q0 -22 21 -63.5t84 -148.5q38 -66 37 -64l28 -48h8l28 48l36 65q62 110 81.5 149.5t19.5 62.5q0 18 -14 32q44 -2 85 -2t85 2
q-28 -19 -70 -77t-130 -204l-47 -80h160v-59h-196l-12 -21l1 -72h207v-59h-205q3 -58 11 -85t25 -47q-34 2 -76 2h-14q-42 0 -76 -2q17 20 25 47z" />
    <glyph glyph-name="brokenbar" unicode="&#xa6;" horiz-adv-x="310" 
d="M118 800h74v-350h-74v350zM118 250h74v-350h-74v350z" />
    <glyph glyph-name="section" unicode="&#xa7;" horiz-adv-x="656" 
d="M130 32.5q-70 44.5 -82 132.5q127 -114 306 -114q69 0 106 15t37 44q0 25 -17.5 38.5t-53.5 22t-109 19.5q-90 14 -144.5 29.5t-88 46t-33.5 82.5q0 40 36.5 71.5t104.5 47.5q-51 18 -80.5 45t-29.5 70q0 38 28 67.5t83 47t131 17.5q22 0 68 -4q50 -4 75 -4q21 0 48 8
v-39l25 -82q-60 28 -125.5 43.5t-127.5 15.5q-120 0 -120 -62q0 -38 44.5 -54t137.5 -28q80 -10 134 -24.5t88.5 -44t34.5 -79.5q0 -44 -35 -75.5t-95 -47.5q54 -17 84 -44t30 -69q0 -41 -32 -72t-89.5 -47.5t-133.5 -16.5q-135 0 -205 44.5zM172 302q38 -18 129 -31l53 -3
q72 1 119 22t47 57q0 33 -31.5 50.5t-105.5 29.5l-28 2q-16 2 -52 4q-72 -1 -120.5 -20.5t-48.5 -53.5q0 -39 38 -57z" />
    <glyph glyph-name="copyright" unicode="&#xa9;" horiz-adv-x="860" 
d="M231.5 32q-83.5 45 -130.5 125t-47 183q0 106 50 191t137.5 133.5t196.5 48.5q107 0 190.5 -45t130.5 -125t47 -183q0 -106 -50 -191t-138 -133.5t-197 -48.5q-106 0 -189.5 45zM173 201q40 -73 110.5 -114.5t158.5 -41.5q82 0 147 37.5t101.5 103.5t36.5 150
q0 90 -40 163t-110.5 114.5t-158.5 41.5q-82 0 -147 -37.5t-101.5 -103.5t-36.5 -150q0 -90 40 -163zM273.5 443.5q24.5 44.5 69.5 71t105 26.5q-1 0 44 -3l26 -2q13 0 25 4v-28l20 -67q-42 28 -70.5 40t-57.5 12q-48 0 -75 -39t-27 -92q0 -38 14.5 -72.5t43.5 -56t70 -21.5
q39 0 70.5 18.5t59.5 52.5q2 -53 -40.5 -89t-115.5 -36q-59 0 -101 25t-63.5 66.5t-21.5 92.5q0 53 24.5 97.5z" />
    <glyph glyph-name="guillemotleft" unicode="&#xab;" horiz-adv-x="506" 
d="M356 324l98 -234h-48q-61 94 -160 230q101 137 163 230h47zM197 550h47l-99 -226l97 -234h-48q-74 114 -160 230q88 117 163 230z" />
    <glyph glyph-name="logicalnot" unicode="&#xac;" horiz-adv-x="616" 
d="M65 385h486v-266h-69v196h-417v70z" />
    <glyph glyph-name="uni00AD" unicode="&#xad;" horiz-adv-x="492" 
d="M71 356h349v-72h-349v72z" />
    <glyph glyph-name="registered" unicode="&#xae;" horiz-adv-x="500" 
d="M150 362q-45 24 -70 67t-25 96t25.5 96t70 67t100.5 24t100 -24t69 -67t25 -96t-25 -96t-69.5 -67t-99.5 -24q-56 0 -101 24zM139 414.5q43 -42.5 112 -42.5q68 0 110.5 42.5t42.5 110.5t-42.5 110.5t-110.5 42.5q-69 0 -112 -42.5t-43 -110.5t43 -110.5zM172 451
q3 17 3 69v11q0 52 -3 69t-14 25q12 -1 35 -1h59q41 0 62.5 -14.5t21.5 -41.5q0 -19 -10.5 -33.5t-29.5 -22.5v-1q41 -68 61 -85l-31 1q-18 0 -35 -1q2 9 -4 22.5t-30 52.5l-2 3h-2h-39q0 -42 3 -56t14 -22q-13 1 -35 1h-3q-23 0 -35 -1q11 8 14 25zM243 527q48 0 48 39
q0 15 -13 23.5t-37 8.5q-11 0 -27 -2v-64q17 -5 29 -5z" />
    <glyph glyph-name="degree" unicode="&#xb0;" horiz-adv-x="371" 
d="M88 488.5q-37 35.5 -37 93.5q0 54 39 91t95 37q61 0 98 -35t37 -93q0 -55 -39 -92t-96 -37q-60 0 -97 35.5zM131 526.5q21 -21.5 54 -21.5t54 21.5t21 55.5t-21 54.5t-54 20.5t-54 -20.5t-21 -54.5t21 -55.5z" />
    <glyph glyph-name="plusminus" unicode="&#xb1;" horiz-adv-x="616" 
d="M272 415h-207v70h207v214h72v-214h207v-70h-207v-214h-72v214zM65 118h486v-70h-486v70z" />
    <glyph glyph-name="uni00B2" unicode="&#xb2;" horiz-adv-x="341" 
d="M136 450q-80 0 -114 -1q2 43 31 73.5t85 68.5q47 31 69.5 55t22.5 56q0 29 -18.5 45.5t-52.5 16.5q-29 0 -47 -16.5t-18 -38.5q0 -28 16 -54q-35 1 -57.5 14t-22.5 50q0 22 16.5 42t49 32.5t76.5 12.5q65 0 102.5 -26.5t37.5 -70.5q0 -31 -20 -57t-44.5 -44t-65.5 -43
q-37 -22 -54.5 -34.5t-25.5 -28.5q153 1 221 23l-20 -59v-23q-31 7 -167 7z" />
    <glyph glyph-name="uni00B3" unicode="&#xb3;" horiz-adv-x="342" 
d="M58 465.5q-39 21.5 -39 56.5q0 16 13 30t43 17q5 -39 29.5 -59.5t61.5 -20.5q32 0 50 16t18 39q0 30 -21.5 47.5t-52.5 17.5q-15 0 -27 -3v44q17 -3 32 -3q27 0 45.5 16.5t18.5 42.5q0 24 -19 41t-51 17q-34 0 -51 -15.5t-17 -42.5q0 -11 3 -23q-31 -2 -49 10.5t-18 35.5
q0 17 15 35t46.5 30t77.5 12q66 0 104.5 -26.5t38.5 -66.5q0 -28 -19 -49.5t-53 -33.5q36 -11 56.5 -33t20.5 -52q0 -43 -44.5 -72t-110.5 -29q-62 0 -101 21.5z" />
    <glyph glyph-name="paragraph" unicode="&#xb6;" horiz-adv-x="700" 
d="M515 350h-474l80 175l-80 175h545v-870h-71v520zM322 515l-23 -91h74l-23 91l91 -23v74l-91 -23l23 91h-74l23 -91l-91 23v-74z" />
    <glyph glyph-name="periodcentered" unicode="&#xb7;" horiz-adv-x="307" 
d="M62 320q51 45 92 90q45 -49 91 -90q-45 -38 -91 -89q-43 47 -92 89z" />
    <glyph glyph-name="uni00B9" unicode="&#xb9;" horiz-adv-x="224" 
d="M71 475q8 15 10.5 48t2.5 104v40q0 39 -3 55t-16 25.5t-44 17.5q95 28 141 44q-7 -25 -10 -56.5t-3 -86.5v-29q0 -76 2.5 -110.5t10.5 -50t26 -27.5l-71 1l-72 -1q18 11 26 26z" />
    <glyph glyph-name="guillemotright" unicode="&#xbb;" horiz-adv-x="506" 
d="M150 316l-98 234h48q61 -94 160 -230q-101 -137 -163 -230h-47zM362 316l-98 234h48q61 -94 160 -230q-101 -137 -163 -230h-47z" />
    <glyph glyph-name="onequarter" unicode="&#xbc;" horiz-adv-x="657" 
d="M71 375q8 15 10.5 48t2.5 104v40q0 39 -3 55t-16 25.5t-44 17.5q95 28 141 44q-7 -25 -10 -56.5t-3 -86.5v-29q0 -76 2.5 -110.5t10.5 -50t26 -27.5l-71 1l-72 -1q18 11 26 26zM430 700h65l-361 -700h-65zM496.5 27.5q6.5 17.5 8.5 59.5h-219l68 109q39 62 55 93.5
t16 45.5q0 10 -8 16l89 -1q46 0 59 1h36q-13 -10 -19 -25t-8 -45.5t-2 -95.5v-52q33 4 72 13l-15 -42v-27q-17 5 -55 8q1 -42 7.5 -59t22.5 -27q-24 1 -66 1q-39 0 -63 -1q15 11 21.5 28.5zM420 125q47 0 86 3v182h-32l-94 -185h40z" />
    <glyph glyph-name="onehalf" unicode="&#xbd;" horiz-adv-x="640" 
d="M71 375q8 15 10.5 48t2.5 104v40q0 39 -3 55t-16 25.5t-44 17.5q95 28 141 44q-7 -25 -10 -56.5t-3 -86.5v-29q0 -76 2.5 -110.5t10.5 -50t26 -27.5l-71 1l-72 -1q18 11 26 26zM422 700h65l-361 -700h-65zM434 0q-80 0 -114 -1q2 43 31 73.5t85 68.5q47 31 69.5 55
t22.5 56q0 29 -18.5 45.5t-52.5 16.5q-29 0 -47 -16.5t-18 -38.5q0 -28 16 -54q-35 1 -57.5 14t-22.5 50q0 22 16.5 42t49 32.5t76.5 12.5q65 0 102.5 -26.5t37.5 -70.5q0 -31 -20 -57t-44.5 -44t-65.5 -43q-37 -22 -54.5 -34.5t-25.5 -28.5q153 1 221 23l-20 -59v-23
q-31 7 -167 7z" />
    <glyph glyph-name="threequarters" unicode="&#xbe;" horiz-adv-x="774" 
d="M58 365.5q-39 21.5 -39 56.5q0 16 13 30t43 17q5 -39 29.5 -59.5t61.5 -20.5q32 0 50 16t18 39q0 30 -21.5 47.5t-52.5 17.5q-15 0 -27 -3v44q17 -3 32 -3q27 0 45.5 16.5t18.5 42.5q0 24 -19 41t-51 17q-34 0 -51 -15.5t-17 -42.5q0 -11 3 -23q-31 -2 -49 10.5t-18 35.5
q0 17 15 35t46.5 30t77.5 12q66 0 104.5 -26.5t38.5 -66.5q0 -28 -19 -49.5t-53 -33.5q36 -11 56.5 -33t20.5 -52q0 -43 -44.5 -72t-110.5 -29q-62 0 -101 21.5zM548 700h65l-361 -700h-65zM614.5 27.5q6.5 17.5 8.5 59.5h-219l68 109q39 62 55 93.5t16 45.5q0 10 -8 16
l89 -1q46 0 59 1h36q-13 -10 -19 -25t-8 -45.5t-2 -95.5v-52q33 4 72 13l-15 -42v-27q-17 5 -55 8q1 -42 7.5 -59t22.5 -27q-24 1 -66 1q-39 0 -63 -1q15 11 21.5 28.5zM538 125q47 0 86 3v182h-32l-94 -185h40z" />
    <glyph glyph-name="questiondown" unicode="&#xbf;" horiz-adv-x="530" 
d="M460 -105v-46q-21 9 -37 9q-17 0 -56 -7q-69 -13 -113 -13q-98 0 -157.5 42.5t-59.5 119.5q0 59 33.5 102t94.5 85q40 27 61.5 51t21.5 53v16h60q6 -15 6 -32q0 -51 -60 -102q-70 -63 -92.5 -98.5t-22.5 -71.5q0 -47 34 -74t98 -27q103 0 219 106zM277 560q43 -47 92 -89
q-51 -45 -92 -90q-45 49 -91 90q45 38 91 89z" />
    <glyph glyph-name="Agrave" unicode="&#xc0;" horiz-adv-x="752" 
d="M98 -1l-26 1l-56 -2q27 28 57.5 90.5t87.5 222.5l28 78q35 101 50 153.5t15 85.5q0 45 -30 75q81 -2 156 -2t157 2q-16 -16 -24 -34t-8 -42q0 -33 14 -86t48 -154l25 -74q39 -116 64 -178t42 -90t38 -47l-62 2l-30 -1q-43 0 -90 -2q8 10 11.5 18t3.5 22q0 34 -30 134
h-348q-27 -94 -27 -128q0 -15 4 -24.5t12 -21.5q-43 2 -82 2zM520 234l-75 233l-56 169h-50l-55 -170l-75 -232h311zM210 939h143q25 -77 54 -143h-57q-68 76 -140 143z" />
    <glyph glyph-name="Aacute" unicode="&#xc1;" horiz-adv-x="752" 
d="M98 -1l-26 1l-56 -2q27 28 57.5 90.5t87.5 222.5l28 78q35 101 50 153.5t15 85.5q0 45 -30 75q81 -2 156 -2t157 2q-16 -16 -24 -34t-8 -42q0 -33 14 -86t48 -154l25 -74q39 -116 64 -178t42 -90t38 -47l-62 2l-30 -1q-43 0 -90 -2q8 10 11.5 18t3.5 22q0 34 -30 134
h-348q-27 -94 -27 -128q0 -15 4 -24.5t12 -21.5q-43 2 -82 2zM520 234l-75 233l-56 169h-50l-55 -170l-75 -232h311zM402 939h138q-72 -67 -140 -143h-54q26 57 56 143z" />
    <glyph glyph-name="Acircumflex" unicode="&#xc2;" horiz-adv-x="752" 
d="M98 -1l-26 1l-56 -2q27 28 57.5 90.5t87.5 222.5l28 78q35 101 50 153.5t15 85.5q0 45 -30 75q81 -2 156 -2t157 2q-16 -16 -24 -34t-8 -42q0 -33 14 -86t48 -154l25 -74q39 -116 64 -178t42 -90t38 -47l-62 2l-30 -1q-43 0 -90 -2q8 10 11.5 18t3.5 22q0 34 -30 134
h-348q-27 -94 -27 -128q0 -15 4 -24.5t12 -21.5q-43 2 -82 2zM520 234l-75 233l-56 169h-50l-55 -170l-75 -232h311zM554 812l-13 -24q-93 33 -169 54q-77 -22 -165 -55l-11 21q96 72 179 146q87 -75 179 -142z" />
    <glyph glyph-name="Atilde" unicode="&#xc3;" horiz-adv-x="752" 
d="M98 -1l-26 1l-56 -2q27 28 57.5 90.5t87.5 222.5l28 78q35 101 50 153.5t15 85.5q0 45 -30 75q81 -2 156 -2t157 2q-16 -16 -24 -34t-8 -42q0 -33 14 -86t48 -154l25 -74q39 -116 64 -178t42 -90t38 -47l-62 2l-30 -1q-43 0 -90 -2q8 10 11.5 18t3.5 22q0 34 -30 134
h-348q-27 -94 -27 -128q0 -15 4 -24.5t12 -21.5q-43 2 -82 2zM520 234l-75 233l-56 169h-50l-55 -170l-75 -232h311zM223 833q0 42 27 68.5t69 26.5q25 0 42.5 -9.5t41.5 -27.5q17 -13 26 -18t20 -5q37 0 50 60h24q4 -15 4 -32q0 -41 -26.5 -68t-69.5 -27q-25 0 -42.5 9.5
t-41.5 27.5q-17 13 -26 18t-20 5q-37 0 -50 -60h-24q-4 15 -4 32z" />
    <glyph glyph-name="Adieresis" unicode="&#xc4;" horiz-adv-x="752" 
d="M98 -1l-26 1l-56 -2q27 28 57.5 90.5t87.5 222.5l28 78q35 101 50 153.5t15 85.5q0 45 -30 75q81 -2 156 -2t157 2q-16 -16 -24 -34t-8 -42q0 -33 14 -86t48 -154l25 -74q39 -116 64 -178t42 -90t38 -47l-62 2l-30 -1q-43 0 -90 -2q8 10 11.5 18t3.5 22q0 34 -30 134
h-348q-27 -94 -27 -128q0 -15 4 -24.5t12 -21.5q-43 2 -82 2zM520 234l-75 233l-56 169h-50l-55 -170l-75 -232h311zM177 872q24 21 45 42t42 45q21 -24 42 -45t45 -42q-46 -40 -87 -87q-40 47 -87 87zM399 872q24 21 45 42t42 45q21 -24 42 -45t45 -42q-46 -40 -87 -87
q-40 47 -87 87z" />
    <glyph glyph-name="Aring" unicode="&#xc5;" horiz-adv-x="752" 
d="M98 -1l-26 1l-56 -2q27 28 57.5 90.5t87.5 222.5l28 78q35 101 50 153.5t15 85.5q0 45 -30 75q81 -2 156 -2t157 2q-16 -16 -24 -34t-8 -42q0 -33 14 -86t48 -154l25 -74q39 -116 64 -178t42 -90t38 -47l-62 2l-30 -1q-43 0 -90 -2q8 10 11.5 18t3.5 22q0 34 -30 134
h-348q-27 -94 -27 -128q0 -15 4 -24.5t12 -21.5q-43 2 -82 2zM520 234l-75 233l-56 169h-50l-55 -170l-75 -232h311zM278.5 806q-35.5 30 -35.5 78q0 50 37 81.5t98 31.5q58 0 93.5 -30t35.5 -79q0 -50 -37.5 -81t-97.5 -31q-58 0 -93.5 30zM330.5 842q18.5 -19 47.5 -19
q27 0 43 16.5t16 42.5q0 30 -18 49t-47 19q-27 0 -43.5 -16.5t-16.5 -43.5q0 -29 18.5 -48z" />
    <glyph glyph-name="AE" unicode="&#xc6;" horiz-adv-x="984" 
d="M578 0h-106q10 28 13 171h-298q-35 -100 -35 -136q0 -19 12 -38q-43 2 -82 2l-26 1l-56 -2q28 28 62 90.5t100 222.5l32 78q41 98 59 154.5t18 92.5q0 41 -25 67q100 -3 300 -3h76q85 0 159 4.5t103 13.5v-34l36 -108q-89 61 -269 64h-74v-261q82 2 124.5 5.5t64 11.5
t37.5 23q-2 -32 -2 -69t2 -69q-16 15 -37.5 23t-64 11.5t-124.5 5.5q0 -163 5 -260l41 -1q115 1 200.5 19.5t140.5 49.5l-37 -103v-40q-67 14 -349 14zM487 234v403h-123l-66 -171q-34 -85 -89 -232h278z" />
    <glyph glyph-name="Ccedilla" unicode="&#xc7;" horiz-adv-x="717" 
d="M320.5 -195q-31.5 25 -32.5 64q40 -30 80 -30q44 0 44 34q0 41 -81 44l28 74q-90 11 -159.5 58.5t-107.5 123.5t-38 170q0 106 48 190t132.5 131.5t191.5 47.5q34 0 95 -7q33 -5 54 -5q29 0 52 9v-46l32 -117q-73 44 -107 62.5t-70 28.5t-82 10q-68 0 -121 -36.5
t-83 -102t-30 -151.5q0 -91 33.5 -160.5t94 -108t139.5 -38.5q67 0 122.5 34t110.5 100v-157q-21 1 -38 -2t-41 -11q-34 -11 -70 -18t-93 -8l-17 -30q47 -8 70 -32.5t23 -56.5q0 -36 -29 -62.5t-78 -26.5q-41 0 -72.5 25z" />
    <glyph glyph-name="Egrave" unicode="&#xc8;" horiz-adv-x="628" 
d="M213 0h-55q-48 0 -88 -2q21 20 30 49t12 89.5t3 193.5v40q0 133 -3 193.5t-12 89.5t-30 49q40 -2 88 -2h109q85 0 159 4.5t103 13.5v-34l36 -108q-90 63 -274 66h-86v-263q85 2 128 5.5t65 11.5t39 23q-2 -32 -2 -69t2 -69q-17 15 -39 23t-65 11.5t-128 5.5
q0 -163 5 -260q32 -2 53 -2q116 1 202.5 20t142.5 50l-37 -104v-39q-67 14 -358 14zM158 939h143q25 -77 54 -143h-57q-68 76 -140 143z" />
    <glyph glyph-name="Eacute" unicode="&#xc9;" horiz-adv-x="628" 
d="M213 0h-55q-48 0 -88 -2q21 20 30 49t12 89.5t3 193.5v40q0 133 -3 193.5t-12 89.5t-30 49q40 -2 88 -2h109q85 0 159 4.5t103 13.5v-34l36 -108q-90 63 -274 66h-86v-263q85 2 128 5.5t65 11.5t39 23q-2 -32 -2 -69t2 -69q-17 15 -39 23t-65 11.5t-128 5.5
q0 -163 5 -260q32 -2 53 -2q116 1 202.5 20t142.5 50l-37 -104v-39q-67 14 -358 14zM350 939h138q-72 -67 -140 -143h-54q26 57 56 143z" />
    <glyph glyph-name="Ecircumflex" unicode="&#xca;" horiz-adv-x="628" 
d="M213 0h-55q-48 0 -88 -2q21 20 30 49t12 89.5t3 193.5v40q0 133 -3 193.5t-12 89.5t-30 49q40 -2 88 -2h109q85 0 159 4.5t103 13.5v-34l36 -108q-90 63 -274 66h-86v-263q85 2 128 5.5t65 11.5t39 23q-2 -32 -2 -69t2 -69q-17 15 -39 23t-65 11.5t-128 5.5
q0 -163 5 -260q32 -2 53 -2q116 1 202.5 20t142.5 50l-37 -104v-39q-67 14 -358 14zM502 812l-13 -24q-93 33 -169 54q-77 -22 -165 -55l-11 21q96 72 179 146q87 -75 179 -142z" />
    <glyph glyph-name="Edieresis" unicode="&#xcb;" horiz-adv-x="628" 
d="M213 0h-55q-48 0 -88 -2q21 20 30 49t12 89.5t3 193.5v40q0 133 -3 193.5t-12 89.5t-30 49q40 -2 88 -2h109q85 0 159 4.5t103 13.5v-34l36 -108q-90 63 -274 66h-86v-263q85 2 128 5.5t65 11.5t39 23q-2 -32 -2 -69t2 -69q-17 15 -39 23t-65 11.5t-128 5.5
q0 -163 5 -260q32 -2 53 -2q116 1 202.5 20t142.5 50l-37 -104v-39q-67 14 -358 14zM125 872q24 21 45 42t42 45q21 -24 42 -45t45 -42q-46 -40 -87 -87q-40 47 -87 87zM347 872q24 21 45 42t42 45q21 -24 42 -45t45 -42q-46 -40 -87 -87q-40 47 -87 87z" />
    <glyph glyph-name="Igrave" unicode="&#xcc;" horiz-adv-x="321" 
d="M100 47q9 29 12 89.5t3 193.5v40q0 133 -3 193.5t-12 89.5t-30 49q40 -2 88 -2h5q48 0 88 2q-21 -21 -30.5 -49.5t-12.5 -89.5t-3 -193v-40q0 -132 3 -193t12.5 -89.5t30.5 -49.5q-40 2 -88 2h-5q-48 0 -88 -2q21 20 30 49zM-5 939h143q25 -77 54 -143h-57
q-68 76 -140 143z" />
    <glyph glyph-name="Iacute" unicode="&#xcd;" horiz-adv-x="321" 
d="M100 47q9 29 12 89.5t3 193.5v40q0 133 -3 193.5t-12 89.5t-30 49q40 -2 88 -2h5q48 0 88 2q-21 -21 -30.5 -49.5t-12.5 -89.5t-3 -193v-40q0 -132 3 -193t12.5 -89.5t30.5 -49.5q-40 2 -88 2h-5q-48 0 -88 -2q21 20 30 49zM187 939h138q-72 -67 -140 -143h-54
q26 57 56 143z" />
    <glyph glyph-name="Icircumflex" unicode="&#xce;" horiz-adv-x="321" 
d="M100 47q9 29 12 89.5t3 193.5v40q0 133 -3 193.5t-12 89.5t-30 49q40 -2 88 -2h5q48 0 88 2q-21 -21 -30.5 -49.5t-12.5 -89.5t-3 -193v-40q0 -132 3 -193t12.5 -89.5t30.5 -49.5q-40 2 -88 2h-5q-48 0 -88 -2q21 20 30 49zM339 812l-13 -24q-93 33 -169 54
q-77 -22 -165 -55l-11 21q96 72 179 146q87 -75 179 -142z" />
    <glyph glyph-name="Idieresis" unicode="&#xcf;" horiz-adv-x="321" 
d="M100 47q9 29 12 89.5t3 193.5v40q0 133 -3 193.5t-12 89.5t-30 49q40 -2 88 -2h5q48 0 88 2q-21 -21 -30.5 -49.5t-12.5 -89.5t-3 -193v-40q0 -132 3 -193t12.5 -89.5t30.5 -49.5q-40 2 -88 2h-5q-48 0 -88 -2q21 20 30 49zM-38 872q24 21 45 42t42 45q21 -24 42 -45
t45 -42q-46 -40 -87 -87q-40 47 -87 87zM184 872q24 21 45 42t42 45q21 -24 42 -45t45 -42q-46 -40 -87 -87q-40 47 -87 87z" />
    <glyph glyph-name="Eth" unicode="&#xd0;" horiz-adv-x="792" 
d="M113 46.5q9 27.5 12 86.5t3 185h-103v64h103q0 126 -3 185t-12 86.5t-30 48.5q40 -2 88 -2h197q112 0 195.5 -43t129 -120.5t45.5 -179.5q0 -104 -47.5 -185t-131 -126.5t-189.5 -45.5h-199q-48 0 -88 -2q21 21 30 48.5zM222 73q63 -12 164 -12q72 0 127 35t85 98.5
t30 147.5q0 88 -33.5 155.5t-96.5 104.5t-150 37q-74 0 -130 -4v-253h177v-64h-177q0 -129 4 -245z" />
    <glyph glyph-name="Ntilde" unicode="&#xd1;" horiz-adv-x="809" 
d="M185 587v-233q0 -142 4 -207.5t15 -96t36 -52.5q-40 2 -91 2q-47 0 -86 -2q24 24 35 58.5t14.5 107.5t4.5 232v149q0 38 -8.5 61.5t-26 42t-58.5 53.5h40q50 0 85.5 2.5t71.5 10.5l411 -541v190q-1 134 -5.5 196t-15.5 91.5t-36 50.5q40 -2 91 -2q47 0 86 2
q-24 -24 -34.5 -58.5t-14 -108t-3.5 -231.5v-314h-20zM259 833q0 42 27 68.5t69 26.5q25 0 42.5 -9.5t41.5 -27.5q17 -13 26 -18t20 -5q37 0 50 60h24q4 -15 4 -32q0 -41 -26.5 -68t-69.5 -27q-25 0 -42.5 9.5t-41.5 27.5q-17 13 -26 18t-20 5q-37 0 -50 -60h-24
q-4 15 -4 32z" />
    <glyph glyph-name="Ograve" unicode="&#xd2;" horiz-adv-x="844" 
d="M227.5 33.5q-81.5 45.5 -127.5 126t-46 183.5q0 106 48.5 190t134.5 131.5t194 47.5q104 0 185.5 -45.5t127.5 -126t46 -183.5q0 -106 -48.5 -190t-134.5 -131.5t-194 -47.5q-104 0 -185.5 45.5zM199.5 197q32.5 -70 92 -108.5t136.5 -38.5q74 0 130.5 36.5t87.5 102.5
t31 153q0 91 -33 161t-92.5 108.5t-136.5 38.5q-74 0 -130 -36.5t-87 -102.5t-31 -153q0 -91 32.5 -161zM254 939h143q25 -77 54 -143h-57q-68 76 -140 143z" />
    <glyph glyph-name="Oacute" unicode="&#xd3;" horiz-adv-x="844" 
d="M227.5 33.5q-81.5 45.5 -127.5 126t-46 183.5q0 106 48.5 190t134.5 131.5t194 47.5q104 0 185.5 -45.5t127.5 -126t46 -183.5q0 -106 -48.5 -190t-134.5 -131.5t-194 -47.5q-104 0 -185.5 45.5zM199.5 197q32.5 -70 92 -108.5t136.5 -38.5q74 0 130.5 36.5t87.5 102.5
t31 153q0 91 -33 161t-92.5 108.5t-136.5 38.5q-74 0 -130 -36.5t-87 -102.5t-31 -153q0 -91 32.5 -161zM446 939h138q-72 -67 -140 -143h-54q26 57 56 143z" />
    <glyph glyph-name="Ocircumflex" unicode="&#xd4;" horiz-adv-x="844" 
d="M227.5 33.5q-81.5 45.5 -127.5 126t-46 183.5q0 106 48.5 190t134.5 131.5t194 47.5q104 0 185.5 -45.5t127.5 -126t46 -183.5q0 -106 -48.5 -190t-134.5 -131.5t-194 -47.5q-104 0 -185.5 45.5zM199.5 197q32.5 -70 92 -108.5t136.5 -38.5q74 0 130.5 36.5t87.5 102.5
t31 153q0 91 -33 161t-92.5 108.5t-136.5 38.5q-74 0 -130 -36.5t-87 -102.5t-31 -153q0 -91 32.5 -161zM598 812l-13 -24q-93 33 -169 54q-77 -22 -165 -55l-11 21q96 72 179 146q87 -75 179 -142z" />
    <glyph glyph-name="Otilde" unicode="&#xd5;" horiz-adv-x="844" 
d="M227.5 33.5q-81.5 45.5 -127.5 126t-46 183.5q0 106 48.5 190t134.5 131.5t194 47.5q104 0 185.5 -45.5t127.5 -126t46 -183.5q0 -106 -48.5 -190t-134.5 -131.5t-194 -47.5q-104 0 -185.5 45.5zM199.5 197q32.5 -70 92 -108.5t136.5 -38.5q74 0 130.5 36.5t87.5 102.5
t31 153q0 91 -33 161t-92.5 108.5t-136.5 38.5q-74 0 -130 -36.5t-87 -102.5t-31 -153q0 -91 32.5 -161zM267 833q0 42 27 68.5t69 26.5q25 0 42.5 -9.5t41.5 -27.5q17 -13 26 -18t20 -5q37 0 50 60h24q4 -15 4 -32q0 -41 -26.5 -68t-69.5 -27q-25 0 -42.5 9.5t-41.5 27.5
q-17 13 -26 18t-20 5q-37 0 -50 -60h-24q-4 15 -4 32z" />
    <glyph glyph-name="Odieresis" unicode="&#xd6;" horiz-adv-x="844" 
d="M227.5 33.5q-81.5 45.5 -127.5 126t-46 183.5q0 106 48.5 190t134.5 131.5t194 47.5q104 0 185.5 -45.5t127.5 -126t46 -183.5q0 -106 -48.5 -190t-134.5 -131.5t-194 -47.5q-104 0 -185.5 45.5zM199.5 197q32.5 -70 92 -108.5t136.5 -38.5q74 0 130.5 36.5t87.5 102.5
t31 153q0 91 -33 161t-92.5 108.5t-136.5 38.5q-74 0 -130 -36.5t-87 -102.5t-31 -153q0 -91 32.5 -161zM221 872q24 21 45 42t42 45q21 -24 42 -45t45 -42q-46 -40 -87 -87q-40 47 -87 87zM443 872q24 21 45 42t42 45q21 -24 42 -45t45 -42q-46 -40 -87 -87q-40 47 -87 87z
" />
    <glyph glyph-name="multiply" unicode="&#xd7;" horiz-adv-x="616" 
d="M90 180l170 170l-170 170l48 48l170 -170l170 170l48 -48l-170 -170l170 -170l-48 -48l-170 170l-170 -170z" />
    <glyph glyph-name="Oslash" unicode="&#xd8;" horiz-adv-x="835" 
d="M168 -44l46 85q-75 46 -117.5 125t-42.5 177q0 106 48.5 190t134.5 131.5t194 47.5q70 0 128 -21l45 85l58 -32l-42 -79q79 -45 124.5 -125.5t45.5 -182.5q0 -106 -48.5 -190t-134.5 -131.5t-194 -47.5q-78 0 -140 25l-47 -89zM190 222.5q23 -60.5 66 -101.5l268 506
q-53 23 -109 23q-74 0 -130 -36.5t-87 -102.5t-31 -153q0 -75 23 -135.5zM428 50q74 0 130.5 36.5t87.5 102.5t31 153q0 78 -26 142t-72 105l-271 -510q55 -29 120 -29z" />
    <glyph glyph-name="Ugrave" unicode="&#xd9;" horiz-adv-x="796" 
d="M177 57.5q-74 69.5 -74 202.5v110q0 132 -3 193t-12.5 89.5t-30.5 49.5q41 -2 88 -2h8q49 0 89 2q-21 -21 -30.5 -49.5t-12.5 -89.5t-4 -193v-77q0 -238 204 -238q107 0 158.5 52t50.5 155v42q-1 158 -5 231.5t-16 108t-38 58.5q43 -2 97 -2q52 0 95 2
q-26 -24 -37.5 -58.5t-15 -106.5t-4.5 -233v-44q0 -132 -74.5 -202t-215.5 -70q-143 0 -217 69.5zM235 939h143q25 -77 54 -143h-57q-68 76 -140 143z" />
    <glyph glyph-name="Uacute" unicode="&#xda;" horiz-adv-x="796" 
d="M177 57.5q-74 69.5 -74 202.5v110q0 132 -3 193t-12.5 89.5t-30.5 49.5q41 -2 88 -2h8q49 0 89 2q-21 -21 -30.5 -49.5t-12.5 -89.5t-4 -193v-77q0 -238 204 -238q107 0 158.5 52t50.5 155v42q-1 158 -5 231.5t-16 108t-38 58.5q43 -2 97 -2q52 0 95 2
q-26 -24 -37.5 -58.5t-15 -106.5t-4.5 -233v-44q0 -132 -74.5 -202t-215.5 -70q-143 0 -217 69.5zM427 939h138q-72 -67 -140 -143h-54q26 57 56 143z" />
    <glyph glyph-name="Ucircumflex" unicode="&#xdb;" horiz-adv-x="796" 
d="M177 57.5q-74 69.5 -74 202.5v110q0 132 -3 193t-12.5 89.5t-30.5 49.5q41 -2 88 -2h8q49 0 89 2q-21 -21 -30.5 -49.5t-12.5 -89.5t-4 -193v-77q0 -238 204 -238q107 0 158.5 52t50.5 155v42q-1 158 -5 231.5t-16 108t-38 58.5q43 -2 97 -2q52 0 95 2
q-26 -24 -37.5 -58.5t-15 -106.5t-4.5 -233v-44q0 -132 -74.5 -202t-215.5 -70q-143 0 -217 69.5zM579 812l-13 -24q-93 33 -169 54q-77 -22 -165 -55l-11 21q96 72 179 146q87 -75 179 -142z" />
    <glyph glyph-name="Udieresis" unicode="&#xdc;" horiz-adv-x="796" 
d="M177 57.5q-74 69.5 -74 202.5v110q0 132 -3 193t-12.5 89.5t-30.5 49.5q41 -2 88 -2h8q49 0 89 2q-21 -21 -30.5 -49.5t-12.5 -89.5t-4 -193v-77q0 -238 204 -238q107 0 158.5 52t50.5 155v42q-1 158 -5 231.5t-16 108t-38 58.5q43 -2 97 -2q52 0 95 2
q-26 -24 -37.5 -58.5t-15 -106.5t-4.5 -233v-44q0 -132 -74.5 -202t-215.5 -70q-143 0 -217 69.5zM202 872q24 21 45 42t42 45q21 -24 42 -45t45 -42q-46 -40 -87 -87q-40 47 -87 87zM424 872q24 21 45 42t42 45q21 -24 42 -45t45 -42q-46 -40 -87 -87q-40 47 -87 87z" />
    <glyph glyph-name="Yacute" unicode="&#xdd;" horiz-adv-x="721" 
d="M298 41q9 24 13 72.5t5 146.5l-101 161q-86 139 -131 195t-80 86q50 -2 97 -2t97 2q-14 -16 -14 -32q0 -21 19 -56t79 -131q5 -8 56 -91l36 -57l34 55l47 79q62 104 82 142t20 60q0 16 -15 31q46 -2 88 -2q41 0 87 2q-30 -19 -74.5 -76t-136.5 -205l-100 -159
q1 -98 4.5 -147.5t12.5 -74t28 -42.5q-40 2 -88 2h-5q-48 0 -88 -2q19 19 28 43zM393 939h138q-72 -67 -140 -143h-54q26 57 56 143z" />
    <glyph glyph-name="Thorn" unicode="&#xde;" horiz-adv-x="697" 
d="M100 47q9 29 12 89.5t3 193.5v40q0 133 -3 193.5t-12 89.5t-30 49q40 -2 88 -2h5q48 0 88 2q-21 -21 -29.5 -48t-12.5 -90h152q86 0 149.5 -25.5t97.5 -73t34 -111.5t-34 -113.5t-95 -77t-141 -27.5h-163q4 -63 12.5 -90t29.5 -48q-40 2 -88 2h-5q-48 0 -88 -2
q21 20 30 49zM206 207q59 -14 127 -14q201 0 201 154q0 77 -53.5 117.5t-155.5 40.5q-65 0 -119 -7q-1 -35 -1 -128v-40q0 -89 1 -123z" />
    <glyph glyph-name="germandbls" unicode="&#xdf;" horiz-adv-x="669" 
d="M313.5 34.5q-48.5 44.5 -50.5 123.5q83 -101 197 -101q47 0 77 20t30 52q0 37 -28.5 59.5t-103.5 46.5q-84 27 -119.5 59t-35.5 88q0 35 20.5 64.5t69.5 63.5q30 21 41.5 39t11.5 40q0 39 -31.5 63t-83.5 24q-58 0 -89.5 -31t-31.5 -84v-308q0 -97 3 -144.5t11 -71.5
t26 -39q-36 2 -78 2h-10q-41 0 -77 -2q17 14 24.5 35t10.5 60.5t3 116.5v43l-1 297q0 56 29 99t81 67t116 24q57 0 100.5 -17.5t67.5 -48.5t24 -69q0 -39 -22.5 -66t-76.5 -61q-40 -26 -54.5 -42t-14.5 -37q0 -27 26 -44t94 -38q99 -32 141.5 -70.5t42.5 -103.5
q0 -42 -24.5 -77t-68.5 -55.5t-102 -20.5q-96 0 -144.5 44.5z" />
    <glyph glyph-name="agrave" unicode="&#xe0;" horiz-adv-x="619" 
d="M433 99q-30 -50 -84.5 -79.5t-120.5 -29.5q-88 0 -138.5 42t-50.5 111q0 105 107.5 145.5t281.5 48.5v157h-78q-172 -1 -269 -61l31 95v35q26 -7 98.5 -10t146.5 -3q109 0 166 5q-6 -24 -8 -73.5t-2 -184.5v-27q0 -98 3 -144t12 -70.5t30 -38.5q-76 -13 -140 -30
q12 39 15 112zM168.5 84q28.5 -25 79.5 -25q77 0 127 47t53 124v44q-85 0 -145.5 -8t-101.5 -35t-41 -81q0 -41 28.5 -66zM154 789h143q25 -77 54 -143h-57q-68 76 -140 143z" />
    <glyph glyph-name="aacute" unicode="&#xe1;" horiz-adv-x="619" 
d="M433 99q-30 -50 -84.5 -79.5t-120.5 -29.5q-88 0 -138.5 42t-50.5 111q0 105 107.5 145.5t281.5 48.5v157h-78q-172 -1 -269 -61l31 95v35q26 -7 98.5 -10t146.5 -3q109 0 166 5q-6 -24 -8 -73.5t-2 -184.5v-27q0 -98 3 -144t12 -70.5t30 -38.5q-76 -13 -140 -30
q12 39 15 112zM168.5 84q28.5 -25 79.5 -25q77 0 127 47t53 124v44q-85 0 -145.5 -8t-101.5 -35t-41 -81q0 -41 28.5 -66zM346 789h138q-72 -67 -140 -143h-54q26 57 56 143z" />
    <glyph glyph-name="acircumflex" unicode="&#xe2;" horiz-adv-x="619" 
d="M433 99q-30 -50 -84.5 -79.5t-120.5 -29.5q-88 0 -138.5 42t-50.5 111q0 105 107.5 145.5t281.5 48.5v157h-78q-172 -1 -269 -61l31 95v35q26 -7 98.5 -10t146.5 -3q109 0 166 5q-6 -24 -8 -73.5t-2 -184.5v-27q0 -98 3 -144t12 -70.5t30 -38.5q-76 -13 -140 -30
q12 39 15 112zM168.5 84q28.5 -25 79.5 -25q77 0 127 47t53 124v44q-85 0 -145.5 -8t-101.5 -35t-41 -81q0 -41 28.5 -66zM498 662l-13 -24q-93 33 -169 54q-77 -22 -165 -55l-11 21q96 72 179 146q87 -75 179 -142z" />
    <glyph glyph-name="atilde" unicode="&#xe3;" horiz-adv-x="619" 
d="M433 99q-30 -50 -84.5 -79.5t-120.5 -29.5q-88 0 -138.5 42t-50.5 111q0 105 107.5 145.5t281.5 48.5v157h-78q-172 -1 -269 -61l31 95v35q26 -7 98.5 -10t146.5 -3q109 0 166 5q-6 -24 -8 -73.5t-2 -184.5v-27q0 -98 3 -144t12 -70.5t30 -38.5q-76 -13 -140 -30
q12 39 15 112zM168.5 84q28.5 -25 79.5 -25q77 0 127 47t53 124v44q-85 0 -145.5 -8t-101.5 -35t-41 -81q0 -41 28.5 -66zM167 683q0 42 27 68.5t69 26.5q25 0 42.5 -9.5t41.5 -27.5q17 -13 26 -18t20 -5q37 0 50 60h24q4 -15 4 -32q0 -41 -26.5 -68t-69.5 -27
q-25 0 -42.5 9.5t-41.5 27.5q-17 13 -26 18t-20 5q-37 0 -50 -60h-24q-4 15 -4 32z" />
    <glyph glyph-name="adieresis" unicode="&#xe4;" horiz-adv-x="619" 
d="M433 99q-30 -50 -84.5 -79.5t-120.5 -29.5q-88 0 -138.5 42t-50.5 111q0 105 107.5 145.5t281.5 48.5v157h-78q-172 -1 -269 -61l31 95v35q26 -7 98.5 -10t146.5 -3q109 0 166 5q-6 -24 -8 -73.5t-2 -184.5v-27q0 -98 3 -144t12 -70.5t30 -38.5q-76 -13 -140 -30
q12 39 15 112zM168.5 84q28.5 -25 79.5 -25q77 0 127 47t53 124v44q-85 0 -145.5 -8t-101.5 -35t-41 -81q0 -41 28.5 -66zM121 722q24 21 45 42t42 45q21 -24 42 -45t45 -42q-46 -40 -87 -87q-40 47 -87 87zM343 722q24 21 45 42t42 45q21 -24 42 -45t45 -42
q-46 -40 -87 -87q-40 47 -87 87z" />
    <glyph glyph-name="aring" unicode="&#xe5;" horiz-adv-x="619" 
d="M433 99q-30 -50 -84.5 -79.5t-120.5 -29.5q-88 0 -138.5 42t-50.5 111q0 105 107.5 145.5t281.5 48.5v157h-78q-172 -1 -269 -61l31 95v35q26 -7 98.5 -10t146.5 -3q109 0 166 5q-6 -24 -8 -73.5t-2 -184.5v-27q0 -98 3 -144t12 -70.5t30 -38.5q-76 -13 -140 -30
q12 39 15 112zM168.5 84q28.5 -25 79.5 -25q77 0 127 47t53 124v44q-85 0 -145.5 -8t-101.5 -35t-41 -81q0 -41 28.5 -66zM222.5 656q-35.5 30 -35.5 78q0 50 37 81.5t98 31.5q58 0 93.5 -30t35.5 -79q0 -50 -37.5 -81t-97.5 -31q-58 0 -93.5 30zM274.5 692
q18.5 -19 47.5 -19q27 0 43 16.5t16 42.5q0 30 -18 49t-47 19q-27 0 -43.5 -16.5t-16.5 -43.5q0 -29 18.5 -48z" />
    <glyph glyph-name="ae" unicode="&#xe6;" horiz-adv-x="1004" 
d="M560.5 22q-61.5 32 -98.5 89q-29 -55 -89.5 -88t-135.5 -33q-92 0 -145 42t-53 111q0 101 106 141t278 47q9 50 32.5 91.5t57.5 71.5h-50q-112 0 -180.5 -6.5t-111 -19.5t-86.5 -36l32 96v35q66 -13 319 -13h180q34 10 78 10q82 0 143 -37.5t92.5 -108t27.5 -165.5h-440
q11 -86 66 -134t142 -48q54 0 104.5 19t88.5 54q-1 -43 -31 -77.5t-80 -53.5t-110 -19q-75 0 -136.5 32zM168.5 84q28.5 -25 79.5 -25q68 0 116.5 35t63.5 94q-10 40 -10 81q-82 -1 -140.5 -9t-98 -34t-39.5 -76q0 -41 28.5 -66zM856 315q-7 84 -53.5 135t-118.5 51
t-119 -53t-51 -142z" />
    <glyph glyph-name="ccedilla" unicode="&#xe7;" horiz-adv-x="576" 
d="M264.5 -195q-31.5 25 -32.5 64q40 -30 80 -30q44 0 44 34q0 41 -81 44l28 74q-82 5 -139.5 44t-87 100t-29.5 132q0 77 35.5 144t103 108t158.5 41q21 0 71 -6l40 -3q20 0 42 9v-43l28 -98q-71 47 -113 64.5t-87 17.5q-56 0 -96 -29.5t-60 -77.5t-20 -102
q0 -59 23.5 -111.5t70 -85.5t112.5 -33q64 0 112 28t93 81q1 -42 -21 -80t-65 -64.5t-103 -33.5l-20 -35q47 -8 70 -32.5t23 -56.5q0 -36 -29 -62.5t-78 -26.5q-41 0 -72.5 25z" />
    <glyph glyph-name="egrave" unicode="&#xe8;" horiz-adv-x="653" 
d="M189 24.5q-66 34.5 -104 97.5t-38 145q0 85 37.5 152t102.5 104t146 37q86 0 149 -38t95.5 -108.5t28.5 -164.5h-458q11 -86 68.5 -134t147.5 -48q57 0 109.5 19.5t92.5 54.5q-1 -43 -32 -77.5t-83 -54t-114 -19.5q-82 0 -148 34.5zM504 315q-7 85 -56 135.5t-124 50.5
q-78 0 -127 -52.5t-53 -142.5zM166 789h143q25 -77 54 -143h-57q-68 76 -140 143z" />
    <glyph glyph-name="eacute" unicode="&#xe9;" horiz-adv-x="653" 
d="M189 24.5q-66 34.5 -104 97.5t-38 145q0 85 37.5 152t102.5 104t146 37q86 0 149 -38t95.5 -108.5t28.5 -164.5h-458q11 -86 68.5 -134t147.5 -48q57 0 109.5 19.5t92.5 54.5q-1 -43 -32 -77.5t-83 -54t-114 -19.5q-82 0 -148 34.5zM504 315q-7 85 -56 135.5t-124 50.5
q-78 0 -127 -52.5t-53 -142.5zM358 789h138q-72 -67 -140 -143h-54q26 57 56 143z" />
    <glyph glyph-name="ecircumflex" unicode="&#xea;" horiz-adv-x="653" 
d="M189 24.5q-66 34.5 -104 97.5t-38 145q0 85 37.5 152t102.5 104t146 37q86 0 149 -38t95.5 -108.5t28.5 -164.5h-458q11 -86 68.5 -134t147.5 -48q57 0 109.5 19.5t92.5 54.5q-1 -43 -32 -77.5t-83 -54t-114 -19.5q-82 0 -148 34.5zM504 315q-7 85 -56 135.5t-124 50.5
q-78 0 -127 -52.5t-53 -142.5zM510 662l-13 -24q-93 33 -169 54q-77 -22 -165 -55l-11 21q96 72 179 146q87 -75 179 -142z" />
    <glyph glyph-name="edieresis" unicode="&#xeb;" horiz-adv-x="653" 
d="M189 24.5q-66 34.5 -104 97.5t-38 145q0 85 37.5 152t102.5 104t146 37q86 0 149 -38t95.5 -108.5t28.5 -164.5h-458q11 -86 68.5 -134t147.5 -48q57 0 109.5 19.5t92.5 54.5q-1 -43 -32 -77.5t-83 -54t-114 -19.5q-82 0 -148 34.5zM504 315q-7 85 -56 135.5t-124 50.5
q-78 0 -127 -52.5t-53 -142.5zM133 722q24 21 45 42t42 45q21 -24 42 -45t45 -42q-46 -40 -87 -87q-40 47 -87 87zM355 722q24 21 45 42t42 45q21 -24 42 -45t45 -42q-46 -40 -87 -87q-40 47 -87 87z" />
    <glyph glyph-name="igrave" unicode="&#xec;" horiz-adv-x="303" 
d="M95 37q8 24 10.5 70.5t2.5 145.5v25q0 99 -2.5 144.5t-12 70t-30.5 38.5q75 13 154 34q-22 -66 -22 -233v-79q0 -97 2.5 -144.5t10.5 -71.5t26 -39q-36 2 -77 2h-11q-41 0 -77 -2q18 15 26 39zM-16 789h143q25 -77 54 -143h-57q-68 76 -140 143z" />
    <glyph glyph-name="iacute" unicode="&#xed;" horiz-adv-x="303" 
d="M95 37q8 24 10.5 70.5t2.5 145.5v25q0 99 -2.5 144.5t-12 70t-30.5 38.5q75 13 154 34q-22 -66 -22 -233v-79q0 -97 2.5 -144.5t10.5 -71.5t26 -39q-36 2 -77 2h-11q-41 0 -77 -2q18 15 26 39zM176 789h138q-72 -67 -140 -143h-54q26 57 56 143z" />
    <glyph glyph-name="icircumflex" unicode="&#xee;" horiz-adv-x="303" 
d="M95 37q8 24 10.5 70.5t2.5 145.5v25q0 99 -2.5 144.5t-12 70t-30.5 38.5q75 13 154 34q-22 -66 -22 -233v-79q0 -97 2.5 -144.5t10.5 -71.5t26 -39q-36 2 -77 2h-11q-41 0 -77 -2q18 15 26 39zM328 662l-13 -24q-93 33 -169 54q-77 -22 -165 -55l-11 21q96 72 179 146
q87 -75 179 -142z" />
    <glyph glyph-name="idieresis" unicode="&#xef;" horiz-adv-x="303" 
d="M95 37q8 24 10.5 70.5t2.5 145.5v25q0 99 -2.5 144.5t-12 70t-30.5 38.5q75 13 154 34q-22 -66 -22 -233v-79q0 -97 2.5 -144.5t10.5 -71.5t26 -39q-36 2 -77 2h-11q-41 0 -77 -2q18 15 26 39zM-49 722q24 21 45 42t42 45q21 -24 42 -45t45 -42q-46 -40 -87 -87
q-40 47 -87 87zM173 722q24 21 45 42t42 45q21 -24 42 -45t45 -42q-46 -40 -87 -87q-40 47 -87 87z" />
    <glyph glyph-name="eth" unicode="&#xf0;" horiz-adv-x="670" 
d="M181.5 25q-63.5 35 -99 97t-35.5 141q0 81 35 146t96.5 101.5t138.5 36.5q78 0 139 -40q-28 47 -60 85h-239v57h190q-21 23 -72 72l65 14q53 -43 95 -86h138v-57h-84q70 -82 102 -160.5t32 -157.5q0 -81 -38.5 -146t-106 -101.5t-152.5 -36.5q-81 0 -144.5 35zM175.5 159
q23.5 -52 66 -81t97.5 -29q52 0 92.5 26t62.5 74t22 110q0 67 -23.5 119t-66 81t-97.5 29q-52 0 -92.5 -26t-62.5 -74t-22 -110q0 -67 23.5 -119z" />
    <glyph glyph-name="ntilde" unicode="&#xf1;" horiz-adv-x="697" 
d="M93 37q8 24 11 71.5t3 144.5v27q0 99 -2.5 144.5t-12 70t-30.5 38.5q82 14 141 30q-11 -35 -14 -111q31 51 86 80t124 29q96 0 149 -54t52 -150v-104q0 -99 2.5 -145.5t10.5 -70.5t26 -39q-36 2 -78 2h-13q-42 0 -77 -2q18 15 26 39t10.5 71.5t2.5 144.5v81q0 73 -38 115
t-105 42q-77 0 -124 -51t-49 -139v-48q0 -99 2.5 -145.5t10.5 -70.5t26 -39q-36 2 -78 2h-10q-42 0 -78 -2q18 15 26 39zM186 683q0 42 27 68.5t69 26.5q25 0 42.5 -9.5t41.5 -27.5q17 -13 26 -18t20 -5q37 0 50 60h24q4 -15 4 -32q0 -41 -26.5 -68t-69.5 -27
q-25 0 -42.5 9.5t-41.5 27.5q-17 13 -26 18t-20 5q-37 0 -50 -60h-24q-4 15 -4 32z" />
    <glyph glyph-name="ograve" unicode="&#xf2;" horiz-adv-x="697" 
d="M188.5 25.5q-66.5 35.5 -104 99t-37.5 145.5q0 83 40 149.5t110.5 103.5t158.5 37q86 0 152.5 -35.5t104 -99t37.5 -145.5q0 -83 -40 -149.5t-110.5 -103.5t-158.5 -37q-86 0 -152.5 35.5zM179 162.5q25 -53.5 70.5 -83t104.5 -29.5q56 0 98.5 27t66.5 75.5t24 112.5
q0 69 -25 122.5t-70.5 83t-104.5 29.5q-56 0 -98.5 -27t-66.5 -75.5t-24 -112.5q0 -69 25 -122.5zM183 789h143q25 -77 54 -143h-57q-68 76 -140 143z" />
    <glyph glyph-name="oacute" unicode="&#xf3;" horiz-adv-x="697" 
d="M188.5 25.5q-66.5 35.5 -104 99t-37.5 145.5q0 83 40 149.5t110.5 103.5t158.5 37q86 0 152.5 -35.5t104 -99t37.5 -145.5q0 -83 -40 -149.5t-110.5 -103.5t-158.5 -37q-86 0 -152.5 35.5zM179 162.5q25 -53.5 70.5 -83t104.5 -29.5q56 0 98.5 27t66.5 75.5t24 112.5
q0 69 -25 122.5t-70.5 83t-104.5 29.5q-56 0 -98.5 -27t-66.5 -75.5t-24 -112.5q0 -69 25 -122.5zM375 789h138q-72 -67 -140 -143h-54q26 57 56 143z" />
    <glyph glyph-name="ocircumflex" unicode="&#xf4;" horiz-adv-x="697" 
d="M188.5 25.5q-66.5 35.5 -104 99t-37.5 145.5q0 83 40 149.5t110.5 103.5t158.5 37q86 0 152.5 -35.5t104 -99t37.5 -145.5q0 -83 -40 -149.5t-110.5 -103.5t-158.5 -37q-86 0 -152.5 35.5zM179 162.5q25 -53.5 70.5 -83t104.5 -29.5q56 0 98.5 27t66.5 75.5t24 112.5
q0 69 -25 122.5t-70.5 83t-104.5 29.5q-56 0 -98.5 -27t-66.5 -75.5t-24 -112.5q0 -69 25 -122.5zM527 662l-13 -24q-93 33 -169 54q-77 -22 -165 -55l-11 21q96 72 179 146q87 -75 179 -142z" />
    <glyph glyph-name="otilde" unicode="&#xf5;" horiz-adv-x="697" 
d="M188.5 25.5q-66.5 35.5 -104 99t-37.5 145.5q0 83 40 149.5t110.5 103.5t158.5 37q86 0 152.5 -35.5t104 -99t37.5 -145.5q0 -83 -40 -149.5t-110.5 -103.5t-158.5 -37q-86 0 -152.5 35.5zM179 162.5q25 -53.5 70.5 -83t104.5 -29.5q56 0 98.5 27t66.5 75.5t24 112.5
q0 69 -25 122.5t-70.5 83t-104.5 29.5q-56 0 -98.5 -27t-66.5 -75.5t-24 -112.5q0 -69 25 -122.5zM196 683q0 42 27 68.5t69 26.5q25 0 42.5 -9.5t41.5 -27.5q17 -13 26 -18t20 -5q37 0 50 60h24q4 -15 4 -32q0 -41 -26.5 -68t-69.5 -27q-25 0 -42.5 9.5t-41.5 27.5
q-17 13 -26 18t-20 5q-37 0 -50 -60h-24q-4 15 -4 32z" />
    <glyph glyph-name="odieresis" unicode="&#xf6;" horiz-adv-x="697" 
d="M188.5 25.5q-66.5 35.5 -104 99t-37.5 145.5q0 83 40 149.5t110.5 103.5t158.5 37q86 0 152.5 -35.5t104 -99t37.5 -145.5q0 -83 -40 -149.5t-110.5 -103.5t-158.5 -37q-86 0 -152.5 35.5zM179 162.5q25 -53.5 70.5 -83t104.5 -29.5q56 0 98.5 27t66.5 75.5t24 112.5
q0 69 -25 122.5t-70.5 83t-104.5 29.5q-56 0 -98.5 -27t-66.5 -75.5t-24 -112.5q0 -69 25 -122.5zM150 722q24 21 45 42t42 45q21 -24 42 -45t45 -42q-46 -40 -87 -87q-40 47 -87 87zM372 722q24 21 45 42t42 45q21 -24 42 -45t45 -42q-46 -40 -87 -87q-40 47 -87 87z" />
    <glyph glyph-name="divide" unicode="&#xf7;" horiz-adv-x="616" 
d="M65 385h486v-70h-486v70zM266 197q17 17 42 17t42 -17t17 -42t-17 -42t-42 -17t-42 17t-17 42t17 42zM266 587q17 17 42 17t42 -17t17 -42t-17 -42t-42 -17t-42 17t-17 42t17 42z" />
    <glyph glyph-name="oslash" unicode="&#xf8;" horiz-adv-x="697" 
d="M144 -35l36 65q-63 36 -98 98.5t-35 141.5q0 83 40 149.5t110.5 103.5t158.5 37q59 0 104 -16l39 71l54 -30l-36 -65q62 -37 97.5 -99.5t35.5 -140.5q0 -83 -40 -149.5t-110.5 -103.5t-158.5 -37q-59 0 -104 16l-39 -71zM172 184.5q18 -45.5 50 -76.5l204 374
q-36 18 -83 18q-56 0 -98.5 -27t-66.5 -75.5t-24 -112.5q0 -55 18 -100.5zM354 50q56 0 98.5 27t66.5 75.5t24 112.5q0 55 -18 100.5t-50 76.5l-204 -374q36 -18 83 -18z" />
    <glyph glyph-name="ugrave" unicode="&#xf9;" horiz-adv-x="694" 
d="M506 99q-30 -52 -82.5 -80.5t-119.5 -28.5q-102 0 -156 53t-53 157l2 78q0 99 -2.5 144.5t-12 70t-30.5 38.5q75 13 154 34q-22 -66 -22 -233v-126q0 -70 38.5 -108.5t106.5 -38.5q76 0 122.5 52t49.5 138v48q0 97 -3 144.5t-11 71.5t-26 39q36 -2 78 -2h10q42 0 78 2
q-18 -15 -26 -39t-11 -71.5t-3 -144.5v-27q0 -99 2.5 -144.5t12 -70t30.5 -38.5q-82 -14 -141 -30q12 42 15 112zM178 789h143q25 -77 54 -143h-57q-68 76 -140 143z" />
    <glyph glyph-name="uacute" unicode="&#xfa;" horiz-adv-x="694" 
d="M506 99q-30 -52 -82.5 -80.5t-119.5 -28.5q-102 0 -156 53t-53 157l2 78q0 99 -2.5 144.5t-12 70t-30.5 38.5q75 13 154 34q-22 -66 -22 -233v-126q0 -70 38.5 -108.5t106.5 -38.5q76 0 122.5 52t49.5 138v48q0 97 -3 144.5t-11 71.5t-26 39q36 -2 78 -2h10q42 0 78 2
q-18 -15 -26 -39t-11 -71.5t-3 -144.5v-27q0 -99 2.5 -144.5t12 -70t30.5 -38.5q-82 -14 -141 -30q12 42 15 112zM370 789h138q-72 -67 -140 -143h-54q26 57 56 143z" />
    <glyph glyph-name="ucircumflex" unicode="&#xfb;" horiz-adv-x="694" 
d="M506 99q-30 -52 -82.5 -80.5t-119.5 -28.5q-102 0 -156 53t-53 157l2 78q0 99 -2.5 144.5t-12 70t-30.5 38.5q75 13 154 34q-22 -66 -22 -233v-126q0 -70 38.5 -108.5t106.5 -38.5q76 0 122.5 52t49.5 138v48q0 97 -3 144.5t-11 71.5t-26 39q36 -2 78 -2h10q42 0 78 2
q-18 -15 -26 -39t-11 -71.5t-3 -144.5v-27q0 -99 2.5 -144.5t12 -70t30.5 -38.5q-82 -14 -141 -30q12 42 15 112zM522 662l-13 -24q-93 33 -169 54q-77 -22 -165 -55l-11 21q96 72 179 146q87 -75 179 -142z" />
    <glyph glyph-name="udieresis" unicode="&#xfc;" horiz-adv-x="694" 
d="M506 99q-30 -52 -82.5 -80.5t-119.5 -28.5q-102 0 -156 53t-53 157l2 78q0 99 -2.5 144.5t-12 70t-30.5 38.5q75 13 154 34q-22 -66 -22 -233v-126q0 -70 38.5 -108.5t106.5 -38.5q76 0 122.5 52t49.5 138v48q0 97 -3 144.5t-11 71.5t-26 39q36 -2 78 -2h10q42 0 78 2
q-18 -15 -26 -39t-11 -71.5t-3 -144.5v-27q0 -99 2.5 -144.5t12 -70t30.5 -38.5q-82 -14 -141 -30q12 42 15 112zM145 722q24 21 45 42t42 45q21 -24 42 -45t45 -42q-46 -40 -87 -87q-40 47 -87 87zM367 722q24 21 45 42t42 45q21 -24 42 -45t45 -42q-46 -40 -87 -87
q-40 47 -87 87z" />
    <glyph glyph-name="yacute" unicode="&#xfd;" horiz-adv-x="631" 
d="M238.5 -110.5q23.5 30.5 50.5 90.5l-145 320q-59 132 -89 183.5t-50 67.5q42 0 56 1h27q29 0 83 5q-6 -13 -6 -31q0 -27 16.5 -75.5t56.5 -141.5l101 -233l92 231q35 89 49 138t14 76q0 16 -5 31q36 -2 69 -2t69 2q-18 -17 -44.5 -67.5t-82.5 -186.5l-105 -254
q-40 -96 -54 -140t-15 -76q-38 2 -74 2q-35 0 -74 -2q37 31 60.5 61.5zM346 789h138q-72 -67 -140 -143h-54q26 57 56 143z" />
    <glyph glyph-name="thorn" unicode="&#xfe;" horiz-adv-x="699" 
d="M93 -133q8 24 11 71.5t3 144.5v367q0 99 -2.5 144.5t-12 70t-30.5 38.5q72 12 153 34q-21 -66 -21 -227v-48q34 47 84.5 73t114.5 26q75 0 134 -35.5t92 -99.5t33 -145q0 -84 -35.5 -150t-98.5 -103.5t-142 -37.5q-58 0 -104.5 22t-78.5 63q1 -93 4.5 -138.5t14.5 -69.5
t34 -39q-42 2 -92 2h-11q-41 0 -76 -2q18 15 26 39zM248.5 103q48.5 -52 122.5 -52q51 0 90.5 27.5t61.5 76.5t22 113q0 67 -23 118.5t-64 79.5t-94 28q-71 0 -117.5 -48.5t-53.5 -132.5v-70q7 -88 55.5 -140z" />
    <glyph glyph-name="ydieresis" unicode="&#xff;" horiz-adv-x="631" 
d="M238.5 -110.5q23.5 30.5 50.5 90.5l-145 320q-59 132 -89 183.5t-50 67.5q42 0 56 1h27q29 0 83 5q-6 -13 -6 -31q0 -27 16.5 -75.5t56.5 -141.5l101 -233l92 231q35 89 49 138t14 76q0 16 -5 31q36 -2 69 -2t69 2q-18 -17 -44.5 -67.5t-82.5 -186.5l-105 -254
q-40 -96 -54 -140t-15 -76q-38 2 -74 2q-35 0 -74 -2q37 31 60.5 61.5zM121 722q24 21 45 42t42 45q21 -24 42 -45t45 -42q-46 -40 -87 -87q-40 47 -87 87zM343 722q24 21 45 42t42 45q21 -24 42 -45t45 -42q-46 -40 -87 -87q-40 47 -87 87z" />
    <glyph glyph-name="Amacron" unicode="&#x100;" horiz-adv-x="752" 
d="M98 -1l-26 1l-56 -2q27 28 57.5 90.5t87.5 222.5l28 78q35 101 50 153.5t15 85.5q0 45 -30 75q81 -2 156 -2t157 2q-16 -16 -24 -34t-8 -42q0 -33 14 -86t48 -154l25 -74q39 -116 64 -178t42 -90t38 -47l-62 2l-30 -1q-43 0 -90 -2q8 10 11.5 18t3.5 22q0 34 -30 134
h-348q-27 -94 -27 -128q0 -15 4 -24.5t12 -21.5q-43 2 -82 2zM520 234l-75 233l-56 169h-50l-55 -170l-75 -232h311zM225 903h300v-61h-300v61z" />
    <glyph glyph-name="amacron" unicode="&#x101;" horiz-adv-x="619" 
d="M433 99q-30 -50 -84.5 -79.5t-120.5 -29.5q-88 0 -138.5 42t-50.5 111q0 105 107.5 145.5t281.5 48.5v157h-78q-172 -1 -269 -61l31 95v35q26 -7 98.5 -10t146.5 -3q109 0 166 5q-6 -24 -8 -73.5t-2 -184.5v-27q0 -98 3 -144t12 -70.5t30 -38.5q-76 -13 -140 -30
q12 39 15 112zM168.5 84q28.5 -25 79.5 -25q77 0 127 47t53 124v44q-85 0 -145.5 -8t-101.5 -35t-41 -81q0 -41 28.5 -66zM169 753h300v-61h-300v61z" />
    <glyph glyph-name="Abreve" unicode="&#x102;" horiz-adv-x="752" 
d="M98 -1l-26 1l-56 -2q27 28 57.5 90.5t87.5 222.5l28 78q35 101 50 153.5t15 85.5q0 45 -30 75q81 -2 156 -2t157 2q-16 -16 -24 -34t-8 -42q0 -33 14 -86t48 -154l25 -74q39 -116 64 -178t42 -90t38 -47l-62 2l-30 -1q-43 0 -90 -2q8 10 11.5 18t3.5 22q0 34 -30 134
h-348q-27 -94 -27 -128q0 -15 4 -24.5t12 -21.5q-43 2 -82 2zM520 234l-75 233l-56 169h-50l-55 -170l-75 -232h311zM273.5 831q-38.5 36 -38.5 90q0 14 3 29h15q15 -38 46 -57.5t76 -19.5t76 19.5t47 57.5h14q3 -15 3 -30q0 -54 -39 -89.5t-101 -35.5q-63 0 -101.5 36z" />
    <glyph glyph-name="abreve" unicode="&#x103;" horiz-adv-x="619" 
d="M433 99q-30 -50 -84.5 -79.5t-120.5 -29.5q-88 0 -138.5 42t-50.5 111q0 105 107.5 145.5t281.5 48.5v157h-78q-172 -1 -269 -61l31 95v35q26 -7 98.5 -10t146.5 -3q109 0 166 5q-6 -24 -8 -73.5t-2 -184.5v-27q0 -98 3 -144t12 -70.5t30 -38.5q-76 -13 -140 -30
q12 39 15 112zM168.5 84q28.5 -25 79.5 -25q77 0 127 47t53 124v44q-85 0 -145.5 -8t-101.5 -35t-41 -81q0 -41 28.5 -66zM217.5 681q-38.5 36 -38.5 90q0 14 3 29h15q15 -38 46 -57.5t76 -19.5t76 19.5t47 57.5h14q3 -15 3 -30q0 -54 -39 -89.5t-101 -35.5q-63 0 -101.5 36
z" />
    <glyph glyph-name="Aogonek" unicode="&#x104;" horiz-adv-x="752" 
d="M98 -1l-26 1l-56 -2q27 28 57.5 90.5t87.5 222.5l28 78q35 101 50 153.5t15 85.5q0 45 -30 75q81 -2 156 -2t157 2q-16 -16 -24 -34t-8 -42q0 -33 14 -86t48 -154l25 -74q39 -116 64 -178t42 -90t38 -47l-62 2l-30 -1h-18q-23 -26 -23 -57q0 -37 30.5 -60.5t79.5 -22.5
q-40 -35 -92 -35q-44 0 -73 23t-29 67q0 51 42 92q8 13 8 31q0 36 -30 134h-348q-27 -94 -27 -128q0 -15 4 -24.5t12 -21.5q-43 2 -82 2zM520 234l-75 233l-56 169h-50l-55 -170l-75 -232h311z" />
    <glyph glyph-name="aogonek" unicode="&#x105;" horiz-adv-x="619" 
d="M375 106q50 47 53 124v44q-85 0 -145.5 -8t-101.5 -35t-41 -81q0 -41 28.5 -66t79.5 -25q77 0 127 47zM146.5 288.5q107.5 40.5 281.5 48.5v157h-78q-172 -1 -269 -61l31 95v35q26 -7 98.5 -10t146.5 -3q109 0 166 5q-6 -24 -8 -73.5t-2 -184.5v-27q0 -98 3 -144
t12 -70.5t30 -38.5l-25 -5q-35 -5 -55 -10q-25 -26 -25 -60q0 -37 30.5 -60.5t79.5 -22.5q-40 -35 -92 -35q-44 0 -73 23t-29 67q0 29 14 56t42 48q7 36 8 81q-30 -50 -84.5 -79.5t-120.5 -29.5q-88 0 -138.5 42t-50.5 111q0 105 107.5 145.5z" />
    <glyph glyph-name="Cacute" unicode="&#x106;" horiz-adv-x="717" 
d="M226 33.5q-81 45.5 -126.5 126t-45.5 183.5q0 106 48 190t132.5 131.5t191.5 47.5q34 0 95 -7q33 -5 54 -5q29 0 52 9v-46l32 -117q-73 44 -107 62.5t-70 28.5t-82 10q-68 0 -121 -36.5t-83 -102t-30 -151.5q0 -91 33.5 -160.5t94 -108t139.5 -38.5q67 0 122.5 34
t110.5 100v-157q-20 1 -36 -2t-42 -11q-42 -13 -79 -19.5t-99 -6.5q-103 0 -184 45.5zM437 939h138q-72 -67 -140 -143h-54q26 57 56 143z" />
    <glyph glyph-name="cacute" unicode="&#x107;" horiz-adv-x="576" 
d="M174.5 28q-63.5 38 -95.5 101.5t-32 137.5q0 77 35.5 144t103 108t158.5 41q21 0 71 -6l40 -3q20 0 42 9v-43l28 -98q-71 47 -113 64.5t-87 17.5q-56 0 -96 -29.5t-60 -77.5t-20 -102q0 -59 23.5 -111.5t70 -85.5t112.5 -33q64 0 112 28t93 81q1 -46 -26 -88t-80 -67.5
t-127 -25.5q-89 0 -152.5 38zM360 789h138q-72 -67 -140 -143h-54q26 57 56 143z" />
    <glyph glyph-name="Cdotaccent" unicode="&#x10a;" horiz-adv-x="717" 
d="M226 33.5q-81 45.5 -126.5 126t-45.5 183.5q0 106 48 190t132.5 131.5t191.5 47.5q34 0 95 -7q33 -5 54 -5q29 0 52 9v-46l32 -117q-73 44 -107 62.5t-70 28.5t-82 10q-68 0 -121 -36.5t-83 -102t-30 -151.5q0 -91 33.5 -160.5t94 -108t139.5 -38.5q67 0 122.5 34
t110.5 100v-157q-20 1 -36 -2t-42 -11q-42 -13 -79 -19.5t-99 -6.5q-103 0 -184 45.5zM323 872q24 21 45 42t42 45q21 -24 42 -45t45 -42q-46 -40 -87 -87q-40 47 -87 87z" />
    <glyph glyph-name="cdotaccent" unicode="&#x10b;" horiz-adv-x="576" 
d="M174.5 28q-63.5 38 -95.5 101.5t-32 137.5q0 77 35.5 144t103 108t158.5 41q21 0 71 -6l40 -3q20 0 42 9v-43l28 -98q-71 47 -113 64.5t-87 17.5q-56 0 -96 -29.5t-60 -77.5t-20 -102q0 -59 23.5 -111.5t70 -85.5t112.5 -33q64 0 112 28t93 81q1 -46 -26 -88t-80 -67.5
t-127 -25.5q-89 0 -152.5 38zM246 722q24 21 45 42t42 45q21 -24 42 -45t45 -42q-46 -40 -87 -87q-40 47 -87 87z" />
    <glyph glyph-name="Ccaron" unicode="&#x10c;" horiz-adv-x="717" 
d="M226 33.5q-81 45.5 -126.5 126t-45.5 183.5q0 106 48 190t132.5 131.5t191.5 47.5q34 0 95 -7q33 -5 54 -5q29 0 52 9v-46l32 -117q-73 44 -107 62.5t-70 28.5t-82 10q-68 0 -121 -36.5t-83 -102t-30 -151.5q0 -91 33.5 -160.5t94 -108t139.5 -38.5q67 0 122.5 34
t110.5 100v-157q-20 1 -36 -2t-42 -11q-42 -13 -79 -19.5t-99 -6.5q-103 0 -184 45.5zM231 929l13 24q94 -33 169 -54q77 22 165 55l11 -21q-108 -82 -179 -146q-87 74 -179 142z" />
    <glyph glyph-name="ccaron" unicode="&#x10d;" horiz-adv-x="576" 
d="M174.5 28q-63.5 38 -95.5 101.5t-32 137.5q0 77 35.5 144t103 108t158.5 41q21 0 71 -6l40 -3q20 0 42 9v-43l28 -98q-71 47 -113 64.5t-87 17.5q-56 0 -96 -29.5t-60 -77.5t-20 -102q0 -59 23.5 -111.5t70 -85.5t112.5 -33q64 0 112 28t93 81q1 -46 -26 -88t-80 -67.5
t-127 -25.5q-89 0 -152.5 38zM154 779l13 24q94 -33 169 -54q77 22 165 55l11 -21q-108 -82 -179 -146q-87 74 -179 142z" />
    <glyph glyph-name="Dcaron" unicode="&#x10e;" horiz-adv-x="780" 
d="M100 47q9 29 12 89.5t3 193.5v40q0 133 -3 193.5t-12 89.5t-30 49q40 -2 88 -2h197q112 0 196 -43t129.5 -120.5t45.5 -179.5q0 -104 -47.5 -185t-131.5 -126.5t-190 -45.5h-199q-48 0 -88 -2q21 20 30 49zM209 73q63 -12 165 -12q72 0 126.5 35t84.5 98.5t30 147.5
q0 88 -33.5 155.5t-96.5 104.5t-150 37q-73 0 -130 -4v-305q0 -137 4 -257zM170 929l13 24q94 -33 169 -54q77 22 165 55l11 -21q-108 -82 -179 -146q-87 74 -179 142z" />
    <glyph glyph-name="dcaron" unicode="&#x10f;" horiz-adv-x="686" 
d="M510 95q-34 -50 -86.5 -78t-118.5 -28q-75 0 -133.5 35.5t-91.5 99.5t-33 145q0 84 35.5 150t98.5 103.5t142 37.5q58 0 104.5 -22t78.5 -63q-1 86 -4 128t-12 64.5t-29 35.5q72 12 153 34q-22 -66 -22 -233v-234q0 -99 2.5 -144.5t12 -70t30.5 -38.5q-82 -14 -141 -30
q11 43 14 108zM177 163.5q23 -51.5 63.5 -79.5t93.5 -28q71 0 117.5 48t53.5 130v75q-7 86 -55.5 138t-122.5 52q-51 0 -90.5 -27.5t-61 -76.5t-21.5 -113q0 -67 23 -118.5zM752 625h-52l17 159h110q-41 -77 -75 -159z" />
    <glyph glyph-name="Dcroat" unicode="&#x110;" horiz-adv-x="766" 
d="M113 46.5q9 27.5 12 86.5t3 185h-103v64h103q0 126 -3 185t-12 86.5t-30 48.5q40 -2 88 -2h197q112 0 195.5 -43t129 -120.5t45.5 -179.5q0 -104 -47.5 -185t-131 -126.5t-189.5 -45.5h-199q-48 0 -88 -2q21 21 30 48.5zM222 73q63 -12 164 -12q72 0 127 35t85 98.5
t30 147.5q0 88 -33.5 155.5t-96.5 104.5t-150 37q-74 0 -130 -4v-253h177v-64h-177q0 -129 4 -245z" />
    <glyph glyph-name="dcroat" unicode="&#x111;" horiz-adv-x="696" 
d="M510 95q-34 -50 -86.5 -78t-118.5 -28q-75 0 -133.5 35.5t-91.5 99.5t-33 145q0 84 35.5 150t98.5 103.5t142 37.5q58 0 104.5 -22t78.5 -63q0 82 -3 128h-262v58h251q-9 26 -31 42q72 12 153 34q-9 -30 -15 -76h78v-58h-83q-2 -58 -2 -99v-234q0 -99 2.5 -144.5t12 -70
t30.5 -38.5q-82 -14 -141 -30q11 43 14 108zM177 163.5q23 -51.5 63.5 -79.5t93.5 -28q71 0 117.5 48t53.5 130v75q-7 86 -55.5 138t-122.5 52q-51 0 -90.5 -27.5t-61 -76.5t-21.5 -113q0 -67 23 -118.5z" />
    <glyph glyph-name="Emacron" unicode="&#x112;" horiz-adv-x="628" 
d="M213 0h-55q-48 0 -88 -2q21 20 30 49t12 89.5t3 193.5v40q0 133 -3 193.5t-12 89.5t-30 49q40 -2 88 -2h109q85 0 159 4.5t103 13.5v-34l36 -108q-90 63 -274 66h-86v-263q85 2 128 5.5t65 11.5t39 23q-2 -32 -2 -69t2 -69q-17 15 -39 23t-65 11.5t-128 5.5
q0 -163 5 -260q32 -2 53 -2q116 1 202.5 20t142.5 50l-37 -104v-39q-67 14 -358 14zM173 903h300v-61h-300v61z" />
    <glyph glyph-name="emacron" unicode="&#x113;" horiz-adv-x="653" 
d="M189 24.5q-66 34.5 -104 97.5t-38 145q0 85 37.5 152t102.5 104t146 37q86 0 149 -38t95.5 -108.5t28.5 -164.5h-458q11 -86 68.5 -134t147.5 -48q57 0 109.5 19.5t92.5 54.5q-1 -43 -32 -77.5t-83 -54t-114 -19.5q-82 0 -148 34.5zM504 315q-7 85 -56 135.5t-124 50.5
q-78 0 -127 -52.5t-53 -142.5zM181 753h300v-61h-300v61z" />
    <glyph glyph-name="Edotaccent" unicode="&#x116;" horiz-adv-x="628" 
d="M213 0h-55q-48 0 -88 -2q21 20 30 49t12 89.5t3 193.5v40q0 133 -3 193.5t-12 89.5t-30 49q40 -2 88 -2h109q85 0 159 4.5t103 13.5v-34l36 -108q-90 63 -274 66h-86v-263q85 2 128 5.5t65 11.5t39 23q-2 -32 -2 -69t2 -69q-17 15 -39 23t-65 11.5t-128 5.5
q0 -163 5 -260q32 -2 53 -2q116 1 202.5 20t142.5 50l-37 -104v-39q-67 14 -358 14zM236 872q24 21 45 42t42 45q21 -24 42 -45t45 -42q-46 -40 -87 -87q-40 47 -87 87z" />
    <glyph glyph-name="edotaccent" unicode="&#x117;" horiz-adv-x="653" 
d="M189 24.5q-66 34.5 -104 97.5t-38 145q0 85 37.5 152t102.5 104t146 37q86 0 149 -38t95.5 -108.5t28.5 -164.5h-458q11 -86 68.5 -134t147.5 -48q57 0 109.5 19.5t92.5 54.5q-1 -43 -32 -77.5t-83 -54t-114 -19.5q-82 0 -148 34.5zM504 315q-7 85 -56 135.5t-124 50.5
q-78 0 -127 -52.5t-53 -142.5zM244 722q24 21 45 42t42 45q21 -24 42 -45t45 -42q-46 -40 -87 -87q-40 47 -87 87z" />
    <glyph glyph-name="Eogonek" unicode="&#x118;" horiz-adv-x="628" 
d="M474 -5q-19 -23 -19 -53q0 -37 30.5 -60.5t79.5 -22.5q-40 -35 -92 -35q-44 0 -73 23t-29 67q0 46 34 84q-126 2 -192 2h-55q-48 0 -88 -2q21 20 30 49t12 89.5t3 193.5v40q0 133 -3 193.5t-12 89.5t-30 49q40 -2 88 -2h109q85 0 159 4.5t103 13.5v-34l36 -108
q-90 63 -274 66h-86v-263q85 2 128 5.5t65 11.5t39 23q-2 -32 -2 -69t2 -69q-17 15 -39 23t-65 11.5t-128 5.5q0 -163 5 -260q32 -2 53 -2q116 1 202.5 20t142.5 50l-37 -104v-39q-27 6 -97 9z" />
    <glyph glyph-name="eogonek" unicode="&#x119;" horiz-adv-x="653" 
d="M189 24.5q-66 34.5 -104 97.5t-38 145q0 85 37.5 152t102.5 104t146 37q86 0 149 -38t95.5 -108.5t28.5 -164.5h-458q11 -86 68.5 -134t147.5 -48q57 0 109.5 19.5t92.5 54.5q-1 -40 -27.5 -72t-71.5 -53q-41 -30 -41 -74q0 -37 30.5 -60.5t79.5 -22.5q-40 -35 -92 -35
q-44 0 -73 23t-29 67q0 43 28 78q-20 -2 -33 -2q-82 0 -148 34.5zM504 315q-7 85 -56 135.5t-124 50.5q-78 0 -127 -52.5t-53 -142.5z" />
    <glyph glyph-name="Ecaron" unicode="&#x11a;" horiz-adv-x="628" 
d="M213 0h-55q-48 0 -88 -2q21 20 30 49t12 89.5t3 193.5v40q0 133 -3 193.5t-12 89.5t-30 49q40 -2 88 -2h109q85 0 159 4.5t103 13.5v-34l36 -108q-90 63 -274 66h-86v-263q85 2 128 5.5t65 11.5t39 23q-2 -32 -2 -69t2 -69q-17 15 -39 23t-65 11.5t-128 5.5
q0 -163 5 -260q32 -2 53 -2q116 1 202.5 20t142.5 50l-37 -104v-39q-67 14 -358 14zM144 929l13 24q94 -33 169 -54q77 22 165 55l11 -21q-108 -82 -179 -146q-87 74 -179 142z" />
    <glyph glyph-name="ecaron" unicode="&#x11b;" horiz-adv-x="653" 
d="M189 24.5q-66 34.5 -104 97.5t-38 145q0 85 37.5 152t102.5 104t146 37q86 0 149 -38t95.5 -108.5t28.5 -164.5h-458q11 -86 68.5 -134t147.5 -48q57 0 109.5 19.5t92.5 54.5q-1 -43 -32 -77.5t-83 -54t-114 -19.5q-82 0 -148 34.5zM504 315q-7 85 -56 135.5t-124 50.5
q-78 0 -127 -52.5t-53 -142.5zM152 779l13 24q94 -33 169 -54q77 22 165 55l11 -21q-108 -82 -179 -146q-87 74 -179 142z" />
    <glyph glyph-name="Gbreve" unicode="&#x11e;" horiz-adv-x="771" 
d="M226 33.5q-81 45.5 -126.5 126t-45.5 183.5q0 106 48 190t132.5 131.5t191.5 47.5q34 0 95 -7q33 -5 54 -5q31 0 58 11v-48l33 -121l-21 13q-64 39 -96.5 56.5t-67.5 26.5t-81 9q-68 0 -121 -36.5t-83 -102t-30 -151.5q0 -90 33.5 -160t94 -108.5t139.5 -38.5
q83 0 155 52q-2 92 -8 138t-20.5 69t-43.5 41l40 -1q29 -1 72 -1h9l58 1l32 1q-24 -19 -34.5 -46.5t-14 -84.5t-3.5 -184v-10q-16 2 -23 2q-16 0 -32.5 -4t-33.5 -9q-40 -12 -77.5 -19t-98.5 -7q-103 0 -184 45.5zM291.5 831q-38.5 36 -38.5 90q0 14 3 29h15
q15 -38 46 -57.5t76 -19.5t76 19.5t47 57.5h14q3 -15 3 -30q0 -54 -39 -89.5t-101 -35.5q-63 0 -101.5 36z" />
    <glyph glyph-name="gbreve" unicode="&#x11f;" horiz-adv-x="655" 
d="M48 -53q0 40 26 67.5t72 41.5q-25 22 -25 56q0 56 59 82q-56 24 -87.5 68.5t-31.5 103.5q0 58 31 102t87.5 68.5t131.5 24.5q38 0 78 -8q28 -6 44 -6q38 0 86.5 6.5t93.5 20.5v-36l20 -67q-55 19 -152 22q37 -23 55.5 -56.5t18.5 -73.5q0 -56 -30 -99.5t-86 -68.5
t-131 -25q-20 0 -52 4q-33 -4 -44.5 -15t-11.5 -28t17.5 -27t53.5 -10h157q93 0 139 -30.5t46 -86.5q0 -73 -78 -115t-222 -42q-265 0 -265 127zM191.5 -99q51.5 -22 151.5 -22q96 0 144 23.5t48 58.5q0 29 -27 41.5t-104 12.5h-112q-49 0 -85 9q-32 -7 -49.5 -22.5
t-17.5 -38.5q0 -40 51.5 -62zM200 264q41 -39 112 -39q68 0 106.5 36t38.5 99q0 68 -41.5 107t-112.5 39q-67 0 -105.5 -36t-38.5 -99q0 -68 41 -107zM220.5 681q-38.5 36 -38.5 90q0 14 3 29h15q15 -38 46 -57.5t76 -19.5t76 19.5t47 57.5h14q3 -15 3 -30q0 -54 -39 -89.5
t-101 -35.5q-63 0 -101.5 36z" />
    <glyph glyph-name="Gdotaccent" unicode="&#x120;" horiz-adv-x="771" 
d="M226 33.5q-81 45.5 -126.5 126t-45.5 183.5q0 106 48 190t132.5 131.5t191.5 47.5q34 0 95 -7q33 -5 54 -5q31 0 58 11v-48l33 -121l-21 13q-64 39 -96.5 56.5t-67.5 26.5t-81 9q-68 0 -121 -36.5t-83 -102t-30 -151.5q0 -90 33.5 -160t94 -108.5t139.5 -38.5
q83 0 155 52q-2 92 -8 138t-20.5 69t-43.5 41l40 -1q29 -1 72 -1h9l58 1l32 1q-24 -19 -34.5 -46.5t-14 -84.5t-3.5 -184v-10q-16 2 -23 2q-16 0 -32.5 -4t-33.5 -9q-40 -12 -77.5 -19t-98.5 -7q-103 0 -184 45.5zM306 872q24 21 45 42t42 45q21 -24 42 -45t45 -42
q-46 -40 -87 -87q-40 47 -87 87z" />
    <glyph glyph-name="gdotaccent" unicode="&#x121;" horiz-adv-x="655" 
d="M48 -53q0 40 26 67.5t72 41.5q-25 22 -25 56q0 56 59 82q-56 24 -87.5 68.5t-31.5 103.5q0 58 31 102t87.5 68.5t131.5 24.5q38 0 78 -8q28 -6 44 -6q38 0 86.5 6.5t93.5 20.5v-36l20 -67q-55 19 -152 22q37 -23 55.5 -56.5t18.5 -73.5q0 -56 -30 -99.5t-86 -68.5
t-131 -25q-20 0 -52 4q-33 -4 -44.5 -15t-11.5 -28t17.5 -27t53.5 -10h157q93 0 139 -30.5t46 -86.5q0 -73 -78 -115t-222 -42q-265 0 -265 127zM191.5 -99q51.5 -22 151.5 -22q96 0 144 23.5t48 58.5q0 29 -27 41.5t-104 12.5h-112q-49 0 -85 9q-32 -7 -49.5 -22.5
t-17.5 -38.5q0 -40 51.5 -62zM200 264q41 -39 112 -39q68 0 106.5 36t38.5 99q0 68 -41.5 107t-112.5 39q-67 0 -105.5 -36t-38.5 -99q0 -68 41 -107zM235 722q24 21 45 42t42 45q21 -24 42 -45t45 -42q-46 -40 -87 -87q-40 47 -87 87z" />
    <glyph glyph-name="uni0122" unicode="&#x122;" horiz-adv-x="771" 
d="M226 33.5q-81 45.5 -126.5 126t-45.5 183.5q0 106 48 190t132.5 131.5t191.5 47.5q34 0 95 -7q33 -5 54 -5q31 0 58 11v-48l33 -121l-21 13q-64 39 -96.5 56.5t-67.5 26.5t-81 9q-68 0 -121 -36.5t-83 -102t-30 -151.5q0 -90 33.5 -160t94 -108.5t139.5 -38.5
q83 0 155 52q-2 92 -8 138t-20.5 69t-43.5 41l40 -1q29 -1 72 -1h9l58 1l32 1q-24 -19 -34.5 -46.5t-14 -84.5t-3.5 -184v-10q-16 2 -23 2q-16 0 -32.5 -4t-33.5 -9q-40 -12 -77.5 -19t-98.5 -7q-103 0 -184 45.5zM394 -255h-52l17 159h110q-41 -77 -75 -159z" />
    <glyph glyph-name="uni0123" unicode="&#x123;" horiz-adv-x="655" 
d="M48 -53q0 40 26 67.5t72 41.5q-25 22 -25 56q0 56 59 82q-56 24 -87.5 68.5t-31.5 103.5q0 58 31 102t87.5 68.5t131.5 24.5q38 0 78 -8q28 -6 44 -6q38 0 86.5 6.5t93.5 20.5v-36l20 -67q-55 19 -152 22q37 -23 55.5 -56.5t18.5 -73.5q0 -56 -30 -99.5t-86 -68.5
t-131 -25q-20 0 -52 4q-33 -4 -44.5 -15t-11.5 -28t17.5 -27t53.5 -10h157q93 0 139 -30.5t46 -86.5q0 -73 -78 -115t-222 -42q-265 0 -265 127zM191.5 -99q51.5 -22 151.5 -22q96 0 144 23.5t48 58.5q0 29 -27 41.5t-104 12.5h-112q-49 0 -85 9q-32 -7 -49.5 -22.5
t-17.5 -38.5q0 -40 51.5 -62zM200 264q41 -39 112 -39q68 0 106.5 36t38.5 99q0 68 -41.5 107t-112.5 39q-67 0 -105.5 -36t-38.5 -99q0 -68 41 -107zM336 805h52l-17 -159h-110q41 77 75 159z" />
    <glyph glyph-name="Hbar" unicode="&#x126;" horiz-adv-x="852" 
d="M127.5 47.5q9.5 28.5 12.5 89.5t3 193v40q0 131 -2 174h-116v64h111q-5 38 -13.5 58t-25.5 36q41 -2 88 -2h5q48 0 88 2q-17 -16 -25.5 -36t-13.5 -58h374q-4 38 -13 58t-26 36q41 -2 88 -2h5q48 0 88 2q-16 -16 -25 -36t-13 -58h110v-64h-115q-2 -43 -2 -174v-40
q0 -132 3 -193t12 -89.5t30 -49.5q-40 2 -88 2h-5q-47 0 -88 -2q21 20 30.5 48t12.5 86t3 184h-387q0 -126 3 -184t12 -86t30 -48q-40 2 -88 2h-5q-47 0 -88 -2q21 21 30.5 49.5zM620 384q0 80 -2 160h-383q-2 -80 -2 -160h387z" />
    <glyph glyph-name="hbar" unicode="&#x127;" horiz-adv-x="697" 
d="M93 37q8 24 11 71.5t3 144.5v197q0 117 -3 153h-97v58h86q-9 26 -31 42q72 12 153 34q-9 -30 -15 -76h242v-58h-246q-2 -56 -2 -93v-50q32 48 85.5 74.5t119.5 26.5q96 0 149 -54t52 -150v-104q0 -99 2.5 -145.5t10.5 -70.5t26 -39q-36 2 -78 2h-13q-42 0 -77 -2
q18 15 26 39t10.5 71.5t2.5 144.5v81q0 73 -38 115t-105 42q-77 0 -124 -51t-49 -139v-48q0 -99 2.5 -145.5t10.5 -70.5t26 -39q-36 2 -78 2h-10q-42 0 -78 -2q18 15 26 39z" />
    <glyph glyph-name="Itilde" unicode="&#x128;" horiz-adv-x="321" 
d="M100 47q9 29 12 89.5t3 193.5v40q0 133 -3 193.5t-12 89.5t-30 49q40 -2 88 -2h5q48 0 88 2q-21 -21 -30.5 -49.5t-12.5 -89.5t-3 -193v-40q0 -132 3 -193t12.5 -89.5t30.5 -49.5q-40 2 -88 2h-5q-48 0 -88 -2q21 20 30 49zM8 833q0 42 27 68.5t69 26.5q25 0 42.5 -9.5
t41.5 -27.5q17 -13 26 -18t20 -5q37 0 50 60h24q4 -15 4 -32q0 -41 -26.5 -68t-69.5 -27q-25 0 -42.5 9.5t-41.5 27.5q-17 13 -26 18t-20 5q-37 0 -50 -60h-24q-4 15 -4 32z" />
    <glyph glyph-name="itilde" unicode="&#x129;" horiz-adv-x="303" 
d="M95 37q8 24 10.5 70.5t2.5 145.5v25q0 99 -2.5 144.5t-12 70t-30.5 38.5q75 13 154 34q-22 -66 -22 -233v-79q0 -97 2.5 -144.5t10.5 -71.5t26 -39q-36 2 -77 2h-11q-41 0 -77 -2q18 15 26 39zM-3 683q0 42 27 68.5t69 26.5q25 0 42.5 -9.5t41.5 -27.5q17 -13 26 -18
t20 -5q37 0 50 60h24q4 -15 4 -32q0 -41 -26.5 -68t-69.5 -27q-25 0 -42.5 9.5t-41.5 27.5q-17 13 -26 18t-20 5q-37 0 -50 -60h-24q-4 15 -4 32z" />
    <glyph glyph-name="Imacron" unicode="&#x12a;" horiz-adv-x="321" 
d="M100 47q9 29 12 89.5t3 193.5v40q0 133 -3 193.5t-12 89.5t-30 49q40 -2 88 -2h5q48 0 88 2q-21 -21 -30.5 -49.5t-12.5 -89.5t-3 -193v-40q0 -132 3 -193t12.5 -89.5t30.5 -49.5q-40 2 -88 2h-5q-48 0 -88 -2q21 20 30 49zM10 903h300v-61h-300v61z" />
    <glyph glyph-name="imacron" unicode="&#x12b;" horiz-adv-x="303" 
d="M95 37q8 24 10.5 70.5t2.5 145.5v25q0 99 -2.5 144.5t-12 70t-30.5 38.5q75 13 154 34q-22 -66 -22 -233v-79q0 -97 2.5 -144.5t10.5 -71.5t26 -39q-36 2 -77 2h-11q-41 0 -77 -2q18 15 26 39zM-1 753h300v-61h-300v61z" />
    <glyph glyph-name="Iogonek" unicode="&#x12e;" horiz-adv-x="321" 
d="M61 -153q-29 23 -29 67q0 28 13.5 55t40.5 48q13 19 19 50.5t8 90.5t2 172v40q0 133 -3 193.5t-12 89.5t-30 49q40 -2 88 -2h5q48 0 88 2q-21 -21 -30.5 -49.5t-12.5 -89.5t-3 -193v-40q0 -132 3 -193t12.5 -89.5t30.5 -49.5q-40 2 -88 2h-5h-18q-24 -26 -24 -58
q0 -37 30.5 -60.5t79.5 -22.5q-40 -35 -92 -35q-44 0 -73 23z" />
    <glyph glyph-name="iogonek" unicode="&#x12f;" horiz-adv-x="303" 
d="M62 722q24 21 45 42t42 45q21 -24 42 -45t45 -42q-46 -40 -87 -87q-40 47 -87 87zM41.5 -26.5q16.5 29.5 48.5 50.5q11 24 14.5 71t3.5 158v25q0 99 -2.5 144.5t-12 70t-30.5 38.5q75 13 154 34q-22 -66 -22 -233v-79q0 -97 2.5 -144.5t10.5 -71.5t26 -39q-36 2 -77 2
h-11h-13q-24 -26 -24 -58q0 -37 30.5 -60.5t79.5 -22.5q-40 -35 -92 -35q-44 0 -73 23t-29 67q0 30 16.5 59.5z" />
    <glyph glyph-name="Idotaccent" unicode="&#x130;" horiz-adv-x="321" 
d="M100 47q9 29 12 89.5t3 193.5v40q0 133 -3 193.5t-12 89.5t-30 49q40 -2 88 -2h5q48 0 88 2q-21 -21 -30.5 -49.5t-12.5 -89.5t-3 -193v-40q0 -132 3 -193t12.5 -89.5t30.5 -49.5q-40 2 -88 2h-5q-48 0 -88 -2q21 20 30 49zM73 872q24 21 45 42t42 45q21 -24 42 -45
t45 -42q-46 -40 -87 -87q-40 47 -87 87z" />
    <glyph glyph-name="dotlessi" unicode="&#x131;" horiz-adv-x="303" 
d="M95 37q8 24 10.5 70.5t2.5 145.5v25q0 99 -2.5 144.5t-12 70t-30.5 38.5q75 13 154 34q-22 -66 -22 -233v-79q0 -97 2.5 -144.5t10.5 -71.5t26 -39q-36 2 -77 2h-11q-41 0 -77 -2q18 15 26 39z" />
    <glyph glyph-name="IJ" unicode="&#x132;" horiz-adv-x="783" 
d="M386 76.5q40 -21.5 75 -21.5q62 0 96 34.5t34 106.5v174q0 132 -3 193t-12.5 89.5t-30.5 49.5q40 -2 88 -2h5q48 0 88 2q-21 -20 -30 -49t-12 -89.5t-3 -193.5v-173q0 -97 -59.5 -153t-165.5 -56q-41 0 -86 15q-23 7 -34 7q-9 0 -25 -2l-2 134q37 -44 77 -65.5zM100 47
q9 29 12 89.5t3 193.5v40q0 133 -3 193.5t-12 89.5t-30 49q40 -2 88 -2h5q48 0 88 2q-21 -21 -30.5 -49.5t-12.5 -89.5t-3 -193v-40q0 -132 3 -193t12.5 -89.5t30.5 -49.5q-40 2 -88 2h-5q-48 0 -88 -2q21 20 30 49z" />
    <glyph glyph-name="ij" unicode="&#x133;" horiz-adv-x="593" 
d="M95 37q8 24 10.5 70.5t2.5 145.5v25q0 99 -2.5 144.5t-12 70t-30.5 38.5q75 13 154 34q-22 -66 -22 -233v-79q0 -97 2.5 -144.5t10.5 -71.5t26 -39q-36 2 -77 2h-11q-41 0 -77 -2q18 15 26 39zM62 722q24 21 45 42t42 45q21 -24 42 -45t45 -42q-46 -40 -87 -87
q-40 47 -87 87zM389.5 -111.5q16.5 56.5 16.5 170.5v219q0 98 -3 144t-12 70.5t-30 38.5q72 12 153 34q-22 -66 -22 -233v-82q0 -44 4 -134q4 -94 4 -138q0 -83 -38.5 -122t-117.5 -41q29 17 45.5 73.5zM359 722q24 21 45 42t42 45q21 -24 42 -45t45 -42q-46 -40 -87 -87
q-40 47 -87 87z" />
    <glyph glyph-name="uni0136" unicode="&#x136;" horiz-adv-x="732" 
d="M100 47q9 29 12 89.5t3 193.5v40q0 133 -3 193.5t-12 89.5t-30 49q40 -2 88 -2h5q48 0 88 2q-21 -20 -30 -48t-12 -86.5t-4 -184.5h125l78 99q74 97 102 140t42 81q41 -2 78 -2q38 0 79 2q-91 -67 -205 -204l-78 -97l52 -84q74 -113 121 -177t71.5 -90t53.5 -53
q-45 2 -86 2q-42 0 -87 -2q-4 31 -27.5 74.5t-96.5 159.5l-57 85h-165q1 -126 4 -184.5t12 -86.5t30 -48q-40 2 -88 2h-5q-48 0 -88 -2q21 20 30 49zM359 -255h-52l17 159h110q-41 -77 -75 -159z" />
    <glyph glyph-name="uni0137" unicode="&#x137;" horiz-adv-x="625" 
d="M93 37q8 24 11 71.5t3 144.5v197q0 99 -2.5 144.5t-12 70t-30.5 38.5q72 12 153 34q-21 -63 -21 -233v-197h96l61 73q55 72 76 106t33 66q38 -2 74 -2q35 0 73 2q-32 -23 -68.5 -56t-102.5 -111l-61 -72l57 -85q56 -82 91 -126.5t49.5 -59t47.5 -43.5q-53 2 -82 1
q-40 0 -83 -2q-4 30 -22 64.5t-75 120.5l-42 60h-122q0 -93 2.5 -138t10.5 -68.5t26 -38.5q-36 2 -78 2h-10q-42 0 -78 -2q18 15 26 39zM303 -255h-52l17 159h110q-41 -77 -75 -159z" />
    <glyph glyph-name="Lacute" unicode="&#x139;" horiz-adv-x="606" 
d="M202 0h-44q-48 0 -88 -2q21 20 30 49t12 89.5t3 193.5v40q0 133 -3 193.5t-12 89.5t-30 49q40 -2 88 -2h5q48 0 88 2q-21 -21 -30.5 -49.5t-12.5 -89.5t-3 -193v-40q0 -165 5 -265q43 -5 94 -7q97 1 166 21t128 52l-38 -106v-39q-67 14 -358 14zM187 939h138
q-72 -67 -140 -143h-54q26 57 56 143z" />
    <glyph glyph-name="lacute" unicode="&#x13a;" horiz-adv-x="305" 
d="M98 37q8 24 11 71.5t3 144.5v197q0 98 -3 144t-12 70.5t-30 38.5q72 12 153 34q-22 -66 -22 -233v-251q0 -97 3 -144.5t11 -71.5t26 -39q-36 2 -78 2h-10q-42 0 -78 -2q18 15 26 39zM182 939h138q-72 -67 -140 -143h-54q26 57 56 143z" />
    <glyph glyph-name="uni013B" unicode="&#x13b;" horiz-adv-x="606" 
d="M202 0h-44q-48 0 -88 -2q21 20 30 49t12 89.5t3 193.5v40q0 133 -3 193.5t-12 89.5t-30 49q40 -2 88 -2h5q48 0 88 2q-21 -21 -30.5 -49.5t-12.5 -89.5t-3 -193v-40q0 -165 5 -265q43 -5 94 -7q97 1 166 21t128 52l-38 -106v-39q-67 14 -358 14zM337 -255h-52l17 159h110
q-41 -77 -75 -159z" />
    <glyph glyph-name="uni013C" unicode="&#x13c;" horiz-adv-x="305" 
d="M98 37q8 24 11 71.5t3 144.5v197q0 98 -3 144t-12 70.5t-30 38.5q72 12 153 34q-22 -66 -22 -233v-251q0 -97 3 -144.5t11 -71.5t26 -39q-36 2 -78 2h-10q-42 0 -78 -2q18 15 26 39zM138 -255h-52l17 159h110q-41 -77 -75 -159z" />
    <glyph glyph-name="Lcaron" unicode="&#x13d;" horiz-adv-x="606" 
d="M202 0h-44q-48 0 -88 -2q21 20 30 49t12 89.5t3 193.5v40q0 133 -3 193.5t-12 89.5t-30 49q40 -2 88 -2h5q48 0 88 2q-21 -21 -30.5 -49.5t-12.5 -89.5t-3 -193v-40q0 -165 5 -265q43 -5 94 -7q97 1 166 21t128 52l-38 -106v-39q-67 14 -358 14zM382 541h-52l17 159h110
q-41 -77 -75 -159z" />
    <glyph glyph-name="lcaron" unicode="&#x13e;" horiz-adv-x="293" 
d="M98 37q8 24 11 71.5t3 144.5v197q0 98 -3 144t-12 70.5t-30 38.5q72 12 153 34q-22 -66 -22 -233v-251q0 -97 3 -144.5t11 -71.5t26 -39q-36 2 -78 2h-10q-42 0 -78 -2q18 15 26 39zM358 625h-52l17 159h110q-41 -77 -75 -159z" />
    <glyph glyph-name="Lslash" unicode="&#x141;" horiz-adv-x="619" 
d="M215 0h-44q-47 0 -88 -2q20 20 29 46.5t12.5 82t4.5 171.5l-94 -38l-24 58l118 50q0 133 -3 194.5t-12.5 90t-30.5 49.5q41 -2 88 -2h5q48 0 88 2q-20 -20 -29 -46t-12.5 -81.5t-3.5 -169.5l201 84l25 -59l-226 -94v-6q0 -165 5 -265q42 -5 94 -7q96 1 165 21t128 52
l-38 -106v-39q-67 14 -358 14z" />
    <glyph glyph-name="lslash" unicode="&#x142;" horiz-adv-x="377" 
d="M129 37q8 24 11 71.5t3 144.5v57l-102 -42l-22 56l124 50v76q0 98 -3 144t-12.5 70.5t-30.5 38.5q75 13 154 34q-22 -66 -22 -233v-95l111 46l22 -56l-133 -55v-91q0 -97 3 -144.5t11 -71.5t26 -39q-36 2 -78 2h-10q-42 0 -78 -2q18 15 26 39z" />
    <glyph glyph-name="Nacute" unicode="&#x143;" horiz-adv-x="809" 
d="M185 587v-233q0 -142 4 -207.5t15 -96t36 -52.5q-40 2 -91 2q-47 0 -86 -2q24 24 35 58.5t14.5 107.5t4.5 232v149q0 38 -8.5 61.5t-26 42t-58.5 53.5h40q50 0 85.5 2.5t71.5 10.5l411 -541v190q-1 134 -5.5 196t-15.5 91.5t-36 50.5q40 -2 91 -2q47 0 86 2
q-24 -24 -34.5 -58.5t-14 -108t-3.5 -231.5v-314h-20zM438 939h138q-72 -67 -140 -143h-54q26 57 56 143z" />
    <glyph glyph-name="nacute" unicode="&#x144;" horiz-adv-x="697" 
d="M93 37q8 24 11 71.5t3 144.5v27q0 99 -2.5 144.5t-12 70t-30.5 38.5q82 14 141 30q-11 -35 -14 -111q31 51 86 80t124 29q96 0 149 -54t52 -150v-104q0 -99 2.5 -145.5t10.5 -70.5t26 -39q-36 2 -78 2h-13q-42 0 -77 -2q18 15 26 39t10.5 71.5t2.5 144.5v81q0 73 -38 115
t-105 42q-77 0 -124 -51t-49 -139v-48q0 -99 2.5 -145.5t10.5 -70.5t26 -39q-36 2 -78 2h-10q-42 0 -78 -2q18 15 26 39zM365 789h138q-72 -67 -140 -143h-54q26 57 56 143z" />
    <glyph glyph-name="uni0145" unicode="&#x145;" horiz-adv-x="809" 
d="M185 587v-233q0 -142 4 -207.5t15 -96t36 -52.5q-40 2 -91 2q-47 0 -86 -2q24 24 35 58.5t14.5 107.5t4.5 232v149q0 38 -8.5 61.5t-26 42t-58.5 53.5h40q50 0 85.5 2.5t71.5 10.5l411 -541v190q-1 134 -5.5 196t-15.5 91.5t-36 50.5q40 -2 91 -2q47 0 86 2
q-24 -24 -34.5 -58.5t-14 -108t-3.5 -231.5v-314h-20zM395 -255h-52l17 159h110q-41 -77 -75 -159z" />
    <glyph glyph-name="uni0146" unicode="&#x146;" horiz-adv-x="697" 
d="M93 37q8 24 11 71.5t3 144.5v27q0 99 -2.5 144.5t-12 70t-30.5 38.5q82 14 141 30q-11 -35 -14 -111q31 51 86 80t124 29q96 0 149 -54t52 -150v-104q0 -99 2.5 -145.5t10.5 -70.5t26 -39q-36 2 -78 2h-13q-42 0 -77 -2q18 15 26 39t10.5 71.5t2.5 144.5v81q0 73 -38 115
t-105 42q-77 0 -124 -51t-49 -139v-48q0 -99 2.5 -145.5t10.5 -70.5t26 -39q-36 2 -78 2h-10q-42 0 -78 -2q18 15 26 39zM341 -255h-52l17 159h110q-41 -77 -75 -159z" />
    <glyph glyph-name="Ncaron" unicode="&#x147;" horiz-adv-x="809" 
d="M185 587v-233q0 -142 4 -207.5t15 -96t36 -52.5q-40 2 -91 2q-47 0 -86 -2q24 24 35 58.5t14.5 107.5t4.5 232v149q0 38 -8.5 61.5t-26 42t-58.5 53.5h40q50 0 85.5 2.5t71.5 10.5l411 -541v190q-1 134 -5.5 196t-15.5 91.5t-36 50.5q40 -2 91 -2q47 0 86 2
q-24 -24 -34.5 -58.5t-14 -108t-3.5 -231.5v-314h-20zM232 929l13 24q94 -33 169 -54q77 22 165 55l11 -21q-108 -82 -179 -146q-87 74 -179 142z" />
    <glyph glyph-name="ncaron" unicode="&#x148;" horiz-adv-x="697" 
d="M93 37q8 24 11 71.5t3 144.5v27q0 99 -2.5 144.5t-12 70t-30.5 38.5q82 14 141 30q-11 -35 -14 -111q31 51 86 80t124 29q96 0 149 -54t52 -150v-104q0 -99 2.5 -145.5t10.5 -70.5t26 -39q-36 2 -78 2h-13q-42 0 -77 -2q18 15 26 39t10.5 71.5t2.5 144.5v81q0 73 -38 115
t-105 42q-77 0 -124 -51t-49 -139v-48q0 -99 2.5 -145.5t10.5 -70.5t26 -39q-36 2 -78 2h-10q-42 0 -78 -2q18 15 26 39zM159 779l13 24q94 -33 169 -54q77 22 165 55l11 -21q-108 -82 -179 -146q-87 74 -179 142z" />
    <glyph glyph-name="Eng" unicode="&#x14a;" horiz-adv-x="809" 
d="M613 52v16l-428 519v-233q0 -142 4 -207.5t15 -96t36 -52.5q-40 2 -91 2q-47 0 -86 -2q24 24 35 58.5t14.5 107.5t4.5 232v149q0 38 -8.5 61.5t-26 42t-58.5 53.5h40q50 0 85.5 2.5t71.5 10.5l411 -541v190q-1 134 -5.5 196t-15.5 91.5t-36 50.5q40 -2 91 -2q47 0 86 2
q-24 -24 -34.5 -58.5t-14 -108t-3.5 -231.5q2 -243 2 -233q1 -38 1 -95q-1 -83 -40.5 -121t-119.5 -40q63 37 70 237z" />
    <glyph glyph-name="eng" unicode="&#x14b;" horiz-adv-x="697" 
d="M510 51v283q0 73 -38 115t-105 42q-77 0 -124 -51t-49 -139v-48q0 -99 2.5 -145.5t10.5 -70.5t26 -39q-36 2 -78 2h-10q-42 0 -78 -2q18 15 26 39t11 71.5t3 144.5v27q0 99 -2.5 144.5t-12 70t-30.5 38.5q82 14 141 30q-11 -35 -14 -111q31 51 86 80t124 29q96 0 149 -54
t52 -150v-107q0 -45 2 -137q2 -90 2 -135q0 -83 -38.5 -122t-117.5 -41q61 36 62 236z" />
    <glyph glyph-name="Omacron" unicode="&#x14c;" horiz-adv-x="844" 
d="M227.5 33.5q-81.5 45.5 -127.5 126t-46 183.5q0 106 48.5 190t134.5 131.5t194 47.5q104 0 185.5 -45.5t127.5 -126t46 -183.5q0 -106 -48.5 -190t-134.5 -131.5t-194 -47.5q-104 0 -185.5 45.5zM199.5 197q32.5 -70 92 -108.5t136.5 -38.5q74 0 130.5 36.5t87.5 102.5
t31 153q0 91 -33 161t-92.5 108.5t-136.5 38.5q-74 0 -130 -36.5t-87 -102.5t-31 -153q0 -91 32.5 -161zM269 903h300v-61h-300v61z" />
    <glyph glyph-name="omacron" unicode="&#x14d;" horiz-adv-x="697" 
d="M188.5 25.5q-66.5 35.5 -104 99t-37.5 145.5q0 83 40 149.5t110.5 103.5t158.5 37q86 0 152.5 -35.5t104 -99t37.5 -145.5q0 -83 -40 -149.5t-110.5 -103.5t-158.5 -37q-86 0 -152.5 35.5zM179 162.5q25 -53.5 70.5 -83t104.5 -29.5q56 0 98.5 27t66.5 75.5t24 112.5
q0 69 -25 122.5t-70.5 83t-104.5 29.5q-56 0 -98.5 -27t-66.5 -75.5t-24 -112.5q0 -69 25 -122.5zM198 753h300v-61h-300v61z" />
    <glyph glyph-name="Ohungarumlaut" unicode="&#x150;" horiz-adv-x="844" 
d="M227.5 33.5q-81.5 45.5 -127.5 126t-46 183.5q0 106 48.5 190t134.5 131.5t194 47.5q104 0 185.5 -45.5t127.5 -126t46 -183.5q0 -106 -48.5 -190t-134.5 -131.5t-194 -47.5q-104 0 -185.5 45.5zM199.5 197q32.5 -70 92 -108.5t136.5 -38.5q74 0 130.5 36.5t87.5 102.5
t31 153q0 91 -33 161t-92.5 108.5t-136.5 38.5q-74 0 -130 -36.5t-87 -102.5t-31 -153q0 -91 32.5 -161zM326 939h138q-72 -67 -140 -143h-54q26 57 56 143zM529 939h138q-72 -67 -140 -143h-54q26 57 56 143z" />
    <glyph glyph-name="ohungarumlaut" unicode="&#x151;" horiz-adv-x="697" 
d="M188.5 25.5q-66.5 35.5 -104 99t-37.5 145.5q0 83 40 149.5t110.5 103.5t158.5 37q86 0 152.5 -35.5t104 -99t37.5 -145.5q0 -83 -40 -149.5t-110.5 -103.5t-158.5 -37q-86 0 -152.5 35.5zM179 162.5q25 -53.5 70.5 -83t104.5 -29.5q56 0 98.5 27t66.5 75.5t24 112.5
q0 69 -25 122.5t-70.5 83t-104.5 29.5q-56 0 -98.5 -27t-66.5 -75.5t-24 -112.5q0 -69 25 -122.5zM255 789h138q-72 -67 -140 -143h-54q26 57 56 143zM458 789h138q-72 -67 -140 -143h-54q26 57 56 143z" />
    <glyph glyph-name="OE" unicode="&#x152;" horiz-adv-x="1017" 
d="M603 0h-179q-112 0 -195.5 43t-129 120.5t-45.5 179.5q0 104 47.5 185t131.5 126.5t190 45.5h233q85 0 159 4.5t103 13.5v-34l35 -108q-89 61 -268 64h-75v-261q82 2 124.5 5.5t64 11.5t38.5 23q-2 -32 -2 -69t2 -69q-17 15 -38.5 23t-64 11.5t-124.5 5.5q0 -173 6 -260
l41 -1q114 1 199.5 19.5t140.5 49.5l-37 -103v-40q-67 14 -357 14zM197.5 203.5q33.5 -66.5 96.5 -103.5t150 -37q49 0 70 1q7 102 7 262v308q-60 4 -115 4q-72 0 -127 -34.5t-85 -98t-30 -147.5q0 -88 33.5 -154.5z" />
    <glyph glyph-name="oe" unicode="&#x153;" horiz-adv-x="1112" 
d="M181.5 25.5q-63.5 35.5 -99 99t-35.5 145.5q0 83 38 149.5t105.5 103.5t151.5 37q77 0 137.5 -32t95.5 -90q36 58 95 90t131 32q82 0 143 -37.5t92.5 -108t27.5 -165.5h-439q11 -86 66 -134t141 -48q54 0 105 19t89 54q-1 -43 -31 -77.5t-80.5 -53.5t-110.5 -19
q-75 0 -136.5 33t-97.5 91q-39 -58 -102.5 -91t-140.5 -33q-82 0 -145.5 35.5zM178 162.5q24 -53.5 67.5 -83t99.5 -29.5q53 0 94 27t63.5 75.5t22.5 112.5q0 69 -24 122.5t-67.5 83t-99.5 29.5q-53 0 -94 -27t-63.5 -75.5t-22.5 -112.5q0 -69 24 -122.5zM964 315
q-8 85 -54 135.5t-118 50.5q-73 0 -119.5 -52.5t-50.5 -142.5z" />
    <glyph glyph-name="Racute" unicode="&#x154;" horiz-adv-x="715" 
d="M100 47q9 29 12 89.5t3 193.5v40q0 133 -3 193.5t-12 89.5t-30 49q40 -2 88 -2h208q136 0 212.5 -50t76.5 -139q0 -71 -49 -123t-132 -71q106 -154 157.5 -216.5t93.5 -102.5q-44 2 -84 2q-41 0 -84 -2q-2 21 -10.5 42t-34 61t-84.5 127l-54 77h-169q1 -119 4.5 -176
t12.5 -84t29 -47q-40 2 -88 2h-5q-48 0 -88 -2q21 20 30 49zM338 360q108 0 157 34.5t49 109.5q0 66 -52.5 101.5t-152.5 35.5q-74 0 -134 -5v-266q60 -10 133 -10zM372 939h138q-72 -67 -140 -143h-54q26 57 56 143z" />
    <glyph glyph-name="racute" unicode="&#x155;" horiz-adv-x="467" 
d="M93 37q8 24 11 71.5t3 144.5v27q0 99 -2.5 144.5t-12 70t-30.5 38.5q82 14 141 30q-12 -41 -15 -119q26 51 73 81t104 33q21 2 35 4.5t30 9.5v-42l28 -87q-25 15 -63 26t-66 11q-33 0 -63 -19.5t-50 -56t-23 -83.5v-47q0 -106 3.5 -156.5t14 -76.5t33.5 -43q-37 2 -80 2
h-21q-41 0 -76 -2q18 15 26 39zM303 789h138q-72 -67 -140 -143h-54q26 57 56 143z" />
    <glyph glyph-name="uni0156" unicode="&#x156;" horiz-adv-x="715" 
d="M100 47q9 29 12 89.5t3 193.5v40q0 133 -3 193.5t-12 89.5t-30 49q40 -2 88 -2h208q136 0 212.5 -50t76.5 -139q0 -71 -49 -123t-132 -71q106 -154 157.5 -216.5t93.5 -102.5q-44 2 -84 2q-41 0 -84 -2q-2 21 -10.5 42t-34 61t-84.5 127l-54 77h-169q1 -119 4.5 -176
t12.5 -84t29 -47q-40 2 -88 2h-5q-48 0 -88 -2q21 20 30 49zM338 360q108 0 157 34.5t49 109.5q0 66 -52.5 101.5t-152.5 35.5q-74 0 -134 -5v-266q60 -10 133 -10zM362 -255h-52l17 159h110q-41 -77 -75 -159z" />
    <glyph glyph-name="uni0157" unicode="&#x157;" horiz-adv-x="467" 
d="M93 37q8 24 11 71.5t3 144.5v27q0 99 -2.5 144.5t-12 70t-30.5 38.5q82 14 141 30q-12 -41 -15 -119q26 51 73 81t104 33q21 2 35 4.5t30 9.5v-42l28 -87q-25 15 -63 26t-66 11q-33 0 -63 -19.5t-50 -56t-23 -83.5v-47q0 -106 3.5 -156.5t14 -76.5t33.5 -43q-37 2 -80 2
h-21q-41 0 -76 -2q18 15 26 39zM132 -255h-52l17 159h110q-41 -77 -75 -159z" />
    <glyph glyph-name="Rcaron" unicode="&#x158;" horiz-adv-x="715" 
d="M100 47q9 29 12 89.5t3 193.5v40q0 133 -3 193.5t-12 89.5t-30 49q40 -2 88 -2h208q136 0 212.5 -50t76.5 -139q0 -71 -49 -123t-132 -71q106 -154 157.5 -216.5t93.5 -102.5q-44 2 -84 2q-41 0 -84 -2q-2 21 -10.5 42t-34 61t-84.5 127l-54 77h-169q1 -119 4.5 -176
t12.5 -84t29 -47q-40 2 -88 2h-5q-48 0 -88 -2q21 20 30 49zM338 360q108 0 157 34.5t49 109.5q0 66 -52.5 101.5t-152.5 35.5q-74 0 -134 -5v-266q60 -10 133 -10zM166 929l13 24q94 -33 169 -54q77 22 165 55l11 -21q-108 -82 -179 -146q-87 74 -179 142z" />
    <glyph glyph-name="rcaron" unicode="&#x159;" horiz-adv-x="467" 
d="M93 37q8 24 11 71.5t3 144.5v27q0 99 -2.5 144.5t-12 70t-30.5 38.5q82 14 141 30q-12 -41 -15 -119q26 51 73 81t104 33q21 2 35 4.5t30 9.5v-42l28 -87q-25 15 -63 26t-66 11q-33 0 -63 -19.5t-50 -56t-23 -83.5v-47q0 -106 3.5 -156.5t14 -76.5t33.5 -43q-37 2 -80 2
h-21q-41 0 -76 -2q18 15 26 39zM97 779l13 24q94 -33 169 -54q77 22 165 55l11 -21q-108 -82 -179 -146q-87 74 -179 142z" />
    <glyph glyph-name="Sacute" unicode="&#x15a;" horiz-adv-x="600" 
d="M223.5 -4.5q-38.5 7.5 -86.5 20.5q-50 13 -65 13t-30 -5v159q64 -65 136.5 -98t149.5 -33q63 0 99.5 31t36.5 76q0 41 -19 66.5t-49 40.5t-88 35q-24 8 -29 10q-74 27 -119 50t-75 64t-30 104q0 53 27.5 94.5t81.5 65t131 23.5q47 0 99 -7q11 -1 35 -3t42 -2q15 0 26 4
v-41l30 -103q-63 41 -129.5 63.5t-129.5 22.5q-55 0 -90.5 -27.5t-35.5 -75.5q0 -42 22 -68t56.5 -42.5t102.5 -40.5q77 -27 124 -51t78 -64.5t31 -103.5q0 -86 -67 -135.5t-182 -49.5q-45 0 -83.5 7.5zM327 939h138q-72 -67 -140 -143h-54q26 57 56 143z" />
    <glyph glyph-name="sacute" unicode="&#x15b;" horiz-adv-x="543" 
d="M113 32q-63 42 -75 124q54 -51 118 -75t131 -24q53 0 86 20t33 55q0 30 -18 47.5t-43 26.5t-85 27q-66 19 -106 37.5t-65.5 52.5t-25.5 89q0 67 54 109t155 42q36 0 80 -6q32 -4 44 -4q24 0 46 11v-46l27 -97q-55 38 -114 59.5t-108 21.5q-44 0 -73 -20.5t-29 -57.5
q0 -31 19.5 -49.5t49 -29t99.5 -30.5q57 -16 96 -34.5t64 -51.5t25 -84q0 -71 -57.5 -113t-152.5 -42q-112 0 -175 42zM299 789h138q-72 -67 -140 -143h-54q26 57 56 143z" />
    <glyph glyph-name="Scedilla" unicode="&#x15e;" horiz-adv-x="600" 
d="M220.5 -195q-31.5 25 -32.5 64q40 -30 80 -30q44 0 44 34q0 41 -81 44l28 74q-50 5 -122 25q-50 13 -65 13t-30 -5v159q64 -65 136.5 -98t149.5 -33q63 0 99.5 31t36.5 76q0 41 -19 66.5t-49 40.5t-88 35q-24 8 -29 10q-74 27 -119 50t-75 64t-30 104q0 53 27.5 94.5
t81.5 65t131 23.5q47 0 99 -7q11 -1 35 -3t42 -2q15 0 26 4v-41l30 -103q-63 41 -129.5 63.5t-129.5 22.5q-55 0 -90.5 -27.5t-35.5 -75.5q0 -42 22 -68t56.5 -42.5t102.5 -40.5q77 -27 124 -51t78 -64.5t31 -103.5q0 -83 -62 -132t-170 -53l-17 -30q47 -8 70 -32.5
t23 -56.5q0 -36 -29 -62.5t-78 -26.5q-41 0 -72.5 25z" />
    <glyph glyph-name="scedilla" unicode="&#x15f;" horiz-adv-x="543" 
d="M206.5 -195q-31.5 25 -32.5 64q40 -30 80 -30q44 0 44 34q0 41 -81 44l28 75q-92 8 -144.5 49.5t-62.5 114.5q54 -51 118 -75t131 -24q53 0 86 20t33 55q0 30 -18 47.5t-43 26.5t-85 27q-66 19 -106 37.5t-65.5 52.5t-25.5 89q0 67 54 109t155 42q36 0 80 -6q32 -4 44 -4
q24 0 46 11v-46l27 -97q-55 38 -114 59.5t-108 21.5q-44 0 -73 -20.5t-29 -57.5q0 -31 19.5 -49.5t49 -29t99.5 -30.5q57 -16 96 -34.5t64 -51.5t25 -84q0 -67 -50.5 -108t-135.5 -46l-19 -33q47 -8 70 -32.5t23 -56.5q0 -36 -29 -62.5t-78 -26.5q-41 0 -72.5 25z" />
    <glyph glyph-name="Scaron" unicode="&#x160;" horiz-adv-x="600" 
d="M223.5 -4.5q-38.5 7.5 -86.5 20.5q-50 13 -65 13t-30 -5v159q64 -65 136.5 -98t149.5 -33q63 0 99.5 31t36.5 76q0 41 -19 66.5t-49 40.5t-88 35q-24 8 -29 10q-74 27 -119 50t-75 64t-30 104q0 53 27.5 94.5t81.5 65t131 23.5q47 0 99 -7q11 -1 35 -3t42 -2q15 0 26 4
v-41l30 -103q-63 41 -129.5 63.5t-129.5 22.5q-55 0 -90.5 -27.5t-35.5 -75.5q0 -42 22 -68t56.5 -42.5t102.5 -40.5q77 -27 124 -51t78 -64.5t31 -103.5q0 -86 -67 -135.5t-182 -49.5q-45 0 -83.5 7.5zM121 929l13 24q94 -33 169 -54q77 22 165 55l11 -21
q-108 -82 -179 -146q-87 74 -179 142z" />
    <glyph glyph-name="scaron" unicode="&#x161;" horiz-adv-x="543" 
d="M113 32q-63 42 -75 124q54 -51 118 -75t131 -24q53 0 86 20t33 55q0 30 -18 47.5t-43 26.5t-85 27q-66 19 -106 37.5t-65.5 52.5t-25.5 89q0 67 54 109t155 42q36 0 80 -6q32 -4 44 -4q24 0 46 11v-46l27 -97q-55 38 -114 59.5t-108 21.5q-44 0 -73 -20.5t-29 -57.5
q0 -31 19.5 -49.5t49 -29t99.5 -30.5q57 -16 96 -34.5t64 -51.5t25 -84q0 -71 -57.5 -113t-152.5 -42q-112 0 -175 42zM93 779l13 24q94 -33 169 -54q77 22 165 55l11 -21q-108 -82 -179 -146q-87 74 -179 142z" />
    <glyph glyph-name="uni0162" unicode="&#x162;" horiz-adv-x="645" 
d="M262.5 50q9.5 30 12.5 94.5t3 203.5v293h-11q-168 -4 -259 -69l36 110v36q27 -10 98 -14t149 -4h63q78 0 149 4t98 14v-36l36 -110q-91 65 -259 69h-10v-293q0 -141 3 -204.5t12 -94t30 -51.5q-48 2 -58 2l-24 -42q47 -8 70 -32.5t23 -56.5q0 -36 -29 -62.5t-78 -26.5
q-41 0 -72.5 25t-32.5 64q40 -30 80 -30q44 0 44 34q0 41 -81 44l31 83q-10 0 -54 -2q21 22 30.5 52z" />
    <glyph glyph-name="uni0163" unicode="&#x163;" horiz-adv-x="473" 
d="M198.5 -195q-31.5 25 -32.5 64q40 -30 80 -30q44 0 44 34q0 41 -81 44l30 79q-42 11 -62.5 45t-19.5 89l1 360q-61 -4 -133 -26l9 89q8 0 36 -2q45 -4 87 -5l54 134h46q-10 -73 -10 -130q58 0 94 2.5t73 11.5v-30l22 -71q-61 24 -192 28v-350q0 -41 17.5 -61t54.5 -20
q61 0 104 34q-6 -41 -37.5 -69.5t-78.5 -33.5l-19 -33q47 -8 70 -32.5t23 -56.5q0 -36 -29 -62.5t-78 -26.5q-41 0 -72.5 25z" />
    <glyph glyph-name="Tcaron" unicode="&#x164;" horiz-adv-x="645" 
d="M262.5 50q9.5 30 12.5 94.5t3 203.5v293h-11q-168 -4 -259 -69l36 110v36q27 -10 98 -14t149 -4h63q78 0 149 4t98 14v-36l36 -110q-91 65 -259 69h-10v-293q0 -141 3 -204.5t12 -94t30 -51.5q-40 2 -88 2h-5q-48 0 -88 -2q21 22 30.5 52zM143 929l13 24q94 -33 169 -54
q77 22 165 55l11 -21q-108 -82 -179 -146q-87 74 -179 142z" />
    <glyph glyph-name="tcaron" unicode="&#x165;" horiz-adv-x="473" 
d="M188 26q-32 36 -31 104l1 360q-61 -4 -133 -26l9 89q8 0 36 -2q45 -4 87 -5l54 134h46q-10 -73 -10 -130q58 0 94 2.5t73 11.5v-30l22 -71q-61 24 -192 28v-350q0 -41 17.5 -61t54.5 -20q61 0 104 34q-7 -46 -44 -75t-92 -29q-64 0 -96 36zM420 625h-52l17 159h110
q-41 -77 -75 -159z" />
    <glyph glyph-name="Utilde" unicode="&#x168;" horiz-adv-x="796" 
d="M177 57.5q-74 69.5 -74 202.5v110q0 132 -3 193t-12.5 89.5t-30.5 49.5q41 -2 88 -2h8q49 0 89 2q-21 -21 -30.5 -49.5t-12.5 -89.5t-4 -193v-77q0 -238 204 -238q107 0 158.5 52t50.5 155v42q-1 158 -5 231.5t-16 108t-38 58.5q43 -2 97 -2q52 0 95 2
q-26 -24 -37.5 -58.5t-15 -106.5t-4.5 -233v-44q0 -132 -74.5 -202t-215.5 -70q-143 0 -217 69.5zM248 833q0 42 27 68.5t69 26.5q25 0 42.5 -9.5t41.5 -27.5q17 -13 26 -18t20 -5q37 0 50 60h24q4 -15 4 -32q0 -41 -26.5 -68t-69.5 -27q-25 0 -42.5 9.5t-41.5 27.5
q-17 13 -26 18t-20 5q-37 0 -50 -60h-24q-4 15 -4 32z" />
    <glyph glyph-name="utilde" unicode="&#x169;" horiz-adv-x="694" 
d="M506 99q-30 -52 -82.5 -80.5t-119.5 -28.5q-102 0 -156 53t-53 157l2 78q0 99 -2.5 144.5t-12 70t-30.5 38.5q75 13 154 34q-22 -66 -22 -233v-126q0 -70 38.5 -108.5t106.5 -38.5q76 0 122.5 52t49.5 138v48q0 97 -3 144.5t-11 71.5t-26 39q36 -2 78 -2h10q42 0 78 2
q-18 -15 -26 -39t-11 -71.5t-3 -144.5v-27q0 -99 2.5 -144.5t12 -70t30.5 -38.5q-82 -14 -141 -30q12 42 15 112zM191 683q0 42 27 68.5t69 26.5q25 0 42.5 -9.5t41.5 -27.5q17 -13 26 -18t20 -5q37 0 50 60h24q4 -15 4 -32q0 -41 -26.5 -68t-69.5 -27q-25 0 -42.5 9.5
t-41.5 27.5q-17 13 -26 18t-20 5q-37 0 -50 -60h-24q-4 15 -4 32z" />
    <glyph glyph-name="Umacron" unicode="&#x16a;" horiz-adv-x="796" 
d="M177 57.5q-74 69.5 -74 202.5v110q0 132 -3 193t-12.5 89.5t-30.5 49.5q41 -2 88 -2h8q49 0 89 2q-21 -21 -30.5 -49.5t-12.5 -89.5t-4 -193v-77q0 -238 204 -238q107 0 158.5 52t50.5 155v42q-1 158 -5 231.5t-16 108t-38 58.5q43 -2 97 -2q52 0 95 2
q-26 -24 -37.5 -58.5t-15 -106.5t-4.5 -233v-44q0 -132 -74.5 -202t-215.5 -70q-143 0 -217 69.5zM250 903h300v-61h-300v61z" />
    <glyph glyph-name="umacron" unicode="&#x16b;" horiz-adv-x="694" 
d="M506 99q-30 -52 -82.5 -80.5t-119.5 -28.5q-102 0 -156 53t-53 157l2 78q0 99 -2.5 144.5t-12 70t-30.5 38.5q75 13 154 34q-22 -66 -22 -233v-126q0 -70 38.5 -108.5t106.5 -38.5q76 0 122.5 52t49.5 138v48q0 97 -3 144.5t-11 71.5t-26 39q36 -2 78 -2h10q42 0 78 2
q-18 -15 -26 -39t-11 -71.5t-3 -144.5v-27q0 -99 2.5 -144.5t12 -70t30.5 -38.5q-82 -14 -141 -30q12 42 15 112zM193 753h300v-61h-300v61z" />
    <glyph glyph-name="Uring" unicode="&#x16e;" horiz-adv-x="796" 
d="M177 57.5q-74 69.5 -74 202.5v110q0 132 -3 193t-12.5 89.5t-30.5 49.5q41 -2 88 -2h8q49 0 89 2q-21 -21 -30.5 -49.5t-12.5 -89.5t-4 -193v-77q0 -238 204 -238q107 0 158.5 52t50.5 155v42q-1 158 -5 231.5t-16 108t-38 58.5q43 -2 97 -2q52 0 95 2
q-26 -24 -37.5 -58.5t-15 -106.5t-4.5 -233v-44q0 -132 -74.5 -202t-215.5 -70q-143 0 -217 69.5zM303.5 806q-35.5 30 -35.5 78q0 50 37 81.5t98 31.5q58 0 93.5 -30t35.5 -79q0 -50 -37.5 -81t-97.5 -31q-58 0 -93.5 30zM355.5 842q18.5 -19 47.5 -19q27 0 43 16.5
t16 42.5q0 30 -18 49t-47 19q-27 0 -43.5 -16.5t-16.5 -43.5q0 -29 18.5 -48z" />
    <glyph glyph-name="uring" unicode="&#x16f;" horiz-adv-x="694" 
d="M506 99q-30 -52 -82.5 -80.5t-119.5 -28.5q-102 0 -156 53t-53 157l2 78q0 99 -2.5 144.5t-12 70t-30.5 38.5q75 13 154 34q-22 -66 -22 -233v-126q0 -70 38.5 -108.5t106.5 -38.5q76 0 122.5 52t49.5 138v48q0 97 -3 144.5t-11 71.5t-26 39q36 -2 78 -2h10q42 0 78 2
q-18 -15 -26 -39t-11 -71.5t-3 -144.5v-27q0 -99 2.5 -144.5t12 -70t30.5 -38.5q-82 -14 -141 -30q12 42 15 112zM246.5 656q-35.5 30 -35.5 78q0 50 37 81.5t98 31.5q58 0 93.5 -30t35.5 -79q0 -50 -37.5 -81t-97.5 -31q-58 0 -93.5 30zM298.5 692q18.5 -19 47.5 -19
q27 0 43 16.5t16 42.5q0 30 -18 49t-47 19q-27 0 -43.5 -16.5t-16.5 -43.5q0 -29 18.5 -48z" />
    <glyph glyph-name="Uhungarumlaut" unicode="&#x170;" horiz-adv-x="796" 
d="M177 57.5q-74 69.5 -74 202.5v110q0 132 -3 193t-12.5 89.5t-30.5 49.5q41 -2 88 -2h8q49 0 89 2q-21 -21 -30.5 -49.5t-12.5 -89.5t-4 -193v-77q0 -238 204 -238q107 0 158.5 52t50.5 155v42q-1 158 -5 231.5t-16 108t-38 58.5q43 -2 97 -2q52 0 95 2
q-26 -24 -37.5 -58.5t-15 -106.5t-4.5 -233v-44q0 -132 -74.5 -202t-215.5 -70q-143 0 -217 69.5zM307 939h138q-72 -67 -140 -143h-54q26 57 56 143zM510 939h138q-72 -67 -140 -143h-54q26 57 56 143z" />
    <glyph glyph-name="uhungarumlaut" unicode="&#x171;" horiz-adv-x="694" 
d="M506 99q-30 -52 -82.5 -80.5t-119.5 -28.5q-102 0 -156 53t-53 157l2 78q0 99 -2.5 144.5t-12 70t-30.5 38.5q75 13 154 34q-22 -66 -22 -233v-126q0 -70 38.5 -108.5t106.5 -38.5q76 0 122.5 52t49.5 138v48q0 97 -3 144.5t-11 71.5t-26 39q36 -2 78 -2h10q42 0 78 2
q-18 -15 -26 -39t-11 -71.5t-3 -144.5v-27q0 -99 2.5 -144.5t12 -70t30.5 -38.5q-82 -14 -141 -30q12 42 15 112zM250 789h138q-72 -67 -140 -143h-54q26 57 56 143zM453 789h138q-72 -67 -140 -143h-54q26 57 56 143z" />
    <glyph glyph-name="Uogonek" unicode="&#x172;" horiz-adv-x="796" 
d="M177 57.5q-74 69.5 -74 202.5v110q0 132 -3 193t-12.5 89.5t-30.5 49.5q41 -2 88 -2h8q49 0 89 2q-21 -21 -30.5 -49.5t-12.5 -89.5t-4 -193v-77q0 -238 204 -238q107 0 158.5 52t50.5 155v42q-1 158 -5 231.5t-16 108t-38 58.5q43 -2 97 -2q52 0 95 2
q-26 -24 -37.5 -58.5t-15 -106.5t-4.5 -233v-44q0 -91 -36 -153t-105 -92q-40 -31 -40 -73q0 -37 30.5 -60.5t79.5 -22.5q-40 -35 -92 -35q-44 0 -73 23t-29 67q0 42 28 77q-25 -3 -53 -3q-143 0 -217 69.5z" />
    <glyph glyph-name="uogonek" unicode="&#x173;" horiz-adv-x="694" 
d="M473 -153q-29 23 -29 67q0 28 13.5 55t40.5 47q7 38 8 83q-30 -52 -82.5 -80.5t-119.5 -28.5q-102 0 -156 53t-53 157l2 78q0 99 -2.5 144.5t-12 70t-30.5 38.5q75 13 154 34q-22 -66 -22 -233v-126q0 -70 38.5 -108.5t106.5 -38.5q76 0 122.5 52t49.5 138v48
q0 97 -3 144.5t-11 71.5t-26 39q36 -2 78 -2h10q42 0 78 2q-18 -15 -26 -39t-11 -71.5t-3 -144.5v-27q0 -99 2.5 -144.5t12 -70t30.5 -38.5q-36 -5 -78 -15q-26 -28 -26 -60q0 -37 30.5 -60.5t79.5 -22.5q-40 -35 -92 -35q-44 0 -73 23z" />
    <glyph glyph-name="Wcircumflex" unicode="&#x174;" horiz-adv-x="968" 
d="M180.5 145.5q-20.5 83.5 -24.5 101.5l-15 60l-17 72q-36 149 -62.5 221t-51.5 102q47 -2 90 -2q44 0 91 2q-20 -20 -20 -63q0 -36 12.5 -95t42.5 -181l9 -39l57 -229l199 449l206 -454l60 259l8 32q28 120 38 171t10 83q0 44 -23 67q44 -2 85 -2q39 0 83 2
q-20 -22 -35 -52t-34.5 -93t-47.5 -177l-20 -82q-43 -174 -67 -298q-50 0 -112 -10l-164 364l-152 -354q-49 0 -112 -10q-13 72 -33.5 155.5zM668 812l-13 -24q-93 33 -169 54q-77 -22 -165 -55l-11 21q96 72 179 146q87 -75 179 -142z" />
    <glyph glyph-name="wcircumflex" unicode="&#x175;" horiz-adv-x="836" 
d="M139 215l-22 87q-31 125 -49.5 176t-36.5 74q39 -2 76 -2q35 0 75 2q-13 -10 -13 -44q0 -32 10 -81.5t30 -134.5l48 -194l172 352l174 -348l46 200q14 64 23 113.5t9 87.5q0 37 -11 49q35 -2 67 -2t68 2q-18 -26 -36 -76t-50 -173l-23 -88l-6 -24q-32 -134 -42 -193
q-43 1 -89 -6l-144 290l-138 -284q-43 1 -88 -6q-15 88 -50 223zM600 662l-13 -24q-93 33 -169 54q-77 -22 -165 -55l-11 21q96 72 179 146q87 -75 179 -142z" />
    <glyph glyph-name="Ycircumflex" unicode="&#x176;" horiz-adv-x="721" 
d="M298 41q9 24 13 72.5t5 146.5l-101 161q-86 139 -131 195t-80 86q50 -2 97 -2t97 2q-14 -16 -14 -32q0 -21 19 -56t79 -131q5 -8 56 -91l36 -57l34 55l47 79q62 104 82 142t20 60q0 16 -15 31q46 -2 88 -2q41 0 87 2q-30 -19 -74.5 -76t-136.5 -205l-100 -159
q1 -98 4.5 -147.5t12.5 -74t28 -42.5q-40 2 -88 2h-5q-48 0 -88 -2q19 19 28 43zM545 812l-13 -24q-93 33 -169 54q-77 -22 -165 -55l-11 21q96 72 179 146q87 -75 179 -142z" />
    <glyph glyph-name="ycircumflex" unicode="&#x177;" horiz-adv-x="631" 
d="M238.5 -110.5q23.5 30.5 50.5 90.5l-145 320q-59 132 -89 183.5t-50 67.5q42 0 56 1h27q29 0 83 5q-6 -13 -6 -31q0 -27 16.5 -75.5t56.5 -141.5l101 -233l92 231q35 89 49 138t14 76q0 16 -5 31q36 -2 69 -2t69 2q-18 -17 -44.5 -67.5t-82.5 -186.5l-105 -254
q-40 -96 -54 -140t-15 -76q-38 2 -74 2q-35 0 -74 -2q37 31 60.5 61.5zM498 662l-13 -24q-93 33 -169 54q-77 -22 -165 -55l-11 21q96 72 179 146q87 -75 179 -142z" />
    <glyph glyph-name="Ydieresis" unicode="&#x178;" horiz-adv-x="721" 
d="M298 41q9 24 13 72.5t5 146.5l-101 161q-86 139 -131 195t-80 86q50 -2 97 -2t97 2q-14 -16 -14 -32q0 -21 19 -56t79 -131q5 -8 56 -91l36 -57l34 55l47 79q62 104 82 142t20 60q0 16 -15 31q46 -2 88 -2q41 0 87 2q-30 -19 -74.5 -76t-136.5 -205l-100 -159
q1 -98 4.5 -147.5t12.5 -74t28 -42.5q-40 2 -88 2h-5q-48 0 -88 -2q19 19 28 43zM168 872q24 21 45 42t42 45q21 -24 42 -45t45 -42q-46 -40 -87 -87q-40 47 -87 87zM390 872q24 21 45 42t42 45q21 -24 42 -45t45 -42q-46 -40 -87 -87q-40 47 -87 87z" />
    <glyph glyph-name="Zacute" unicode="&#x179;" horiz-adv-x="646" 
d="M281 0q-54 0 -164 -2l-81 -1l415 646h-26q-244 -3 -365 -62l34 103v34q29 -9 111 -13.5t167 -4.5q140 0 239 5l-431 -645h39q136 0 238 19t167 51l-37 -104v-40q-57 14 -306 14zM357 939h138q-72 -67 -140 -143h-54q26 57 56 143z" />
    <glyph glyph-name="zacute" unicode="&#x17a;" horiz-adv-x="545" 
d="M391.5 -3q-73.5 3 -150.5 3q-68 0 -102 -1l-103 -1l321 498h-8q-104 -1 -173.5 -15.5t-123.5 -40.5l30 91v37q44 -18 224 -18q115 0 202 4l-336 -498h19q209 3 324 63l-28 -86v-45q-22 6 -95.5 9zM308 789h138q-72 -67 -140 -143h-54q26 57 56 143z" />
    <glyph glyph-name="Zdotaccent" unicode="&#x17b;" horiz-adv-x="646" 
d="M281 0q-54 0 -164 -2l-81 -1l415 646h-26q-244 -3 -365 -62l34 103v34q29 -9 111 -13.5t167 -4.5q140 0 239 5l-431 -645h39q136 0 238 19t167 51l-37 -104v-40q-57 14 -306 14zM243 872q24 21 45 42t42 45q21 -24 42 -45t45 -42q-46 -40 -87 -87q-40 47 -87 87z" />
    <glyph glyph-name="zdotaccent" unicode="&#x17c;" horiz-adv-x="545" 
d="M391.5 -3q-73.5 3 -150.5 3q-68 0 -102 -1l-103 -1l321 498h-8q-104 -1 -173.5 -15.5t-123.5 -40.5l30 91v37q44 -18 224 -18q115 0 202 4l-336 -498h19q209 3 324 63l-28 -86v-45q-22 6 -95.5 9zM194 722q24 21 45 42t42 45q21 -24 42 -45t45 -42q-46 -40 -87 -87
q-40 47 -87 87z" />
    <glyph glyph-name="Zcaron" unicode="&#x17d;" horiz-adv-x="646" 
d="M281 0q-54 0 -164 -2l-81 -1l415 646h-26q-244 -3 -365 -62l34 103v34q29 -9 111 -13.5t167 -4.5q140 0 239 5l-431 -645h39q136 0 238 19t167 51l-37 -104v-40q-57 14 -306 14zM151 929l13 24q94 -33 169 -54q77 22 165 55l11 -21q-108 -82 -179 -146q-87 74 -179 142z
" />
    <glyph glyph-name="zcaron" unicode="&#x17e;" horiz-adv-x="545" 
d="M391.5 -3q-73.5 3 -150.5 3q-68 0 -102 -1l-103 -1l321 498h-8q-104 -1 -173.5 -15.5t-123.5 -40.5l30 91v37q44 -18 224 -18q115 0 202 4l-336 -498h19q209 3 324 63l-28 -86v-45q-22 6 -95.5 9zM102 779l13 24q94 -33 169 -54q77 22 165 55l11 -21q-108 -82 -179 -146
q-87 74 -179 142z" />
    <glyph glyph-name="uni018F" unicode="&#x18f;" horiz-adv-x="795" 
d="M204 35.5q-77 47.5 -115.5 136.5t-34.5 211h580q-12 124 -85.5 193.5t-190.5 69.5q-69 0 -124 -23.5t-120 -79.5l30 109v47q16 -6 41 -6q19 0 77 8q79 11 118 11q104 0 186 -45t128.5 -125.5t46.5 -181.5q0 -109 -45.5 -193.5t-126 -131.5t-181.5 -47q-107 0 -184 47.5z
M222 122.5q64 -68.5 176 -68.5q67 0 120 33t84 92.5t35 137.5l-483 -2q4 -124 68 -192.5z" />
    <glyph glyph-name="uni01C7" unicode="&#x1c7;" horiz-adv-x="999" 
d="M182 -1l-56 1l-56 -2q21 20 30 49t12 89.5t3 193.5v40q0 133 -3 193.5t-12 89.5t-30 49q40 -2 88 -2h4q48 0 88 2q-21 -20 -30 -49t-12 -89.5t-3 -193.5v-40q0 -190 4 -269q16 -2 22 -2q151 4 260 66l-24 -89v-50q-36 8 -285 13zM524 138q37 -41 77.5 -62t74.5 -21
q62 0 96 34.5t34 106.5v174q0 132 -3 193t-12.5 89.5t-30.5 49.5q41 -2 88 -2h5q48 0 88 2q-21 -21 -30 -49.5t-12 -89.5t-3 -193v-173q0 -97 -59.5 -153t-164.5 -56q-44 0 -87 15q-23 7 -34 7q-12 0 -27 -3v131z" />
    <glyph glyph-name="Oslashacute" unicode="&#x1fe;" horiz-adv-x="835" 
d="M168 -44l46 85q-75 46 -117.5 125t-42.5 177q0 106 48.5 190t134.5 131.5t194 47.5q70 0 128 -21l45 85l58 -32l-42 -79q79 -45 124.5 -125.5t45.5 -182.5q0 -106 -48.5 -190t-134.5 -131.5t-194 -47.5q-78 0 -140 25l-47 -89zM190 222.5q23 -60.5 66 -101.5l268 506
q-53 23 -109 23q-74 0 -130 -36.5t-87 -102.5t-31 -153q0 -75 23 -135.5zM428 50q74 0 130.5 36.5t87.5 102.5t31 153q0 78 -26 142t-72 105l-271 -510q55 -29 120 -29zM446 939h138q-72 -67 -140 -143h-54q26 57 56 143z" />
    <glyph glyph-name="oslashacute" unicode="&#x1ff;" horiz-adv-x="697" 
d="M144 -35l36 65q-63 36 -98 98.5t-35 141.5q0 83 40 149.5t110.5 103.5t158.5 37q59 0 104 -16l39 71l54 -30l-36 -65q62 -37 97.5 -99.5t35.5 -140.5q0 -83 -40 -149.5t-110.5 -103.5t-158.5 -37q-59 0 -104 16l-39 -71zM172 184.5q18 -45.5 50 -76.5l204 374
q-36 18 -83 18q-56 0 -98.5 -27t-66.5 -75.5t-24 -112.5q0 -55 18 -100.5zM354 50q56 0 98.5 27t66.5 75.5t24 112.5q0 55 -18 100.5t-50 76.5l-204 -374q36 -18 83 -18zM375 789h138q-72 -67 -140 -143h-54q26 57 56 143z" />
    <glyph glyph-name="uni0218" unicode="&#x218;" horiz-adv-x="600" 
d="M223.5 -4.5q-38.5 7.5 -86.5 20.5q-50 13 -65 13t-30 -5v159q64 -65 136.5 -98t149.5 -33q63 0 99.5 31t36.5 76q0 41 -19 66.5t-49 40.5t-88 35q-24 8 -29 10q-74 27 -119 50t-75 64t-30 104q0 53 27.5 94.5t81.5 65t131 23.5q47 0 99 -7q11 -1 35 -3t42 -2q15 0 26 4
v-41l30 -103q-63 41 -129.5 63.5t-129.5 22.5q-55 0 -90.5 -27.5t-35.5 -75.5q0 -42 22 -68t56.5 -42.5t102.5 -40.5q77 -27 124 -51t78 -64.5t31 -103.5q0 -86 -67 -135.5t-182 -49.5q-45 0 -83.5 7.5zM280 -255h-52l17 159h110q-41 -77 -75 -159z" />
    <glyph glyph-name="uni0219" unicode="&#x219;" horiz-adv-x="543" 
d="M113 32q-63 42 -75 124q54 -51 118 -75t131 -24q53 0 86 20t33 55q0 30 -18 47.5t-43 26.5t-85 27q-66 19 -106 37.5t-65.5 52.5t-25.5 89q0 67 54 109t155 42q36 0 80 -6q32 -4 44 -4q24 0 46 11v-46l27 -97q-55 38 -114 59.5t-108 21.5q-44 0 -73 -20.5t-29 -57.5
q0 -31 19.5 -49.5t49 -29t99.5 -30.5q57 -16 96 -34.5t64 -51.5t25 -84q0 -71 -57.5 -113t-152.5 -42q-112 0 -175 42zM266 -255h-52l17 159h110q-41 -77 -75 -159z" />
    <glyph glyph-name="uni021A" unicode="&#x21a;" horiz-adv-x="645" 
d="M262.5 50q9.5 30 12.5 94.5t3 203.5v293h-11q-168 -4 -259 -69l36 110v36q27 -10 98 -14t149 -4h63q78 0 149 4t98 14v-36l36 -110q-91 65 -259 69h-10v-293q0 -141 3 -204.5t12 -94t30 -51.5q-40 2 -88 2h-5q-48 0 -88 -2q21 22 30.5 52zM304 -255h-52l17 159h110
q-41 -77 -75 -159z" />
    <glyph glyph-name="uni021B" unicode="&#x21b;" horiz-adv-x="473" 
d="M188 26q-32 36 -31 104l1 360q-61 -4 -133 -26l9 89q8 0 36 -2q45 -4 87 -5l54 134h46q-10 -73 -10 -130q58 0 94 2.5t73 11.5v-30l22 -71q-61 24 -192 28v-350q0 -41 17.5 -61t54.5 -20q61 0 104 34q-7 -46 -44 -75t-92 -29q-64 0 -96 36zM258 -255h-52l17 159h110
q-41 -77 -75 -159z" />
    <glyph glyph-name="uni0237" unicode="&#x237;" horiz-adv-x="299" 
d="M90.5 -111.5q16.5 56.5 16.5 170.5v219q0 98 -3 144t-12 70.5t-30 38.5q72 12 153 34q-22 -66 -22 -233v-82q0 -44 4 -134q4 -94 4 -138q0 -83 -38.5 -122t-117.5 -41q29 17 45.5 73.5z" />
    <glyph glyph-name="uni0259" unicode="&#x259;" horiz-adv-x="653" 
d="M464 525.5q66 -34.5 104 -97.5t38 -145q0 -85 -37.5 -152t-102.5 -104t-146 -37q-86 0 -149 38t-95.5 108.5t-28.5 164.5h458q-11 86 -68.5 134t-147.5 48q-57 0 -109.5 -19.5t-92.5 -54.5q1 43 32 77.5t83 54t114 19.5q82 0 148 -34.5zM205 99.5q49 -50.5 124 -50.5
q78 0 127 52.5t53 142.5l-360 -9q7 -85 56 -135.5z" />
    <glyph glyph-name="uni02BC" unicode="&#x2bc;" horiz-adv-x="231" 
d="M113 551q-50 46 -78 67q45 41 90 92q42 -26 60 -49t18 -52q0 -41 -31 -95t-78 -101l-30 15q37 54 49 123z" />
    <glyph glyph-name="gravecomb" unicode="&#x300;" horiz-adv-x="0" 
d="M135 789h143q25 -77 54 -143h-57q-68 76 -140 143z" />
    <glyph glyph-name="acutecomb" unicode="&#x301;" horiz-adv-x="0" 
d="M327 789h138q-72 -67 -140 -143h-54q26 57 56 143z" />
    <glyph glyph-name="uni0302" unicode="&#x302;" horiz-adv-x="0" 
d="M479 662l-13 -24q-93 33 -169 54q-77 -22 -165 -55l-11 21q96 72 179 146q87 -75 179 -142z" />
    <glyph glyph-name="tildecomb" unicode="&#x303;" horiz-adv-x="0" 
d="M148 683q0 42 27 68.5t69 26.5q25 0 42.5 -9.5t41.5 -27.5q17 -13 26 -18t20 -5q37 0 50 60h24q4 -15 4 -32q0 -41 -26.5 -68t-69.5 -27q-25 0 -42.5 9.5t-41.5 27.5q-17 13 -26 18t-20 5q-37 0 -50 -60h-24q-4 15 -4 32z" />
    <glyph glyph-name="uni0304" unicode="&#x304;" horiz-adv-x="0" 
d="M150 753h300v-61h-300v61z" />
    <glyph glyph-name="uni0306" unicode="&#x306;" horiz-adv-x="0" 
d="M198.5 681q-38.5 36 -38.5 90q0 14 3 29h15q15 -38 46 -57.5t76 -19.5t76 19.5t47 57.5h14q3 -15 3 -30q0 -54 -39 -89.5t-101 -35.5q-63 0 -101.5 36z" />
    <glyph glyph-name="uni0307" unicode="&#x307;" horiz-adv-x="0" 
d="M213 722q24 21 45 42t42 45q21 -24 42 -45t45 -42q-46 -40 -87 -87q-40 47 -87 87z" />
    <glyph glyph-name="uni0308" unicode="&#x308;" horiz-adv-x="0" 
d="M102 722q24 21 45 42t42 45q21 -24 42 -45t45 -42q-46 -40 -87 -87q-40 47 -87 87zM324 722q24 21 45 42t42 45q21 -24 42 -45t45 -42q-46 -40 -87 -87q-40 47 -87 87z" />
    <glyph glyph-name="uni030A" unicode="&#x30a;" horiz-adv-x="0" 
d="M203.5 656q-35.5 30 -35.5 78q0 50 37 81.5t98 31.5q58 0 93.5 -30t35.5 -79q0 -50 -37.5 -81t-97.5 -31q-58 0 -93.5 30zM255.5 692q18.5 -19 47.5 -19q27 0 43 16.5t16 42.5q0 30 -18 49t-47 19q-27 0 -43.5 -16.5t-16.5 -43.5q0 -29 18.5 -48z" />
    <glyph glyph-name="uni030B" unicode="&#x30b;" horiz-adv-x="0" 
d="M207 789h138q-72 -67 -140 -143h-54q26 57 56 143zM410 789h138q-72 -67 -140 -143h-54q26 57 56 143z" />
    <glyph glyph-name="uni030C" unicode="&#x30c;" horiz-adv-x="0" 
d="M121 779l13 24q94 -33 169 -54q77 22 165 55l11 -21q-108 -82 -179 -146q-87 74 -179 142z" />
    <glyph glyph-name="uni0312" unicode="&#x312;" horiz-adv-x="0" 
d="M314 805h52l-17 -159h-110q41 77 75 159z" />
    <glyph glyph-name="uni0326" unicode="&#x326;" horiz-adv-x="0" 
d="M283 -255h-52l17 159h110q-41 -77 -75 -159z" />
    <glyph glyph-name="uni0327" unicode="&#x327;" horiz-adv-x="0" 
d="M223.5 -195q-31.5 25 -32.5 64q40 -30 80 -30q44 0 44 34q0 41 -81 44l35 93h71l-30 -52q47 -8 70 -32.5t23 -56.5q0 -36 -29 -62.5t-78 -26.5q-41 0 -72.5 25z" />
    <glyph glyph-name="uni0328" unicode="&#x328;" horiz-adv-x="0" 
d="M162 -153q-29 23 -29 67q0 41 28 77.5t82 55.5l48 -12q-36 -16 -55 -40.5t-19 -52.5q0 -37 30.5 -60.5t79.5 -22.5q-40 -35 -92 -35q-44 0 -73 23z" />
    <glyph glyph-name="uni0401" unicode="&#x401;" horiz-adv-x="628" 
d="M213 0h-55q-48 0 -88 -2q21 20 30 49t12 89.5t3 193.5v40q0 133 -3 193.5t-12 89.5t-30 49q40 -2 88 -2h109q85 0 159 4.5t103 13.5v-34l36 -108q-90 63 -274 66h-86v-263q85 2 128 5.5t65 11.5t39 23q-2 -32 -2 -69t2 -69q-17 15 -39 23t-65 11.5t-128 5.5
q0 -163 5 -260q32 -2 53 -2q116 1 202.5 20t142.5 50l-37 -104v-39q-67 14 -358 14zM125 872q24 21 45 42t42 45q21 -24 42 -45t45 -42q-46 -40 -87 -87q-40 47 -87 87zM347 872q24 21 45 42t42 45q21 -24 42 -45t45 -42q-46 -40 -87 -87q-40 47 -87 87z" />
    <glyph glyph-name="uni0404" unicode="&#x404;" horiz-adv-x="717" 
d="M222.5 33q-80.5 45 -124.5 125.5t-44 184.5q0 106 46.5 190t131 131.5t194.5 47.5q34 0 95 -7q33 -5 54 -5q29 0 52 9v-46l32 -117q-73 45 -106.5 63t-69.5 28t-83 10q-69 0 -121 -33.5t-82 -94t-33 -141.5q107 2 159 5.5t76.5 12t42.5 26.5q-2 -32 -2 -72t2 -72
q-18 18 -42.5 26.5t-76 12t-157.5 5.5q9 -125 80 -198.5t187 -73.5q67 0 122.5 34t110.5 100v-157q-20 1 -36 -2t-42 -11q-42 -13 -79 -19.5t-99 -6.5q-107 0 -187.5 45z" />
    <glyph glyph-name="uni0406" unicode="&#x406;" horiz-adv-x="321" 
d="M100 47q9 29 12 89.5t3 193.5v40q0 133 -3 193.5t-12 89.5t-30 49q40 -2 88 -2h5q48 0 88 2q-21 -21 -30.5 -49.5t-12.5 -89.5t-3 -193v-40q0 -132 3 -193t12.5 -89.5t30.5 -49.5q-40 2 -88 2h-5q-48 0 -88 -2q21 20 30 49z" />
    <glyph glyph-name="uni0407" unicode="&#x407;" horiz-adv-x="321" 
d="M100 47q9 29 12 89.5t3 193.5v40q0 133 -3 193.5t-12 89.5t-30 49q40 -2 88 -2h5q48 0 88 2q-21 -21 -30.5 -49.5t-12.5 -89.5t-3 -193v-40q0 -132 3 -193t12.5 -89.5t30.5 -49.5q-40 2 -88 2h-5q-48 0 -88 -2q21 20 30 49zM-38 872q24 21 45 42t42 45q21 -24 42 -45
t45 -42q-46 -40 -87 -87q-40 47 -87 87zM184 872q24 21 45 42t42 45q21 -24 42 -45t45 -42q-46 -40 -87 -87q-40 47 -87 87z" />
    <glyph glyph-name="uni040E" unicode="&#x40e;" horiz-adv-x="722" 
d="M329 0q-78 0 -143 -3q60 64 129 168l-146 260q-80 143 -115.5 200t-53.5 77q47 -2 91 -2q42 0 89 2q-9 -18 -9 -36q0 -29 23 -85t80 -159l90 -164l49 90q78 149 108 217t30 100q0 22 -12 37q46 -2 87 -2t86 2q-42 -45 -87 -115t-125 -220l-102 -189q-22 -40 -50 -99
l-9 -20q168 4 259 53l-32 -96v-33q-59 17 -237 17zM152 932l11 20q118 -46 209 -76q98 34 201 78l11 -19q-109 -82 -216 -172q-106 88 -216 169z" />
    <glyph glyph-name="uni0410" unicode="&#x410;" horiz-adv-x="752" 
d="M98 -1l-26 1l-56 -2q27 28 57.5 90.5t87.5 222.5l28 78q35 101 50 153.5t15 85.5q0 45 -30 75q81 -2 156 -2t157 2q-16 -16 -24 -34t-8 -42q0 -33 14 -86t48 -154l25 -74q39 -116 64 -178t42 -90t38 -47l-62 2l-30 -1q-43 0 -90 -2q8 10 11.5 18t3.5 22q0 34 -30 134
h-348q-27 -94 -27 -128q0 -15 4 -24.5t12 -21.5q-43 2 -82 2zM520 234l-75 233l-56 169h-50l-55 -170l-75 -232h311z" />
    <glyph glyph-name="uni0411" unicode="&#x411;" horiz-adv-x="712" 
d="M100 47q9 29 12 89.5t3 193.5v40q0 133 -3 193.5t-12 89.5t-30 49q40 -2 88 -2h126q93 0 175.5 4.5t114.5 13.5v-34l35 -108q-55 32 -129.5 48t-196.5 17h-78v-242h154q147 0 224 -50.5t77 -144.5q0 -61 -34.5 -107t-99.5 -71.5t-154 -25.5h-214q-48 0 -88 -2
q21 20 30 49zM209 73q70 -14 158 -14t135 35.5t47 103.5q0 70 -50 105t-154 36q-91 0 -140 -6q0 -142 4 -260z" />
    <glyph glyph-name="uni0412" unicode="&#x412;" horiz-adv-x="719" 
d="M100 47q9 29 12 89.5t3 193.5v40q0 133 -3 193.5t-12 89.5t-30 49q40 -2 88 -2h199q135 0 209 -47.5t74 -133.5q0 -52 -35.5 -92.5t-100.5 -61.5q80 -18 121.5 -61.5t41.5 -107.5q0 -59 -35 -103.5t-99 -68.5t-151 -24h-224q-48 0 -88 -2q21 20 30 49zM208 74
q74 -14 160 -14q91 0 140 33t49 95q0 69 -53 101.5t-167 32.5q-64 0 -133 -7q0 -125 4 -241zM339 381q92 0 141.5 33.5t49.5 94.5q0 132 -188 132q-90 0 -138 -4v-254q84 -2 135 -2z" />
    <glyph glyph-name="uni0413" unicode="&#x413;" horiz-adv-x="569" 
d="M100 47q9 29 12 89.5t3 193.5v40q0 133 -3 193.5t-12 89.5t-30 49q40 -2 88 -2h118q79 0 150.5 4t98.5 14v-35l36 -111q-112 65 -325 68h-31v-310q0 -132 3 -193t12.5 -89.5t30.5 -49.5q-40 2 -88 2h-5q-48 0 -88 -2q21 20 30 49z" />
    <glyph glyph-name="uni0414" unicode="&#x414;" horiz-adv-x="779" 
d="M22 3l-19 96q43 -16 84 -23q37 68 61.5 189t24.5 244q0 78 -9 118t-35 75q74 -3 144 -3h335q48 0 88 2q-21 -21 -30.5 -49.5t-12.5 -89.5t-3 -193v-39q0 -109 2 -167t8 -91q45 6 96 23l-21 -108v-137h-110q27 56 45 148q-30 2 -62 2h-313q-125 0 -203 -3q14 -88 41 -147
h-111v153zM560 67v565h-294q-19 -203 -39 -324.5t-53 -240.5h386z" />
    <glyph glyph-name="uni0415" unicode="&#x415;" horiz-adv-x="628" 
d="M213 0h-55q-48 0 -88 -2q21 20 30 49t12 89.5t3 193.5v40q0 133 -3 193.5t-12 89.5t-30 49q40 -2 88 -2h109q85 0 159 4.5t103 13.5v-34l36 -108q-90 63 -274 66h-86v-263q85 2 128 5.5t65 11.5t39 23q-2 -32 -2 -69t2 -69q-17 15 -39 23t-65 11.5t-128 5.5
q0 -163 5 -260q32 -2 53 -2q116 1 202.5 20t142.5 50l-37 -104v-39q-67 14 -358 14z" />
    <glyph glyph-name="uni0416" unicode="&#x416;" horiz-adv-x="1090" 
d="M40 25.5q25 24.5 80 102t129 194.5l43 74l-77 101q-112 145 -195 206q41 -2 79 -2t79 2q11 -36 36.5 -78t96.5 -143l72 -99h117q0 126 -3 184.5t-12 86.5t-30 48q40 -2 88 -2h5q47 0 88 2q-21 -20 -30.5 -48t-12.5 -86.5t-3 -184.5h118l72 99q72 100 97.5 142t37.5 79
q40 -2 78 -2q37 0 77 2q-38 -29 -83 -74t-112 -130l-76 -101l44 -76q73 -117 119.5 -183t65 -87t50.5 -54q-43 2 -82 2q-41 0 -84 -2q-4 31 -27.5 78t-89.5 159l-52 82h-153q0 -126 3 -184.5t12.5 -86.5t30.5 -48q-41 2 -88 2h-5q-48 0 -88 -2q21 20 30 48t12 86.5t3 184.5
h-154l-53 -82q-69 -117 -92 -162t-26 -75q-42 2 -82 2q-39 0 -81 -2q3 3 28 27.5z" />
    <glyph glyph-name="uni0417" unicode="&#x417;" horiz-adv-x="627" 
d="M214 -3.5q-36 8.5 -76 22.5q-18 7 -36 12t-31 5q-12 0 -21 -3l-12 162q59 -69 128.5 -105t143.5 -36t117 39.5t43 105.5q0 74 -53 111.5t-134 37.5q-13 0 -43 -2l181 298h-4q-229 -3 -359 -67l34 106v35q48 -9 123.5 -13.5t151.5 -4.5q50 0 97.5 1.5t120.5 4.5l-222 -308
q68 -4 116.5 -31t73 -69t24.5 -92q0 -57 -33 -107t-97 -80.5t-151 -30.5q-46 0 -82 8.5z" />
    <glyph glyph-name="uni0418" unicode="&#x418;" horiz-adv-x="807" 
d="M109 563q-3 61 -12.5 89.5t-30.5 49.5q41 -2 88 -2h5q48 0 88 2q-21 -21 -30 -49.5t-12 -89.5t-3 -193v-197l404 535q53 -8 111 -8q18 0 66 2q-38 -30 -56.5 -52t-25.5 -44.5t-7 -58.5v-217q0 -132 3 -193t12 -89.5t30 -49.5q-40 2 -87 2h-6q-47 0 -88 -2
q21 21 30.5 49.5t12.5 89.5t3 193v245l-472 -585h-20v380q0 132 -3 193z" />
    <glyph glyph-name="uni0419" unicode="&#x419;" horiz-adv-x="807" 
d="M109 563q-3 61 -12.5 89.5t-30.5 49.5q41 -2 88 -2h5q48 0 88 2q-21 -21 -30 -49.5t-12 -89.5t-3 -193v-197l404 535q53 -8 111 -8q18 0 66 2q-38 -30 -56.5 -52t-25.5 -44.5t-7 -58.5v-217q0 -132 3 -193t12 -89.5t30 -49.5q-40 2 -87 2h-6q-47 0 -88 -2
q21 21 30.5 49.5t12.5 89.5t3 193v245l-472 -585h-20v380q0 132 -3 193zM190 932l11 20q118 -46 209 -76q98 34 201 78l11 -19q-109 -82 -216 -172q-106 88 -216 169z" />
    <glyph glyph-name="uni041A" unicode="&#x41a;" horiz-adv-x="732" 
d="M100 47q9 29 12 89.5t3 193.5v40q0 133 -3 193.5t-12 89.5t-30 49q40 -2 88 -2h5q48 0 88 2q-21 -20 -30 -48t-12 -86.5t-4 -184.5h125l78 99q74 97 102 140t42 81q41 -2 78 -2q38 0 79 2q-91 -67 -205 -204l-78 -97l52 -84q74 -113 121 -177t71.5 -90t53.5 -53
q-45 2 -86 2q-42 0 -87 -2q-4 31 -27.5 74.5t-96.5 159.5l-57 85h-165q1 -126 4 -184.5t12 -86.5t30 -48q-40 2 -88 2h-5q-48 0 -88 -2q21 20 30 49z" />
    <glyph glyph-name="uni041B" unicode="&#x41b;" horiz-adv-x="772" 
d="M19 -2v100l90 -22q38 65 65 195t27 266q0 61 -9.5 98.5t-33.5 66.5q53 -2 149 -2h307q47 0 88 2q-21 -21 -30.5 -49.5t-12.5 -89.5t-3 -193v-40q0 -132 3 -193t12.5 -89.5t30.5 -49.5q-41 2 -88 2h-6q-47 0 -87 -2q21 21 30 49.5t12 89.5t3 193v303h-266
q-19 -153 -45 -304.5t-52 -228.5q-16 -46 -35 -70t-41 -32t-54 -8q-29 0 -54 8z" />
    <glyph glyph-name="uni041C" unicode="&#x41c;" horiz-adv-x="963" 
d="M98.5 47q9.5 29 13 89.5t4.5 193.5l1 215q0 39 -8 62t-24.5 42t-54.5 53q67 0 111.5 3.5t84.5 13.5l260 -414l247 400q28 -3 72 -5q48 0 88 2q-21 -21 -30.5 -49.5t-12.5 -89.5t-3 -193v-40q0 -132 3 -193t12.5 -89.5t30.5 -49.5q-40 2 -88 2h-5q-48 0 -88 -2
q21 20 30 49t12 89.5t3 193.5v264l-286 -426l-286 425v-239q0 -142 4 -207.5t15 -96t36 -52.5q-41 2 -92 2q-45 0 -82 -2q23 20 32.5 49z" />
    <glyph glyph-name="uni041D" unicode="&#x41d;" horiz-adv-x="798" 
d="M100 47q9 29 12 89.5t3 193.5v40q0 133 -3 193.5t-12 89.5t-30 49q40 -2 88 -2h5q48 0 88 2q-21 -20 -30 -48t-12 -86t-4 -184h388q-1 126 -4 184t-12 86t-30 48q40 -2 88 -2h5q48 0 88 2q-21 -20 -30 -49t-12 -89.5t-3 -193.5v-40q0 -133 3 -193.5t12 -89.5t30 -49
q-40 2 -88 2h-5q-48 0 -88 -2q21 20 30 48t12 86t4 184h-388q1 -126 4 -184t12 -86t30 -48q-40 2 -88 2h-5q-48 0 -88 -2q21 20 30 49z" />
    <glyph glyph-name="uni041E" unicode="&#x41e;" horiz-adv-x="844" 
d="M227.5 33.5q-81.5 45.5 -127.5 126t-46 183.5q0 106 48.5 190t134.5 131.5t194 47.5q104 0 185.5 -45.5t127.5 -126t46 -183.5q0 -106 -48.5 -190t-134.5 -131.5t-194 -47.5q-104 0 -185.5 45.5zM199.5 197q32.5 -70 92 -108.5t136.5 -38.5q74 0 130.5 36.5t87.5 102.5
t31 153q0 91 -33 161t-92.5 108.5t-136.5 38.5q-74 0 -130 -36.5t-87 -102.5t-31 -153q0 -91 32.5 -161z" />
    <glyph glyph-name="uni041F" unicode="&#x41f;" horiz-adv-x="797" 
d="M100 47q9 29 12 89.5t3 193.5v40q0 133 -3 193.5t-12 89.5t-30 49q40 -2 88 -2h481q47 0 88 2q-21 -21 -30.5 -49.5t-12.5 -89.5t-3 -193v-40q0 -132 3 -193t12.5 -89.5t30.5 -49.5q-41 2 -88 2h-6q-47 0 -87 -2q21 21 30 49.5t12 89.5t3 193v303h-386v-303
q0 -132 3 -193t12.5 -89.5t30.5 -49.5q-40 2 -88 2h-5q-48 0 -88 -2q21 20 30 49z" />
    <glyph glyph-name="uni0420" unicode="&#x420;" horiz-adv-x="671" 
d="M100 47q9 29 12 89.5t3 193.5v40q0 133 -3 193.5t-12 89.5t-30 49q40 -2 88 -2h197q86 0 149.5 -25.5t97.5 -73t34 -111.5t-34 -114t-95.5 -77.5t-140.5 -27.5h-161q1 -103 5 -153.5t13 -75.5t28 -44q-40 2 -88 2h-5q-48 0 -88 -2q21 20 30 49zM327 328q200 0 200 155
q0 77 -53.5 117.5t-155.5 40.5q-61 0 -113 -5v-296q57 -12 122 -12z" />
    <glyph glyph-name="uni0421" unicode="&#x421;" horiz-adv-x="717" 
d="M226 33.5q-81 45.5 -126.5 126t-45.5 183.5q0 106 48 190t132.5 131.5t191.5 47.5q34 0 95 -7q33 -5 54 -5q29 0 52 9v-46l32 -117q-73 44 -107 62.5t-70 28.5t-82 10q-68 0 -121 -36.5t-83 -102t-30 -151.5q0 -91 33.5 -160.5t94 -108t139.5 -38.5q67 0 122.5 34
t110.5 100v-157q-20 1 -36 -2t-42 -11q-42 -13 -79 -19.5t-99 -6.5q-103 0 -184 45.5z" />
    <glyph glyph-name="uni0422" unicode="&#x422;" horiz-adv-x="645" 
d="M262.5 50q9.5 30 12.5 94.5t3 203.5v293h-11q-168 -4 -259 -69l36 110v36q27 -10 98 -14t149 -4h63q78 0 149 4t98 14v-36l36 -110q-91 65 -259 69h-10v-293q0 -141 3 -204.5t12 -94t30 -51.5q-40 2 -88 2h-5q-48 0 -88 -2q21 22 30.5 52z" />
    <glyph glyph-name="uni0423" unicode="&#x423;" horiz-adv-x="722" 
d="M329 0q-78 0 -143 -3q60 64 129 168l-146 260q-80 143 -115.5 200t-53.5 77q47 -2 91 -2q42 0 89 2q-9 -18 -9 -36q0 -29 23 -85t80 -159l90 -164l49 90q78 149 108 217t30 100q0 22 -12 37q46 -2 87 -2t86 2q-42 -45 -87 -115t-125 -220l-102 -189q-22 -40 -50 -99
l-9 -20q168 4 259 53l-32 -96v-33q-59 17 -237 17z" />
    <glyph glyph-name="uni0424" unicode="&#x424;" horiz-adv-x="962" 
d="M416 24q9 20 13 57h-44q-101 0 -175.5 32t-114.5 91.5t-40 140.5t41 143t115.5 96.5t171.5 34.5h46q-4 37 -13 57t-26 36q41 -2 88 -2h6q47 0 87 2q-17 -16 -25.5 -35.5t-13.5 -57.5h45q101 0 175.5 -32t114.5 -91.5t40 -140.5t-41 -143t-115.5 -96.5t-171.5 -34.5h-46
q4 -37 13 -57t25 -36q-40 2 -87 2h-6q-47 0 -88 -2q17 16 26 36zM223 199.5q58 -56.5 159 -56.5h52q2 44 2 177v60q0 133 -2 177h-70q-93 0 -146 -54t-53 -148q0 -99 58 -155.5zM528 143h70q93 0 146 54t53 148q0 99 -58 155.5t-159 56.5h-52q-2 -44 -2 -177v-60
q0 -133 2 -177z" />
    <glyph glyph-name="uni0425" unicode="&#x425;" horiz-adv-x="736" 
d="M239 325l20 33l-48 82q-84 139 -120 189t-62 73q42 -2 81 -2t81 2q2 -30 25.5 -79t79.5 -147l53 -92h56l52 89q57 99 80.5 148t27.5 81q38 -2 72 -2q33 0 71 2q-28 -26 -65 -73.5t-125 -184.5l-40 -62l28 -52q100 -174 142.5 -237t72.5 -95q-42 2 -81 2t-82 -2
q-2 31 -25.5 81.5t-80.5 148.5l-51 88h-85l-46 -85q-62 -113 -81 -157.5t-18 -75.5q-40 2 -78 2q-37 0 -78 -2q62 63 224 327z" />
    <glyph glyph-name="uni0426" unicode="&#x426;" horiz-adv-x="809" 
d="M701 -2q-30 2 -62 2h-481q-48 0 -88 -2q21 20 30 49t12 89.5t3 193.5v40q0 133 -3 193.5t-12 89.5t-30 49q40 -2 88 -2h5q48 0 88 2q-21 -21 -30.5 -49.5t-12.5 -89.5t-3 -193v-303h386v303q0 132 -3 193t-12 89.5t-30 49.5q40 -2 87 -2h6q47 0 88 2q-21 -21 -30.5 -49.5
t-12.5 -89.5t-3 -193v-40q0 -108 2 -166t8 -91q24 3 48.5 9t47.5 13l-21 -108v-137h-111q28 54 46 148z" />
    <glyph glyph-name="uni0427" unicode="&#x427;" horiz-adv-x="730" 
d="M508 45.5q9 27.5 12.5 85.5t4.5 179q-110 -21 -188 -21q-124 0 -192.5 51t-68.5 174q-1 68 -10.5 115.5t-35.5 72.5q48 -2 91 -2q44 0 91 2q-24 -26 -33.5 -72t-9.5 -111q0 -89 47.5 -125.5t140.5 -36.5q47 0 83.5 6t84.5 19q0 125 -3.5 184.5t-12.5 87.5t-30 48
q40 -2 88 -2h5q48 0 88 2q-21 -20 -30 -49t-12 -89.5t-3 -193.5v-40q0 -133 3 -193.5t12 -89.5t30 -49q-40 2 -88 2h-5q-48 0 -88 -2q20 20 29 47.5z" />
    <glyph glyph-name="uni0428" unicode="&#x428;" horiz-adv-x="1111" 
d="M100 47q9 29 12 89.5t3 193.5v40q0 133 -3 193.5t-12 89.5t-30 49q40 -2 88 -2h5q48 0 88 2q-21 -21 -30.5 -49.5t-12.5 -89.5t-3 -193v-302h305v302q0 133 -3 193.5t-12 89.5t-30 49q40 -2 88 -2h5q48 0 88 2q-21 -21 -30.5 -49.5t-12.5 -89.5t-3 -193v-302h305v302
q0 133 -3 193.5t-12 89.5t-30 49q40 -2 88 -2h5q47 0 88 2q-21 -21 -30.5 -49.5t-12.5 -89.5t-3 -193v-40q0 -132 3 -193t12.5 -89.5t30.5 -49.5q-41 2 -88 2h-795q-48 0 -88 -2q21 20 30 49z" />
    <glyph glyph-name="uni0429" unicode="&#x429;" horiz-adv-x="1124" 
d="M1015 -2q-30 2 -62 2h-795q-48 0 -88 -2q21 20 30 49t12 89.5t3 193.5v40q0 133 -3 193.5t-12 89.5t-30 49q40 -2 88 -2h5q48 0 88 2q-21 -21 -30.5 -49.5t-12.5 -89.5t-3 -193v-302h305v302q0 133 -3 193.5t-12 89.5t-30 49q40 -2 88 -2h5q48 0 88 2
q-21 -21 -30.5 -49.5t-12.5 -89.5t-3 -193v-302h305v302q0 133 -3 193.5t-12 89.5t-30 49q40 -2 88 -2h5q47 0 88 2q-21 -21 -30.5 -49.5t-12.5 -89.5t-3 -193v-40q0 -108 2 -166t8 -91q24 3 48.5 9t47.5 13l-21 -108v-137h-111q28 54 46 148z" />
    <glyph glyph-name="uni042A" unicode="&#x42a;" horiz-adv-x="774" 
d="M195 47.5q9 28.5 12 89.5t3 193v310q-123 -9 -200 -57l31 98v37q27 -10 88 -14t129 -4q47 0 85 2q-20 -20 -29 -46.5t-12.5 -81.5t-3.5 -170h147q135 0 209.5 -52t74.5 -146q0 -60 -34.5 -107t-96 -73t-140.5 -26h-206q-47 0 -87 -2q21 21 30 49.5zM304 68q53 -8 134 -8
q87 0 133.5 36t46.5 103q0 71 -47.5 107t-140.5 36q-81 0 -132 -4v-9q0 -171 6 -261z" />
    <glyph glyph-name="uni042B" unicode="&#x42b;" horiz-adv-x="965" 
d="M100 47q9 29 12 89.5t3 193.5v40q0 133 -3 193.5t-12 89.5t-30 49q40 -2 88 -2h4q47 0 88 2q-21 -20 -30 -46.5t-12.5 -81.5t-3.5 -170h149q135 0 209.5 -52t74.5 -146q0 -60 -34 -107t-95.5 -73t-141.5 -26h-208q-48 0 -88 -2q21 20 30 49zM210 68q55 -8 137 -8
q87 0 133.5 36t46.5 103q0 71 -47.5 107t-140.5 36q-84 0 -135 -4v-9q0 -171 6 -261zM744.5 47.5q9.5 28.5 12.5 89.5t3 193v40q0 132 -3 193t-12.5 89.5t-30.5 49.5q41 -2 88 -2h5q48 0 88 2q-21 -20 -30 -49t-12 -89.5t-3 -193.5v-40q0 -133 3 -193.5t12 -89.5t30 -49
q-40 2 -88 2h-5q-47 0 -88 -2q21 21 30.5 49.5z" />
    <glyph glyph-name="uni042C" unicode="&#x42c;" horiz-adv-x="694" 
d="M100 47q9 29 12 89.5t3 193.5v40q0 133 -3 193.5t-12 89.5t-30 49q40 -2 88 -2h5q48 0 88 2q-20 -20 -29 -46.5t-12.5 -81.5t-4.5 -170h159q135 0 209.5 -52t74.5 -146q0 -60 -34 -107t-95.5 -73t-141.5 -26h-219q-48 0 -88 -2q21 20 30 49zM209 70q66 -10 149 -10
q87 0 133.5 36t46.5 103q0 71 -47.5 107t-140.5 36q-77 0 -145 -5v-8q0 -139 4 -259z" />
    <glyph glyph-name="uni042D" unicode="&#x42d;" horiz-adv-x="706" 
d="M223 -7q-31 5 -64 14l-32 8q-42 12 -76 11l-9 152q56 -61 122.5 -94t139.5 -33q69 0 121.5 34t82 95t32.5 142q-107 -2 -158 -5.5t-75.5 -12.5t-42.5 -28l1 26l1 48l-1 48l-1 26q18 -19 42.5 -28t75.5 -12.5t157 -5.5q-6 81 -39 142t-88 94.5t-124 33.5q-43 0 -75.5 -9.5
t-65 -28.5t-88.5 -59l31 110v44q20 -6 39 -6q20 0 68 6q68 7 101 7q106 0 186 -45.5t124 -127t44 -186.5q0 -104 -46 -187t-127 -130.5t-182 -47.5q-43 0 -74 5z" />
    <glyph glyph-name="uni042E" unicode="&#x42e;" horiz-adv-x="1110" 
d="M524 29q-75 41 -119 115.5t-49 171.5h-151q1 -126 4 -184t12 -86t30 -48q-40 2 -88 2h-5q-48 0 -88 -2q21 20 30 49t12 89.5t3 193.5v40q0 133 -3 193.5t-12 89.5t-30 49q40 -2 88 -2h5q48 0 88 2q-21 -20 -30 -48t-12 -86t-4 -184h151q9 97 56.5 171.5t125.5 115.5
t175 41q101 0 179 -44.5t121 -125.5t43 -185q0 -108 -46 -192t-128 -130.5t-187 -46.5q-96 0 -171 41zM492.5 195.5q30.5 -69.5 86.5 -107.5t131 -38q71 0 124.5 35.5t82 101.5t28.5 155q0 93 -30.5 163t-86.5 107.5t-131 37.5q-71 0 -124.5 -35.5t-82 -101.5t-28.5 -155
q0 -93 30.5 -162.5z" />
    <glyph glyph-name="uni042F" unicode="&#x42f;" horiz-adv-x="717" 
d="M83 89q50 63 157 220q-85 20 -129 71.5t-44 120.5q0 56 30 101t91 71.5t148 26.5h223q47 0 88 2q-21 -21 -30.5 -49.5t-12.5 -89.5t-3 -193v-40q0 -132 3 -193t12.5 -89.5t30.5 -49.5q-41 2 -88 2h-5q-48 0 -88 -2q20 20 29 46.5t12.5 82t3.5 170.5h-174l-45 -66
q-66 -99 -93.5 -150t-34.5 -83q-42 2 -82 2q-39 0 -81 -2q32 28 82 91zM232 389.5q56 -34.5 151 -34.5q36 0 78 4t50 5v269q-84 10 -136 10q-199 0 -199 -141q0 -78 56 -112.5z" />
    <glyph glyph-name="uni0430" unicode="&#x430;" horiz-adv-x="619" 
d="M433 99q-30 -50 -84.5 -79.5t-120.5 -29.5q-88 0 -138.5 42t-50.5 111q0 105 107.5 145.5t281.5 48.5v157h-78q-172 -1 -269 -61l31 95v35q26 -7 98.5 -10t146.5 -3q109 0 166 5q-6 -24 -8 -73.5t-2 -184.5v-27q0 -98 3 -144t12 -70.5t30 -38.5q-76 -13 -140 -30
q12 39 15 112zM168.5 84q28.5 -25 79.5 -25q77 0 127 47t53 124v44q-85 0 -145.5 -8t-101.5 -35t-41 -81q0 -41 28.5 -66z" />
    <glyph glyph-name="uni0431" unicode="&#x431;" horiz-adv-x="685" 
d="M213.5 23q-60.5 33 -94 95.5t-33.5 146.5v132q0 118 56 183t163 92l111 28q106 27 156 71v-126l-264 -62q-64 -15 -97.5 -36.5t-46 -50.5t-12.5 -74q0 -13 2 -37q35 53 93.5 83.5t130.5 30.5q74 0 131.5 -32t90 -88.5t32.5 -129.5q0 -74 -36 -133.5t-100 -92.5t-144 -33
q-78 0 -138.5 33zM204 146.5q22 -46.5 62 -72t92 -25.5q75 0 121.5 51.5t46.5 135.5q0 59 -22.5 105.5t-62.5 72t-91 25.5q-76 0 -122 -51.5t-46 -135.5q0 -59 22 -105.5z" />
    <glyph glyph-name="uni0432" unicode="&#x432;" horiz-adv-x="618" 
d="M93 37q8 24 11 71.5t3 144.5v44q0 97 -3 144.5t-11 71.5t-26 39q32 -2 70 -2q29 0 89 2l88 1q113 0 174.5 -37t61.5 -103q0 -43 -28.5 -75.5t-80.5 -50.5q63 -15 97 -49t34 -85q0 -70 -64 -111.5t-174 -41.5h-189q-42 0 -78 -2q18 15 26 39zM253.5 61.5
q28.5 -2.5 70.5 -2.5q71 0 107.5 24t36.5 69q0 50 -43 73t-142 23q-57 0 -89 -4v-174q31 -6 59.5 -8.5zM284 304q85 0 124.5 23.5t39.5 69.5q0 48 -38.5 71.5t-117.5 23.5q-65 0 -98 -4v-182q27 -2 90 -2z" />
    <glyph glyph-name="uni0433" unicode="&#x433;" horiz-adv-x="490" 
d="M93 37q8 24 11 71.5t3 144.5v44q0 97 -3 144.5t-11 71.5t-26 39q36 -2 78 -2h60q77 0 146 4t96 14v-39l31 -96q-91 56 -259 60h-25v-189q0 -118 3.5 -174t15 -85t36.5 -47q-45 2 -101 2q-44 0 -81 -2q18 15 26 39z" />
    <glyph glyph-name="uni0434" unicode="&#x434;" horiz-adv-x="670" 
d="M33 9l-16 80q33 -12 72 -19q30 49 48.5 135t20.5 192q0 61 -9.5 94t-34.5 61q44 -2 129 -2h272q42 0 78 2q-18 -15 -26 -39t-11 -71.5t-3 -144.5v-43q0 -76 1.5 -118t5.5 -68q49 9 81 21l-18 -97v-122h-104q22 46 39 130h-301q-72 0 -154 -2q15 -78 38 -128h-108v139z
M221 63l246 -1v427h-222q-14 -147 -31 -240.5t-46 -185.5h53z" />
    <glyph glyph-name="uni0435" unicode="&#x435;" horiz-adv-x="653" 
d="M189 24.5q-66 34.5 -104 97.5t-38 145q0 85 37.5 152t102.5 104t146 37q86 0 149 -38t95.5 -108.5t28.5 -164.5h-458q11 -86 68.5 -134t147.5 -48q57 0 109.5 19.5t92.5 54.5q-1 -43 -32 -77.5t-83 -54t-114 -19.5q-82 0 -148 34.5zM504 315q-7 85 -56 135.5t-124 50.5
q-78 0 -127 -52.5t-53 -142.5z" />
    <glyph glyph-name="uni0436" unicode="&#x436;" horiz-adv-x="914" 
d="M37.5 24.5q22.5 21.5 59.5 71.5t87 132l53 87l-54 72q-43 57 -75 90.5t-44 43.5t-40 31q39 -2 76 -2t76 2q9 -30 27 -63.5t67 -108.5l51 -73h93v143q0 99 -2.5 144.5t-12 70t-30.5 38.5q72 12 153 34q-22 -66 -22 -233v-197h96l52 73q50 75 68 108t27 64q38 -2 74 -2
q35 0 74 2q-3 -2 -23 -16t-57 -52.5t-80 -95.5l-53 -71l54 -89q51 -82 83 -126.5t47 -60.5t44 -43q-42 2 -80 2q-39 0 -81 -2q-1 30 -17.5 64.5t-68.5 120.5l-39 60h-120q1 -93 3.5 -138t11 -68.5t25.5 -38.5q-36 2 -78 2h-10q-42 0 -78 -2q18 15 26 38.5t11 68.5t3 138
h-123l-40 -60q-50 -83 -66.5 -118.5t-17.5 -66.5q-42 2 -79 2q-38 0 -79 -2q6 5 28.5 26.5z" />
    <glyph glyph-name="uni0437" unicode="&#x437;" horiz-adv-x="551" 
d="M135 -159.5q-51 21.5 -79 57.5t-28 78q0 70 61 101q-2 -13 -2 -35q0 -45 21.5 -82t61.5 -58.5t92 -21.5q69 0 110 42.5t41 111.5q0 76 -49.5 121t-135.5 45q-25 0 -58 -5l190 298q-113 -1 -187 -15.5t-131 -41.5l30 92v40q27 -10 96 -14t142 -4q120 0 204 4l-215 -304
q96 -8 155.5 -66t59.5 -146q0 -64 -33.5 -113.5t-93 -77.5t-135.5 -28q-66 0 -117 21.5z" />
    <glyph glyph-name="uni0438" unicode="&#x438;" horiz-adv-x="694" 
d="M103 422q-3 46 -12.5 70.5t-30.5 38.5q73 12 154 34q-22 -66 -22 -233v-176l311 396h35q68 0 118 5q-40 -39 -54.5 -70.5t-14.5 -91.5v-142q0 -99 2.5 -145.5t10.5 -70.5t26 -39q-36 2 -77 2h-11q-41 0 -77 -2q18 15 26 39t10.5 71.5t2.5 144.5v181l-375 -445h-19v289
q0 98 -3 144z" />
    <glyph glyph-name="uni0439" unicode="&#x439;" horiz-adv-x="694" 
d="M103 422q-3 46 -12.5 70.5t-30.5 38.5q73 12 154 34q-22 -66 -22 -233v-176l311 396h35q68 0 118 5q-40 -39 -54.5 -70.5t-14.5 -91.5v-142q0 -99 2.5 -145.5t10.5 -70.5t26 -39q-36 2 -77 2h-11q-41 0 -77 -2q18 15 26 39t10.5 71.5t2.5 144.5v181l-375 -445h-19v289
q0 98 -3 144zM132 792l11 20q118 -46 209 -76q98 34 201 78l11 -19q-109 -82 -216 -172q-106 88 -216 169z" />
    <glyph glyph-name="uni043A" unicode="&#x43a;" horiz-adv-x="625" 
d="M93 37q8 24 11 71.5t3 144.5v197q0 99 -2.5 144.5t-12 70t-30.5 38.5q72 12 153 34q-21 -63 -21 -233v-197h96l61 73q55 72 76 106t33 66q38 -2 74 -2q35 0 73 2q-32 -23 -68.5 -56t-102.5 -111l-61 -72l57 -85q56 -82 91 -126.5t49.5 -59t47.5 -43.5q-53 2 -82 1
q-40 0 -83 -2q-4 30 -22 64.5t-75 120.5l-42 60h-122q0 -93 2.5 -138t10.5 -68.5t26 -38.5q-36 2 -78 2h-10q-42 0 -78 -2q18 15 26 39z" />
    <glyph glyph-name="uni043B" unicode="&#x43b;" horiz-adv-x="657" 
d="M27 -3v92l77 -20q30 46 49.5 135.5t19.5 206.5q0 52 -10.5 84t-35.5 58q51 -3 143 -3h242q42 0 78 2q-18 -15 -26 -39t-11 -71.5t-3 -144.5v-44q0 -97 3 -144.5t11 -71.5t26 -39q-36 2 -78 2h-11q-42 0 -78 -2q18 15 26 39t11 71.5t3 144.5v234h-201q-39 -301 -78 -406
q-19 -53 -45 -72t-66 -19q-25 0 -46 7z" />
    <glyph glyph-name="uni043C" unicode="&#x43c;" horiz-adv-x="817" 
d="M91.5 37q8.5 24 11 71t3.5 145l1 174q0 41 -14 66t-55 60q83 0 171 9l204 -309l196 300q32 -3 56 -3q49 0 94 2q-22 -15 -32 -39t-13.5 -71t-3.5 -145v-44q0 -97 3 -144.5t11 -71.5t26 -39q-36 2 -78 2h-10q-42 0 -78 -2q18 15 26 39t11 71.5t3 144.5v192l-225 -321
l-225 318v-189q0 -97 4 -144.5t15.5 -71.5t36.5 -39q-44 2 -96 2q-38 0 -69 -2q18 15 26.5 39z" />
    <glyph glyph-name="uni043D" unicode="&#x43d;" horiz-adv-x="682" 
d="M93 37q8 24 11 71.5t3 144.5v25q0 99 -2.5 144.5t-12 70t-30.5 38.5q72 12 153 34q-21 -66 -21 -224v-35h294q0 93 -2.5 138.5t-10.5 69t-26 38.5q36 -2 77 -2h11q41 0 77 2q-18 -15 -26 -39t-10.5 -71.5t-2.5 -144.5v-44q0 -97 2.5 -144.5t10.5 -71.5t26 -39
q-36 2 -77 2h-11q-41 0 -77 -2q18 15 26 38.5t10.5 69t2.5 138.5h-294q0 -93 2.5 -138.5t10.5 -69t26 -38.5q-36 2 -78 2h-10q-42 0 -78 -2q18 15 26 39z" />
    <glyph glyph-name="uni043E" unicode="&#x43e;" horiz-adv-x="697" 
d="M188.5 25.5q-66.5 35.5 -104 99t-37.5 145.5q0 83 40 149.5t110.5 103.5t158.5 37q86 0 152.5 -35.5t104 -99t37.5 -145.5q0 -83 -40 -149.5t-110.5 -103.5t-158.5 -37q-86 0 -152.5 35.5zM179 162.5q25 -53.5 70.5 -83t104.5 -29.5q56 0 98.5 27t66.5 75.5t24 112.5
q0 69 -25 122.5t-70.5 83t-104.5 29.5q-56 0 -98.5 -27t-66.5 -75.5t-24 -112.5q0 -69 25 -122.5z" />
    <glyph glyph-name="uni043F" unicode="&#x43f;" horiz-adv-x="682" 
d="M93 37q8 24 11 71.5t3 144.5v44q0 97 -3 144.5t-11 71.5t-26 39q36 -2 78 -2h392q41 0 77 2q-18 -15 -26 -39t-10.5 -71.5t-2.5 -144.5v-44q0 -97 2.5 -144.5t10.5 -71.5t26 -39q-36 2 -77 2h-11q-41 0 -77 -2q18 15 26 39t10.5 70.5t2.5 145.5v234h-294v-234
q0 -99 2.5 -145.5t10.5 -70.5t26 -39q-36 2 -78 2h-10q-42 0 -78 -2q18 15 26 39z" />
    <glyph glyph-name="uni0440" unicode="&#x440;" horiz-adv-x="699" 
d="M93 -133q8 24 11 71.5t3 144.5v197q0 99 -2.5 144.5t-12 70t-30.5 38.5q82 14 141 30q-11 -36 -14 -108q33 50 86 78t118 28q75 0 134 -35.5t92 -99.5t33 -145q0 -84 -35.5 -150t-98.5 -103.5t-142 -37.5q-58 0 -104.5 22t-78.5 63q1 -86 6 -132.5t15.5 -71.5t31.5 -43
q-40 2 -87 2h-15q-42 0 -77 -2q18 15 26 39zM248.5 102.5q48.5 -51.5 122.5 -51.5q51 0 90.5 27.5t61.5 76.5t22 113q0 67 -23 118.5t-64 79.5t-94 28q-71 0 -117 -48t-53 -132l-1 -72q7 -88 55.5 -139.5z" />
    <glyph glyph-name="uni0441" unicode="&#x441;" horiz-adv-x="576" 
d="M174.5 28q-63.5 38 -95.5 101.5t-32 137.5q0 77 35.5 144t103 108t158.5 41q21 0 71 -6l40 -3q20 0 42 9v-43l28 -98q-71 47 -113 64.5t-87 17.5q-56 0 -96 -29.5t-60 -77.5t-20 -102q0 -59 23.5 -111.5t70 -85.5t112.5 -33q64 0 112 28t93 81q1 -46 -26 -88t-80 -67.5
t-127 -25.5q-89 0 -152.5 38z" />
    <glyph glyph-name="uni0442" unicode="&#x442;" horiz-adv-x="553" 
d="M220 37q8 24 10.5 71.5t2.5 144.5v243q-142 -9 -223 -63l31 95v40q24 -10 89 -14t135 -4h22q71 0 135.5 4t89.5 14v-40l31 -95q-80 54 -223 63v-243q0 -99 2.5 -145.5t10.5 -70.5t26 -39q-36 2 -77 2h-11q-42 0 -77 -2q18 15 26 39z" />
    <glyph glyph-name="uni0443" unicode="&#x443;" horiz-adv-x="631" 
d="M238.5 -110.5q23.5 30.5 50.5 90.5l-145 320q-59 132 -89 183.5t-50 67.5q42 0 56 1h27q29 0 83 5q-6 -13 -6 -31q0 -27 16.5 -75.5t56.5 -141.5l101 -233l92 231q35 89 49 138t14 76q0 16 -5 31q36 -2 69 -2t69 2q-18 -17 -44.5 -67.5t-82.5 -186.5l-105 -254
q-40 -96 -54 -140t-15 -76q-38 2 -74 2q-35 0 -74 -2q37 31 60.5 61.5z" />
    <glyph glyph-name="uni0444" unicode="&#x444;" horiz-adv-x="830" 
d="M361.5 -120.5q8.5 33.5 9.5 113.5h-22q-88 0 -156.5 35.5t-107 98.5t-38.5 143q0 82 41 147.5t113.5 102.5t162.5 37h7q-2 70 -11.5 100t-33.5 46q73 12 154 34q-18 -57 -22 -180h23q88 0 156.5 -35.5t107 -98.5t38.5 -143q0 -82 -41 -147.5t-113.5 -102.5t-162.5 -37h-7
q1 -80 9.5 -113.5t29.5 -51.5q-36 2 -78 2h-10q-42 0 -78 -2q21 18 29.5 51.5zM178 163q27 -52 75 -81t109 -29h10v444h-19q-59 0 -105 -27t-71.5 -76t-25.5 -113q0 -66 27 -118zM477 53q59 0 105 27t71.5 76t25.5 113q0 66 -27 118t-75 81t-109 29h-10v-444h19z" />
    <glyph glyph-name="uni0445" unicode="&#x445;" horiz-adv-x="622" 
d="M76 70.5q35 45.5 119 177.5l19 30l-44 70q-65 105 -96 145t-53 59q39 -2 76 -2q35 0 74 2q-3 -18 8.5 -46t46.5 -87l67 -113h48l43 69q45 77 63.5 115.5t19.5 61.5q35 -2 66 -2l22 -1q5 0 45 2q-23 -20 -53.5 -57.5t-99.5 -141.5l-38 -57l33 -55q101 -166 131.5 -202
t34.5 -40q-38 2 -73 2q-36 0 -74 -2q1 24 -17 64t-62 113l-40 67h-73l-36 -64q-43 -76 -59.5 -115t-16.5 -65q-37 2 -71 2t-72 -2q27 27 62 72.5z" />
    <glyph glyph-name="uni0446" unicode="&#x446;" horiz-adv-x="692" 
d="M579 -1q-20 1 -42 1h-392q-42 0 -78 -2q18 15 26 39t11 71.5t3 144.5v25q0 99 -2.5 144.5t-12 70t-30.5 38.5q72 12 153 34q-21 -63 -21 -233v-269h294v234q0 99 -2.5 145.5t-10.5 70.5t-26 39q36 -2 77 -2h11q41 0 77 2q-18 -15 -26 -39t-10.5 -71.5t-2.5 -144.5v-44
q0 -140 6 -184q38 6 82 20l-19 -97v-122h-104q24 47 39 129z" />
    <glyph glyph-name="uni0447" unicode="&#x447;" horiz-adv-x="626" 
d="M419 36q8 23 11 67.5t3 132.5q-85 -17 -150 -17q-88 0 -145.5 35t-61.5 118q-3 57 -7.5 86t-13 45.5t-24.5 27.5q72 12 153 34q-22 -66 -22 -166q0 -65 34 -91.5t106 -26.5q64 0 131 21q0 95 -3 141t-11 70t-26 39q36 -2 78 -2h10q42 0 78 2q-18 -15 -26 -39t-11 -71.5
t-3 -144.5v-44q0 -97 3 -144.5t11 -71.5t26 -39q-36 2 -78 2h-10q-42 0 -78 -2q18 15 26 38z" />
    <glyph glyph-name="uni0448" unicode="&#x448;" horiz-adv-x="940" 
d="M93 37q8 24 11 71.5t3 144.5v25q0 99 -2.5 144.5t-12 70t-30.5 38.5q72 12 153 34q-21 -63 -21 -233v-269h233v387q0 98 -3 144t-12 70.5t-30 38.5q72 12 153 34q-22 -66 -22 -233v-441h234v234q0 97 -3 144.5t-11 71.5t-26 39q36 -2 78 -2h10q42 0 78 2q-18 -15 -26 -39
t-11 -71.5t-3 -144.5v-44q0 -97 3 -144.5t11 -71.5t26 -39q-36 2 -78 2h-650q-42 0 -78 -2q18 15 26 39z" />
    <glyph glyph-name="uni0449" unicode="&#x449;" horiz-adv-x="950" 
d="M837 -1q-20 1 -42 1h-650q-42 0 -78 -2q18 15 26 39t11 71.5t3 144.5v25q0 99 -2.5 144.5t-12 70t-30.5 38.5q72 12 153 34q-21 -63 -21 -233v-269h233v387q0 98 -3 144t-12 70.5t-30 38.5q72 12 153 34q-22 -66 -22 -233v-441h234v234q0 97 -3 144.5t-11 71.5t-26 39
q36 -2 78 -2h10q42 0 78 2q-18 -15 -26 -39t-11 -71.5t-3 -144.5v-44q0 -75 1.5 -116.5t5.5 -67.5q37 6 81 20l-18 -97v-122h-105q24 47 39 129z" />
    <glyph glyph-name="uni044A" unicode="&#x44a;" horiz-adv-x="636" 
d="M164 37q8 24 10.5 70.5t2.5 145.5v238q-103 -4 -166 -40l23 72v45q41 -16 206 -18q13 0 61 2q-17 -15 -25.5 -37t-11.5 -65t-3 -127h106q114 0 175 -41.5t61 -117.5q0 -48 -27.5 -85.5t-78.5 -58t-119 -20.5h-162q-42 0 -78 -2q18 15 26 39zM361 57q68 0 103.5 26
t35.5 76q0 106 -155 106q-43 0 -84 -4v-198q36 -6 100 -6z" />
    <glyph glyph-name="uni044B" unicode="&#x44b;" horiz-adv-x="829" 
d="M93 37q8 24 11 71.5t3 144.5v25q0 99 -2.5 144.5t-12 70t-30.5 38.5q72 12 153 34q-21 -66 -21 -221v-21h108q115 0 175.5 -41.5t60.5 -117.5q0 -48 -27.5 -85.5t-78.5 -58t-119 -20.5h-168q-42 0 -78 -2q18 15 26 39zM296 57q68 0 103.5 26t35.5 76q0 53 -38 79.5
t-117 26.5q-45 0 -86 -4v-198q45 -6 102 -6zM622 37q8 24 11 71.5t3 144.5v44q0 97 -3 144.5t-11 71.5t-26 39q36 -2 78 -2h10q42 0 78 2q-18 -15 -26 -39t-11 -71.5t-3 -144.5v-44q0 -97 3 -144.5t11 -71.5t26 -39q-36 2 -78 2h-10q-42 0 -78 -2q18 15 26 39z" />
    <glyph glyph-name="uni044C" unicode="&#x44c;" horiz-adv-x="582" 
d="M93 37q8 24 11 71.5t3 144.5v25q0 99 -2.5 144.5t-12 70t-30.5 38.5q72 12 153 34q-21 -66 -21 -221v-21h119q114 0 175 -41.5t61 -117.5q0 -48 -27.5 -85.5t-78.5 -58t-119 -20.5h-179q-42 0 -78 -2q18 15 26 39zM307 57q68 0 103.5 26t35.5 76q0 106 -155 106
q-52 0 -97 -5v-195q44 -8 113 -8z" />
    <glyph glyph-name="uni044D" unicode="&#x44d;" horiz-adv-x="588" 
d="M92.5 38.5q-63.5 48.5 -64.5 135.5q42 -55 96 -86.5t126 -31.5q80 0 130 54t55 139q-78 -2 -118.5 -5.5t-61 -11t-36.5 -21.5q2 30 2 65q0 33 -2 63q16 -14 36.5 -21.5t61 -11t118.5 -4.5q-5 52 -30.5 97.5t-69.5 73t-99 27.5q-44 0 -85.5 -17t-90.5 -58l26 92v45
q23 -11 47 -11l39 3q50 6 72 6q92 0 159 -38.5t102 -103.5t35 -145q0 -84 -39 -148.5t-104.5 -99.5t-140.5 -35q-100 0 -163.5 48.5z" />
    <glyph glyph-name="uni044E" unicode="&#x44e;" horiz-adv-x="933" 
d="M452.5 22q-61.5 32 -98.5 89.5t-42 132.5h-118q0 -93 2.5 -138.5t10.5 -69t26 -38.5q-36 2 -78 2h-10q-42 0 -78 -2q18 15 26 39t11 71.5t3 144.5v25q0 99 -2.5 144.5t-12 70t-30.5 38.5q72 12 153 34q-21 -66 -21 -224v-35h119q8 74 48 132t103.5 90.5t141.5 32.5
q81 0 145 -35.5t99.5 -99.5t35.5 -145q0 -84 -38 -150t-105 -103.5t-152 -37.5q-77 0 -138.5 32zM436 162.5q24 -53.5 67 -83t98 -29.5q53 0 93 27t62.5 75.5t22.5 112.5q0 69 -24 122.5t-66.5 83t-97.5 29.5q-53 0 -93.5 -27t-63 -75.5t-22.5 -112.5q0 -69 24 -122.5z" />
    <glyph glyph-name="uni044F" unicode="&#x44f;" horiz-adv-x="632" 
d="M88 70q42 48 118 152l8 10q-70 17 -106.5 59t-36.5 97q0 72 58.5 118.5t175.5 46.5l85 -1q56 -2 89 -2h7q42 0 78 2q-18 -15 -26 -39t-10.5 -70.5t-2.5 -145.5v-44q0 -99 2.5 -145.5t10.5 -70.5t26 -39q-36 2 -78 2h-10q-42 0 -78 -2q17 14 25 36t11 63.5t4 124.5h-138
l-16 -24q-65 -92 -89 -134.5t-23 -65.5q-40 2 -78 2q-37 0 -78 -2q30 24 72 72zM336 280q36 0 102 6v204q-45 4 -110 4q-156 0 -156 -105q0 -109 164 -109z" />
    <glyph glyph-name="uni0451" unicode="&#x451;" horiz-adv-x="653" 
d="M189 24.5q-66 34.5 -104 97.5t-38 145q0 85 37.5 152t102.5 104t146 37q86 0 149 -38t95.5 -108.5t28.5 -164.5h-458q11 -86 68.5 -134t147.5 -48q57 0 109.5 19.5t92.5 54.5q-1 -43 -32 -77.5t-83 -54t-114 -19.5q-82 0 -148 34.5zM504 315q-7 85 -56 135.5t-124 50.5
q-78 0 -127 -52.5t-53 -142.5zM133 722q24 21 45 42t42 45q21 -24 42 -45t45 -42q-46 -40 -87 -87q-40 47 -87 87zM355 722q24 21 45 42t42 45q21 -24 42 -45t45 -42q-46 -40 -87 -87q-40 47 -87 87z" />
    <glyph glyph-name="uni0454" unicode="&#x454;" horiz-adv-x="576" 
d="M174.5 28q-63.5 38 -95.5 101.5t-32 137.5q0 77 35.5 144t103 108t158.5 41q21 0 71 -6l40 -3q20 0 42 9v-43l28 -98q-71 47 -113 64.5t-87 17.5q-55 0 -94.5 -28t-60.5 -73.5t-23 -97.5q81 1 122.5 4.5t62 10.5t36.5 22l-2 -63l2 -65q-16 14 -36.5 21.5t-61.5 11
t-120 5.5q12 -80 64.5 -133.5t138.5 -53.5q65 0 113 28t94 82q1 -47 -26 -88.5t-80 -67.5t-127 -26q-89 0 -152.5 38z" />
    <glyph glyph-name="uni0456" unicode="&#x456;" horiz-adv-x="303" 
d="M95 37q8 24 10.5 70.5t2.5 145.5v25q0 99 -2.5 144.5t-12 70t-30.5 38.5q75 13 154 34q-22 -66 -22 -233v-79q0 -97 2.5 -144.5t10.5 -71.5t26 -39q-36 2 -77 2h-11q-41 0 -77 -2q18 15 26 39zM62 722q24 21 45 42t42 45q21 -24 42 -45t45 -42q-46 -40 -87 -87
q-40 47 -87 87z" />
    <glyph glyph-name="uni0457" unicode="&#x457;" horiz-adv-x="303" 
d="M95 37q8 24 10.5 70.5t2.5 145.5v25q0 99 -2.5 144.5t-12 70t-30.5 38.5q75 13 154 34q-22 -66 -22 -233v-79q0 -97 2.5 -144.5t10.5 -71.5t26 -39q-36 2 -77 2h-11q-41 0 -77 -2q18 15 26 39zM-49 722q24 21 45 42t42 45q21 -24 42 -45t45 -42q-46 -40 -87 -87
q-40 47 -87 87zM173 722q24 21 45 42t42 45q21 -24 42 -45t45 -42q-46 -40 -87 -87q-40 47 -87 87z" />
    <glyph glyph-name="uni045E" unicode="&#x45e;" horiz-adv-x="631" 
d="M238.5 -110.5q23.5 30.5 50.5 90.5l-145 320q-59 132 -89 183.5t-50 67.5q42 0 56 1h27q29 0 83 5q-6 -13 -6 -31q0 -27 16.5 -75.5t56.5 -141.5l101 -233l92 231q35 89 49 138t14 76q0 16 -5 31q36 -2 69 -2t69 2q-18 -17 -44.5 -67.5t-82.5 -186.5l-105 -254
q-40 -96 -54 -140t-15 -76q-38 2 -74 2q-35 0 -74 -2q37 31 60.5 61.5zM103 792l11 20q118 -46 209 -76q98 34 201 78l11 -19q-109 -82 -216 -172q-106 88 -216 169z" />
    <glyph glyph-name="uni0490" unicode="&#x490;" horiz-adv-x="569" 
d="M100 47q9 29 12 89.5t3 193.5v40q0 133 -3 193.5t-12 89.5t-30 49q40 -2 88 -2h118q101 0 179 6q-15 92 -41 144h111v-167l36 -111q-112 65 -325 68h-31v-310q0 -132 3 -193t12.5 -89.5t30.5 -49.5q-40 2 -88 2h-5q-48 0 -88 -2q21 20 30 49z" />
    <glyph glyph-name="uni0491" unicode="&#x491;" horiz-adv-x="487" 
d="M93 37q8 24 11 71.5t3 144.5v44q0 97 -3 144.5t-11 71.5t-26 39q36 -2 78 -2h60q102 0 176 7q-16 74 -38 123h104v-151l31 -96q-91 56 -259 60h-25v-189q0 -118 3.5 -174t15 -85t36.5 -47q-48 2 -105 2q-42 0 -77 -2q18 15 26 39z" />
    <glyph glyph-name="Wgrave" unicode="&#x1e80;" horiz-adv-x="968" 
d="M180.5 145.5q-20.5 83.5 -24.5 101.5l-15 60l-17 72q-36 149 -62.5 221t-51.5 102q47 -2 90 -2q44 0 91 2q-20 -20 -20 -63q0 -36 12.5 -95t42.5 -181l9 -39l57 -229l199 449l206 -454l60 259l8 32q28 120 38 171t10 83q0 44 -23 67q44 -2 85 -2q39 0 83 2
q-20 -22 -35 -52t-34.5 -93t-47.5 -177l-20 -82q-43 -174 -67 -298q-50 0 -112 -10l-164 364l-152 -354q-49 0 -112 -10q-13 72 -33.5 155.5zM324 939h143q25 -77 54 -143h-57q-68 76 -140 143z" />
    <glyph glyph-name="wgrave" unicode="&#x1e81;" horiz-adv-x="836" 
d="M139 215l-22 87q-31 125 -49.5 176t-36.5 74q39 -2 76 -2q35 0 75 2q-13 -10 -13 -44q0 -32 10 -81.5t30 -134.5l48 -194l172 352l174 -348l46 200q14 64 23 113.5t9 87.5q0 37 -11 49q35 -2 67 -2t68 2q-18 -26 -36 -76t-50 -173l-23 -88l-6 -24q-32 -134 -42 -193
q-43 1 -89 -6l-144 290l-138 -284q-43 1 -88 -6q-15 88 -50 223zM256 789h143q25 -77 54 -143h-57q-68 76 -140 143z" />
    <glyph glyph-name="Wacute" unicode="&#x1e82;" horiz-adv-x="968" 
d="M180.5 145.5q-20.5 83.5 -24.5 101.5l-15 60l-17 72q-36 149 -62.5 221t-51.5 102q47 -2 90 -2q44 0 91 2q-20 -20 -20 -63q0 -36 12.5 -95t42.5 -181l9 -39l57 -229l199 449l206 -454l60 259l8 32q28 120 38 171t10 83q0 44 -23 67q44 -2 85 -2q39 0 83 2
q-20 -22 -35 -52t-34.5 -93t-47.5 -177l-20 -82q-43 -174 -67 -298q-50 0 -112 -10l-164 364l-152 -354q-49 0 -112 -10q-13 72 -33.5 155.5zM516 939h138q-72 -67 -140 -143h-54q26 57 56 143z" />
    <glyph glyph-name="wacute" unicode="&#x1e83;" horiz-adv-x="836" 
d="M139 215l-22 87q-31 125 -49.5 176t-36.5 74q39 -2 76 -2q35 0 75 2q-13 -10 -13 -44q0 -32 10 -81.5t30 -134.5l48 -194l172 352l174 -348l46 200q14 64 23 113.5t9 87.5q0 37 -11 49q35 -2 67 -2t68 2q-18 -26 -36 -76t-50 -173l-23 -88l-6 -24q-32 -134 -42 -193
q-43 1 -89 -6l-144 290l-138 -284q-43 1 -88 -6q-15 88 -50 223zM448 789h138q-72 -67 -140 -143h-54q26 57 56 143z" />
    <glyph glyph-name="Wdieresis" unicode="&#x1e84;" horiz-adv-x="968" 
d="M180.5 145.5q-20.5 83.5 -24.5 101.5l-15 60l-17 72q-36 149 -62.5 221t-51.5 102q47 -2 90 -2q44 0 91 2q-20 -20 -20 -63q0 -36 12.5 -95t42.5 -181l9 -39l57 -229l199 449l206 -454l60 259l8 32q28 120 38 171t10 83q0 44 -23 67q44 -2 85 -2q39 0 83 2
q-20 -22 -35 -52t-34.5 -93t-47.5 -177l-20 -82q-43 -174 -67 -298q-50 0 -112 -10l-164 364l-152 -354q-49 0 -112 -10q-13 72 -33.5 155.5zM291 872q24 21 45 42t42 45q21 -24 42 -45t45 -42q-46 -40 -87 -87q-40 47 -87 87zM513 872q24 21 45 42t42 45q21 -24 42 -45
t45 -42q-46 -40 -87 -87q-40 47 -87 87z" />
    <glyph glyph-name="wdieresis" unicode="&#x1e85;" horiz-adv-x="836" 
d="M139 215l-22 87q-31 125 -49.5 176t-36.5 74q39 -2 76 -2q35 0 75 2q-13 -10 -13 -44q0 -32 10 -81.5t30 -134.5l48 -194l172 352l174 -348l46 200q14 64 23 113.5t9 87.5q0 37 -11 49q35 -2 67 -2t68 2q-18 -26 -36 -76t-50 -173l-23 -88l-6 -24q-32 -134 -42 -193
q-43 1 -89 -6l-144 290l-138 -284q-43 1 -88 -6q-15 88 -50 223zM223 722q24 21 45 42t42 45q21 -24 42 -45t45 -42q-46 -40 -87 -87q-40 47 -87 87zM445 722q24 21 45 42t42 45q21 -24 42 -45t45 -42q-46 -40 -87 -87q-40 47 -87 87z" />
    <glyph glyph-name="uni1E9E" unicode="&#x1e9e;" horiz-adv-x="814" 
d="M448 -5.5q-29 5.5 -72 16.5q-39 12 -58 12h-4l-9 126q48 -45 101.5 -69.5t106.5 -24.5q72 0 112.5 38t40.5 102q0 75 -54 114t-144 39q-14 0 -44 -2l152 287h-365q-6 -90 -6 -263v-40q0 -132 2.5 -193t10.5 -89.5t25 -49.5q-35 2 -71 2h-14q-48 0 -88 -2q21 20 30 49
t12 89.5t3 193.5v40q0 133 -3 193.5t-12 89.5t-30 49q40 -2 88 -2h206q255 0 370 6l-191 -308q111 -8 170 -61t59 -131q0 -55 -31.5 -105t-89.5 -81t-134 -31q-40 0 -69 5.5z" />
    <glyph glyph-name="uni1EBC" unicode="&#x1ebc;" horiz-adv-x="628" 
d="M213 0h-55q-48 0 -88 -2q21 20 30 49t12 89.5t3 193.5v40q0 133 -3 193.5t-12 89.5t-30 49q40 -2 88 -2h109q85 0 159 4.5t103 13.5v-34l36 -108q-90 63 -274 66h-86v-263q85 2 128 5.5t65 11.5t39 23q-2 -32 -2 -69t2 -69q-17 15 -39 23t-65 11.5t-128 5.5
q0 -163 5 -260q32 -2 53 -2q116 1 202.5 20t142.5 50l-37 -104v-39q-67 14 -358 14zM171 833q0 42 27 68.5t69 26.5q25 0 42.5 -9.5t41.5 -27.5q17 -13 26 -18t20 -5q37 0 50 60h24q4 -15 4 -32q0 -41 -26.5 -68t-69.5 -27q-25 0 -42.5 9.5t-41.5 27.5q-17 13 -26 18t-20 5
q-37 0 -50 -60h-24q-4 15 -4 32z" />
    <glyph glyph-name="uni1EBD" unicode="&#x1ebd;" horiz-adv-x="653" 
d="M189 24.5q-66 34.5 -104 97.5t-38 145q0 85 37.5 152t102.5 104t146 37q86 0 149 -38t95.5 -108.5t28.5 -164.5h-458q11 -86 68.5 -134t147.5 -48q57 0 109.5 19.5t92.5 54.5q-1 -43 -32 -77.5t-83 -54t-114 -19.5q-82 0 -148 34.5zM504 315q-7 85 -56 135.5t-124 50.5
q-78 0 -127 -52.5t-53 -142.5zM179 683q0 42 27 68.5t69 26.5q25 0 42.5 -9.5t41.5 -27.5q17 -13 26 -18t20 -5q37 0 50 60h24q4 -15 4 -32q0 -41 -26.5 -68t-69.5 -27q-25 0 -42.5 9.5t-41.5 27.5q-17 13 -26 18t-20 5q-37 0 -50 -60h-24q-4 15 -4 32z" />
    <glyph glyph-name="Ygrave" unicode="&#x1ef2;" horiz-adv-x="721" 
d="M298 41q9 24 13 72.5t5 146.5l-101 161q-86 139 -131 195t-80 86q50 -2 97 -2t97 2q-14 -16 -14 -32q0 -21 19 -56t79 -131q5 -8 56 -91l36 -57l34 55l47 79q62 104 82 142t20 60q0 16 -15 31q46 -2 88 -2q41 0 87 2q-30 -19 -74.5 -76t-136.5 -205l-100 -159
q1 -98 4.5 -147.5t12.5 -74t28 -42.5q-40 2 -88 2h-5q-48 0 -88 -2q19 19 28 43zM201 939h143q25 -77 54 -143h-57q-68 76 -140 143z" />
    <glyph glyph-name="ygrave" unicode="&#x1ef3;" horiz-adv-x="631" 
d="M238.5 -110.5q23.5 30.5 50.5 90.5l-145 320q-59 132 -89 183.5t-50 67.5q42 0 56 1h27q29 0 83 5q-6 -13 -6 -31q0 -27 16.5 -75.5t56.5 -141.5l101 -233l92 231q35 89 49 138t14 76q0 16 -5 31q36 -2 69 -2t69 2q-18 -17 -44.5 -67.5t-82.5 -186.5l-105 -254
q-40 -96 -54 -140t-15 -76q-38 2 -74 2q-35 0 -74 -2q37 31 60.5 61.5zM154 789h143q25 -77 54 -143h-57q-68 76 -140 143z" />
    <glyph glyph-name="uni1EF8" unicode="&#x1ef8;" horiz-adv-x="721" 
d="M298 41q9 24 13 72.5t5 146.5l-101 161q-86 139 -131 195t-80 86q50 -2 97 -2t97 2q-14 -16 -14 -32q0 -21 19 -56t79 -131q5 -8 56 -91l36 -57l34 55l47 79q62 104 82 142t20 60q0 16 -15 31q46 -2 88 -2q41 0 87 2q-30 -19 -74.5 -76t-136.5 -205l-100 -159
q1 -98 4.5 -147.5t12.5 -74t28 -42.5q-40 2 -88 2h-5q-48 0 -88 -2q19 19 28 43zM214 833q0 42 27 68.5t69 26.5q25 0 42.5 -9.5t41.5 -27.5q17 -13 26 -18t20 -5q37 0 50 60h24q4 -15 4 -32q0 -41 -26.5 -68t-69.5 -27q-25 0 -42.5 9.5t-41.5 27.5q-17 13 -26 18t-20 5
q-37 0 -50 -60h-24q-4 15 -4 32z" />
    <glyph glyph-name="uni1EF9" unicode="&#x1ef9;" horiz-adv-x="631" 
d="M238.5 -110.5q23.5 30.5 50.5 90.5l-145 320q-59 132 -89 183.5t-50 67.5q42 0 56 1h27q29 0 83 5q-6 -13 -6 -31q0 -27 16.5 -75.5t56.5 -141.5l101 -233l92 231q35 89 49 138t14 76q0 16 -5 31q36 -2 69 -2t69 2q-18 -17 -44.5 -67.5t-82.5 -186.5l-105 -254
q-40 -96 -54 -140t-15 -76q-38 2 -74 2q-35 0 -74 -2q37 31 60.5 61.5zM167 683q0 42 27 68.5t69 26.5q25 0 42.5 -9.5t41.5 -27.5q17 -13 26 -18t20 -5q37 0 50 60h24q4 -15 4 -32q0 -41 -26.5 -68t-69.5 -27q-25 0 -42.5 9.5t-41.5 27.5q-17 13 -26 18t-20 5
q-37 0 -50 -60h-24q-4 15 -4 32z" />
    <glyph glyph-name="uni2000" unicode="&#x2000;" horiz-adv-x="500" 
 />
    <glyph glyph-name="uni2001" unicode="&#x2001;" horiz-adv-x="1000" 
 />
    <glyph glyph-name="uni200A" unicode="&#x200a;" horiz-adv-x="110" 
 />
    <glyph glyph-name="uni200B" unicode="&#x200b;" horiz-adv-x="0" 
 />
    <glyph glyph-name="endash" unicode="&#x2013;" horiz-adv-x="652" 
d="M71 356h509v-72h-509v72z" />
    <glyph glyph-name="emdash" unicode="&#x2014;" horiz-adv-x="842" 
d="M71 356h699v-72h-699v72z" />
    <glyph glyph-name="quoteleft" unicode="&#x2018;" horiz-adv-x="231" 
d="M118 582q50 -46 78 -67q-45 -41 -90 -92q-42 26 -60 49t-18 52q0 41 31 95t78 101l30 -15q-37 -54 -49 -123z" />
    <glyph glyph-name="quoteright" unicode="&#x2019;" horiz-adv-x="231" 
d="M113 551q-50 46 -78 67q45 41 90 92q42 -26 60 -49t18 -52q0 -41 -31 -95t-78 -101l-30 15q37 54 49 123z" />
    <glyph glyph-name="quotesinglbase" unicode="&#x201a;" horiz-adv-x="231" 
d="M113 10q-50 46 -78 67q45 41 90 92q42 -26 60 -49t18 -52q0 -41 -31 -95t-78 -101l-30 15q37 54 49 123z" />
    <glyph glyph-name="quotedblleft" unicode="&#x201c;" horiz-adv-x="424" 
d="M311 582q50 -46 78 -67q-45 -41 -90 -92q-42 26 -60 49t-18 52q0 41 31 95t78 101l30 -15q-37 -54 -49 -123zM59 619q31 54 78 101l30 -15q-37 -54 -49 -123q50 -46 78 -67q-45 -41 -90 -92q-42 26 -60 49t-18 52q0 41 31 95z" />
    <glyph glyph-name="quotedblright" unicode="&#x201d;" horiz-adv-x="424" 
d="M113 551q-50 46 -78 67q45 41 90 92q42 -26 60 -49t18 -52q0 -41 -31 -95t-78 -101l-30 15q37 54 49 123zM307 551q-50 46 -78 67q45 41 90 92q42 -26 60 -49t18 -52q0 -41 -31 -95t-78 -101l-30 15q37 54 49 123z" />
    <glyph glyph-name="quotedblbase" unicode="&#x201e;" horiz-adv-x="424" 
d="M113 10q-50 46 -78 67q45 41 90 92q42 -26 60 -49t18 -52q0 -41 -31 -95t-78 -101l-30 15q37 54 49 123zM307 10q-50 46 -78 67q45 41 90 92q42 -26 60 -49t18 -52q0 -41 -31 -95t-78 -101l-30 15q37 54 49 123z" />
    <glyph glyph-name="dagger" unicode="&#x2020;" horiz-adv-x="444" 
d="M198 562l-142 -8v57l142 -8l-9 97h66l-9 -97l142 8v-57l-142 8l9 -231h-66z" />
    <glyph glyph-name="daggerdbl" unicode="&#x2021;" horiz-adv-x="444" 
d="M197 428l-141 -7v57l141 -7l-7 45l7 45l-141 -7v57l141 -7l-8 96h66l-8 -96l141 7v-57l-141 7l7 -45l-7 -45l141 7v-57l-141 7l8 -97h-66z" />
    <glyph glyph-name="bullet" unicode="&#x2022;" horiz-adv-x="570" 
d="M188.5 223.5q-38.5 38.5 -38.5 96.5t38.5 96.5t96.5 38.5t96.5 -38.5t38.5 -96.5t-38.5 -96.5t-96.5 -38.5t-96.5 38.5z" />
    <glyph glyph-name="ellipsis" unicode="&#x2026;" horiz-adv-x="849" 
d="M62 79q51 45 92 90q45 -49 91 -90q-45 -38 -91 -89q-43 47 -92 89zM333 79q51 45 92 90q45 -49 91 -90q-45 -38 -91 -89q-43 47 -92 89zM603 79q51 45 92 90q45 -49 91 -90q-45 -38 -91 -89q-43 47 -92 89z" />
    <glyph glyph-name="perthousand" unicode="&#x2030;" horiz-adv-x="1221" 
d="M79 392.5q-45 48.5 -45 130.5q0 83 48 133t128 50q76 0 121 -48.5t45 -129.5q0 -83 -48.5 -133.5t-127.5 -50.5q-76 0 -121 48.5zM140 428q25 -40 69 -40q41 0 63 31.5t22 90.5q0 71 -25 112t-69 41q-41 0 -63 -31.5t-22 -90.5q0 -73 25 -113zM563 700h65l-361 -700h-65z
M501 42.5q-45 48.5 -45 130.5q0 83 48 133t128 50q76 0 121 -48.5t45 -129.5q0 -83 -48.5 -133.5t-127.5 -50.5q-76 0 -121 48.5zM562 78q25 -40 69 -40q41 0 63 31.5t22 90.5q0 71 -25 112t-69 41q-41 0 -63 -31.5t-22 -90.5q0 -73 25 -113zM890 42.5q-45 48.5 -45 130.5
q0 83 48 133t128 50q76 0 121 -48.5t45 -129.5q0 -83 -48.5 -133.5t-127.5 -50.5q-76 0 -121 48.5zM951 78q25 -40 69 -40q41 0 63 31.5t22 90.5q0 71 -25 112t-69 41q-41 0 -63 -31.5t-22 -90.5q0 -73 25 -113z" />
    <glyph glyph-name="minute" unicode="&#x2032;" horiz-adv-x="236" 
d="M80 646v54h113q-41 -117 -75 -237h-43q5 78 5 183z" />
    <glyph glyph-name="second" unicode="&#x2033;" horiz-adv-x="405" 
d="M80 646v54h113q-41 -117 -75 -237h-43q5 78 5 183zM249 646v54h113q-41 -117 -75 -237h-43q5 78 5 183z" />
    <glyph glyph-name="guilsinglleft" unicode="&#x2039;" horiz-adv-x="294" 
d="M145 324l97 -234h-48q-74 114 -160 230q88 117 163 230h47z" />
    <glyph glyph-name="guilsinglright" unicode="&#x203a;" horiz-adv-x="294" 
d="M150 316l-98 234h48q61 -94 160 -230q-101 -137 -163 -230h-47z" />
    <glyph glyph-name="fraction" unicode="&#x2044;" horiz-adv-x="35" 
d="M165 700h65l-361 -700h-65z" />
    <glyph glyph-name="uni2070" unicode="&#x2070;" horiz-adv-x="410" 
d="M79 492.5q-45 48.5 -45 130.5q0 83 48 133t128 50q76 0 121 -48.5t45 -129.5q0 -83 -48.5 -133.5t-127.5 -50.5q-76 0 -121 48.5zM140 528q25 -40 69 -40q41 0 63 31.5t22 90.5q0 71 -25 112t-69 41q-41 0 -63 -31.5t-22 -90.5q0 -73 25 -113z" />
    <glyph glyph-name="uni2074" unicode="&#x2074;" horiz-adv-x="378" 
d="M218.5 477.5q6.5 17.5 8.5 59.5h-219l68 109q39 62 55 93.5t16 45.5q0 10 -8 16l89 -1q46 0 59 1h36q-13 -10 -19 -25t-8 -45.5t-2 -95.5v-52q33 4 72 13l-15 -42v-27q-17 5 -55 8q1 -42 7.5 -59t22.5 -27q-24 1 -66 1q-39 0 -63 -1q15 11 21.5 28.5zM142 575q47 0 86 3
v182h-32l-94 -185h40z" />
    <glyph glyph-name="uni2075" unicode="&#x2075;" horiz-adv-x="330" 
d="M59.5 464q-35.5 20 -35.5 50q0 16 10 30.5t30 22.5q7 -36 31 -56.5t59 -20.5q33 0 53 15.5t20 38.5q0 34 -26.5 58t-72.5 24q-45 0 -81 -17v103q0 62 -1 94q13 -4 112 -6q82 1 131 12l-16 -49v-30q-25 14 -144 14h-19l-15 -85q35 10 68 10q59 0 100 -29t41 -81t-42.5 -85
t-112.5 -33q-54 0 -89.5 20z" />
    <glyph glyph-name="uni2076" unicode="&#x2076;" horiz-adv-x="352" 
d="M71.5 490.5q-42.5 46.5 -42.5 131.5q0 84 47.5 133.5t122.5 49.5q52 0 80 -20.5t28 -56.5q0 -11 -3 -23q-22 23 -54.5 38.5t-66.5 15.5q-42 0 -63 -33.5t-19 -93.5q19 20 46 30.5t58 10.5q57 0 91.5 -31.5t34.5 -76.5q0 -50 -39.5 -85.5t-109.5 -35.5q-68 0 -110.5 46.5z
M132.5 512q21.5 -25 55.5 -25q31 0 49 20t18 47q0 31 -17.5 52t-53.5 21q-24 0 -45.5 -12.5t-30.5 -33.5q3 -44 24.5 -69z" />
    <glyph glyph-name="uni2077" unicode="&#x2077;" horiz-adv-x="308" 
d="M91 512.5q32 48.5 70 112.5l74 124h-11q-132 0 -213 -27l22 67v23q28 -12 161 -12q68 0 122 3l-85 -161q-35 -66 -58 -122t-25 -71q-27 2 -52 2t-52 -2q15 15 47 63.5z" />
    <glyph glyph-name="uni2078" unicode="&#x2078;" horiz-adv-x="381" 
d="M73 470.5q-45 26.5 -45 69.5q0 29 22 50t61 33q-76 27 -76 86q0 45 45 71t111 26q67 0 110 -26t43 -67q0 -25 -21 -45.5t-58 -31.5q42 -13 65 -34t23 -55q0 -29 -21 -52.5t-58.5 -37t-84.5 -13.5q-71 0 -116 26.5zM129.5 502q24.5 -16 66.5 -16q35 0 56.5 14.5t21.5 38.5
q0 27 -26.5 43.5t-82.5 26.5q-60 -18 -60 -64q0 -27 24.5 -43zM132.5 674.5q21.5 -13.5 67.5 -23.5q32 7 49.5 22t17.5 36q0 26 -21.5 41.5t-57.5 15.5q-35 0 -56 -14t-21 -37q0 -27 21.5 -40.5z" />
    <glyph glyph-name="uni2079" unicode="&#x2079;" horiz-adv-x="352" 
d="M281.5 759.5q42.5 -46.5 42.5 -131.5q0 -84 -47.5 -133.5t-123.5 -49.5q-52 0 -80 20.5t-28 56.5q0 11 3 23q22 -23 55 -38.5t67 -15.5q42 0 62.5 33.5t18.5 93.5q-18 -20 -45.5 -30.5t-58.5 -10.5q-57 0 -91.5 31.5t-34.5 76.5q0 50 39.5 85.5t109.5 35.5
q69 0 111.5 -46.5zM115 644q18 -21 54 -21q24 0 45.5 12t30.5 34q-4 44 -26 69t-55 25q-31 0 -49 -20t-18 -47q0 -31 18 -52z" />
    <glyph glyph-name="uni207A" unicode="&#x207a;" horiz-adv-x="319" 
d="M133 599h-102v52h102v102h55v-102h101v-52h-101v-102h-55v102z" />
    <glyph glyph-name="uni207B" unicode="&#x207b;" horiz-adv-x="319" 
d="M31 651h258v-52h-258v52z" />
    <glyph glyph-name="uni207C" unicode="&#x207c;" horiz-adv-x="319" 
d="M31 715h258v-51h-258v51zM31 585h258v-50h-258v50z" />
    <glyph glyph-name="uni207D" unicode="&#x207d;" horiz-adv-x="247" 
d="M98.5 486q-37.5 62 -37.5 140q0 77 37.5 138.5t101.5 93.5h27q-42 -39 -65.5 -99.5t-23.5 -131.5q0 -73 24.5 -134t67.5 -101h-30q-64 32 -101.5 94z" />
    <glyph glyph-name="uni207E" unicode="&#x207e;" horiz-adv-x="247" 
d="M165 763.5q38 -62.5 38 -139.5t-37.5 -138.5t-102.5 -93.5h-27q42 39 65.5 99.5t23.5 131.5q0 73 -24 134t-67 101h30q63 -32 101 -94.5z" />
    <glyph glyph-name="uni2080" unicode="&#x2080;" horiz-adv-x="410" 
d="M79 -57.5q-45 48.5 -45 130.5q0 83 48 133t128 50q76 0 121 -48.5t45 -129.5q0 -83 -48.5 -133.5t-127.5 -50.5q-76 0 -121 48.5zM140 -22q25 -40 69 -40q41 0 63 31.5t22 90.5q0 71 -25 112t-69 41q-41 0 -63 -31.5t-22 -90.5q0 -73 25 -113z" />
    <glyph glyph-name="uni2081" unicode="&#x2081;" horiz-adv-x="224" 
d="M71 -75q8 15 10.5 48t2.5 104v40q0 39 -3 55t-16 25.5t-44 17.5q95 28 141 44q-7 -25 -10 -56.5t-3 -86.5v-29q0 -76 2.5 -110.5t10.5 -50t26 -27.5l-71 1l-72 -1q18 11 26 26z" />
    <glyph glyph-name="uni2082" unicode="&#x2082;" horiz-adv-x="341" 
d="M136 -100q-80 0 -114 -1q2 43 31 73.5t85 68.5q47 31 69.5 55t22.5 56q0 29 -18.5 45.5t-52.5 16.5q-29 0 -47 -16.5t-18 -38.5q0 -28 16 -54q-35 1 -57.5 14t-22.5 50q0 22 16.5 42t49 32.5t76.5 12.5q65 0 102.5 -26.5t37.5 -70.5q0 -31 -20 -57t-44.5 -44t-65.5 -43
q-37 -22 -54.5 -34.5t-25.5 -28.5q153 1 221 23l-20 -59v-23q-31 7 -167 7z" />
    <glyph glyph-name="uni2083" unicode="&#x2083;" horiz-adv-x="342" 
d="M58 -84.5q-39 21.5 -39 56.5q0 16 13 30t43 17q5 -39 29.5 -59.5t61.5 -20.5q32 0 50 16t18 39q0 30 -21.5 47.5t-52.5 17.5q-15 0 -27 -3v44q17 -3 32 -3q27 0 45.5 16.5t18.5 42.5q0 24 -19 41t-51 17q-34 0 -51 -15.5t-17 -42.5q0 -11 3 -23q-31 -2 -49 10.5t-18 35.5
q0 17 15 35t46.5 30t77.5 12q66 0 104.5 -26.5t38.5 -66.5q0 -28 -19 -49.5t-53 -33.5q36 -11 56.5 -33t20.5 -52q0 -43 -44.5 -72t-110.5 -29q-62 0 -101 21.5z" />
    <glyph glyph-name="uni2084" unicode="&#x2084;" horiz-adv-x="378" 
d="M218.5 -72.5q6.5 17.5 8.5 59.5h-219l68 109q39 62 55 93.5t16 45.5q0 10 -8 16l89 -1q46 0 59 1h36q-13 -10 -19 -25t-8 -45.5t-2 -95.5v-52q33 4 72 13l-15 -42v-27q-17 5 -55 8q1 -42 7.5 -59t22.5 -27q-24 1 -66 1q-39 0 -63 -1q15 11 21.5 28.5zM142 25q47 0 86 3
v182h-32l-94 -185h40z" />
    <glyph glyph-name="uni2085" unicode="&#x2085;" horiz-adv-x="330" 
d="M59.5 -86q-35.5 20 -35.5 50q0 16 10 30.5t30 22.5q7 -36 31 -56.5t59 -20.5q33 0 53 15.5t20 38.5q0 34 -26.5 58t-72.5 24q-45 0 -81 -17v103q0 62 -1 94q13 -4 112 -6q82 1 131 12l-16 -49v-30q-25 14 -144 14h-19l-15 -85q35 10 68 10q59 0 100 -29t41 -81t-42.5 -85
t-112.5 -33q-54 0 -89.5 20z" />
    <glyph glyph-name="uni2086" unicode="&#x2086;" horiz-adv-x="352" 
d="M71.5 -59.5q-42.5 46.5 -42.5 131.5q0 84 47.5 133.5t122.5 49.5q52 0 80 -20.5t28 -56.5q0 -11 -3 -23q-22 23 -54.5 38.5t-66.5 15.5q-42 0 -63 -33.5t-19 -93.5q19 20 46 30.5t58 10.5q57 0 91.5 -31.5t34.5 -76.5q0 -50 -39.5 -85.5t-109.5 -35.5q-68 0 -110.5 46.5z
M132.5 -38q21.5 -25 55.5 -25q31 0 49 20t18 47q0 31 -17.5 52t-53.5 21q-24 0 -45.5 -12.5t-30.5 -33.5q3 -44 24.5 -69z" />
    <glyph glyph-name="uni2087" unicode="&#x2087;" horiz-adv-x="308" 
d="M91 -37.5q32 48.5 70 112.5l74 124h-11q-132 0 -213 -27l22 67v23q28 -12 161 -12q68 0 122 3l-85 -161q-35 -66 -58 -122t-25 -71q-27 2 -52 2t-52 -2q15 15 47 63.5z" />
    <glyph glyph-name="uni2088" unicode="&#x2088;" horiz-adv-x="381" 
d="M73 -79.5q-45 26.5 -45 69.5q0 29 22 50t61 33q-76 27 -76 86q0 45 45 71t111 26q67 0 110 -26t43 -67q0 -25 -21 -45.5t-58 -31.5q42 -13 65 -34t23 -55q0 -29 -21 -52.5t-58.5 -37t-84.5 -13.5q-71 0 -116 26.5zM129.5 -48q24.5 -16 66.5 -16q35 0 56.5 14.5t21.5 38.5
q0 27 -26.5 43.5t-82.5 26.5q-60 -18 -60 -64q0 -27 24.5 -43zM132.5 124.5q21.5 -13.5 67.5 -23.5q32 7 49.5 22t17.5 36q0 26 -21.5 41.5t-57.5 15.5q-35 0 -56 -14t-21 -37q0 -27 21.5 -40.5z" />
    <glyph glyph-name="uni2089" unicode="&#x2089;" horiz-adv-x="352" 
d="M281.5 209.5q42.5 -46.5 42.5 -131.5q0 -84 -47.5 -133.5t-123.5 -49.5q-52 0 -80 20.5t-28 56.5q0 11 3 23q22 -23 55 -38.5t67 -15.5q42 0 62.5 33.5t18.5 93.5q-18 -20 -45.5 -30.5t-58.5 -10.5q-57 0 -91.5 31.5t-34.5 76.5q0 50 39.5 85.5t109.5 35.5
q69 0 111.5 -46.5zM115 94q18 -21 54 -21q24 0 45.5 12t30.5 34q-4 44 -26 69t-55 25q-31 0 -49 -20t-18 -47q0 -31 18 -52z" />
    <glyph glyph-name="uni208A" unicode="&#x208a;" horiz-adv-x="319" 
d="M133 49h-102v52h102v102h55v-102h101v-52h-101v-102h-55v102z" />
    <glyph glyph-name="uni208B" unicode="&#x208b;" horiz-adv-x="319" 
d="M31 101h258v-52h-258v52z" />
    <glyph glyph-name="uni208C" unicode="&#x208c;" horiz-adv-x="319" 
d="M31 165h258v-51h-258v51zM31 35h258v-50h-258v50z" />
    <glyph glyph-name="uni208D" unicode="&#x208d;" horiz-adv-x="247" 
d="M98.5 -64q-37.5 62 -37.5 140q0 77 37.5 138.5t101.5 93.5h27q-42 -39 -65.5 -99.5t-23.5 -131.5q0 -73 24.5 -134t67.5 -101h-30q-64 32 -101.5 94z" />
    <glyph glyph-name="uni208E" unicode="&#x208e;" horiz-adv-x="247" 
d="M165 213.5q38 -62.5 38 -139.5t-37.5 -138.5t-102.5 -93.5h-27q42 39 65.5 99.5t23.5 131.5q0 73 -24 134t-67 101h30q63 -32 101 -94.5z" />
    <glyph glyph-name="Euro" unicode="&#x20ac;" horiz-adv-x="656" 
d="M218.5 55.5q-69.5 67.5 -89.5 189.5h-91v59h84q-1 13 -1 39q0 28 3 53h-86v59h94q26 119 102 188t180 69q28 0 75 -7q27 -5 43 -5q22 0 39 8v-45l27 -103q-62 44 -111.5 66t-97.5 22q-63 0 -106 -48.5t-58 -144.5h219v-59h-224q-1 -12 -1 -37q0 -21 2 -55h223v-59h-214
q18 -92 68.5 -138t123.5 -46q53 0 97.5 24.5t75.5 72.5q3 -12 3 -23q0 -35 -24 -69t-69 -56t-106 -22q-111 0 -180.5 67.5z" />
    <glyph glyph-name="uni20B4" unicode="&#x20b4;" horiz-adv-x="656" 
d="M151.5 28q-55.5 40 -55.5 110q0 28 12.5 56.5t33.5 50.5h-91v59h150l127 92h-277v59h338q23 19 35.5 45t12.5 51q0 42 -32 70.5t-104 28.5q-47 0 -89.5 -18t-91.5 -63l25 89v45q23 -9 42 -9q13 0 38 5q53 11 98 11q97 0 149 -39t52 -109q0 -27 -13.5 -56t-35.5 -51h129
v-59h-180l-127 -92h307v-59h-372q-22 -16 -35 -40.5t-13 -49.5q0 -40 35 -67.5t107 -27.5q69 0 121.5 24.5t99.5 78.5q4 -49 -28 -89t-88.5 -63t-122.5 -23q-101 0 -156.5 40z" />
    <glyph glyph-name="uni2116" unicode="&#x2116;" horiz-adv-x="1218" 
d="M185 587v-233q0 -142 4 -207.5t15 -96t36 -52.5q-40 2 -91 2q-47 0 -86 -2q24 24 35 58.5t14.5 107.5t4.5 232v149q0 38 -8.5 61.5t-26 42t-58.5 53.5h40q50 0 85.5 2.5t71.5 10.5l411 -541v190q-1 134 -5.5 196t-15.5 91.5t-36 50.5q40 -2 91 -2q47 0 86 2
q-24 -24 -34.5 -58.5t-14 -108t-3.5 -231.5v-314h-20zM819 616.5q26 42.5 72 66t104 23.5q56 0 100 -22.5t68 -63.5t24 -93q0 -53 -26 -95.5t-72.5 -66t-104.5 -23.5q-56 0 -99.5 22.5t-67.5 63.5t-24 93q0 53 26 95.5zM837 246h307v-58h-307v58zM908 429q33 -40 86 -40
q50 0 80 34.5t30 90.5q0 65 -32.5 105t-85.5 40q-50 0 -80.5 -34t-30.5 -91q0 -65 33 -105z" />
    <glyph glyph-name="trademark" unicode="&#x2122;" horiz-adv-x="914" 
d="M425 372.5q6 15.5 8 46t2 91.5v110q0 26 -8.5 43t-34.5 39q38 -1 116 7l125 -192l119 184h100q-12 -10 -17.5 -26.5t-7 -45.5t-1.5 -91v-28q0 -62 1.5 -91.5t7 -45.5t17.5 -26q-24 1 -53 1h-9q-29 0 -54 -1q12 10 17.5 25.5t7.5 46t2 91.5v117l-140 -202l-138 195l1 -110
q1 -60 3.5 -90.5t10.5 -46.5t24 -26q-22 1 -70 1q-32 0 -47 -1q12 10 18 25.5zM35 686v26q15 -6 58 -9t87 -3h16q45 0 87 3t58 9v-28l21 -66q-54 35 -143 42v-150q0 -61 2 -91.5t8 -46t18 -25.5l-55 1h-8l-54 -1q12 10 17.5 25.5t7.5 46t2 91.5v150q-89 -7 -144 -42z" />
    </font>
</defs>
</svg>
