<svg width="16" height="16" viewBox="0 0 16 16" fill="none" xmlns="http://www.w3.org/2000/svg">
<mask id="mask0_3011_39017" style="mask-type:alpha" maskUnits="userSpaceOnUse" x="1" y="1" width="14" height="14">
<path fill-rule="evenodd" clip-rule="evenodd" d="M7.9987 1.33301C4.3187 1.33301 1.33203 4.31967 1.33203 7.99967C1.33203 11.6797 4.3187 14.6663 7.9987 14.6663C11.6787 14.6663 14.6654 11.6797 14.6654 7.99967C14.6654 4.31967 11.6787 1.33301 7.9987 1.33301ZM7.9987 13.333C5.0587 13.333 2.66536 10.9397 2.66536 7.99968C2.66536 5.05967 5.0587 2.66634 7.9987 2.66634C10.9387 2.66634 13.332 5.05967 13.332 7.99968C13.332 10.9397 10.9387 13.333 7.9987 13.333ZM6.66536 9.44634L10.5854 5.52634C10.8454 5.26634 11.272 5.26634 11.532 5.52634C11.792 5.78634 11.792 6.20634 11.532 6.46634L7.1387 10.8597C6.8787 11.1197 6.4587 11.1197 6.1987 10.8597L4.47203 9.13301C4.21203 8.87301 4.21203 8.45301 4.47203 8.19301C4.59659 8.06817 4.76569 7.99802 4.94203 7.99802C5.11838 7.99802 5.28748 8.06817 5.41203 8.19301L6.66536 9.44634Z" fill="black"/>
</mask>
<g mask="url(#mask0_3011_39017)">
<rect width="16" height="16" fill="#107C10"/>
</g>
</svg>
