<svg width="20" height="20" viewBox="0 0 20 20" fill="none" xmlns="http://www.w3.org/2000/svg">
<path d="M0.984131 10C1.76746 5.73333 5.50663 2.5 9.99996 2.5C14.4933 2.5 18.2316 5.73333 19.0158 10C18.2325 14.2667 14.4933 17.5 9.99996 17.5C5.50663 17.5 1.7683 14.2667 0.984131 10V10ZM9.99996 14.1667C11.105 14.1667 12.1648 13.7277 12.9462 12.9463C13.7276 12.1649 14.1666 11.1051 14.1666 10C14.1666 8.89493 13.7276 7.83512 12.9462 7.05372C12.1648 6.27232 11.105 5.83333 9.99996 5.83333C8.89489 5.83333 7.83509 6.27232 7.05369 7.05372C6.27228 7.83512 5.8333 8.89493 5.8333 10C5.8333 11.1051 6.27228 12.1649 7.05369 12.9463C7.83509 13.7277 8.89489 14.1667 9.99996 14.1667ZM9.99996 12.5C9.33692 12.5 8.70104 12.2366 8.2322 11.7678C7.76336 11.2989 7.49996 10.663 7.49996 10C7.49996 9.33696 7.76336 8.70107 8.2322 8.23223C8.70104 7.76339 9.33692 7.5 9.99996 7.5C10.663 7.5 11.2989 7.76339 11.7677 8.23223C12.2366 8.70107 12.5 9.33696 12.5 10C12.5 10.663 12.2366 11.2989 11.7677 11.7678C11.2989 12.2366 10.663 12.5 9.99996 12.5Z" fill="#053330" fill-opacity="0.4"/>
</svg>
