<svg width="15" height="14" viewBox="0 0 15 14" fill="none" xmlns="http://www.w3.org/2000/svg">
<mask id="mask0_1196_33372" style="mask-type:alpha" maskUnits="userSpaceOnUse" x="1" y="1" width="13" height="12">
<path fill-rule="evenodd" clip-rule="evenodd" d="M1.19531 7.00033C1.19531 3.78033 3.8666 1.16699 7.16538 1.16699C10.4701 1.16699 13.1474 3.78033 13.1474 7.00033C13.1474 10.2203 10.4701 12.8337 7.16538 12.8337C3.8666 12.8337 1.19531 10.2203 1.19531 7.00033ZM7.76896 4.66699C7.76896 4.34616 7.50004 4.08366 7.17136 4.08366C6.84268 4.08366 6.57375 4.34616 6.57375 4.66699V7.00033C6.57375 7.32116 6.84268 7.58366 7.17136 7.58366C7.50004 7.58366 7.76896 7.32116 7.76896 7.00033V4.66699ZM7.17136 11.667C4.52995 11.667 2.39052 9.57866 2.39052 7.00032C2.39052 4.42199 4.52995 2.33366 7.17136 2.33366C9.81277 2.33366 11.9522 4.42199 11.9522 7.00032C11.9522 9.57866 9.81277 11.667 7.17136 11.667ZM6.57375 8.75033V9.91699H7.76896V8.75033H6.57375Z" fill="black"/>
</mask>
<g mask="url(#mask0_1196_33372)">
<rect width="14.3425" height="14" fill="#C63A39"/>
</g>
</svg>
